<svg width="24" height="24" viewBox="0 0 24 24" fill="none" xmlns="http://www.w3.org/2000/svg">
<g clip-path="url(#clip0_1:213)">
<path d="M11.5172 5.46125C11.7194 4.66632 11.9211 3.88168 12.0886 3.27611C12.1119 3.32885 12.1357 3.38327 12.1601 3.43928C12.4774 4.16765 12.8801 5.13795 13.2834 6.11628C13.3744 6.33707 13.4655 6.55828 13.5556 6.77708C13.8636 7.52535 14.16 8.24548 14.4038 8.82445C14.5612 9.19824 14.6985 9.51773 14.8039 9.75005C14.8563 9.86539 14.9034 9.9652 14.9427 10.0414C14.962 10.0788 14.9833 10.1179 15.0051 10.1531C15.0158 10.1705 15.0308 10.1934 15.0492 10.2174C15.0617 10.2338 15.101 10.2845 15.164 10.3302C15.2421 10.387 15.3181 10.4077 15.3407 10.4137C15.3744 10.4228 15.4044 10.4277 15.4248 10.4305C15.4663 10.4362 15.509 10.4388 15.5455 10.4402C15.6209 10.4431 15.7157 10.4426 15.821 10.4402C16.034 10.4353 16.3234 10.4216 16.6587 10.4028C17.1815 10.3734 17.8303 10.3306 18.5019 10.2863C18.6929 10.2737 18.8858 10.261 19.0781 10.2484C19.8968 10.1949 20.7056 10.1442 21.3337 10.1162C21.291 10.1543 21.247 10.1934 21.2016 10.2335C20.6064 10.7602 19.8072 11.4427 19.0007 12.1283C18.8186 12.283 18.6362 12.4379 18.4558 12.5911C17.8388 13.115 17.2449 13.6193 16.7691 14.0298C16.462 14.2949 16.2003 14.5241 16.0118 14.6961C15.9182 14.7814 15.8377 14.8571 15.7774 14.918C15.7478 14.9479 15.7171 14.9801 15.6903 15.0117C15.6771 15.0273 15.6599 15.0486 15.6428 15.0735C15.6311 15.0905 15.5949 15.1435 15.5708 15.2175C15.5409 15.3095 15.5447 15.3883 15.5459 15.4116C15.5477 15.4465 15.5523 15.4766 15.556 15.4969C15.5634 15.5381 15.5741 15.5795 15.584 15.6147C15.6045 15.6873 15.6343 15.7772 15.6692 15.8766C15.7397 16.0775 15.8421 16.3483 15.9637 16.6611C16.1532 17.1487 16.3944 17.752 16.644 18.3763C16.7151 18.5541 16.7868 18.7335 16.8583 18.9125C17.1622 19.674 17.4604 20.4269 17.6811 21.0151C17.6314 20.9861 17.5801 20.9561 17.5275 20.9252C16.8423 20.5223 15.9458 19.9738 15.0439 19.4192C14.8404 19.294 14.6365 19.1685 14.4349 19.0443C13.7455 18.6199 13.0822 18.2114 12.5444 17.8862C12.1972 17.6763 11.8982 17.4984 11.6762 17.3724C11.566 17.3098 11.4692 17.2568 11.3926 17.2182C11.355 17.1993 11.3148 17.1801 11.2765 17.1645C11.2576 17.1568 11.232 17.147 11.2031 17.1384C11.1833 17.1326 11.1217 17.1146 11.044 17.1146C10.9474 17.1146 10.8738 17.1425 10.8519 17.1508C10.8194 17.1632 10.7922 17.177 10.774 17.1867C10.7371 17.2064 10.701 17.2294 10.6706 17.2497C10.6079 17.2916 10.5315 17.3477 10.4477 17.4115C10.2782 17.5406 10.0522 17.7216 9.79202 17.9338C9.38642 18.2646 8.88674 18.6802 8.36962 19.1103C8.2224 19.2328 8.07377 19.3564 7.92549 19.4796C7.2943 20.004 6.66951 20.5203 6.17774 20.9118C6.18994 20.8558 6.20262 20.798 6.21576 20.7386C6.38752 19.963 6.63253 18.9415 6.88174 17.9131C6.93799 17.681 6.99445 17.4486 7.05029 17.2187C7.24127 16.4324 7.42507 15.6757 7.56845 15.0641C7.66101 14.6693 7.73786 14.3302 7.78926 14.0803C7.81477 13.9563 7.83535 13.8478 7.84835 13.7631C7.85473 13.7215 7.86059 13.6774 7.86363 13.6361C7.86514 13.6157 7.86656 13.5884 7.86578 13.5582C7.86524 13.5375 7.86335 13.4733 7.83926 13.3993C7.80937 13.3074 7.75997 13.2459 7.74529 13.2277C7.72334 13.2006 7.70188 13.179 7.68701 13.1647C7.65678 13.1357 7.62378 13.1085 7.59503 13.0859C7.5358 13.0393 7.45881 12.984 7.37214 12.9241C7.19692 12.8029 6.95477 12.644 6.67243 12.4624C6.23222 12.1791 5.68215 11.8327 5.11289 11.4742C4.95087 11.3722 4.7873 11.2692 4.62427 11.1663C3.93062 10.7289 3.24662 10.2951 2.72214 9.94886C2.77915 9.94313 2.83791 9.93735 2.89833 9.93151C3.6897 9.85504 4.7377 9.77221 5.79355 9.69125C6.03179 9.67298 6.27045 9.65481 6.50651 9.63683C7.31396 9.57535 8.09104 9.51617 8.71749 9.46343C9.12191 9.42938 9.46843 9.39762 9.72211 9.36925C9.84807 9.35517 9.95762 9.34121 10.0423 9.32738C10.0838 9.32059 10.1276 9.31252 10.1678 9.30268C10.1876 9.29782 10.2141 9.29072 10.2425 9.28066C10.262 9.27378 10.3224 9.2522 10.3853 9.20648C10.4635 9.14973 10.5067 9.08383 10.5195 9.06424C10.5386 9.03499 10.5525 9.00791 10.5615 8.98935C10.5798 8.95165 10.5954 8.91188 10.6081 8.87755C10.6342 8.80684 10.663 8.71657 10.6933 8.61569C10.7545 8.41174 10.8308 8.13252 10.9165 7.80809C11.0501 7.30222 11.2098 6.67243 11.3752 6.02066C11.4222 5.83519 11.4697 5.64794 11.5172 5.46125Z" fill="url(#paint0_linear_1:213)" stroke="url(#paint1_linear_1:213)"/>
<path d="M1.97714 9.24047C1.97459 9.23803 1.97528 9.23849 1.97835 9.24161C1.97791 9.2412 1.97751 9.24082 1.97714 9.24047ZM5.27454 21.3999C5.27143 21.4015 5.27207 21.401 5.27599 21.3991C5.27547 21.3994 5.27498 21.3996 5.27454 21.3999ZM17.8673 22.0272C17.8672 22.027 17.867 22.0257 17.8666 22.0233L17.8669 22.025C17.8672 22.0266 17.8673 22.0273 17.8673 22.0272ZM22.3526 10.2518C22.3561 10.2523 22.3553 10.2523 22.3509 10.2516L22.3526 10.2518ZM12.5321 2.35091C12.5337 2.34774 12.5334 2.34854 12.5314 2.35241C12.5317 2.35186 12.5319 2.35136 12.5321 2.35091ZM23.1679 9.56817L22.5872 9.63086L23.1679 9.56817C23.1421 9.32913 23.0006 9.18364 22.9194 9.1193C22.8391 9.05562 22.7617 9.02421 22.7233 9.01018C22.6434 8.98091 22.5685 8.96924 22.5283 8.96377C22.4376 8.95139 22.3315 8.9468 22.2302 8.945C22.0197 8.94127 21.7331 8.94854 21.4056 8.96206C20.7467 8.98925 19.873 9.04399 19.0031 9.10084C18.8085 9.11356 18.6141 9.12638 18.4221 9.13905C17.7517 9.18327 17.1108 9.22554 16.5941 9.25459C16.2959 9.27136 16.0452 9.28336 15.8575 9.28887C15.8554 9.28427 15.8533 9.27962 15.8512 9.27492C15.7526 9.05764 15.6203 8.75017 15.4637 8.3782C15.2219 7.80384 14.9279 7.08975 14.6202 6.34233C14.5299 6.12285 14.4384 5.90049 14.3466 5.67796C13.9438 4.7008 13.5369 3.72033 13.2144 2.97996C13.0536 2.61105 12.9102 2.29325 12.7967 2.06272C12.7409 1.94944 12.686 1.84394 12.6355 1.76034C12.6114 1.72046 12.5779 1.66794 12.5371 1.61769C12.5171 1.59303 12.4833 1.55386 12.4368 1.51412C12.4019 1.48427 12.2969 1.39817 12.134 1.36403C11.899 1.3148 11.7171 1.40408 11.6308 1.46136C11.5453 1.51801 11.4915 1.58194 11.4662 1.61407C11.4136 1.68108 11.3793 1.74876 11.3617 1.78521C11.3218 1.86771 11.2846 1.96718 11.2516 2.06292C11.183 2.26176 11.1013 2.53647 11.013 2.85179C10.8353 3.48635 10.6174 4.33361 10.4027 5.17781C10.3546 5.36667 10.3068 5.55539 10.2595 5.74176C10.0944 6.39248 9.93661 7.01459 9.80461 7.51451C9.72847 7.80289 9.66248 8.0446 9.60974 8.22464C9.60466 8.22521 9.59952 8.22579 9.59431 8.22637C9.35702 8.25291 9.02346 8.2836 8.62102 8.31748C7.99963 8.3698 7.22914 8.42847 6.42268 8.48988C6.18581 8.50792 5.94584 8.5262 5.70562 8.54461C4.65105 8.62548 3.59209 8.70912 2.78773 8.78684C2.38693 8.82557 2.04012 8.86369 1.78566 8.90029C1.66062 8.91827 1.54325 8.93791 1.44812 8.96004C1.40275 8.97059 1.34245 8.9862 1.28207 9.00939C1.25245 9.02077 1.20476 9.04074 1.15258 9.07264C1.11345 9.09656 0.998938 9.16979 0.915982 9.31426C0.79627 9.52274 0.825114 9.72365 0.85298 9.82358C0.88054 9.9224 0.924785 9.9934 0.947562 10.0273C0.995084 10.098 1.04889 10.1515 1.07812 10.1795C1.1443 10.2429 1.22747 10.3089 1.30838 10.3699C1.47643 10.4965 1.71264 10.659 1.98548 10.8403C2.53454 11.2053 3.27365 11.6742 4.01084 12.1391C4.17575 12.2431 4.34057 12.3469 4.50334 12.4494C5.07173 12.8074 5.61512 13.1496 6.05018 13.4295C6.30109 13.5909 6.51076 13.7283 6.66583 13.8341C6.66484 13.8389 6.66385 13.8437 6.66284 13.8486C6.61477 14.0823 6.54092 14.4088 6.44881 14.8017C6.30659 15.4083 6.12435 16.1586 5.9336 16.9439C5.87756 17.1746 5.8208 17.4083 5.76409 17.6423C5.51518 18.6694 5.26755 19.7016 5.09296 20.49C5.00597 20.8828 4.93508 21.2242 4.89128 21.4773C4.86975 21.6017 4.85217 21.7194 4.84383 21.8167C4.83985 21.8631 4.83607 21.9253 4.83949 21.9899C4.84117 22.0217 4.84545 22.0732 4.85971 22.1328C4.87042 22.1775 4.90477 22.309 5.01664 22.4325L5.47879 22.0137L5.01664 22.4325C5.17792 22.6105 5.37771 22.645 5.48113 22.6494C5.58349 22.6537 5.66459 22.6337 5.70386 22.6225C5.78577 22.5992 5.85326 22.5647 5.88893 22.5455C5.96967 22.5022 6.05823 22.4436 6.14125 22.3856C6.31369 22.265 6.54136 22.0907 6.7983 21.8875C7.31537 21.4785 7.99006 20.9211 8.66037 20.3642C8.81025 20.2397 8.95992 20.1152 9.10773 19.9922C9.62416 19.5626 10.1179 19.152 10.5188 18.825C10.7503 18.6362 10.946 18.4793 11.0946 18.3646C11.0991 18.3672 11.1037 18.3698 11.1083 18.3724C11.3159 18.4903 11.6038 18.6613 11.9493 18.8703C12.4828 19.1929 13.1406 19.5979 13.8292 20.0219C14.0314 20.1464 14.2363 20.2726 14.4415 20.3988C15.3423 20.9527 16.2482 21.507 16.9446 21.9165C17.2917 22.1206 17.5947 22.2934 17.8221 22.4132C17.9338 22.4721 18.0403 22.5252 18.1303 22.5632C18.1732 22.5813 18.2312 22.6041 18.2937 22.6208C18.3244 22.6289 18.3747 22.6408 18.4356 22.6456C18.4813 22.6493 18.6169 22.6572 18.7688 22.5892C18.988 22.491 19.0828 22.3117 19.119 22.2145C19.1549 22.1183 19.1608 22.0349 19.1623 21.994C19.1655 21.9089 19.1534 21.8339 19.1462 21.7941C19.13 21.7039 19.1015 21.6016 19.0719 21.5048C19.0104 21.3036 18.9149 21.0334 18.8009 20.7264C18.5714 20.1087 18.2492 19.2952 17.9263 18.4862C17.8541 18.3052 17.7818 18.1245 17.7105 17.9459C17.4612 17.3225 17.2229 16.7265 17.0356 16.2445C16.9276 15.9667 16.8388 15.7325 16.7756 15.5559C16.7793 15.5526 16.7829 15.5492 16.7867 15.5458C16.963 15.385 17.2148 15.1642 17.5205 14.9005C17.9924 14.4932 18.5812 13.9932 19.1975 13.4699C19.3785 13.3162 19.5619 13.1605 19.7455 13.0045C20.5511 12.3197 21.3586 11.6301 21.9636 11.0948C22.2651 10.8281 22.5232 10.5936 22.7076 10.4145C22.7982 10.3265 22.8816 10.2417 22.9456 10.1679C22.9761 10.1327 23.0157 10.0846 23.0509 10.0303C23.0682 10.0037 23.0951 9.95947 23.1186 9.90295C23.1362 9.86054 23.1858 9.7339 23.1679 9.56817Z" stroke="#AA4400" stroke-opacity="0.999242" stroke-width="1.3"/>
<g opacity="0.8" filter="url(#filter0_f_1:213)">
<path d="M22.0296 4.27648C21.3271 4.23736 20.2713 4.50299 18.946 5.05229C17.6207 5.60159 15.9744 6.42597 14.3065 7.44757C14.4217 7.72027 14.5511 7.95979 14.6613 8.21983C15.9763 7.46996 17.2113 6.90969 18.1415 6.61781C19.0716 6.32593 19.7242 6.298 20.0384 6.53663C20.5302 6.91285 20.155 7.92102 18.9953 9.33937C17.8356 10.7577 15.9864 12.4701 13.8544 14.0998C11.7224 15.7296 9.48231 17.1432 7.62685 18.0296C5.77138 18.9161 4.45253 19.2029 3.9604 18.8269C3.65141 18.5894 3.68372 18.0986 4.05441 17.3993C4.42509 16.7 5.71728 14.7881 6.67742 13.7973C6.52197 13.6965 6.61624 13.6683 6.41129 13.5399C6.3395 13.4949 6.13313 13.3302 6.05645 13.2824C4.37695 14.8662 2.36926 17.3845 1.65232 18.5431C0.935388 19.7017 0.806295 20.5114 1.28049 20.8754C1.60526 21.1238 2.20412 21.1578 3.04287 20.9755C3.88162 20.7932 4.94384 20.3981 6.16888 19.8128C7.39392 19.2276 8.75778 18.4636 10.1826 17.5645C11.6074 16.6654 13.0652 15.6488 14.4729 14.5728C15.8805 13.4968 17.2104 12.3824 18.3866 11.2932C19.5627 10.2041 20.5622 9.16154 21.3278 8.22509C22.0935 7.28865 22.6104 6.47664 22.849 5.83545C23.0875 5.19426 23.0431 4.73644 22.7183 4.48812C22.5563 4.36416 22.3256 4.29327 22.0296 4.27648Z" fill="#214478" fill-opacity="0.993967"/>
</g>
<path d="M20.3422 5.68496L20.3408 5.68392C20.0478 5.46142 19.6659 5.40853 19.2995 5.42421C18.9212 5.4404 18.4796 5.53314 17.9918 5.68622C17.773 5.75485 17.5469 5.80976 17.3071 5.86799C17.2334 5.88589 17.1585 5.90409 17.082 5.92311C17.5751 5.69572 18.0412 5.5065 18.5315 5.30744C18.7284 5.22747 18.9293 5.14592 19.1374 5.05966C20.4508 4.51534 21.4181 4.28874 22.0016 4.32116C22.2405 4.33475 22.3605 4.38941 22.4145 4.43069L22.4146 4.43082C22.4532 4.46031 22.487 4.50287 22.4972 4.60819C22.5091 4.73025 22.4852 4.92466 22.3803 5.20656C22.1703 5.7711 21.694 6.53277 20.9408 7.45407C20.5274 7.95963 20.0421 8.49939 19.4939 9.06331C20.0283 8.39306 20.4122 7.78444 20.6048 7.26707C20.798 6.74793 20.8699 6.08862 20.3422 5.68496ZM5.5339 13.8738C4.67974 14.8646 3.94615 16.0814 3.61263 16.7106C3.4125 17.0881 3.27604 17.4581 3.2536 17.7989C3.22993 18.1585 3.3356 18.5228 3.65567 18.7688L3.65685 18.7697C3.8888 18.9469 4.17487 19.0152 4.45266 19.0304C4.73433 19.0458 5.05086 19.0092 5.38862 18.9358C5.80368 18.8455 6.27781 18.6935 6.80087 18.4849C6.51151 18.6347 6.22869 18.7756 5.95334 18.9071C4.74552 19.4842 3.7224 19.8616 2.93666 20.0324C2.5438 20.1178 2.23227 20.1466 1.99727 20.1333C1.75868 20.1197 1.63844 20.0652 1.58422 20.0237L1.28068 20.4207L1.58496 20.0243C1.54383 19.9927 1.46814 19.9159 1.5135 19.6314C1.5609 19.3341 1.73321 18.9081 2.0775 18.3517C2.15981 18.2187 2.24822 18.0736 2.34262 17.9188C3.04041 16.7739 4.0652 15.0926 5.37102 13.7704C5.39366 13.7847 5.41645 13.7992 5.43904 13.8135C5.47142 13.8341 5.50338 13.8544 5.5339 13.8738Z" fill="url(#paint2_linear_1:213)" fill-opacity="0.993967" stroke="url(#paint3_linear_1:213)"/>
<path opacity="0.4" d="M5.25 23.625C7.21751 23.625 8.8125 23.2892 8.8125 22.875C8.8125 22.4608 7.21751 22.125 5.25 22.125C3.28249 22.125 1.6875 22.4608 1.6875 22.875C1.6875 23.2892 3.28249 23.625 5.25 23.625Z" fill="url(#paint4_radial_1:213)"/>
<path opacity="0.4" d="M18.5625 23.625C20.53 23.625 22.125 23.2892 22.125 22.875C22.125 22.4608 20.53 22.125 18.5625 22.125C16.595 22.125 15 22.4608 15 22.875C15 23.2892 16.595 23.625 18.5625 23.625Z" fill="url(#paint5_radial_1:213)"/>
<path opacity="0.2" d="M22.3125 22.6877C22.3119 22.9861 21.2252 23.2722 19.2913 23.4831C17.3574 23.694 14.7347 23.8125 12 23.8125C9.26534 23.8125 6.64264 23.694 4.70874 23.4831C2.77483 23.2722 1.68808 22.9861 1.6875 22.6877C1.68721 22.54 1.95374 22.3937 2.47186 22.2571C2.98998 22.1206 3.74955 21.9966 4.70718 21.8921C5.66482 21.7876 6.80176 21.7047 8.05307 21.6482C9.30438 21.5916 10.6456 21.5625 12 21.5625C13.3544 21.5625 14.6956 21.5916 15.9469 21.6482C17.1982 21.7047 18.3352 21.7876 19.2928 21.8921C20.2504 21.9966 21.01 22.1206 21.5281 22.2571C22.0463 22.3937 22.3128 22.54 22.3125 22.6877V22.6877Z" fill="url(#paint6_radial_1:213)"/>
</g>
<defs>
<filter id="filter0_f_1:213" x="-1.69626" y="1.57645" width="27.3925" height="22.2107" filterUnits="userSpaceOnUse" color-interpolation-filters="sRGB">
<feFlood flood-opacity="0" result="BackgroundImageFix"/>
<feBlend mode="normal" in="SourceGraphic" in2="BackgroundImageFix" result="shape"/>
<feGaussianBlur stdDeviation="1.34813" result="effect1_foregroundBlur_1:213"/>
</filter>
<linearGradient id="paint0_linear_1:213" x1="6.46879" y1="2.32827" x2="17.5176" y2="21.6795" gradientUnits="userSpaceOnUse">
<stop stop-color="#FFA154"/>
<stop offset="1" stop-color="#F37329"/>
</linearGradient>
<linearGradient id="paint1_linear_1:213" x1="12" y1="2" x2="12" y2="22" gradientUnits="userSpaceOnUse">
<stop stop-color="white" stop-opacity="0.54"/>
<stop offset="1" stop-color="white" stop-opacity="0.21"/>
</linearGradient>
<linearGradient id="paint2_linear_1:213" x1="22.6452" y1="3.81817" x2="1.91837" y2="21.1391" gradientUnits="userSpaceOnUse">
<stop stop-color="#64BAFF"/>
<stop offset="0.536458" stop-color="#3689E6"/>
<stop offset="1" stop-color="#0D52BF"/>
</linearGradient>
<linearGradient id="paint3_linear_1:213" x1="12" y1="3.81818" x2="12" y2="20.6364" gradientUnits="userSpaceOnUse">
<stop stop-color="white" stop-opacity="0.38"/>
<stop offset="1" stop-color="white" stop-opacity="0.12"/>
</linearGradient>
<radialGradient id="paint4_radial_1:213" cx="0" cy="0" r="1" gradientUnits="userSpaceOnUse" gradientTransform="translate(5.25 22.875) scale(3.5625 0.75)">
<stop/>
<stop offset="1" stop-opacity="0"/>
</radialGradient>
<radialGradient id="paint5_radial_1:213" cx="0" cy="0" r="1" gradientUnits="userSpaceOnUse" gradientTransform="translate(18.5625 22.875) scale(3.5625 0.75)">
<stop/>
<stop offset="1" stop-opacity="0"/>
</radialGradient>
<radialGradient id="paint6_radial_1:213" cx="0" cy="0" r="1" gradientUnits="userSpaceOnUse" gradientTransform="translate(12 22.6877) scale(10.3125 1.125)">
<stop/>
<stop offset="1" stop-opacity="0"/>
</radialGradient>
<clipPath id="clip0_1:213">
<rect width="24" height="24" fill="white"/>
</clipPath>
</defs>
</svg>
