<svg width="16" height="16" viewBox="0 0 16 16" fill="none" xmlns="http://www.w3.org/2000/svg">
<g clip-path="url(#clip0_1:234)">
<path d="M7.87036 3.67664C7.94769 3.35806 8.02479 3.04256 8.09704 2.75427C8.26475 3.16796 8.45494 3.64887 8.64569 4.13357C8.70352 4.28055 8.76142 4.42789 8.81871 4.57368C9.01476 5.07262 9.20371 5.55349 9.35908 5.94009C9.45933 6.18952 9.54736 6.40412 9.61531 6.56102C9.64894 6.63867 9.68016 6.70804 9.70695 6.7624C9.71998 6.78884 9.73556 6.81912 9.75251 6.84775C9.76085 6.86184 9.7734 6.88215 9.78951 6.90414L9.78963 6.90431C9.80001 6.91848 9.83684 6.96876 9.89775 7.01507C9.9754 7.07412 10.0512 7.09574 10.073 7.10186C10.1056 7.11105 10.1339 7.11577 10.1515 7.11832C10.1875 7.12351 10.2223 7.12558 10.2483 7.12665C10.3027 7.12887 10.368 7.12842 10.4364 7.12677C10.5755 7.12341 10.7624 7.11412 10.9762 7.10152C11.31 7.08186 11.7243 7.05323 12.1518 7.02369C12.2732 7.0153 12.3957 7.00683 12.5177 6.99848C12.8496 6.97576 13.178 6.95385 13.4753 6.93615C13.1379 7.24399 12.7352 7.604 12.3286 7.96609C12.213 8.06899 12.0972 8.17206 11.9825 8.27407C11.5896 8.62352 11.2109 8.96041 10.9075 9.23469C10.7118 9.41161 10.5438 9.56576 10.422 9.68215C10.3618 9.73973 10.3081 9.79255 10.2666 9.83638C10.2464 9.85772 10.2234 9.88291 10.2024 9.90894C10.192 9.9218 10.1774 9.94066 10.1624 9.96344C10.1524 9.97871 10.1194 10.0291 10.0974 10.0999C10.0703 10.1874 10.0739 10.2614 10.0749 10.2818C10.0764 10.3133 10.0804 10.3399 10.0833 10.3568C10.0892 10.3911 10.0974 10.424 10.1043 10.4494C10.1185 10.5022 10.1386 10.5657 10.1611 10.6328C10.2068 10.7693 10.2727 10.9517 10.3502 11.1605C10.4711 11.4864 10.625 11.8897 10.7839 12.3061C10.8291 12.4244 10.8746 12.5438 10.92 12.6628C11.0429 12.9856 11.1642 13.3055 11.2722 13.5959C10.9015 13.3629 10.4728 13.0878 10.0412 12.8097C9.91196 12.7265 9.78242 12.6429 9.65423 12.5602C9.21543 12.2772 8.79236 12.0043 8.44944 11.787C8.22822 11.6469 8.03612 11.5272 7.89256 11.4418C7.82158 11.3995 7.7567 11.3622 7.70361 11.3343C7.67783 11.3207 7.64717 11.3052 7.61601 11.2919C7.60066 11.2853 7.5778 11.2761 7.55076 11.2677L7.5507 11.2677C7.53322 11.2623 7.47136 11.243 7.39167 11.2431C7.29217 11.2431 7.21734 11.273 7.19735 11.281L7.19723 11.2811C7.16601 11.2936 7.14089 11.3069 7.12554 11.3155C7.09419 11.3331 7.06551 11.3524 7.04415 11.3674C6.99952 11.3986 6.94739 11.4388 6.89316 11.482C6.78286 11.5701 6.63712 11.6924 6.4713 11.834C6.21244 12.0552 5.89351 12.3331 5.56428 12.62C5.47073 12.7015 5.37635 12.7838 5.28228 12.8657C5.04067 13.0759 4.80111 13.2838 4.58084 13.4725C4.67928 13.0249 4.79921 12.5024 4.92091 11.9763C4.95665 11.8218 4.99254 11.667 5.02805 11.5138C5.14961 10.9895 5.26677 10.4842 5.35815 10.0759C5.41711 9.81241 5.46638 9.58471 5.49949 9.41608C5.51588 9.3326 5.52953 9.25747 5.53834 9.19729C5.54263 9.16798 5.54697 9.13432 5.54929 9.10136C5.55043 9.08511 5.55164 9.0617 5.55098 9.03505C5.55055 9.01768 5.54906 8.95788 5.52727 8.88771C5.49981 8.79926 5.45428 8.73987 5.44094 8.72258C5.42105 8.69681 5.40198 8.67678 5.38962 8.66436C5.36451 8.63911 5.33845 8.61679 5.31823 8.60012C5.27616 8.56542 5.22356 8.52594 5.16743 8.48529C5.05332 8.40264 4.8971 8.2953 4.71711 8.17398C4.43614 7.98459 4.08501 7.75293 3.72259 7.51382C3.61963 7.44588 3.51576 7.37735 3.41233 7.30902C3.12149 7.11687 2.83409 6.92627 2.57697 6.75298C3.01906 6.71201 3.54045 6.66912 4.06623 6.62688C4.21752 6.61473 4.36919 6.60263 4.51929 6.59065C5.03327 6.54965 5.52891 6.51011 5.92844 6.47487C6.18615 6.45214 6.40897 6.43077 6.57333 6.41151C6.65458 6.40199 6.72832 6.39222 6.78731 6.38212C6.81597 6.37722 6.84974 6.3708 6.88271 6.36234C6.89898 6.35816 6.92273 6.35155 6.94928 6.34172C6.96697 6.33517 7.02628 6.31308 7.08832 6.26589C7.16413 6.20823 7.20493 6.14264 7.21577 6.12521L7.21594 6.12494C7.23294 6.09761 7.24494 6.07302 7.25213 6.05747C7.26683 6.02571 7.2787 5.99385 7.28742 5.96909C7.30559 5.91751 7.32494 5.85381 7.34445 5.78566C7.38409 5.6472 7.43319 5.45908 7.48778 5.2425C7.57297 4.90448 7.67488 4.4836 7.78013 4.04893C7.81004 3.92542 7.84022 3.8008 7.87036 3.67664Z" fill="url(#paint0_linear_1:234)" stroke="url(#paint1_linear_1:234)"/>
<path d="M3.37102 15.0892L3.86265 14.664L3.37102 15.0892C3.52915 15.2721 3.73054 15.3111 3.84039 15.316C3.94575 15.3207 4.02814 15.2991 4.06585 15.2878C4.1449 15.2643 4.20687 15.2305 4.23411 15.2152C4.29855 15.179 4.3643 15.1329 4.41887 15.093C4.53454 15.0082 4.68386 14.8883 4.84803 14.7523C5.17957 14.4776 5.61098 14.1041 6.03727 13.7331C6.13304 13.6498 6.22856 13.5665 6.3228 13.4844C6.65122 13.1982 6.96415 12.9255 7.21831 12.7084C7.30264 12.6363 7.37893 12.5717 7.446 12.5157C7.55498 12.5826 7.68566 12.6645 7.83399 12.7585C8.17256 12.973 8.58999 13.2422 9.02797 13.5247C9.15683 13.6079 9.28747 13.6921 9.4184 13.7765C9.99136 14.1456 10.5698 14.5164 11.0154 14.7909C11.237 14.9274 11.4338 15.0451 11.5837 15.1279C11.6566 15.1681 11.7319 15.2076 11.7992 15.2374C11.8306 15.2513 11.88 15.2719 11.9367 15.2878C11.9644 15.2956 12.0134 15.3078 12.0743 15.3129C12.12 15.3167 12.2592 15.3253 12.4146 15.2524C12.6347 15.1491 12.7234 14.9653 12.7551 14.8762C12.7877 14.7847 12.7929 14.7063 12.7942 14.6696C12.7969 14.5925 12.7865 14.5268 12.7812 14.496C12.7688 14.4245 12.7481 14.3475 12.7288 14.2811C12.688 14.1413 12.6256 13.9567 12.5528 13.7513C12.4058 13.3369 12.2 12.7925 11.9946 12.2534C11.9485 12.1324 11.9024 12.0116 11.857 11.8925C11.6984 11.477 11.5472 11.0809 11.4284 10.7606C11.3816 10.6345 11.3409 10.5228 11.3072 10.428C11.4072 10.3345 11.5329 10.2197 11.6788 10.0878C11.9783 9.81694 12.352 9.48452 12.744 9.13579C12.8594 9.03319 12.9763 8.92919 13.0934 8.82492C13.6058 8.36857 14.1214 7.90738 14.5083 7.54873C14.7008 7.37034 14.8682 7.21105 14.9894 7.08776C15.0484 7.02766 15.1068 6.96571 15.1536 6.90913C15.1757 6.88247 15.2081 6.84165 15.238 6.79332C15.2527 6.76959 15.2767 6.7285 15.2977 6.67532C15.3136 6.6354 15.3584 6.51565 15.3422 6.35868C15.3187 6.13061 15.1886 5.98679 15.1071 5.91908C15.0282 5.85358 14.9519 5.82115 14.9145 5.80683C14.8373 5.77721 14.7675 5.76627 14.736 5.76175C14.6622 5.75121 14.5819 5.74797 14.5149 5.74672C14.3727 5.74408 14.1838 5.74923 13.9744 5.75829C13.5515 5.77657 12.9923 5.8133 12.4391 5.85117C12.3148 5.85968 12.1907 5.86825 12.0683 5.87671C11.642 5.90617 11.2359 5.93423 10.9086 5.95351C10.7986 5.95999 10.6996 5.96535 10.6134 5.96939C10.5607 5.84365 10.4976 5.68898 10.4261 5.51124C10.2726 5.12914 10.0859 4.65412 9.89018 4.15599C9.83263 4.00955 9.77431 3.86111 9.71581 3.71245C9.45953 3.06122 9.19994 2.40581 8.99381 1.91014C8.89127 1.66356 8.79852 1.44819 8.72425 1.29011C8.68804 1.21306 8.65011 1.13644 8.61353 1.07297C8.59639 1.04324 8.56942 0.998499 8.53457 0.953502C8.5176 0.931582 8.48675 0.893836 8.44289 0.854573C8.41168 0.826632 8.30687 0.735263 8.13986 0.698602C7.89459 0.644757 7.70683 0.743216 7.62284 0.801566C7.53917 0.859694 7.48794 0.924028 7.46561 0.953817C7.41824 1.017 7.389 1.07837 7.37606 1.10642C7.34559 1.17247 7.31901 1.24782 7.29745 1.31331C7.25192 1.45158 7.19874 1.63929 7.14235 1.85019C7.02856 2.27581 6.88937 2.84283 6.75281 3.40535C6.72216 3.5316 6.69165 3.65764 6.66153 3.78201C6.55652 4.21567 6.4564 4.62915 6.37265 4.96145C6.34185 5.08366 6.31384 5.19254 6.2891 5.28579C6.16128 5.29902 6.00561 5.3136 5.82741 5.32932C5.43317 5.36409 4.94441 5.40308 4.43147 5.444C4.28053 5.45605 4.12749 5.46826 3.97415 5.48057C3.30335 5.53446 2.62693 5.59041 2.11205 5.64253C1.85605 5.66845 1.63035 5.69436 1.4621 5.71971C1.38023 5.73204 1.2967 5.74646 1.22509 5.76391C1.19148 5.7721 1.13981 5.78583 1.08525 5.80778C1.05844 5.81857 1.01289 5.83844 0.962372 5.87079C0.923388 5.89576 0.813739 5.96983 0.735334 6.11288C0.624703 6.31472 0.651851 6.506 0.676838 6.59987C0.701925 6.69411 0.742275 6.76193 0.76292 6.79412C0.805732 6.86087 0.853097 6.90975 0.875547 6.93226C0.927525 6.9844 0.989174 7.03526 1.04252 7.07737C1.15523 7.16633 1.31033 7.27797 1.48474 7.39942C1.83689 7.64465 2.30959 7.95879 2.77841 8.26852C2.88376 8.33812 2.98892 8.40751 3.09267 8.47596C3.45417 8.71446 3.79856 8.94169 4.07434 9.12758C4.17772 9.19726 4.26926 9.25966 4.34696 9.31359C4.31826 9.45229 4.28058 9.6251 4.23591 9.82474C4.14559 10.2284 4.02986 10.7275 3.90851 11.2509C3.87283 11.4048 3.83665 11.5608 3.8005 11.7171C3.64215 12.4016 3.48415 13.0915 3.3726 13.6193C3.3171 13.8818 3.27124 14.1129 3.24262 14.2862C3.22865 14.3708 3.21642 14.4555 3.21044 14.5285C3.20763 14.5628 3.20446 14.6142 3.20728 14.6699C3.20865 14.6971 3.21226 14.744 3.22487 14.7991C3.23389 14.8386 3.26489 14.9665 3.37102 15.0892Z" stroke="#AA4400" stroke-opacity="0.999242" stroke-width="1.3"/>
<g opacity="0.8" filter="url(#filter0_f_1:234)">
<path d="M14.3825 2.85099C13.9355 2.82492 13.2636 3.002 12.4202 3.3682C11.5768 3.73441 10.5292 4.28399 9.46778 4.96505C9.54114 5.14686 9.62347 5.30653 9.69359 5.4799C10.5304 4.97998 11.3163 4.60647 11.9082 4.41188C12.5001 4.2173 12.9154 4.19868 13.1154 4.35776C13.4283 4.60858 13.1896 5.28069 12.4516 6.22626C11.7136 7.17183 10.5368 8.31341 9.18013 9.3999C7.8234 10.4864 6.39788 11.4288 5.21713 12.0198C4.03638 12.6108 3.19712 12.802 2.88395 12.5513C2.68731 12.3929 2.70788 12.0657 2.94377 11.5995C3.17966 11.1333 4.00196 9.85877 4.61295 9.1982C4.51403 9.13103 4.57402 9.11219 4.4436 9.02659C4.39791 8.9966 4.26659 8.88679 4.21779 8.85497C3.14902 9.91079 1.87141 11.5897 1.41518 12.3621C0.958944 13.1345 0.876795 13.6743 1.17855 13.917C1.38522 14.0826 1.76631 14.1052 2.30007 13.9837C2.83382 13.8621 3.50977 13.5987 4.28934 13.2086C5.06891 12.8184 5.93681 12.3091 6.84351 11.7097C7.7502 11.1103 8.67792 10.4325 9.5737 9.71519C10.4695 8.99785 11.3157 8.25492 12.0642 7.52883C12.8127 6.80274 13.4487 6.1077 13.9359 5.48341C14.4232 4.85911 14.7521 4.31777 14.9039 3.89031C15.0557 3.46285 15.0275 3.15764 14.8208 2.99209C14.7177 2.90945 14.5709 2.86219 14.3825 2.85099Z" fill="#214478" fill-opacity="0.993967"/>
</g>
<path d="M3.31011 10.0045C2.93965 10.3966 2.71706 10.6371 2.49763 11.0708C2.36558 11.3318 2.26877 11.6 2.25265 11.8565C2.23563 12.1273 2.31035 12.4283 2.57034 12.6377L2.57151 12.6386C2.75939 12.789 2.98495 12.8418 3.18598 12.8533C3.38985 12.865 3.61079 12.837 3.83626 12.7857C4.28758 12.6828 4.83277 12.4683 5.44093 12.1639C5.84187 11.9632 6.26816 11.7244 6.70867 11.4551C6.69363 11.4646 6.67859 11.474 6.66356 11.4835C6.34122 11.6857 6.0234 11.8852 5.72427 12.0829C5.30149 12.3624 4.95828 12.5303 4.6218 12.6772C4.52679 12.7187 4.42791 12.7603 4.32553 12.8033C4.07464 12.9088 3.80277 13.023 3.5154 13.1668C3.18537 13.332 2.94123 13.3844 2.71772 13.4113C2.63453 13.4213 2.56117 13.4272 2.47905 13.4338C2.43675 13.4372 2.39212 13.4408 2.34263 13.4453C2.20685 13.4574 2.05451 13.4748 1.88898 13.5125C1.82395 13.5273 1.79086 13.5261 1.77991 13.525C1.7667 13.5142 1.74943 13.4961 1.70153 13.4392C1.699 13.4362 1.69629 13.433 1.69341 13.4295C1.66116 13.391 1.60761 13.3272 1.54009 13.2656C1.53784 13.2556 1.53535 13.2421 1.53304 13.2246C1.52148 13.1368 1.52324 13.0025 1.54935 12.8308C1.60149 12.4878 1.73723 12.0815 1.93051 11.7543C2.07191 11.5149 2.17137 11.3162 2.26344 11.1322C2.46609 10.7273 2.63289 10.394 3.13215 9.85658C3.13279 9.85701 3.13344 9.85743 3.13408 9.85785C3.17233 9.88298 3.20319 9.90326 3.21915 9.91374C3.21918 9.91413 3.23309 9.92548 3.26421 9.95687C3.27862 9.9714 3.29392 9.98733 3.31011 10.0045ZM1.54571 13.2862C1.54678 13.2885 1.54721 13.2897 1.54716 13.2898C1.54712 13.2898 1.54658 13.2887 1.54571 13.2862ZM8.68746 10.1097C8.26313 10.4495 7.77605 10.7766 7.27835 11.0951C7.74254 10.7924 8.21679 10.4608 8.68892 10.1086C8.68843 10.1089 8.68795 10.1093 8.68746 10.1097ZM11.6519 7.64112C11.3044 7.9782 10.8193 8.39084 10.3081 8.80949C11.2396 8.00571 12.0565 7.19314 12.6579 6.4647C12.3369 6.88723 11.9951 7.30813 11.6519 7.64112ZM13.6058 5.19237C13.4979 5.33063 13.3824 5.48563 13.2609 5.65068C13.4341 5.38112 13.5664 5.12764 13.6487 4.89584C13.7749 4.54068 13.8541 4.00603 13.428 3.66458L13.4267 3.66349C13.2372 3.51273 13.0086 3.45914 12.7947 3.44947C13.533 3.14421 14.0538 3.02976 14.3531 3.04712C14.4361 3.05207 14.4791 3.06609 14.4974 3.07403C14.4979 3.07731 14.4985 3.0813 14.4989 3.08606C14.5037 3.13769 14.4952 3.24397 14.4327 3.41996C14.415 3.46998 14.3964 3.5235 14.3768 3.57989C14.2148 4.04577 13.985 4.70656 13.6058 5.19237ZM10.9299 3.75433C10.93 3.75433 10.9308 3.75523 10.9323 3.75703C10.9306 3.75522 10.9299 3.75432 10.9299 3.75433Z" fill="url(#paint2_linear_1:234)" fill-opacity="0.993967" stroke="url(#paint3_linear_1:234)"/>
<path opacity="0.4" d="M3.5 15.75C4.81168 15.75 5.875 15.5261 5.875 15.25C5.875 14.9739 4.81168 14.75 3.5 14.75C2.18832 14.75 1.125 14.9739 1.125 15.25C1.125 15.5261 2.18832 15.75 3.5 15.75Z" fill="url(#paint4_radial_1:234)"/>
<path opacity="0.4" d="M12.375 15.75C13.6867 15.75 14.75 15.5261 14.75 15.25C14.75 14.9739 13.6867 14.75 12.375 14.75C11.0633 14.75 10 14.9739 10 15.25C10 15.5261 11.0633 15.75 12.375 15.75Z" fill="url(#paint5_radial_1:234)"/>
<path opacity="0.2" d="M14.875 15.1252C14.8746 15.324 14.1501 15.5148 12.8608 15.6554C11.5716 15.796 9.82311 15.875 8 15.875C6.17689 15.875 4.42843 15.796 3.13916 15.6554C1.84989 15.5148 1.12539 15.324 1.125 15.1252C1.12481 15.0267 1.30249 14.9291 1.64791 14.8381C1.99332 14.7471 2.4997 14.6644 3.13812 14.5947C3.77654 14.5251 4.5345 14.4698 5.36871 14.4321C6.20292 14.3944 7.09704 14.375 8 14.375C8.90296 14.375 9.79708 14.3944 10.6313 14.4321C11.4655 14.4698 12.2235 14.5251 12.8619 14.5947C13.5003 14.6644 14.0067 14.7471 14.3521 14.8381C14.6975 14.9291 14.8752 15.0267 14.875 15.1252V15.1252Z" fill="url(#paint6_radial_1:234)"/>
</g>
<defs>
<filter id="filter0_f_1:234" x="-1.6962" y="0.152222" width="19.3925" height="16.6046" filterUnits="userSpaceOnUse" color-interpolation-filters="sRGB">
<feFlood flood-opacity="0" result="BackgroundImageFix"/>
<feBlend mode="normal" in="SourceGraphic" in2="BackgroundImageFix" result="shape"/>
<feGaussianBlur stdDeviation="1.34813" result="effect1_foregroundBlur_1:234"/>
</filter>
<linearGradient id="paint0_linear_1:234" x1="4.48022" y1="1.55219" x2="12.0162" y2="14.151" gradientUnits="userSpaceOnUse">
<stop stop-color="#FFA154"/>
<stop offset="1" stop-color="#F37329"/>
</linearGradient>
<linearGradient id="paint1_linear_1:234" x1="8.00008" y1="1.33334" x2="8.00008" y2="14.6667" gradientUnits="userSpaceOnUse">
<stop stop-color="white" stop-opacity="0.54"/>
<stop offset="1" stop-color="white" stop-opacity="0.21"/>
</linearGradient>
<linearGradient id="paint2_linear_1:234" x1="14.7742" y1="2.54547" x2="1.08433" y2="13.4658" gradientUnits="userSpaceOnUse">
<stop stop-color="#3689E6"/>
<stop offset="1" stop-color="#0D52BF"/>
</linearGradient>
<linearGradient id="paint3_linear_1:234" x1="8.00004" y1="2.54547" x2="8.00004" y2="13.7576" gradientUnits="userSpaceOnUse">
<stop stop-color="white" stop-opacity="0.38"/>
<stop offset="1" stop-color="white" stop-opacity="0.12"/>
</linearGradient>
<radialGradient id="paint4_radial_1:234" cx="0" cy="0" r="1" gradientUnits="userSpaceOnUse" gradientTransform="translate(3.5 15.25) scale(2.375 0.5)">
<stop/>
<stop offset="1" stop-opacity="0"/>
</radialGradient>
<radialGradient id="paint5_radial_1:234" cx="0" cy="0" r="1" gradientUnits="userSpaceOnUse" gradientTransform="translate(12.375 15.25) scale(2.375 0.5)">
<stop/>
<stop offset="1" stop-opacity="0"/>
</radialGradient>
<radialGradient id="paint6_radial_1:234" cx="0" cy="0" r="1" gradientUnits="userSpaceOnUse" gradientTransform="translate(8 15.1252) scale(6.875 0.75)">
<stop/>
<stop offset="1" stop-opacity="0"/>
</radialGradient>
<clipPath id="clip0_1:234">
<rect width="16" height="16" fill="white"/>
</clipPath>
</defs>
</svg>
