<svg width="32" height="32" viewBox="0 0 32 32" fill="none" xmlns="http://www.w3.org/2000/svg">
<g clip-path="url(#clip0_1:186)">
<path d="M15.9798 2.96838C16.0154 2.83438 16.0497 2.70794 16.0823 2.58986C16.1782 2.81149 16.2848 3.06424 16.4 3.34267C16.8434 4.41353 17.4056 5.83882 17.9677 7.27345C18.0948 7.59765 18.2218 7.92234 18.3474 8.24339C18.7767 9.34068 19.1894 10.3956 19.5288 11.2437C19.748 11.7916 19.9384 12.2576 20.084 12.5951C20.1564 12.763 20.2202 12.905 20.2723 13.0113C20.298 13.0637 20.3245 13.1147 20.3503 13.1586C20.3631 13.1803 20.3796 13.2069 20.3992 13.2337C20.4128 13.2524 20.4526 13.3064 20.5162 13.3549C20.5959 13.4158 20.6752 13.439 20.7015 13.4464C20.7387 13.4569 20.7727 13.4628 20.7973 13.4664C20.847 13.4736 20.9001 13.4771 20.9488 13.4791C21.0485 13.4832 21.1765 13.4826 21.3223 13.4791C21.6162 13.4719 22.0172 13.452 22.4842 13.4244C23.212 13.3813 24.1153 13.3186 25.0511 13.2537C25.3176 13.2352 25.5867 13.2165 25.8552 13.198C27.0699 13.1145 28.2712 13.0354 29.1699 12.9964C29.3215 12.9898 29.4633 12.9844 29.5943 12.9804C29.409 13.1597 29.1914 13.3654 28.9475 13.5924C28.116 14.3665 27.0006 15.3688 25.8765 16.3742C25.6226 16.6013 25.3682 16.8285 25.1167 17.0533C24.2566 17.8217 23.4296 18.5605 22.767 19.1621C22.3392 19.5506 21.9762 19.8852 21.7155 20.1353C21.5859 20.2597 21.4768 20.3677 21.3964 20.4531C21.3567 20.4952 21.3184 20.5378 21.2864 20.5775C21.2706 20.5973 21.2516 20.6221 21.2334 20.6498C21.2201 20.6701 21.1852 20.7245 21.1625 20.7982C21.1348 20.8879 21.1381 20.9654 21.1393 20.9905C21.1411 21.0268 21.1458 21.0594 21.1498 21.0833C21.1581 21.1319 21.1707 21.1835 21.1837 21.2319C21.2102 21.3307 21.2497 21.4568 21.2978 21.6011C21.3947 21.8916 21.5364 22.2856 21.7056 22.7438C21.9693 23.4579 22.305 24.3411 22.6529 25.2566C22.752 25.5175 22.8521 25.7809 22.9518 26.0438C23.4027 27.2324 23.8458 28.4099 24.1591 29.2972C24.2119 29.4468 24.2607 29.5872 24.305 29.7172C24.1006 29.5956 23.8689 29.4545 23.6148 29.2972C22.6577 28.7051 21.4064 27.8997 20.1495 27.0863C19.8655 26.9026 19.5813 26.7185 19.3002 26.5364C18.3393 25.9139 17.4155 25.3154 16.6665 24.8388C16.1828 24.531 15.7678 24.2714 15.4609 24.088C15.3082 23.9968 15.1765 23.9209 15.0739 23.8666C15.0234 23.8399 14.9723 23.8143 14.9253 23.7942C14.9021 23.7842 14.8725 23.7723 14.8398 23.7621C14.8169 23.755 14.7504 23.7347 14.6672 23.7347C14.5646 23.7347 14.486 23.7659 14.4619 23.7756C14.4262 23.7899 14.3959 23.806 14.3744 23.8181C14.3309 23.8426 14.2866 23.8721 14.2464 23.9003C14.1641 23.9582 14.0615 24.0373 13.9457 24.1301C13.7123 24.3172 13.3993 24.5808 13.037 24.8917C12.4723 25.3763 11.7767 25.9851 11.0559 26.616C10.8507 26.7956 10.6434 26.9769 10.4366 27.1577C9.50061 27.9759 8.57267 28.7825 7.86712 29.3696C7.76353 29.4559 7.66536 29.5368 7.57318 29.612C7.62129 29.3624 7.67943 29.0765 7.74583 28.7611C7.98584 27.6206 8.32792 26.1201 8.67524 24.6121C8.75372 24.2713 8.83248 23.9302 8.91035 23.5929C9.17653 22.4398 9.43242 21.3314 9.63205 20.4354C9.76098 19.8568 9.86748 19.3622 9.93841 18.9994C9.97372 18.8188 10.0014 18.6647 10.0186 18.5468C10.0271 18.4886 10.0342 18.4314 10.0378 18.3806C10.0395 18.3555 10.041 18.3246 10.0402 18.292C10.0396 18.2686 10.0376 18.2044 10.015 18.1314C9.98694 18.0407 9.93982 17.9782 9.92357 17.9571C9.90083 17.9275 9.87785 17.903 9.86054 17.8855C9.82551 17.8501 9.78547 17.8153 9.74747 17.7838C9.66982 17.7195 9.56651 17.6413 9.44672 17.5542C9.20529 17.3785 8.87 17.147 8.47677 16.8808C7.864 16.466 7.09834 15.9586 6.30493 15.4329C6.07899 15.2832 5.8508 15.132 5.62325 14.981C4.59387 14.298 3.57755 13.6194 2.82842 13.0955C2.69168 12.9998 2.56488 12.9101 2.44927 12.827C2.69504 12.7971 2.97978 12.7659 3.29627 12.7337C4.40132 12.6214 5.86382 12.4998 7.3354 12.381C7.66782 12.3542 8.00071 12.3275 8.32991 12.3012C9.45528 12.211 10.5375 12.1243 11.4099 12.047C11.9734 11.9971 12.4545 11.9507 12.8056 11.9094C12.9803 11.8888 13.1296 11.8687 13.2433 11.8492C13.2993 11.8396 13.3553 11.8286 13.4048 11.8158C13.4294 11.8095 13.4601 11.8008 13.4921 11.7889C13.5153 11.7802 13.5787 11.7561 13.6432 11.7068C13.7214 11.6471 13.7643 11.5781 13.7773 11.5571C13.7968 11.5257 13.8115 11.4958 13.8217 11.4737C13.8423 11.4289 13.8611 11.3792 13.8776 11.332C13.9114 11.2357 13.95 11.1091 13.9917 10.9628C14.0757 10.6679 14.1814 10.2617 14.3007 9.78636C14.4865 9.04575 14.7088 8.12376 14.9392 7.16807C15.0048 6.89584 15.0711 6.62087 15.1374 6.34657C15.4372 5.10633 15.7371 3.87994 15.9798 2.96838Z" fill="url(#paint0_linear_1:186)" stroke="url(#paint1_linear_1:186)"/>
<path d="M1.85773 12.1775C1.85779 12.1775 1.85873 12.1785 1.8604 12.1804C1.85851 12.1784 1.85768 12.1774 1.85773 12.1775ZM6.72716 30.0641C6.72718 30.064 6.72854 30.0633 6.73112 30.062C6.72843 30.0635 6.72715 30.0641 6.72716 30.0641ZM24.4305 30.6535C24.4304 30.6532 24.4302 30.652 24.43 30.65C24.4304 30.6529 24.4305 30.654 24.4305 30.6535ZM30.4676 13.136C30.4676 13.136 30.4661 13.1358 30.4633 13.1352C30.4662 13.1357 30.4676 13.1359 30.4676 13.136ZM16.5206 1.69606C16.5206 1.69611 16.5201 1.69735 16.5188 1.69959C16.52 1.69712 16.5206 1.696 16.5206 1.69606ZM21.2239 12.3309C21.1989 12.2751 21.1709 12.2114 21.14 12.1397C21.0008 11.8169 20.815 11.3626 20.5965 10.8165C20.2589 9.97282 19.8485 8.92382 19.4195 7.82738C19.2937 7.50564 19.1662 7.17982 19.0385 6.85391C18.4768 5.42042 17.9108 3.98525 17.4626 2.90272C17.239 2.36271 17.0413 1.90215 16.8863 1.57092C16.8098 1.40729 16.7376 1.26212 16.6739 1.15108C16.6431 1.09757 16.6044 1.03428 16.5597 0.976338C16.5378 0.947956 16.5026 0.905086 16.4548 0.862119C16.4198 0.830615 16.3113 0.736494 16.1408 0.698897C15.8919 0.644034 15.7008 0.744206 15.614 0.804781C15.5274 0.865179 15.4731 0.933012 15.4475 0.967332C15.3935 1.03966 15.3567 1.1151 15.3352 1.16184C15.2877 1.2653 15.2406 1.39659 15.1956 1.534C15.1031 1.81609 14.9912 2.2113 14.8685 2.67255C14.6219 3.59884 14.319 4.83776 14.0196 6.07639C13.9528 6.35271 13.8862 6.62902 13.8204 6.90206C13.5902 7.85681 13.3697 8.7715 13.1852 9.50646C13.0665 9.97962 12.9645 10.3711 12.8857 10.6475C12.8759 10.6821 12.8666 10.7142 12.8578 10.744C12.8028 10.7513 12.7407 10.7591 12.6713 10.7672C12.3373 10.8065 11.8698 10.8518 11.3085 10.9015C10.4413 10.9783 9.366 11.0645 8.24166 11.1546C7.91163 11.181 7.57738 11.2078 7.24293 11.2348C5.77266 11.3534 4.29867 11.4759 3.17995 11.5896C2.62204 11.6463 2.14283 11.7018 1.79346 11.7547C1.62105 11.7808 1.465 11.8085 1.34197 11.8386C1.28266 11.8531 1.21049 11.873 1.14108 11.9011C1.10684 11.9149 1.05527 11.9378 1.00022 11.9733C0.95656 12.0013 0.844205 12.0784 0.764629 12.2243C0.653515 12.4279 0.680366 12.6213 0.706086 12.7184C0.731939 12.8159 0.774051 12.8878 0.797706 12.9248C0.8465 13.0013 0.904059 13.0623 0.940757 13.0992C1.02117 13.1803 1.12692 13.2691 1.23786 13.3571C1.46572 13.5377 1.78977 13.7724 2.16931 14.0379C2.93174 14.5711 3.9595 15.2572 4.98742 15.9392C5.21688 16.0915 5.44634 16.2435 5.67306 16.3938C6.46556 16.9189 7.22449 17.4218 7.83208 17.8331C8.22332 18.098 8.54527 18.3205 8.77022 18.4841C8.80033 18.506 8.8281 18.5264 8.85358 18.5454C8.84169 18.6123 8.8271 18.6901 8.80978 18.7787C8.74187 19.1261 8.6381 19.6085 8.50958 20.1853C8.31101 21.0765 8.05656 22.1787 7.7906 23.3308C7.71255 23.6689 7.6335 24.0114 7.55458 24.354C7.20753 25.8608 6.86307 27.3716 6.62048 28.5242C6.49946 29.0993 6.40195 29.5938 6.34218 29.9572C6.31264 30.1368 6.28998 30.2982 6.27953 30.4265C6.27447 30.4885 6.27057 30.562 6.2742 30.6342C6.27598 30.6696 6.28038 30.7232 6.29412 30.7836C6.30427 30.8282 6.33668 30.9599 6.44442 31.085C6.60399 31.2703 6.80825 31.3109 6.92241 31.316C7.03174 31.3209 7.11888 31.2983 7.16199 31.2854C7.25185 31.2585 7.32805 31.2179 7.37266 31.1927C7.4719 31.1367 7.58552 31.058 7.69916 30.9744C7.933 30.8024 8.24541 30.551 8.60276 30.2536C9.32066 29.6561 10.2588 28.8406 11.1934 28.0236C11.4021 27.8412 11.6105 27.6588 11.8165 27.4785C12.5365 26.8484 13.226 26.2449 13.7859 25.7645C14.1464 25.4551 14.4473 25.2019 14.6649 25.0275C14.6835 25.0126 14.7012 24.9984 14.7181 24.9851C14.7639 25.0116 14.8148 25.0416 14.871 25.0752C15.1634 25.2499 15.5671 25.5024 16.0492 25.8091C16.7937 26.2828 17.712 26.8777 18.6719 27.4996C18.9537 27.6821 19.2391 27.867 19.5247 28.0518C20.7806 28.8644 22.0413 29.676 23.0097 30.2752C23.4927 30.574 23.911 30.825 24.2227 30.9979C24.3766 31.0832 24.5178 31.1569 24.6337 31.2084C24.6894 31.2331 24.7588 31.2616 24.8309 31.2818C24.8663 31.2918 24.9219 31.3054 24.9883 31.311C25.0395 31.3153 25.1833 31.3235 25.3419 31.2488C25.5644 31.1438 25.6545 30.9573 25.6871 30.8653C25.7206 30.7706 25.7264 30.6878 25.7279 30.6455C25.731 30.557 25.7191 30.4753 25.7103 30.4241C25.691 30.3118 25.6559 30.1768 25.6154 30.0377C25.5325 29.7523 25.402 29.3634 25.2435 28.9144C24.9251 28.0125 24.4774 26.823 24.0271 25.6359C23.9266 25.3711 23.8261 25.1065 23.7267 24.8449C23.3791 23.9302 23.0461 23.054 22.7844 22.3454C22.6159 21.8893 22.4796 21.5096 22.3888 21.2373C22.3748 21.1954 22.3622 21.1569 22.3509 21.1218C22.3967 21.0763 22.4503 21.024 22.5117 20.9651C22.7604 20.7265 23.1137 20.4007 23.5401 20.0135C24.1989 19.4153 25.021 18.6809 25.8804 17.9131C26.1325 17.6878 26.3878 17.4597 26.6431 17.2314C27.7663 16.2268 28.89 15.2171 29.7311 14.4342C30.1506 14.0436 30.5066 13.7032 30.7589 13.4453C30.8836 13.318 30.9931 13.2004 31.0744 13.1017C31.1137 13.0541 31.159 12.9956 31.1975 12.9333C31.2164 12.9026 31.2434 12.8555 31.2664 12.7973C31.2841 12.7523 31.3294 12.6288 31.3131 12.4693L30.6665 12.5356L31.3131 12.4693C31.2895 12.2395 31.1588 12.0933 31.0744 12.0229C30.9928 11.9548 30.9124 11.9201 30.8697 11.9036C30.782 11.8698 30.6968 11.8554 30.6457 11.8481C30.5326 11.8318 30.3953 11.8252 30.2562 11.8226C29.9697 11.8173 29.5755 11.8277 29.12 11.8475C28.2046 11.8872 26.9892 11.9673 25.7763 12.0507C25.5055 12.0694 25.2348 12.0882 24.9674 12.1067C24.0327 12.1716 23.1377 12.2337 22.4163 12.2764C21.9518 12.3039 21.5673 12.3228 21.2944 12.3294C21.2696 12.33 21.2461 12.3305 21.2239 12.3309Z" stroke="#AA4400" stroke-opacity="0.999242" stroke-width="1.3"/>
<circle cx="16.7222" cy="18.5" r="2.5" fill="white" fill-opacity="0.1"/>
<circle cx="16.7222" cy="17.5" r="2.5" fill="url(#paint2_linear_1:186)"/>
<path fill-rule="evenodd" clip-rule="evenodd" d="M19.28 18.3334C19.315 18.161 19.3333 17.9827 19.3333 17.8C19.3333 16.3273 18.1394 15.1334 16.6667 15.1334C15.1939 15.1334 14 16.3273 14 17.8C14 17.9827 14.0184 18.161 14.0533 18.3334C14.3004 17.1162 15.3766 16.2 16.6667 16.2C17.9568 16.2 19.0329 17.1162 19.28 18.3334Z" fill="black" fill-opacity="0.07"/>
<path fill-rule="evenodd" clip-rule="evenodd" d="M19.3202 18.0667C19.3289 17.979 19.3333 17.89 19.3333 17.8C19.3333 16.3273 18.1394 15.1334 16.6667 15.1334C15.1939 15.1334 14 16.3273 14 17.8C14 17.89 14.0045 17.979 14.0132 18.0667C14.147 16.7191 15.2839 15.6667 16.6667 15.6667C18.0494 15.6667 19.1864 16.7191 19.3202 18.0667Z" fill="black" fill-opacity="0.15"/>
<g opacity="0.8" filter="url(#filter0_f_1:186)">
<path d="M29.9806 4.67222C29.0014 4.61485 27.5297 5.00443 25.6823 5.81008C23.8348 6.61572 21.5401 7.82481 19.215 9.32315C19.3757 9.72312 19.5561 10.0744 19.7096 10.4558C21.5427 9.35599 23.2642 8.53427 24.5608 8.10618C25.8574 7.67809 26.767 7.63712 27.205 7.98711C27.8906 8.5389 27.3676 10.0175 25.751 12.0978C24.1344 14.1781 21.5568 16.6895 18.5849 19.0798C15.613 21.4701 12.4905 23.5434 9.90405 24.8435C7.31764 26.1437 5.47924 26.5644 4.79325 26.0129C4.36253 25.6645 4.40757 24.9446 4.92428 23.919C5.44099 22.8933 7.24223 20.0893 8.58061 18.6361C8.36392 18.4883 8.49533 18.4468 8.20964 18.2585C8.10957 18.1926 7.82191 17.951 7.71501 17.881C5.37389 20.2038 2.57529 23.8974 1.57593 25.5966C0.576561 27.2958 0.396613 28.4834 1.05761 29.0174C1.51032 29.3817 2.34509 29.4315 3.51426 29.1641C4.68344 28.8967 6.16411 28.3173 7.87173 27.4589C9.57936 26.6005 11.4805 25.48 13.4666 24.1613C15.4527 22.8426 17.4848 21.3516 19.447 19.7735C21.4092 18.1953 23.2629 16.5609 24.9024 14.9635C26.542 13.3661 27.9351 11.837 29.0024 10.4635C30.0697 9.09007 30.7902 7.89913 31.1227 6.95872C31.4553 6.01831 31.3934 5.34683 30.9406 4.98263C30.7148 4.80081 30.3932 4.69684 29.9806 4.67222Z" fill="#214478" fill-opacity="0.993967"/>
</g>
<path d="M27.5185 6.93091L27.5171 6.92982C27.1607 6.64498 26.6786 6.56634 26.1824 6.58868C25.6754 6.61151 25.0758 6.7429 24.404 6.9647C24.0839 7.07038 23.7597 7.15322 23.4198 7.24007C22.6225 7.44378 21.7388 7.66958 20.6192 8.26398C20.6139 8.24608 20.6085 8.22786 20.6028 8.20928C22.3578 7.10964 23.6332 6.56488 25.0403 5.96385C25.3144 5.84677 25.5935 5.72757 25.8821 5.60171C27.718 4.80112 29.0971 4.4547 29.9512 4.50466C30.3024 4.52567 30.51 4.61116 30.6271 4.70542L30.6272 4.70555C30.8129 4.85484 30.9697 5.22497 30.6513 6.12533C30.3452 6.99114 29.6626 8.13236 28.6076 9.49004C27.558 10.8407 26.1814 12.3526 24.5535 13.9387C22.9264 15.524 21.0847 17.148 19.1337 18.7171C17.1827 20.2863 15.1628 21.7683 13.19 23.0781C11.2168 24.3882 9.33313 25.498 7.64717 26.3455C5.95695 27.1951 4.51671 27.7552 3.40278 28.01C2.84585 28.1374 2.39518 28.1826 2.04707 28.1618C1.69678 28.1409 1.48891 28.0558 1.37136 27.9614C1.2307 27.8475 1.11622 27.6291 1.18849 27.1522C1.26194 26.6675 1.5209 26.0098 2.00691 25.1834C2.1208 24.9898 2.24348 24.7779 2.37476 24.5512C3.36436 22.8425 4.84313 20.2891 6.7338 18.312C6.80518 18.3597 6.88111 18.4104 6.95525 18.4599C7.09185 18.5511 7.2224 18.6383 7.30743 18.695C6.05647 20.1634 4.96198 22.0662 4.47775 23.0273C4.20535 23.568 4.03248 24.0741 4.00445 24.522C3.97555 24.9839 4.10217 25.4303 4.47881 25.735L4.47998 25.7359C4.76111 25.9619 5.11931 26.0569 5.48877 26.0782C5.86098 26.0996 6.28589 26.0489 6.74751 25.9433C7.67112 25.732 8.81761 25.2826 10.1286 24.6236C12.7547 23.3035 15.907 21.2086 18.8983 18.8027C21.8882 16.3979 24.4974 13.8591 26.1458 11.7379C26.9667 10.6815 27.5393 9.74225 27.8127 8.96932C28.0729 8.23353 28.1297 7.42287 27.5185 6.93091Z" fill="url(#paint3_linear_1:186)" fill-opacity="0.993967" stroke="url(#paint4_linear_1:186)"/>
<path opacity="0.4" d="M7 31.5C9.62335 31.5 11.75 31.0523 11.75 30.5C11.75 29.9477 9.62335 29.5 7 29.5C4.37665 29.5 2.25 29.9477 2.25 30.5C2.25 31.0523 4.37665 31.5 7 31.5Z" fill="url(#paint5_radial_1:186)"/>
<path opacity="0.4" d="M24.75 31.5C27.3734 31.5 29.5 31.0523 29.5 30.5C29.5 29.9477 27.3734 29.5 24.75 29.5C22.1266 29.5 20 29.9477 20 30.5C20 31.0523 22.1266 31.5 24.75 31.5Z" fill="url(#paint6_radial_1:186)"/>
<path opacity="0.2" d="M29.75 30.2503C29.7492 30.6481 28.3002 31.0295 25.7217 31.3108C23.1431 31.592 19.6462 31.75 16 31.75C12.3538 31.75 8.85686 31.592 6.27832 31.3108C3.69978 31.0295 2.25078 30.6481 2.25 30.2503C2.24962 30.0533 2.60499 29.8582 3.29582 29.6762C3.98664 29.4942 4.9994 29.3288 6.27625 29.1895C7.55309 29.0501 9.06901 28.9396 10.7374 28.8642C12.4058 28.7888 14.1941 28.75 16 28.75C17.8059 28.75 19.5942 28.7888 21.2626 28.8642C22.931 28.9396 24.4469 29.0501 25.7238 29.1895C27.0006 29.3288 28.0134 29.4942 28.7042 29.6762C29.395 29.8582 29.7504 30.0533 29.75 30.2503V30.2503Z" fill="url(#paint7_radial_1:186)"/>
</g>
<defs>
<filter id="filter0_f_1:186" x="-2.02963" y="1.97043" width="36.0591" height="30.0592" filterUnits="userSpaceOnUse" color-interpolation-filters="sRGB">
<feFlood flood-opacity="0" result="BackgroundImageFix"/>
<feBlend mode="normal" in="SourceGraphic" in2="BackgroundImageFix" result="shape"/>
<feGaussianBlur stdDeviation="1.34813" result="effect1_foregroundBlur_1:186"/>
</filter>
<linearGradient id="paint0_linear_1:186" x1="8.28974" y1="1.8148" x2="24.9028" y2="29.4687" gradientUnits="userSpaceOnUse">
<stop stop-color="#FFA154"/>
<stop offset="1" stop-color="#F37329"/>
</linearGradient>
<linearGradient id="paint1_linear_1:186" x1="15.9999" y1="1.33334" x2="15.9999" y2="30.6667" gradientUnits="userSpaceOnUse">
<stop stop-color="white" stop-opacity="0.54"/>
<stop offset="1" stop-color="white" stop-opacity="0.21"/>
</linearGradient>
<linearGradient id="paint2_linear_1:186" x1="16.7222" y1="15" x2="16.7222" y2="20" gradientUnits="userSpaceOnUse">
<stop stop-color="#CC3B02"/>
<stop offset="1" stop-color="#F37329"/>
</linearGradient>
<linearGradient id="paint3_linear_1:186" x1="30.8387" y1="4" x2="0.750195" y2="27.8974" gradientUnits="userSpaceOnUse">
<stop stop-color="#64BAFF"/>
<stop offset="0.536458" stop-color="#3689E6"/>
<stop offset="1" stop-color="#0D52BF"/>
</linearGradient>
<linearGradient id="paint4_linear_1:186" x1="16" y1="4" x2="16" y2="28.6667" gradientUnits="userSpaceOnUse">
<stop stop-color="white" stop-opacity="0.38"/>
<stop offset="1" stop-color="white" stop-opacity="0.12"/>
</linearGradient>
<radialGradient id="paint5_radial_1:186" cx="0" cy="0" r="1" gradientUnits="userSpaceOnUse" gradientTransform="translate(7 30.5) scale(4.75 1)">
<stop/>
<stop offset="1" stop-opacity="0"/>
</radialGradient>
<radialGradient id="paint6_radial_1:186" cx="0" cy="0" r="1" gradientUnits="userSpaceOnUse" gradientTransform="translate(24.75 30.5) scale(4.75 1)">
<stop/>
<stop offset="1" stop-opacity="0"/>
</radialGradient>
<radialGradient id="paint7_radial_1:186" cx="0" cy="0" r="1" gradientUnits="userSpaceOnUse" gradientTransform="translate(16 30.2503) scale(13.75 1.5)">
<stop/>
<stop offset="1" stop-opacity="0"/>
</radialGradient>
<clipPath id="clip0_1:186">
<rect width="32" height="32" fill="white"/>
</clipPath>
</defs>
</svg>
