<svg width="48" height="48" viewBox="0 0 48 48" fill="none" xmlns="http://www.w3.org/2000/svg">
<g clip-path="url(#clip0_1:136)">
<path d="M23.7282 4.38824C23.8558 3.90872 23.9719 3.49126 24.0728 3.15308C24.2791 3.6049 24.5367 4.20724 24.8312 4.91834C25.4973 6.52717 26.3414 8.66726 27.1845 10.819C27.3752 11.3056 27.5658 11.7928 27.7543 12.2745C28.3982 13.9203 29.0167 15.5014 29.5255 16.7727C29.8541 17.5941 30.1387 18.2905 30.3556 18.7936C30.4638 19.0443 30.5576 19.2529 30.6331 19.4068C30.6705 19.483 30.7069 19.5531 30.741 19.611C30.7579 19.6397 30.7781 19.672 30.8009 19.7032C30.8178 19.7263 30.8603 19.7834 30.9262 19.8337C31.0078 19.896 31.09 19.9205 31.1204 19.9291C31.1617 19.9408 31.201 19.9477 31.2318 19.9521C31.2941 19.9612 31.3641 19.966 31.4336 19.9689C31.575 19.9747 31.7605 19.9739 31.9775 19.9686C32.4138 19.9581 33.0117 19.9284 33.7117 19.887C34.802 19.8225 36.155 19.7286 37.5585 19.6312C37.9584 19.6034 38.3625 19.5754 38.7657 19.5476C40.5874 19.4224 42.3924 19.3035 43.7441 19.2448C44.2402 19.2233 44.67 19.2101 45.0144 19.2074C44.6645 19.561 44.1771 20.0267 43.5917 20.5716C42.3424 21.7346 40.6675 23.2397 38.9815 24.7476C38.6002 25.0886 38.2184 25.4297 37.8409 25.767C36.551 26.9194 35.3117 28.0266 34.3187 28.9282C33.6772 29.5107 33.1349 30.0107 32.7465 30.3833C32.553 30.569 32.393 30.7276 32.2767 30.851C32.2191 30.9122 32.1666 30.9707 32.1246 31.023C32.1036 31.049 32.0806 31.0792 32.0594 31.1116C32.0432 31.1365 32.0063 31.1946 31.9827 31.2711C31.9543 31.3631 31.9573 31.444 31.9588 31.4736C31.9608 31.5144 31.9661 31.5525 31.9713 31.583C31.9819 31.6447 31.9984 31.7135 32.0171 31.783C32.0549 31.924 32.1124 32.1076 32.1841 32.3225C32.3281 32.7544 32.5394 33.3422 32.7931 34.0291C33.1882 35.099 33.6911 36.4223 34.2129 37.7954C34.3616 38.1868 34.5119 38.5823 34.6616 38.977C35.3378 40.7596 36.0034 42.5284 36.4745 43.8626C36.6474 44.3524 36.7925 44.779 36.9018 45.124C36.4815 44.8858 35.9325 44.5555 35.2907 44.1584C33.8527 43.2687 31.9737 42.0592 30.0885 40.8394C29.6621 40.5635 29.2354 40.287 28.8134 40.0137C27.3725 39.0802 25.9881 38.1833 24.8657 37.4691C24.1405 37.0077 23.5205 36.6199 23.0632 36.3466C22.8353 36.2104 22.6421 36.0993 22.494 36.0209C22.4207 35.9821 22.3509 35.9473 22.2894 35.9209C22.2589 35.9078 22.2232 35.8936 22.1855 35.8819C22.1575 35.8731 22.087 35.852 22.001 35.852C21.8961 35.852 21.8143 35.8841 21.7862 35.8954C21.7466 35.9113 21.7114 35.9297 21.6844 35.9449C21.6297 35.9757 21.571 36.0146 21.5135 36.055C21.3966 36.1372 21.2474 36.2521 21.075 36.3902C20.7283 36.6681 20.2615 37.0613 19.7184 37.5273C18.8725 38.2532 17.8304 39.1652 16.7494 40.1113C16.4414 40.3809 16.1302 40.6532 15.8196 40.9248C14.4159 42.1518 13.0217 43.3636 11.9607 44.2466C11.5897 44.5553 11.2631 44.8209 10.993 45.0315C11.0787 44.533 11.21 43.8703 11.3742 43.0901C11.7348 41.3768 12.2484 39.1238 12.7694 36.862C12.8872 36.3505 13.0054 35.8385 13.1222 35.3323C13.5215 33.603 13.905 31.9416 14.2042 30.5988C14.3975 29.7312 14.5566 28.992 14.6624 28.451C14.7151 28.1814 14.7558 27.955 14.7807 27.7841C14.793 27.6995 14.8026 27.6206 14.8074 27.5534C14.8097 27.5201 14.8114 27.4823 14.8104 27.4441C14.8097 27.4152 14.8072 27.3468 14.7838 27.271C14.755 27.1779 14.7062 27.1125 14.6872 27.0879C14.6618 27.0548 14.6352 27.0263 14.6133 27.0042C14.5691 26.9596 14.5162 26.9132 14.4618 26.8682C14.3515 26.7768 14.2015 26.6631 14.0231 26.5334C13.6646 26.2726 13.1645 25.9273 12.5751 25.5283C11.6571 24.9068 10.5102 24.1468 9.32029 23.3583C8.98116 23.1336 8.63856 22.9066 8.29677 22.6798C6.75302 21.6554 5.22605 20.636 4.09947 19.8481C3.67338 19.5501 3.30904 19.2883 3.02459 19.0737C3.50296 19.0046 4.15053 18.93 4.91924 18.8519C6.57979 18.683 8.77603 18.5004 10.9831 18.3223C11.4821 18.2821 11.9816 18.2421 12.4754 18.2025C14.1634 18.0673 15.7853 17.9373 17.093 17.8215C17.9377 17.7466 18.6564 17.6773 19.1794 17.6157C19.4399 17.5851 19.6587 17.5556 19.8227 17.5274C19.9039 17.5134 19.9802 17.4984 20.045 17.4817C20.0771 17.4734 20.1141 17.4627 20.1512 17.449C20.1793 17.4385 20.2463 17.4125 20.3132 17.3615C20.3932 17.3003 20.4383 17.2288 20.4536 17.204C20.4754 17.1689 20.4926 17.1341 20.5056 17.106C20.5317 17.0492 20.5569 16.983 20.5807 16.9153C20.6289 16.7778 20.6851 16.5937 20.7472 16.3756C20.8722 15.9372 21.0298 15.3312 21.2086 14.6187C21.4871 13.509 21.8202 12.1276 22.1657 10.6943C22.2642 10.2857 22.3637 9.87299 22.4633 9.46111C22.9129 7.6011 23.3633 5.75878 23.7282 4.38824Z" fill="url(#paint0_linear_1:136)" stroke="url(#paint1_linear_1:136)"/>
<path d="M27.0339 21.9247C26.9871 22.2353 26.8121 22.4963 26.5676 22.6659C26.3289 22.8316 26.0238 22.91 25.7076 22.8624C25.0676 22.766 24.624 22.1899 24.7164 21.5754C24.8091 20.961 25.4028 20.5412 26.0428 20.6376C26.3465 20.6834 26.6206 20.8418 26.8065 21.0784C26.8085 21.0811 26.8108 21.0842 26.8129 21.0869C26.9989 21.3283 27.0784 21.6296 27.0339 21.9247ZM27.1243 17.9686C27.1016 18.2337 26.9687 18.4647 26.7711 18.6225C26.5775 18.7768 26.3156 18.9389 26.0486 18.8987H26.0483C25.5064 18.8169 25.1022 18.3257 25.147 17.7998L25.1471 17.7996C25.1921 17.2736 25.6711 16.8851 26.2171 16.9317H26.2174C26.4766 16.954 26.7171 17.0733 26.8868 17.2642C26.8889 17.2666 26.891 17.2688 26.893 17.2712C27.0628 17.4655 27.1459 17.7164 27.1243 17.9686V17.9686ZM26.971 14.3201C26.9678 14.5412 26.8719 14.7423 26.7167 14.8864C26.5646 15.0277 26.3567 15.1385 26.1328 15.1274L26.1322 15.1274C25.6764 15.1045 25.3118 14.7388 25.3179 14.2972V14.2966C25.3243 13.8551 25.6992 13.5023 26.1556 13.5086H26.156C26.373 13.5118 26.5798 13.5974 26.7323 13.7468C26.7343 13.7487 26.7362 13.7506 26.7381 13.7525C26.89 13.9045 26.9739 14.1086 26.971 14.3201V14.3201ZM26.5656 11.0443C26.5775 11.2248 26.5132 11.3963 26.3958 11.5252C26.2802 11.6523 26.116 11.7343 25.9335 11.7463L25.9328 11.7464C25.56 11.7704 25.2387 11.4959 25.2149 11.1329V11.1322C25.1915 10.7693 25.4745 10.4554 25.8472 10.4309L25.8479 10.4309C26.0253 10.4195 26.2001 10.4765 26.3344 10.5896C26.336 10.5912 26.3378 10.5927 26.3397 10.5942C26.4732 10.7091 26.5543 10.8709 26.5656 11.0443V11.0443ZM25.9228 8.23433C25.9452 8.37818 25.9068 8.52167 25.8215 8.63512C25.7372 8.74743 25.6103 8.82519 25.4652 8.84769C25.4649 8.84773 25.4646 8.84777 25.4645 8.84781C25.1667 8.89348 24.8889 8.69392 24.8436 8.40171C24.8436 8.4014 24.8436 8.40109 24.8434 8.40076C24.7985 8.10861 24.9611 7.84034 25.2529 7.76515C25.253 7.76508 25.2534 7.76498 25.2537 7.76489C25.3929 7.72926 25.5403 7.74896 25.6639 7.81967C25.6656 7.82067 25.6674 7.82164 25.6691 7.82267C25.7917 7.89455 25.9012 8.09506 25.9228 8.23433V8.23433ZM24.9517 6.00676C24.9958 6.11486 24.9938 6.23507 24.9486 6.34111C24.9032 6.44671 24.818 6.53143 24.7093 6.57573C24.7091 6.57585 24.7088 6.57602 24.7085 6.57613C24.4841 6.66699 24.229 6.56079 24.1384 6.33852C24.1383 6.33818 24.1382 6.33784 24.138 6.3375C24.0479 6.11516 24.1563 5.86108 24.3805 5.76962C24.3809 5.76945 24.3812 5.76935 24.3816 5.76918C24.4888 5.72574 24.609 5.72599 24.7154 5.77006C24.717 5.77071 24.7187 5.77133 24.7201 5.77204C24.8254 5.81694 24.9086 5.9012 24.9517 6.00676ZM24.2891 4.79617C24.3265 4.8881 24.3259 4.99118 24.2875 5.0827C24.249 5.1742 24.1759 5.2467 24.0837 5.28424C24.0833 5.2844 24.083 5.2845 24.0827 5.28467C23.8915 5.36198 23.6738 5.27002 23.5959 5.07897C23.5957 5.07857 23.5956 5.07822 23.5953 5.07785C23.5179 4.88671 23.6099 4.66888 23.801 4.59094C23.8014 4.59079 23.8018 4.59062 23.8021 4.59047C23.8937 4.55345 23.9964 4.55412 24.0874 4.59249C24.0888 4.59307 24.0904 4.59365 24.0917 4.59432C24.1814 4.63325 24.2521 4.70566 24.2891 4.79617V4.79617ZM20.4673 22.2872C20.7483 22.4277 20.9424 22.6748 21.0282 22.9598C21.112 23.2379 21.0923 23.5524 20.9493 23.8384C20.6599 24.4172 19.9748 24.6611 19.419 24.3833C18.8634 24.1053 18.6476 23.4109 18.937 22.8321C19.0744 22.5574 19.3098 22.3457 19.5922 22.2419C19.5953 22.2409 19.599 22.2396 19.6023 22.2385C19.8893 22.1362 20.2004 22.1537 20.4673 22.2873L20.4673 22.2872ZM16.7329 20.9787C16.9779 21.0822 17.1566 21.28 17.2455 21.5167C17.3325 21.7485 17.4058 22.0477 17.285 22.2892L17.2849 22.2895C17.0397 22.7796 16.4475 23.0122 15.9613 22.8071L15.9611 22.8069C15.4747 22.6016 15.2533 22.026 15.4663 21.5211L15.4664 21.5209C15.5677 21.2812 15.7555 21.0893 15.9895 20.987C15.9925 20.9857 15.9952 20.9843 15.998 20.9831C16.2353 20.8817 16.4996 20.8802 16.7328 20.9788L16.7329 20.9787ZM13.2155 19.9971C13.4249 20.0684 13.5865 20.2218 13.6755 20.4139C13.7629 20.6022 13.804 20.8342 13.7243 21.0438L13.7241 21.0443C13.5615 21.4707 13.101 21.7044 12.6829 21.5622L12.6824 21.562C12.2644 21.4195 12.0447 20.9539 12.1918 20.5218L12.1919 20.5214C12.262 20.316 12.4073 20.1458 12.5965 20.047C12.5989 20.0457 12.6013 20.0444 12.6037 20.0431C12.7952 19.9456 13.0152 19.9289 13.2155 19.997V19.9971ZM9.97479 19.3704C10.1501 19.4148 10.2933 19.529 10.3797 19.6805C10.4648 19.8297 10.4921 20.0112 10.4471 20.1885L10.4469 20.1892C10.3546 20.5511 9.99425 20.7719 9.64166 20.6823L9.64096 20.6821C9.28858 20.5922 9.07752 20.226 9.16942 19.8641L9.16958 19.8634C9.21355 19.6911 9.32181 19.5425 9.47094 19.4497C9.47285 19.4487 9.47485 19.4474 9.47686 19.4462C9.6274 19.3547 9.80632 19.3276 9.9748 19.3704L9.97479 19.3704ZM7.1037 19.1133C7.24744 19.1365 7.37204 19.2174 7.45356 19.3336C7.53432 19.4485 7.56908 19.5931 7.54562 19.7381C7.54558 19.7384 7.54553 19.7387 7.54553 19.7388C7.49694 20.0361 7.2213 20.2387 6.92938 20.1915C6.92908 20.1914 6.92879 20.1913 6.92843 20.1914C6.63669 20.1438 6.43179 19.9063 6.45046 19.6055C6.45044 19.6054 6.45047 19.6049 6.45048 19.6046C6.45961 19.4613 6.52389 19.3272 6.62933 19.2315C6.6308 19.2302 6.63229 19.2288 6.63379 19.2274C6.74005 19.133 6.96455 19.0909 7.10371 19.1133L7.1037 19.1133ZM4.68506 19.3486C4.80149 19.3401 4.9152 19.3791 5.00208 19.4549C5.0885 19.5306 5.14275 19.6378 5.15129 19.7549C5.15131 19.7552 5.15139 19.7555 5.15141 19.7558C5.16849 19.9973 4.98865 20.2071 4.74927 20.2246C4.7489 20.2246 4.74853 20.2246 4.74817 20.2247C4.50886 20.2417 4.30072 20.06 4.28302 19.8185C4.28299 19.8181 4.28298 19.8178 4.28295 19.8173C4.27475 19.702 4.31213 19.5878 4.38693 19.5001C4.38803 19.4989 4.38916 19.4975 4.39026 19.4963C4.46551 19.41 4.57135 19.357 4.68506 19.3486L4.68506 19.3486ZM3.32897 19.6047C3.42796 19.5974 3.52582 19.6299 3.60099 19.6947C3.6761 19.7596 3.72245 19.8516 3.72969 19.9508C3.7297 19.9513 3.72971 19.9516 3.72979 19.9519C3.74423 20.1576 3.5895 20.3362 3.38371 20.3513C3.38329 20.3514 3.38291 20.3514 3.38247 20.3515C3.17677 20.3661 2.99803 20.2113 2.98295 20.0055C2.98293 20.005 2.9829 20.0046 2.98285 20.0043C2.97593 19.9057 3.00832 19.8082 3.07293 19.7335C3.07392 19.7324 3.07496 19.7311 3.07598 19.73C3.14073 19.6567 3.23145 19.6118 3.32896 19.6046L3.32897 19.6047ZM18.783 28.6444C19.0034 28.4206 19.2984 28.3124 19.5959 28.3188C19.8864 28.325 20.1793 28.441 20.4071 28.6654C20.8682 29.1195 20.8884 29.8464 20.4526 30.2891C20.0164 30.7317 19.2893 30.7224 18.8283 30.2683C18.6095 30.0527 18.4808 29.7634 18.4694 29.4627C18.4694 29.4593 18.4694 29.4555 18.4693 29.4521C18.4608 29.1475 18.5735 28.857 18.783 28.6444L18.783 28.6444ZM16.3845 31.7918C16.5586 31.5907 16.802 31.4819 17.0545 31.4704C17.3019 31.4594 17.6091 31.4822 17.8015 31.6716L17.8017 31.6718C18.192 32.0565 18.2303 32.6915 17.8849 33.0906L17.8847 33.0907C17.5392 33.4898 16.9233 33.5225 16.509 33.1639L16.5087 33.1637C16.3121 32.9934 16.1877 32.7554 16.1626 32.5013C16.1623 32.498 16.1619 32.495 16.1617 32.4919C16.1385 32.2349 16.2188 31.9831 16.3845 31.7917L16.3845 31.7918ZM14.364 34.8337C14.4965 34.6566 14.6923 34.5503 14.9026 34.525C15.1087 34.5 15.342 34.5326 15.5166 34.6732L15.5171 34.6735C15.8724 34.96 15.9524 35.4701 15.6878 35.8238L15.6875 35.8242C15.4228 36.1777 14.9122 36.2428 14.5467 35.9694L14.5464 35.9691C14.3727 35.839 14.2557 35.6483 14.2201 35.4378C14.2196 35.4351 14.2191 35.4324 14.2188 35.4297C14.1852 35.2174 14.2373 35.003 14.364 34.8336V34.8337ZM12.7665 37.7221C12.8629 37.5691 13.0158 37.4682 13.1865 37.4328C13.3548 37.398 13.5358 37.4281 13.6905 37.5257L13.6911 37.5261C14.0068 37.7257 14.1054 38.1366 13.9113 38.4443L13.9109 38.4449C13.7165 38.7523 13.303 38.8398 12.9872 38.6406L12.9866 38.6402C12.8363 38.5452 12.7285 38.3963 12.6863 38.2258C12.6859 38.2236 12.6853 38.2214 12.6847 38.219C12.6442 38.0475 12.6737 37.869 12.7665 37.722L12.7665 37.7221ZM11.6348 40.3732C11.7013 40.2436 11.8167 40.1501 11.9524 40.1085C12.0866 40.0672 12.235 40.0789 12.3656 40.146C12.3658 40.1461 12.3661 40.1462 12.3662 40.1463C12.634 40.2844 12.7414 40.6091 12.6064 40.8722C12.6062 40.8724 12.606 40.8727 12.6059 40.873C12.4705 41.1358 12.1813 41.2573 11.9011 41.1466C11.9009 41.1465 11.9005 41.1464 11.9002 41.1463C11.7667 41.0933 11.659 40.9907 11.6006 40.8609C11.5998 40.859 11.5989 40.8572 11.5981 40.8553C11.5412 40.7251 11.5705 40.4986 11.6348 40.3732L11.6348 40.3732ZM11.1112 42.7462C11.139 42.6328 11.2113 42.5367 11.3102 42.4775C11.409 42.4187 11.5277 42.4003 11.6417 42.4283C11.642 42.4284 11.6423 42.4284 11.6426 42.4285C11.8775 42.4868 12.0215 42.7227 11.9641 42.9558C11.964 42.9561 11.9639 42.9565 11.9638 42.9569C11.9061 43.1897 11.669 43.3315 11.4339 43.2737C11.4334 43.2736 11.4331 43.2735 11.4327 43.2734C11.3205 43.2456 11.2234 43.1747 11.1632 43.0765C11.1623 43.0751 11.1613 43.0735 11.1606 43.0721C11.1017 42.9739 11.084 42.8568 11.1112 42.7461L11.1112 42.7462ZM10.9356 44.115C10.9594 44.0186 11.0205 43.9356 11.1053 43.8841C11.1903 43.8328 11.2921 43.8171 11.3887 43.8409C11.3891 43.841 11.3894 43.8411 11.3897 43.8411C11.5899 43.8909 11.7119 44.0933 11.6627 44.2937C11.6626 44.2941 11.6625 44.2945 11.6625 44.2949C11.6128 44.495 11.4103 44.6172 11.2099 44.568C11.2095 44.5678 11.209 44.5677 11.2087 44.5677C11.1129 44.5438 11.0302 44.4829 10.9791 44.3983C10.9783 44.397 10.9774 44.3956 10.9767 44.3944C10.927 44.3101 10.9124 44.21 10.9356 44.115L10.9356 44.115ZM24.3085 32.2108C24.1637 31.932 24.152 31.618 24.2501 31.3371C24.3458 31.0627 24.5466 30.82 24.8304 30.6726C25.4047 30.3745 26.1023 30.5798 26.3887 31.1312C26.6748 31.6827 26.4412 32.3714 25.8669 32.6695C25.5942 32.811 25.2793 32.8439 24.9899 32.7619C24.9866 32.7609 24.9831 32.7596 24.9797 32.7587C24.6873 32.6728 24.4459 32.4757 24.3085 32.2108L24.3085 32.2108ZM26.5606 35.4645C26.4232 35.2367 26.395 34.9717 26.4621 34.7279C26.528 34.4893 26.6446 34.2041 26.8843 34.0798L26.8845 34.0796C27.3709 33.8273 27.9867 33.9871 28.2595 34.4388L28.2596 34.4391C28.5324 34.8911 28.3732 35.4869 27.9041 35.7701L27.9039 35.7703C27.6811 35.9046 27.4163 35.9495 27.1669 35.8947C27.1637 35.894 27.1608 35.8936 27.1578 35.8927C26.9062 35.8353 26.6916 35.6812 26.5607 35.4644L26.5606 35.4645ZM28.8293 38.3261C28.7018 38.1453 28.6612 37.9263 28.7021 37.7185C28.7421 37.5148 28.8452 37.3029 29.0329 37.1803L29.0333 37.18C29.4156 36.9305 29.9254 37.0121 30.1801 37.373L30.1804 37.3734C30.4348 37.7344 30.3388 38.2402 29.9659 38.5033L29.9656 38.5035C29.7882 38.6285 29.5706 38.6809 29.3594 38.6496C29.3567 38.6492 29.354 38.6489 29.3513 38.6484C29.139 38.6147 28.9512 38.499 28.8293 38.3261H28.8293ZM31.0827 40.738C30.967 40.599 30.9182 40.4224 30.9374 40.2491C30.9562 40.0783 31.0408 39.9155 31.1815 39.7985L31.182 39.798C31.4694 39.5595 31.8907 39.5927 32.1233 39.8724L32.1238 39.873C32.356 40.1528 32.3115 40.5731 32.0244 40.8119L32.0239 40.8124C31.8871 40.9259 31.7121 40.9825 31.5369 40.9699C31.5348 40.9696 31.5324 40.9695 31.53 40.9694C31.3544 40.9549 31.1938 40.8716 31.0826 40.738L31.0827 40.738ZM33.2543 42.6335C33.1517 42.5303 33.0984 42.3916 33.1007 42.2497C33.103 42.1093 33.1599 41.9718 33.2641 41.8683C33.2643 41.8681 33.2645 41.8679 33.2646 41.8678C33.4786 41.6558 33.8207 41.654 34.0291 41.8637C34.0293 41.8639 34.0295 41.8642 34.0298 41.8643C34.2379 42.0743 34.264 42.3869 34.0721 42.6192C34.072 42.6194 34.0718 42.6197 34.0716 42.6199C33.9799 42.7306 33.8491 42.8013 33.7075 42.8167C33.7056 42.8169 33.7036 42.8172 33.7016 42.8174C33.5602 42.8313 33.3538 42.7334 33.2544 42.6335L33.2543 42.6335ZM35.3493 43.8648C35.2501 43.8033 35.1811 43.7049 35.1553 43.5925C35.13 43.4804 35.1491 43.3618 35.211 43.2621C35.2111 43.2618 35.2113 43.2615 35.2114 43.2612C35.3396 43.0558 35.6084 42.9918 35.8123 43.1184C35.8126 43.1186 35.8129 43.1188 35.8132 43.119C36.0168 43.2459 36.0785 43.5152 35.9508 43.7209C35.9506 43.7213 35.9504 43.7216 35.9502 43.722C35.889 43.8201 35.7916 43.8905 35.6796 43.9174C35.6779 43.9178 35.6762 43.9183 35.6747 43.9186C35.5631 43.9442 35.4462 43.925 35.3493 43.8648L35.3493 43.8648ZM36.597 44.4547C36.5127 44.4024 36.4525 44.3186 36.4298 44.222C36.4072 44.1253 36.4237 44.0237 36.4762 43.9392C36.4765 43.9388 36.4766 43.9385 36.4768 43.9382C36.586 43.7633 36.8162 43.7097 36.9916 43.8185C36.9919 43.8187 36.9922 43.8189 36.9927 43.8191C37.1676 43.9282 37.2212 44.1585 37.1125 44.3339C37.1122 44.3342 37.112 44.3346 37.1118 44.3349C37.0595 44.4187 36.976 44.4785 36.8798 44.501C36.8784 44.5013 36.8767 44.5018 36.8753 44.502C36.7798 44.5232 36.6801 44.5063 36.5969 44.4547L36.597 44.4547ZM29.4079 28.0578C29.0979 28.1093 28.7957 28.0235 28.5588 27.8434C28.3275 27.6676 28.1586 27.4016 28.1062 27.0862C28.0001 26.4478 28.411 25.8478 29.0239 25.7459C29.6368 25.6441 30.2196 26.0791 30.3257 26.7175C30.376 27.0205 30.31 27.3301 30.1425 27.5801C30.1405 27.5828 30.1382 27.5859 30.1364 27.5887C29.9643 27.8402 29.7023 28.0089 29.4079 28.0578L29.4079 28.0578ZM33.1982 26.9213C32.9391 26.9817 32.6783 26.9266 32.4673 26.7875C32.2606 26.651 32.0255 26.452 31.9813 26.1856L31.9812 26.1854C31.8915 25.6448 32.2338 25.1085 32.7477 24.9886L32.748 24.9887C33.2622 24.8689 33.7797 25.2044 33.904 25.7381L33.9041 25.7383C33.9631 25.9918 33.9239 26.2574 33.7947 26.4777C33.793 26.4806 33.7918 26.4831 33.7901 26.4858C33.6577 26.7073 33.4448 26.8639 33.1982 26.9213V26.9213ZM36.6208 25.648C36.4095 25.7134 36.1886 25.6843 36.0037 25.5812C35.8223 25.4802 35.6526 25.3167 35.594 25.1003L35.5938 25.0998C35.4747 24.6592 35.7099 24.1995 36.1318 24.0688L36.1323 24.0686C36.5542 23.9383 37.0056 24.1858 37.1406 24.6218L37.1407 24.6222C37.2048 24.8295 37.1873 25.0526 37.0923 25.2438C37.0911 25.2463 37.0899 25.2488 37.0886 25.2511C36.991 25.4426 36.8228 25.5854 36.6208 25.6479L36.6208 25.648ZM39.611 24.2502C39.443 24.3173 39.2601 24.3091 39.1011 24.2373C38.9446 24.1666 38.8158 24.0359 38.748 23.8659L38.7478 23.8653C38.6097 23.5182 38.7715 23.1278 39.1093 22.993L39.11 22.9928C39.448 22.8584 39.8339 23.0306 39.9723 23.3774L39.9726 23.378C40.0383 23.5433 40.0381 23.7271 39.972 23.8899C39.971 23.8918 39.9701 23.894 39.9693 23.8962C39.9013 24.0587 39.7724 24.1858 39.611 24.2502L39.611 24.2502ZM42.0848 22.7706C41.9549 22.8363 41.8066 22.8442 41.6723 22.7981C41.5395 22.7526 41.4263 22.656 41.3601 22.5249C41.3599 22.5246 41.3598 22.5244 41.3597 22.5242C41.2243 22.2551 41.3282 21.9293 41.5921 21.7958C41.5924 21.7958 41.5927 21.7957 41.593 21.7954C41.8569 21.6624 42.1623 21.7341 42.324 21.9884C42.3241 21.9885 42.3243 21.9889 42.3245 21.9892C42.4014 22.1105 42.4282 22.2568 42.3992 22.3962C42.3987 22.3982 42.3984 22.4002 42.3979 22.4021C42.3674 22.541 42.2106 22.707 42.0848 22.7706V22.7706ZM43.9033 21.1586C43.8141 21.234 43.6991 21.2692 43.5843 21.259C43.4699 21.2485 43.363 21.1936 43.2872 21.104C43.287 21.1037 43.2868 21.1035 43.2866 21.1033C43.1309 20.918 43.153 20.6425 43.3364 20.4877C43.3367 20.4875 43.337 20.4872 43.3373 20.487C43.5209 20.3325 43.796 20.3571 43.9523 20.5421C43.9526 20.5425 43.9528 20.5427 43.9531 20.5431C44.0275 20.6315 44.0644 20.7459 44.0554 20.8608C44.0552 20.8625 44.0552 20.8643 44.0549 20.8659C44.0447 20.9799 43.9903 21.0851 43.9033 21.1587L43.9033 21.1586ZM44.8498 20.1544C44.774 20.2184 44.6758 20.2497 44.5769 20.2414C44.4779 20.2331 44.3864 20.1859 44.3222 20.1099C44.3219 20.1095 44.3217 20.1093 44.3215 20.109C44.1889 19.9511 44.2091 19.7156 44.3667 19.5825C44.367 19.5822 44.3673 19.582 44.3676 19.5816C44.5254 19.4489 44.761 19.4691 44.8942 19.6267C44.8945 19.6271 44.8948 19.6274 44.895 19.6276C44.9585 19.7033 44.9896 19.8012 44.9812 19.8996C44.9811 19.9012 44.981 19.9027 44.9808 19.9043C44.9715 20.0016 44.9245 20.0913 44.8498 20.1544V20.1544ZM24.9272 29.4782C24.5525 29.5999 24.1575 29.6467 23.7647 29.6157C23.372 29.5848 22.9892 29.4769 22.6381 29.298C22.2871 29.1192 21.9747 28.8729 21.7189 28.5733C21.463 28.2738 21.2687 27.9267 21.1469 27.552C20.9011 26.7953 20.9659 25.9719 21.3271 25.263C21.6883 24.5541 22.3163 24.0177 23.0731 23.7718C23.8298 23.526 24.6531 23.5908 25.3621 23.952C26.071 24.3132 26.6074 24.9412 26.8533 25.6979C26.975 26.0726 27.0218 26.4676 26.9909 26.8604C26.9599 27.2531 26.852 27.6359 26.6731 27.987C26.4943 28.338 26.248 28.6503 25.9484 28.9062C25.6489 29.1621 25.3018 29.3564 24.9272 29.4782V29.4782Z" fill="white" fill-opacity="0.5"/>
<path d="M27.0339 21.5497C26.9871 21.8603 26.8121 22.1213 26.5676 22.2909C26.3289 22.4566 26.0238 22.535 25.7076 22.4874C25.0676 22.391 24.624 21.8149 24.7164 21.2004C24.8091 20.586 25.4028 20.1662 26.0428 20.2626C26.3465 20.3084 26.6206 20.4668 26.8065 20.7034C26.8085 20.7061 26.8108 20.7092 26.8129 20.7119C26.9989 20.9533 27.0784 21.2546 27.0339 21.5497ZM27.1243 17.5936C27.1016 17.8587 26.9687 18.0897 26.7711 18.2475C26.5775 18.4018 26.3156 18.5639 26.0486 18.5237H26.0483C25.5064 18.4419 25.1022 17.9507 25.147 17.4248L25.1471 17.4246C25.1921 16.8986 25.6711 16.5101 26.2171 16.5567H26.2174C26.4766 16.579 26.7171 16.6983 26.8868 16.8892C26.8889 16.8916 26.891 16.8938 26.893 16.8962C27.0628 17.0905 27.1459 17.3414 27.1243 17.5936V17.5936ZM26.971 13.9451C26.9678 14.1662 26.8719 14.3673 26.7167 14.5114C26.5646 14.6527 26.3567 14.7635 26.1328 14.7524L26.1322 14.7524C25.6764 14.7295 25.3118 14.3638 25.3179 13.9222V13.9216C25.3243 13.4801 25.6992 13.1273 26.1556 13.1336H26.156C26.373 13.1368 26.5798 13.2224 26.7323 13.3718C26.7343 13.3737 26.7362 13.3756 26.7381 13.3775C26.89 13.5295 26.9739 13.7336 26.971 13.9451V13.9451ZM26.5656 10.6693C26.5775 10.8498 26.5132 11.0213 26.3958 11.1502C26.2802 11.2773 26.116 11.3593 25.9335 11.3713L25.9328 11.3714C25.56 11.3954 25.2387 11.1209 25.2149 10.7579V10.7572C25.1915 10.3943 25.4745 10.0804 25.8472 10.0559L25.8479 10.0559C26.0253 10.0445 26.2001 10.1015 26.3344 10.2146C26.336 10.2162 26.3378 10.2177 26.3397 10.2192C26.4732 10.3341 26.5543 10.4959 26.5656 10.6693V10.6693ZM25.9228 7.85933C25.9452 8.00318 25.9068 8.14667 25.8215 8.26012C25.7372 8.37243 25.6103 8.45019 25.4652 8.47269C25.4649 8.47273 25.4646 8.47277 25.4645 8.47281C25.1667 8.51848 24.8889 8.31892 24.8436 8.02671C24.8436 8.0264 24.8436 8.02609 24.8434 8.02576C24.7985 7.73361 24.9611 7.46534 25.2529 7.39015C25.253 7.39008 25.2534 7.38998 25.2537 7.38989C25.3929 7.35426 25.5403 7.37396 25.6639 7.44467C25.6656 7.44567 25.6674 7.44664 25.6691 7.44767C25.7917 7.51955 25.9012 7.72006 25.9228 7.85933V7.85933ZM24.9517 5.63176C24.9958 5.73986 24.9938 5.86007 24.9486 5.96611C24.9032 6.07171 24.818 6.15643 24.7093 6.20073C24.7091 6.20085 24.7088 6.20102 24.7085 6.20113C24.4841 6.29199 24.229 6.18579 24.1384 5.96352C24.1383 5.96318 24.1382 5.96284 24.138 5.9625C24.0479 5.74016 24.1563 5.48608 24.3805 5.39462C24.3809 5.39445 24.3812 5.39435 24.3816 5.39418C24.4888 5.35074 24.609 5.35099 24.7154 5.39506C24.717 5.39571 24.7187 5.39633 24.7201 5.39704C24.8254 5.44194 24.9086 5.5262 24.9517 5.63176ZM24.2891 4.42117C24.3265 4.5131 24.3259 4.61618 24.2875 4.7077C24.249 4.7992 24.1759 4.8717 24.0837 4.90924C24.0833 4.9094 24.083 4.9095 24.0827 4.90967C23.8915 4.98698 23.6738 4.89502 23.5959 4.70397C23.5957 4.70357 23.5956 4.70322 23.5953 4.70285C23.5179 4.51171 23.6099 4.29388 23.801 4.21594C23.8014 4.21579 23.8018 4.21562 23.8021 4.21547C23.8937 4.17845 23.9964 4.17912 24.0874 4.21749C24.0888 4.21807 24.0904 4.21865 24.0917 4.21932C24.1814 4.25825 24.2521 4.33066 24.2891 4.42117V4.42117ZM20.4673 21.9122C20.7483 22.0527 20.9424 22.2998 21.0282 22.5848C21.112 22.8629 21.0923 23.1774 20.9493 23.4634C20.6599 24.0422 19.9748 24.2861 19.419 24.0083C18.8634 23.7303 18.6476 23.0359 18.937 22.4571C19.0744 22.1824 19.3098 21.9707 19.5922 21.8669C19.5953 21.8659 19.599 21.8646 19.6023 21.8635C19.8893 21.7612 20.2004 21.7787 20.4673 21.9123L20.4673 21.9122ZM16.7329 20.6037C16.9779 20.7072 17.1566 20.905 17.2455 21.1417C17.3325 21.3735 17.4058 21.6727 17.285 21.9142L17.2849 21.9145C17.0397 22.4046 16.4475 22.6372 15.9613 22.4321L15.9611 22.4319C15.4747 22.2266 15.2533 21.651 15.4663 21.1461L15.4664 21.1459C15.5677 20.9062 15.7555 20.7143 15.9895 20.612C15.9925 20.6107 15.9952 20.6093 15.998 20.6081C16.2353 20.5067 16.4996 20.5052 16.7328 20.6038L16.7329 20.6037ZM13.2155 19.6221C13.4249 19.6934 13.5865 19.8468 13.6755 20.0389C13.7629 20.2272 13.804 20.4592 13.7243 20.6688L13.7241 20.6693C13.5615 21.0957 13.101 21.3294 12.6829 21.1872L12.6824 21.187C12.2644 21.0445 12.0447 20.5789 12.1918 20.1468L12.1919 20.1464C12.262 19.941 12.4073 19.7708 12.5965 19.672C12.5989 19.6707 12.6013 19.6694 12.6037 19.6681C12.7952 19.5706 13.0152 19.5539 13.2155 19.622V19.6221ZM9.97479 18.9954C10.1501 19.0398 10.2933 19.154 10.3797 19.3055C10.4648 19.4547 10.4921 19.6362 10.4471 19.8135L10.4469 19.8142C10.3546 20.1761 9.99425 20.3969 9.64166 20.3073L9.64096 20.3071C9.28858 20.2172 9.07752 19.851 9.16942 19.4891L9.16958 19.4884C9.21355 19.3161 9.32181 19.1675 9.47094 19.0747C9.47285 19.0737 9.47485 19.0724 9.47686 19.0712C9.6274 18.9797 9.80632 18.9526 9.9748 18.9954L9.97479 18.9954ZM7.1037 18.7383C7.24744 18.7615 7.37204 18.8424 7.45356 18.9586C7.53432 19.0735 7.56908 19.2181 7.54562 19.3631C7.54558 19.3634 7.54553 19.3637 7.54553 19.3638C7.49694 19.6611 7.2213 19.8637 6.92938 19.8165C6.92908 19.8164 6.92879 19.8163 6.92843 19.8164C6.63669 19.7688 6.43179 19.5313 6.45046 19.2305C6.45044 19.2304 6.45047 19.2299 6.45048 19.2296C6.45961 19.0863 6.52389 18.9522 6.62933 18.8565C6.6308 18.8552 6.63229 18.8538 6.63379 18.8524C6.74005 18.758 6.96455 18.7159 7.10371 18.7383L7.1037 18.7383ZM4.68506 18.9736C4.80149 18.9651 4.9152 19.0041 5.00208 19.0799C5.0885 19.1556 5.14275 19.2628 5.15129 19.3799C5.15131 19.3802 5.15139 19.3805 5.15141 19.3808C5.16849 19.6223 4.98865 19.8321 4.74927 19.8496C4.7489 19.8496 4.74853 19.8496 4.74817 19.8497C4.50886 19.8667 4.30072 19.685 4.28302 19.4435C4.28299 19.4431 4.28298 19.4428 4.28295 19.4423C4.27475 19.327 4.31213 19.2128 4.38693 19.1251C4.38803 19.1239 4.38916 19.1225 4.39026 19.1213C4.46551 19.035 4.57135 18.982 4.68506 18.9736L4.68506 18.9736ZM3.32897 19.2297C3.42796 19.2224 3.52582 19.2549 3.60099 19.3197C3.6761 19.3846 3.72245 19.4766 3.72969 19.5758C3.7297 19.5763 3.72971 19.5766 3.72979 19.5769C3.74423 19.7826 3.5895 19.9612 3.38371 19.9763C3.38329 19.9764 3.38291 19.9764 3.38247 19.9765C3.17677 19.9911 2.99803 19.8363 2.98295 19.6305C2.98293 19.63 2.9829 19.6296 2.98285 19.6293C2.97593 19.5307 3.00832 19.4332 3.07293 19.3585C3.07392 19.3574 3.07496 19.3561 3.07598 19.355C3.14073 19.2817 3.23145 19.2368 3.32896 19.2296L3.32897 19.2297ZM18.783 28.2694C19.0034 28.0456 19.2984 27.9374 19.5959 27.9438C19.8864 27.95 20.1793 28.066 20.4071 28.2904C20.8682 28.7445 20.8884 29.4714 20.4526 29.9141C20.0164 30.3567 19.2893 30.3474 18.8283 29.8933C18.6095 29.6777 18.4808 29.3884 18.4694 29.0877C18.4694 29.0843 18.4694 29.0805 18.4693 29.0771C18.4608 28.7725 18.5735 28.482 18.783 28.2694L18.783 28.2694ZM16.3845 31.4168C16.5586 31.2157 16.802 31.1069 17.0545 31.0954C17.3019 31.0844 17.6091 31.1072 17.8015 31.2966L17.8017 31.2968C18.192 31.6815 18.2303 32.3165 17.8849 32.7156L17.8847 32.7157C17.5392 33.1148 16.9233 33.1475 16.509 32.7889L16.5087 32.7887C16.3121 32.6184 16.1877 32.3804 16.1626 32.1263C16.1623 32.123 16.1619 32.12 16.1617 32.1169C16.1385 31.8599 16.2188 31.6081 16.3845 31.4167L16.3845 31.4168ZM14.364 34.4587C14.4965 34.2816 14.6923 34.1753 14.9026 34.15C15.1087 34.125 15.342 34.1576 15.5166 34.2982L15.5171 34.2985C15.8724 34.585 15.9524 35.0951 15.6878 35.4488L15.6875 35.4492C15.4228 35.8027 14.9122 35.8678 14.5467 35.5944L14.5464 35.5941C14.3727 35.464 14.2557 35.2733 14.2201 35.0628C14.2196 35.0601 14.2191 35.0574 14.2188 35.0547C14.1852 34.8424 14.2373 34.628 14.364 34.4586V34.4587ZM12.7665 37.3471C12.8629 37.1941 13.0158 37.0932 13.1865 37.0578C13.3548 37.023 13.5358 37.0531 13.6905 37.1507L13.6911 37.1511C14.0068 37.3507 14.1054 37.7616 13.9113 38.0693L13.9109 38.0699C13.7165 38.3773 13.303 38.4648 12.9872 38.2656L12.9866 38.2652C12.8363 38.1702 12.7285 38.0213 12.6863 37.8508C12.6859 37.8486 12.6853 37.8464 12.6847 37.844C12.6442 37.6725 12.6737 37.494 12.7665 37.347L12.7665 37.3471ZM11.6348 39.9982C11.7013 39.8686 11.8167 39.7751 11.9524 39.7335C12.0866 39.6922 12.235 39.7039 12.3656 39.771C12.3658 39.7711 12.3661 39.7712 12.3662 39.7713C12.634 39.9094 12.7414 40.2341 12.6064 40.4972C12.6062 40.4974 12.606 40.4977 12.6059 40.498C12.4705 40.7608 12.1813 40.8823 11.9011 40.7716C11.9009 40.7715 11.9005 40.7714 11.9002 40.7713C11.7667 40.7183 11.659 40.6157 11.6006 40.4859C11.5998 40.484 11.5989 40.4822 11.5981 40.4803C11.5412 40.3501 11.5705 40.1236 11.6348 39.9982L11.6348 39.9982ZM11.1112 42.3712C11.139 42.2578 11.2113 42.1617 11.3102 42.1025C11.409 42.0437 11.5277 42.0253 11.6417 42.0533C11.642 42.0534 11.6423 42.0534 11.6426 42.0535C11.8775 42.1118 12.0215 42.3477 11.9641 42.5808C11.964 42.5811 11.9639 42.5815 11.9638 42.5819C11.9061 42.8147 11.669 42.9565 11.4339 42.8987C11.4334 42.8986 11.4331 42.8985 11.4327 42.8984C11.3205 42.8706 11.2234 42.7997 11.1632 42.7015C11.1623 42.7001 11.1613 42.6985 11.1606 42.6971C11.1017 42.5989 11.084 42.4818 11.1112 42.3711L11.1112 42.3712ZM10.9356 43.74C10.9594 43.6436 11.0205 43.5606 11.1053 43.5091C11.1903 43.4578 11.2921 43.4421 11.3887 43.4659C11.3891 43.466 11.3894 43.4661 11.3897 43.4661C11.5899 43.5159 11.7119 43.7183 11.6627 43.9187C11.6626 43.9191 11.6625 43.9195 11.6625 43.9199C11.6128 44.12 11.4103 44.2422 11.2099 44.193C11.2095 44.1928 11.209 44.1927 11.2087 44.1927C11.1129 44.1688 11.0302 44.1079 10.9791 44.0233C10.9783 44.022 10.9774 44.0206 10.9767 44.0194C10.927 43.9351 10.9124 43.835 10.9356 43.74L10.9356 43.74ZM24.3085 31.8358C24.1637 31.557 24.152 31.243 24.2501 30.9621C24.3458 30.6877 24.5466 30.445 24.8304 30.2976C25.4047 29.9995 26.1023 30.2048 26.3887 30.7562C26.6748 31.3077 26.4412 31.9964 25.8669 32.2945C25.5942 32.436 25.2793 32.4689 24.9899 32.3869C24.9866 32.3859 24.9831 32.3846 24.9797 32.3837C24.6873 32.2978 24.4459 32.1007 24.3085 31.8358L24.3085 31.8358ZM26.5606 35.0895C26.4232 34.8617 26.395 34.5967 26.4621 34.3529C26.528 34.1143 26.6446 33.8291 26.8843 33.7048L26.8845 33.7046C27.3709 33.4523 27.9867 33.6121 28.2595 34.0638L28.2596 34.0641C28.5324 34.5161 28.3732 35.1119 27.9041 35.3951L27.9039 35.3953C27.6811 35.5296 27.4163 35.5745 27.1669 35.5197C27.1637 35.519 27.1608 35.5186 27.1578 35.5177C26.9062 35.4603 26.6916 35.3062 26.5607 35.0894L26.5606 35.0895ZM28.8293 37.9511C28.7018 37.7703 28.6612 37.5513 28.7021 37.3435C28.7421 37.1398 28.8452 36.9279 29.0329 36.8053L29.0333 36.805C29.4156 36.5555 29.9254 36.6371 30.1801 36.998L30.1804 36.9984C30.4348 37.3594 30.3388 37.8652 29.9659 38.1283L29.9656 38.1285C29.7882 38.2535 29.5706 38.3059 29.3594 38.2746C29.3567 38.2742 29.354 38.2739 29.3513 38.2734C29.139 38.2397 28.9512 38.124 28.8293 37.9511H28.8293ZM31.0827 40.363C30.967 40.224 30.9182 40.0474 30.9374 39.8741C30.9562 39.7033 31.0408 39.5405 31.1815 39.4235L31.182 39.423C31.4694 39.1845 31.8907 39.2177 32.1233 39.4974L32.1238 39.498C32.356 39.7778 32.3115 40.1981 32.0244 40.4369L32.0239 40.4374C31.8871 40.5509 31.7121 40.6075 31.5369 40.5949C31.5348 40.5946 31.5324 40.5945 31.53 40.5944C31.3544 40.5799 31.1938 40.4966 31.0826 40.363L31.0827 40.363ZM33.2543 42.2585C33.1517 42.1553 33.0984 42.0166 33.1007 41.8747C33.103 41.7343 33.1599 41.5968 33.2641 41.4933C33.2643 41.4931 33.2645 41.4929 33.2646 41.4928C33.4786 41.2808 33.8207 41.279 34.0291 41.4887C34.0293 41.4889 34.0295 41.4892 34.0298 41.4893C34.2379 41.6993 34.264 42.0119 34.0721 42.2442C34.072 42.2444 34.0718 42.2447 34.0716 42.2449C33.9799 42.3556 33.8491 42.4263 33.7075 42.4417C33.7056 42.4419 33.7036 42.4422 33.7016 42.4424C33.5602 42.4563 33.3538 42.3584 33.2544 42.2585L33.2543 42.2585ZM35.3493 43.4898C35.2501 43.4283 35.1811 43.3299 35.1553 43.2175C35.13 43.1054 35.1491 42.9868 35.211 42.8871C35.2111 42.8868 35.2113 42.8865 35.2114 42.8862C35.3396 42.6808 35.6084 42.6168 35.8123 42.7434C35.8126 42.7436 35.8129 42.7438 35.8132 42.744C36.0168 42.8709 36.0785 43.1402 35.9508 43.3459C35.9506 43.3463 35.9504 43.3466 35.9502 43.347C35.889 43.4451 35.7916 43.5155 35.6796 43.5424C35.6779 43.5428 35.6762 43.5433 35.6747 43.5436C35.5631 43.5692 35.4462 43.55 35.3493 43.4898L35.3493 43.4898ZM36.597 44.0797C36.5127 44.0274 36.4525 43.9436 36.4298 43.847C36.4072 43.7503 36.4237 43.6487 36.4762 43.5642C36.4765 43.5638 36.4766 43.5635 36.4768 43.5632C36.586 43.3883 36.8162 43.3347 36.9916 43.4435C36.9919 43.4437 36.9922 43.4439 36.9927 43.4441C37.1676 43.5532 37.2212 43.7835 37.1125 43.9589C37.1122 43.9592 37.112 43.9596 37.1118 43.9599C37.0595 44.0437 36.976 44.1035 36.8798 44.126C36.8784 44.1263 36.8767 44.1268 36.8753 44.127C36.7798 44.1482 36.6801 44.1313 36.5969 44.0797L36.597 44.0797ZM29.4079 27.6828C29.0979 27.7343 28.7957 27.6485 28.5588 27.4684C28.3275 27.2926 28.1586 27.0266 28.1062 26.7112C28.0001 26.0728 28.411 25.4728 29.0239 25.3709C29.6368 25.2691 30.2196 25.7041 30.3257 26.3425C30.376 26.6455 30.31 26.9551 30.1425 27.2051C30.1405 27.2078 30.1382 27.2109 30.1364 27.2137C29.9643 27.4652 29.7023 27.6339 29.4079 27.6828L29.4079 27.6828ZM33.1982 26.5463C32.9391 26.6067 32.6783 26.5516 32.4673 26.4125C32.2606 26.276 32.0255 26.077 31.9813 25.8106L31.9812 25.8104C31.8915 25.2698 32.2338 24.7335 32.7477 24.6136L32.748 24.6137C33.2622 24.4939 33.7797 24.8294 33.904 25.3631L33.9041 25.3633C33.9631 25.6168 33.9239 25.8824 33.7947 26.1027C33.793 26.1056 33.7918 26.1081 33.7901 26.1108C33.6577 26.3323 33.4448 26.4889 33.1982 26.5463V26.5463ZM36.6208 25.273C36.4095 25.3384 36.1886 25.3093 36.0037 25.2062C35.8223 25.1052 35.6526 24.9417 35.594 24.7253L35.5938 24.7248C35.4747 24.2842 35.7099 23.8245 36.1318 23.6938L36.1323 23.6936C36.5542 23.5633 37.0056 23.8108 37.1406 24.2468L37.1407 24.2472C37.2048 24.4545 37.1873 24.6776 37.0923 24.8688C37.0911 24.8713 37.0899 24.8738 37.0886 24.8761C36.991 25.0676 36.8228 25.2104 36.6208 25.2729L36.6208 25.273ZM39.611 23.8752C39.443 23.9423 39.2601 23.9341 39.1011 23.8623C38.9446 23.7916 38.8158 23.6609 38.748 23.4909L38.7478 23.4903C38.6097 23.1432 38.7715 22.7528 39.1093 22.618L39.11 22.6178C39.448 22.4834 39.8339 22.6556 39.9723 23.0024L39.9726 23.003C40.0383 23.1683 40.0381 23.3521 39.972 23.5149C39.971 23.5168 39.9701 23.519 39.9693 23.5212C39.9013 23.6837 39.7724 23.8108 39.611 23.8752L39.611 23.8752ZM42.0848 22.3956C41.9549 22.4613 41.8066 22.4692 41.6723 22.4231C41.5395 22.3776 41.4263 22.281 41.3601 22.1499C41.3599 22.1496 41.3598 22.1494 41.3597 22.1492C41.2243 21.8801 41.3282 21.5543 41.5921 21.4208C41.5924 21.4208 41.5927 21.4207 41.593 21.4204C41.8569 21.2874 42.1623 21.3591 42.324 21.6134C42.3241 21.6135 42.3243 21.6139 42.3245 21.6142C42.4014 21.7355 42.4282 21.8818 42.3992 22.0212C42.3987 22.0232 42.3984 22.0252 42.3979 22.0271C42.3674 22.166 42.2106 22.332 42.0848 22.3956V22.3956ZM43.9033 20.7836C43.8141 20.859 43.6991 20.8942 43.5843 20.884C43.4699 20.8735 43.363 20.8186 43.2872 20.729C43.287 20.7287 43.2868 20.7285 43.2866 20.7283C43.1309 20.543 43.153 20.2675 43.3364 20.1127C43.3367 20.1125 43.337 20.1122 43.3373 20.112C43.5209 19.9575 43.796 19.9821 43.9523 20.1671C43.9526 20.1675 43.9528 20.1677 43.9531 20.1681C44.0275 20.2565 44.0644 20.3709 44.0554 20.4858C44.0552 20.4875 44.0552 20.4893 44.0549 20.4909C44.0447 20.6049 43.9903 20.7101 43.9033 20.7837L43.9033 20.7836ZM44.8498 19.7794C44.774 19.8434 44.6758 19.8747 44.5769 19.8664C44.4779 19.8581 44.3864 19.8109 44.3222 19.7349C44.3219 19.7345 44.3217 19.7343 44.3215 19.734C44.1889 19.5761 44.2091 19.3406 44.3667 19.2075C44.367 19.2072 44.3673 19.207 44.3676 19.2066C44.5254 19.0739 44.761 19.0941 44.8942 19.2517C44.8945 19.2521 44.8948 19.2524 44.895 19.2526C44.9585 19.3283 44.9896 19.4262 44.9812 19.5246C44.9811 19.5262 44.981 19.5277 44.9808 19.5293C44.9715 19.6266 44.9245 19.7163 44.8498 19.7794V19.7794ZM24.9272 29.1032C24.5525 29.2249 24.1575 29.2717 23.7647 29.2407C23.372 29.2098 22.9892 29.1019 22.6381 28.923C22.2871 28.7442 21.9747 28.4979 21.7189 28.1983C21.463 27.8988 21.2687 27.5517 21.1469 27.177C20.9011 26.4203 20.9659 25.5969 21.3271 24.888C21.6883 24.1791 22.3163 23.6427 23.0731 23.3968C23.8298 23.151 24.6531 23.2158 25.3621 23.577C26.071 23.9382 26.6074 24.5662 26.8533 25.3229C26.975 25.6976 27.0218 26.0926 26.9909 26.4854C26.9599 26.8781 26.852 27.2609 26.6731 27.612C26.4943 27.963 26.248 28.2753 25.9484 28.5312C25.6489 28.7871 25.3018 28.9814 24.9272 29.1032V29.1032Z" fill="#D45500" fill-opacity="0.993967"/>
<path fill-rule="evenodd" clip-rule="evenodd" d="M26.9792 21.7632C27.0042 21.6952 27.0227 21.6239 27.0339 21.5497C27.0784 21.2546 26.9989 20.9533 26.8129 20.7119L26.8065 20.7034C26.6206 20.4668 26.3465 20.3084 26.0428 20.2626C25.4028 20.1662 24.8091 20.586 24.7164 21.2004C24.6884 21.387 24.7097 21.5701 24.771 21.7372C24.953 21.2423 25.48 20.9278 26.0428 21.0126C26.3465 21.0584 26.6206 21.2168 26.8065 21.4534L26.8129 21.4619C26.8844 21.5547 26.9402 21.6564 26.9792 21.7632ZM27.0484 17.89C27.0891 17.7982 27.1153 17.6986 27.1243 17.5936C27.1459 17.3414 27.0628 17.0905 26.893 16.8962C26.891 16.8938 26.8889 16.8916 26.8868 16.8892C26.7171 16.6983 26.4766 16.579 26.2174 16.5567H26.2171C25.6711 16.5101 25.1921 16.8986 25.1471 17.4246L25.147 17.4248C25.1334 17.5841 25.161 17.7401 25.2212 17.8826C25.383 17.5127 25.7785 17.2693 26.2171 17.3067H26.2174C26.4766 17.329 26.7171 17.4483 26.8868 17.6392C26.8876 17.6402 26.8884 17.6411 26.8893 17.642C26.8905 17.6434 26.8918 17.6447 26.893 17.6462C26.9577 17.7202 27.0098 17.8025 27.0484 17.89ZM26.8746 14.3094C26.9347 14.2001 26.9691 14.0761 26.971 13.9451C26.9739 13.7336 26.89 13.5295 26.7381 13.3775L26.7323 13.3718C26.5798 13.2224 26.373 13.1368 26.156 13.1336H26.1556C25.6992 13.1273 25.3243 13.4801 25.3179 13.9216V13.9222C25.316 14.0613 25.3509 14.1928 25.4138 14.3085C25.5544 14.0521 25.8348 13.8792 26.1556 13.8836H26.156C26.373 13.8868 26.5798 13.9724 26.7323 14.1218L26.7381 14.1275C26.7927 14.1821 26.8385 14.2434 26.8746 14.3094ZM26.4469 11.0867C26.5314 10.9674 26.5756 10.8215 26.5656 10.6693C26.5543 10.4959 26.4732 10.3341 26.3397 10.2192C26.3378 10.2177 26.336 10.2162 26.3344 10.2146C26.2001 10.1015 26.0253 10.0445 25.8479 10.0559L25.8472 10.0559C25.4745 10.0804 25.1915 10.3943 25.2149 10.7572V10.7579C25.223 10.8819 25.2659 10.9956 25.3337 11.0906C25.4474 10.9303 25.6324 10.82 25.8472 10.8059L25.8479 10.8059C26.0253 10.7945 26.2001 10.8515 26.3344 10.9646C26.3359 10.9661 26.3376 10.9675 26.3394 10.9689L26.3397 10.9692C26.3805 11.0043 26.4164 11.0438 26.4469 11.0867ZM25.8215 8.26012C25.9068 8.14667 25.9452 8.00318 25.9228 7.85933C25.9012 7.72006 25.7917 7.51955 25.6691 7.44766L25.6639 7.44467C25.5403 7.37396 25.3929 7.35426 25.2537 7.38989L25.2529 7.39015C24.9611 7.46534 24.7985 7.73361 24.8434 8.02576L24.8436 8.02671C24.8602 8.13412 24.9083 8.22901 24.9772 8.3038C25.0469 8.22697 25.1402 8.16917 25.2529 8.14015L25.2537 8.13989C25.3929 8.10426 25.5403 8.12396 25.6639 8.19467L25.6691 8.19766C25.7098 8.22151 25.749 8.25952 25.7841 8.30474C25.7973 8.29057 25.8098 8.27567 25.8215 8.26012ZM24.9486 5.96611C24.9938 5.86007 24.9958 5.73986 24.9517 5.63176C24.9086 5.5262 24.8254 5.44194 24.7201 5.39704L24.7154 5.39506C24.609 5.35099 24.4888 5.35074 24.3816 5.39418L24.3805 5.39462C24.3493 5.40735 24.3203 5.42325 24.2938 5.44177C24.2918 5.44711 24.2898 5.45243 24.2875 5.4577C24.2574 5.5292 24.2062 5.5891 24.1412 5.62978C24.0975 5.73246 24.093 5.85144 24.138 5.9625L24.1384 5.96352C24.1759 6.05543 24.2415 6.1275 24.3214 6.17399C24.3401 6.16291 24.3598 6.15307 24.3805 6.14462L24.3816 6.14418C24.4888 6.10074 24.609 6.10099 24.7154 6.14506L24.7201 6.14704C24.7368 6.15417 24.753 6.16229 24.7685 6.17132C24.8489 6.12357 24.9118 6.0517 24.9486 5.96611ZM24.2875 4.7077C24.3259 4.61618 24.3265 4.5131 24.2891 4.42117C24.2521 4.33066 24.1814 4.25825 24.0917 4.21932C24.091 4.21897 24.0903 4.21866 24.0895 4.21835C24.0888 4.21805 24.0881 4.21777 24.0874 4.21749C23.9964 4.17912 23.8937 4.17845 23.8021 4.21547L23.801 4.21594C23.6099 4.29388 23.5179 4.51171 23.5953 4.70285L23.5959 4.70397C23.6738 4.89502 23.8915 4.98698 24.0827 4.90967L24.0837 4.90924C24.1759 4.8717 24.249 4.7992 24.2875 4.7077ZM21.0282 22.5848C20.9424 22.2998 20.7483 22.0527 20.4673 21.9122L20.4673 21.9123C20.2004 21.7787 19.8893 21.7612 19.6023 21.8635L19.5922 21.8669C19.3098 21.9707 19.0744 22.1824 18.937 22.4571C18.7879 22.7553 18.7729 23.0841 18.8693 23.3709C18.8876 23.3156 18.9101 23.2608 18.937 23.2071C19.0744 22.9324 19.3098 22.7207 19.5922 22.6169L19.6023 22.6135C19.8893 22.5112 20.2004 22.5287 20.4673 22.6623L20.4673 22.6622C20.7367 22.7969 20.9262 23.0295 21.017 23.2995C21.096 23.0604 21.0963 22.8107 21.0282 22.5848ZM17.2455 21.1417C17.1566 20.905 16.9779 20.7072 16.7329 20.6037L16.7328 20.6038C16.4996 20.5052 16.2353 20.5067 15.998 20.6081C15.9964 20.6088 15.9949 20.6095 15.9933 20.6103C15.9921 20.6108 15.9908 20.6114 15.9895 20.612C15.7555 20.7143 15.5677 20.9062 15.4664 21.1459L15.4663 21.1461C15.3574 21.4043 15.3621 21.681 15.4577 21.9172C15.4605 21.9102 15.4634 21.9032 15.4663 21.8961L15.4664 21.8959C15.5677 21.6562 15.7555 21.4643 15.9895 21.362C15.9908 21.3614 15.9921 21.3608 15.9933 21.3603C15.9949 21.3595 15.9964 21.3588 15.998 21.3581C16.2353 21.2567 16.4996 21.2552 16.7328 21.3538L16.7329 21.3537C16.9779 21.4572 17.1566 21.655 17.2455 21.8917C17.2526 21.9106 17.2596 21.9299 17.2664 21.9497C17.2728 21.9381 17.2789 21.9264 17.2849 21.9145L17.285 21.9142C17.4058 21.6727 17.3325 21.3735 17.2455 21.1417ZM13.6755 20.0389C13.5865 19.8468 13.4249 19.6934 13.2155 19.6221V19.622C13.0152 19.5539 12.7952 19.5706 12.6037 19.6681L12.5965 19.672C12.4073 19.7708 12.262 19.941 12.1919 20.1464L12.1918 20.1468C12.1158 20.3701 12.1377 20.6023 12.2343 20.7943C12.313 20.6349 12.4396 20.5039 12.5965 20.422L12.6037 20.4181C12.7952 20.3206 13.0152 20.3039 13.2155 20.372V20.3721C13.4222 20.4425 13.5823 20.5929 13.6721 20.7816C13.6917 20.7459 13.7092 20.7084 13.7241 20.6693L13.7243 20.6688C13.804 20.4592 13.7629 20.2272 13.6755 20.0389ZM10.3797 19.3055C10.2933 19.154 10.1501 19.0398 9.97479 18.9954L9.9748 18.9954C9.80632 18.9526 9.6274 18.9797 9.47686 19.0712C9.47584 19.0718 9.47482 19.0725 9.47381 19.0731C9.47284 19.0737 9.47188 19.0742 9.47094 19.0747C9.32181 19.1675 9.21355 19.3161 9.16958 19.4884L9.16942 19.4891C9.11996 19.6839 9.15825 19.8799 9.25909 20.0334C9.31332 19.9495 9.3854 19.878 9.47094 19.8247C9.47177 19.8243 9.47262 19.8238 9.47348 19.8233C9.47459 19.8226 9.47572 19.8219 9.47686 19.8212C9.6274 19.7297 9.80632 19.7026 9.9748 19.7454L9.97479 19.7454C10.1359 19.7862 10.2698 19.8859 10.3575 20.0193C10.3972 19.958 10.4278 19.8891 10.4469 19.8142L10.4471 19.8135C10.4921 19.6362 10.4648 19.4547 10.3797 19.3055ZM7.45356 18.9586C7.37204 18.8424 7.24744 18.7615 7.1037 18.7383L7.10371 18.7383C6.96455 18.7159 6.74005 18.758 6.63379 18.8524L6.62933 18.8565C6.52389 18.9522 6.45961 19.0863 6.45048 19.2296L6.45046 19.2305C6.4404 19.3926 6.49529 19.5364 6.59373 19.6419C6.60501 19.6296 6.61688 19.6178 6.62933 19.6065L6.63379 19.6024C6.74005 19.508 6.96455 19.4659 7.10371 19.4883L7.1037 19.4883C7.22193 19.5074 7.3272 19.5655 7.40621 19.6501C7.47716 19.5735 7.52731 19.4753 7.54553 19.3638L7.54562 19.3631C7.56908 19.2181 7.53432 19.0735 7.45356 18.9586ZM5.00208 19.0799C4.9152 19.0041 4.80149 18.9651 4.68506 18.9736L4.68506 18.9736C4.57135 18.982 4.46551 19.035 4.39026 19.1213L4.38693 19.1251C4.31213 19.2128 4.27475 19.327 4.28295 19.4423L4.28302 19.4435C4.29378 19.5903 4.3749 19.715 4.49061 19.7864C4.54903 19.7505 4.61558 19.7287 4.68506 19.7236L4.68506 19.7236C4.77695 19.7169 4.86715 19.7398 4.9438 19.787C5.07836 19.7042 5.1634 19.5503 5.15141 19.3808L5.15129 19.3799C5.14275 19.2628 5.0885 19.1556 5.00208 19.0799ZM3.60099 19.3197C3.52582 19.2549 3.42796 19.2224 3.32897 19.2297L3.32896 19.2296C3.23145 19.2368 3.14073 19.2817 3.07598 19.355L3.07293 19.3585C3.00832 19.4332 2.97593 19.5307 2.98285 19.6293L2.98295 19.6305C2.99803 19.8363 3.17677 19.9911 3.38247 19.9765L3.38371 19.9763C3.5895 19.9612 3.74423 19.7826 3.72979 19.5769L3.72969 19.5758C3.72245 19.4766 3.6761 19.3846 3.60099 19.3197ZM19.5959 27.9438C19.2984 27.9374 19.0034 28.0456 18.783 28.2694C18.5735 28.482 18.4608 28.7725 18.4693 29.0771L18.4694 29.0877C18.4738 29.2021 18.4951 29.3149 18.5319 29.4226C18.5847 29.2721 18.6697 29.1344 18.783 29.0194C19.0034 28.7956 19.2984 28.6874 19.5959 28.6938C19.8864 28.7 20.1793 28.816 20.4071 29.0404C20.5464 29.1775 20.6454 29.3396 20.7038 29.5111C20.8465 29.1041 20.7456 28.6237 20.4071 28.2904C20.1793 28.066 19.8864 27.95 19.5959 27.9438ZM17.0545 31.0954C16.802 31.1069 16.5586 31.2157 16.3845 31.4168L16.3845 31.4167C16.2188 31.6081 16.1385 31.8599 16.1617 32.1169C16.1618 32.1188 16.162 32.1206 16.1622 32.1224C16.1624 32.1237 16.1625 32.125 16.1626 32.1263C16.1722 32.2236 16.1964 32.3185 16.2335 32.4081C16.2709 32.3209 16.3215 32.2395 16.3845 32.1667L16.3845 32.1668C16.5586 31.9657 16.802 31.8569 17.0545 31.8454C17.3019 31.8344 17.6091 31.8572 17.8015 32.0466L17.8017 32.0468C17.9156 32.1591 17.9996 32.2928 18.0527 32.4356C18.1984 32.0594 18.1095 31.6002 17.8017 31.2968L17.8015 31.2966C17.6091 31.1072 17.3019 31.0844 17.0545 31.0954ZM14.9026 34.15C14.6923 34.1753 14.4965 34.2816 14.364 34.4587V34.4586C14.2373 34.628 14.1852 34.8424 14.2188 35.0547L14.2201 35.0628C14.2345 35.1481 14.2623 35.2301 14.3018 35.3062C14.32 35.2724 14.3407 35.2397 14.364 35.2086V35.2087C14.4965 35.0316 14.6923 34.9253 14.9026 34.9C15.1087 34.875 15.342 34.9076 15.5166 35.0482L15.5171 35.0485C15.6197 35.1312 15.6993 35.2326 15.7543 35.3434C15.9346 34.9996 15.8384 34.5576 15.5171 34.2985L15.5166 34.2982C15.342 34.1576 15.1087 34.125 14.9026 34.15ZM13.1865 37.0578C13.0158 37.0932 12.8629 37.1941 12.7665 37.3471L12.7665 37.347C12.6737 37.494 12.6442 37.6725 12.6847 37.844C12.6853 37.8464 12.6859 37.8486 12.6863 37.8508C12.7057 37.9295 12.7393 38.0037 12.7845 38.07C12.8814 37.9322 13.026 37.841 13.1865 37.8078C13.3548 37.773 13.5358 37.8031 13.6905 37.9007L13.6911 37.9011C13.7739 37.9535 13.8418 38.0204 13.8934 38.0961C13.8994 38.0876 13.9052 38.0788 13.9109 38.0699L13.9113 38.0693C14.1054 37.7616 14.0068 37.3507 13.6911 37.1511L13.6905 37.1507C13.5358 37.0531 13.3548 37.023 13.1865 37.0578ZM11.9524 39.7335C11.8167 39.7751 11.7013 39.8686 11.6348 39.9982L11.6348 39.9982C11.5705 40.1236 11.5412 40.3501 11.5981 40.4803L11.6006 40.4859C11.6268 40.5441 11.6629 40.5968 11.7068 40.6421C11.7721 40.5674 11.8573 40.5127 11.9524 40.4835C12.0866 40.4422 12.235 40.4539 12.3656 40.521L12.3662 40.5213C12.4228 40.5504 12.4722 40.5879 12.5136 40.6314C12.5492 40.5924 12.5803 40.5477 12.6059 40.498L12.6064 40.4972C12.7414 40.2341 12.634 39.9094 12.3662 39.7713L12.3656 39.771C12.235 39.7039 12.0866 39.6922 11.9524 39.7335ZM11.3102 42.1025C11.2113 42.1617 11.139 42.2578 11.1112 42.3712L11.1112 42.3711C11.084 42.4818 11.1017 42.5989 11.1606 42.6971L11.1632 42.7015C11.2009 42.763 11.2531 42.8138 11.3144 42.85C11.4123 42.7932 11.5293 42.7757 11.6417 42.8033L11.6426 42.8035C11.6853 42.8141 11.725 42.8306 11.7611 42.8518C11.859 42.7948 11.9345 42.7 11.9638 42.5819L11.9641 42.5808C12.0215 42.3477 11.8775 42.1118 11.6426 42.0535L11.6417 42.0533C11.5277 42.0253 11.409 42.0437 11.3102 42.1025ZM11.1786 43.475C11.2393 43.561 11.3296 43.6229 11.4327 43.6484L11.4339 43.6487C11.5002 43.665 11.5666 43.6655 11.6291 43.6525C11.6713 43.7312 11.6857 43.8251 11.6627 43.9187L11.6625 43.9199C11.6128 44.12 11.4103 44.2422 11.2099 44.193L11.2087 44.1927C11.1129 44.1688 11.0302 44.1079 10.9791 44.0233C10.9783 44.022 10.9774 44.0206 10.9767 44.0194C10.927 43.9351 10.9124 43.835 10.9356 43.74C10.9594 43.6436 11.0205 43.5606 11.1053 43.5091C11.1286 43.495 11.1532 43.4836 11.1786 43.475ZM24.2518 31.707C24.3482 31.4348 24.5483 31.1941 24.8304 31.0476C25.4047 30.7495 26.1023 30.9548 26.3887 31.5062C26.4106 31.5484 26.4294 31.5915 26.4453 31.6351C26.5453 31.353 26.5343 31.0369 26.3887 30.7562C26.1023 30.2048 25.4047 29.9995 24.8304 30.2976C24.5466 30.445 24.3458 30.6877 24.2501 30.9621C24.1668 31.2005 24.1627 31.4627 24.2518 31.707ZM26.5017 34.9745C26.5725 34.7694 26.6865 34.5574 26.8843 34.4548L26.8845 34.4546C27.3709 34.2023 27.9867 34.3621 28.2595 34.8138L28.2596 34.8141C28.2809 34.8494 28.2995 34.8856 28.3156 34.9224C28.4312 34.6489 28.4209 34.3314 28.2596 34.0641L28.2595 34.0638C27.9867 33.6121 27.3709 33.4523 26.8845 33.7046L26.8843 33.7048C26.6446 33.8291 26.528 34.1143 26.4621 34.3529C26.406 34.5567 26.4165 34.7753 26.5017 34.9745ZM28.7759 37.8638C28.8323 37.7421 28.9163 37.6315 29.0329 37.5553L29.0333 37.555C29.4156 37.3055 29.9254 37.3871 30.1801 37.748L30.1804 37.7484C30.1985 37.7741 30.2148 37.8006 30.2294 37.8276C30.3647 37.5675 30.3565 37.2483 30.1804 36.9984L30.1801 36.998C29.9254 36.6371 29.4156 36.5555 29.0333 36.805L29.0329 36.8053C28.8452 36.9279 28.7421 37.1398 28.7021 37.3435C28.6676 37.5188 28.6911 37.7022 28.7759 37.8638ZM31.0494 40.3194C31.0855 40.2658 31.1297 40.2166 31.1815 40.1735L31.182 40.173C31.4694 39.9345 31.8907 39.9677 32.1233 40.2474L32.1238 40.248C32.1354 40.262 32.1463 40.2763 32.1565 40.291C32.3185 40.0503 32.3139 39.7271 32.1238 39.498L32.1233 39.4974C31.8907 39.2177 31.4694 39.1845 31.182 39.423L31.1815 39.4235C31.0408 39.5405 30.9562 39.7033 30.9374 39.8741C30.9202 40.0298 30.9577 40.1881 31.0494 40.3194ZM33.2518 42.2559C33.2558 42.2517 33.2599 42.2474 33.2641 42.2433L33.2646 42.2428C33.4786 42.0308 33.8207 42.029 34.0291 42.2387L34.0298 42.2393C34.0382 42.2478 34.0462 42.2564 34.054 42.2652C34.06 42.2586 34.0659 42.2518 34.0716 42.2449L34.0721 42.2442C34.264 42.0119 34.2379 41.6993 34.0298 41.4893L34.0291 41.4887C33.8207 41.279 33.4786 41.2808 33.2646 41.4928L33.2641 41.4933C33.1599 41.5968 33.103 41.7343 33.1007 41.8747C33.0984 42.0154 33.1508 42.153 33.2518 42.2559ZM35.1553 43.2175C35.1811 43.3299 35.2501 43.4283 35.3493 43.4898C35.3513 43.491 35.3532 43.4922 35.3551 43.4933C35.4897 43.4108 35.6633 43.4041 35.8064 43.4898C35.8642 43.4543 35.9136 43.4056 35.9502 43.347L35.9508 43.3459C36.0785 43.1402 36.0168 42.8709 35.8132 42.744L35.8123 42.7434C35.6084 42.6168 35.3396 42.6808 35.2114 42.8862L35.211 42.8871C35.1491 42.9868 35.13 43.1054 35.1553 43.2175ZM36.4298 43.847C36.4525 43.9436 36.5127 44.0274 36.597 44.0797C36.6801 44.1313 36.7798 44.1482 36.8753 44.127C36.8767 44.1268 36.8784 44.1263 36.8798 44.126C36.976 44.1035 37.0595 44.0437 37.1119 43.9599L37.1125 43.9589C37.2212 43.7835 37.1676 43.5532 36.9927 43.4441L36.9916 43.4435C36.8162 43.3347 36.586 43.3883 36.4768 43.5632L36.4762 43.5642C36.4237 43.6487 36.4072 43.7503 36.4298 43.847ZM30.2828 26.9162C30.1085 26.3762 29.5786 26.0288 29.0239 26.1209C28.6028 26.1909 28.2771 26.496 28.1489 26.8871C28.1306 26.8304 28.1163 26.7717 28.1062 26.7112C28.0001 26.0728 28.411 25.4728 29.0239 25.3709C29.6368 25.2691 30.2196 25.7041 30.3257 26.3425C30.3579 26.5368 30.3424 26.7339 30.2828 26.9162ZM33.8596 25.97C33.6837 25.5211 33.2145 25.255 32.748 25.3637L32.7477 25.3636C32.4213 25.4398 32.1641 25.6839 32.0429 25.9905C32.0134 25.9343 31.9919 25.8744 31.9813 25.8106L31.9812 25.8104C31.8915 25.2698 32.2338 24.7335 32.7477 24.6136L32.748 24.6137C33.2622 24.4939 33.7797 24.8294 33.904 25.3631L33.9041 25.3633C33.9516 25.5677 33.9354 25.7799 33.8596 25.97ZM37.0909 24.8717C36.9155 24.515 36.512 24.3263 36.1323 24.4436L36.1318 24.4438C35.9131 24.5115 35.7446 24.6677 35.6496 24.8637C35.6261 24.8204 35.6072 24.7742 35.594 24.7253L35.5938 24.7248C35.4747 24.2842 35.7099 23.8245 36.1318 23.6938L36.1323 23.6936C36.5542 23.5632 37.0056 23.8108 37.1406 24.2468L37.1407 24.2472C37.2048 24.4545 37.1873 24.6776 37.0923 24.8688L37.091 24.8715C37.091 24.8716 37.0909 24.8717 37.0909 24.8717ZM39.9101 23.6319C39.7391 23.3676 39.4061 23.25 39.11 23.3678L39.1093 23.368C38.9827 23.4185 38.8809 23.5049 38.8102 23.6114C38.786 23.574 38.7651 23.5337 38.748 23.4909L38.7478 23.4903C38.6097 23.1432 38.7715 22.7528 39.1093 22.618L39.11 22.6178C39.448 22.4834 39.8339 22.6556 39.9723 23.0024L39.9726 23.003C40.0383 23.1683 40.0381 23.3521 39.972 23.5149C39.9713 23.5162 39.9707 23.5177 39.9701 23.5191C39.9698 23.5198 39.9695 23.5205 39.9693 23.5212C39.9529 23.5603 39.9331 23.5973 39.9101 23.6319ZM42.2498 22.2691C42.0793 22.0933 41.8207 22.0557 41.593 22.1704L41.5921 22.1709C41.5371 22.1987 41.489 22.2349 41.4485 22.2772C41.4138 22.2398 41.3839 22.1971 41.3601 22.1499L41.3597 22.1492C41.2243 21.8801 41.3282 21.5543 41.5921 21.4208L41.593 21.4204C41.8569 21.2874 42.1623 21.3591 42.324 21.6134L42.3245 21.6142C42.4014 21.7355 42.4282 21.8818 42.3992 22.0212L42.3979 22.0271C42.3804 22.107 42.321 22.1959 42.2498 22.2691ZM43.8451 20.825C43.8654 20.8129 43.8849 20.7991 43.9033 20.7836L43.9033 20.7837C43.9903 20.7101 44.0447 20.6049 44.0549 20.4909C44.0551 20.4898 44.0552 20.4885 44.0553 20.4873C44.0553 20.4868 44.0553 20.4863 44.0554 20.4858C44.0644 20.3709 44.0275 20.2565 43.9531 20.1681L43.9523 20.1671C43.796 19.9821 43.5209 19.9575 43.3373 20.112L43.3364 20.1127C43.153 20.2675 43.1309 20.543 43.2866 20.7283L43.2872 20.729C43.3183 20.7658 43.3547 20.7967 43.3946 20.8211C43.5343 20.738 43.7084 20.7414 43.8451 20.825ZM44.5769 19.8664C44.6758 19.8747 44.774 19.8434 44.8498 19.7794V19.7794C44.9245 19.7163 44.9715 19.6266 44.9808 19.5293L44.9812 19.5246C44.9896 19.4262 44.9585 19.3283 44.895 19.2526L44.8942 19.2517C44.761 19.0941 44.5254 19.0739 44.3676 19.2066L44.3667 19.2075C44.2091 19.3406 44.1889 19.5761 44.3215 19.734L44.3222 19.7349C44.3864 19.8109 44.4779 19.8581 44.5769 19.8664ZM26.9766 26.625C26.953 26.438 26.9118 26.2531 26.8533 26.0729C26.6074 25.3162 26.071 24.6882 25.3621 24.327C24.6531 23.9658 23.8298 23.901 23.0731 24.1468C22.3163 24.3927 21.6883 24.9291 21.3271 25.638C21.1681 25.95 21.0666 26.2842 21.0236 26.625C20.949 26.033 21.0523 25.4274 21.3271 24.888C21.6883 24.1791 22.3163 23.6427 23.0731 23.3968C23.8298 23.151 24.6531 23.2158 25.3621 23.577C26.071 23.9382 26.6074 24.5662 26.8533 25.3229C26.975 25.6976 27.0218 26.0926 26.9909 26.4854C26.9872 26.5321 26.9824 26.5786 26.9766 26.625Z" fill="black" fill-opacity="0.07"/>
<path fill-rule="evenodd" clip-rule="evenodd" d="M27.0296 21.5759C27.0311 21.5672 27.0326 21.5585 27.0339 21.5497C27.0784 21.2546 26.9989 20.9533 26.8129 20.7119L26.8065 20.7034C26.6206 20.4668 26.3465 20.3084 26.0428 20.2626C25.4028 20.1662 24.8091 20.586 24.7164 21.2004C24.6985 21.3194 24.7007 21.437 24.7206 21.5499C24.8256 20.9495 25.4117 20.5426 26.0428 20.6376C26.3465 20.6834 26.6206 20.8418 26.8065 21.0784L26.8129 21.0869C26.9254 21.2329 26.9989 21.4007 27.0296 21.5759ZM27.1085 17.7027C27.1158 17.6671 27.1211 17.6307 27.1243 17.5936C27.1459 17.3414 27.0628 17.0905 26.893 16.8962C26.891 16.8938 26.8889 16.8916 26.8868 16.8892C26.7171 16.6983 26.4766 16.579 26.2174 16.5567H26.2171C25.6711 16.5101 25.1921 16.8986 25.1471 17.4246L25.147 17.4248C25.1393 17.5159 25.145 17.6059 25.1625 17.6929C25.2584 17.2221 25.7087 16.8883 26.2171 16.9317H26.2174C26.4766 16.954 26.7171 17.0733 26.8868 17.2642C26.8876 17.2652 26.8885 17.2661 26.8893 17.267C26.8906 17.2684 26.8918 17.2697 26.893 17.2712C27.0025 17.3964 27.0759 17.5452 27.1085 17.7027ZM26.9481 14.1221C26.9622 14.0651 26.9701 14.0058 26.971 13.9451C26.9739 13.7336 26.89 13.5295 26.7381 13.3775L26.7323 13.3718C26.5798 13.2224 26.373 13.1368 26.156 13.1336H26.1556C25.6992 13.1273 25.3243 13.4801 25.3179 13.9216V13.9222C25.317 13.9904 25.3249 14.0569 25.3406 14.1205C25.4288 13.765 25.7618 13.5032 26.1556 13.5086H26.156C26.373 13.5118 26.5798 13.5974 26.7323 13.7468L26.7381 13.7525C26.8417 13.8562 26.9137 13.9841 26.9481 14.1221ZM26.5391 10.8991C26.5613 10.8261 26.5708 10.7486 26.5656 10.6693C26.5543 10.4959 26.4732 10.3341 26.3397 10.2192C26.3378 10.2177 26.336 10.2162 26.3344 10.2146C26.2001 10.1015 26.0253 10.0445 25.8479 10.0559L25.8472 10.0559C25.4745 10.0804 25.1915 10.3943 25.2149 10.7572V10.7579C25.2182 10.8083 25.2272 10.857 25.2413 10.9034C25.3198 10.6457 25.5561 10.45 25.8472 10.4309L25.8479 10.4309C26.0253 10.4195 26.2001 10.4765 26.3344 10.5896C26.336 10.5912 26.3378 10.5927 26.3397 10.5942C26.435 10.6762 26.5036 10.7821 26.5391 10.8991ZM25.8942 8.12891C25.9265 8.04449 25.9373 7.95198 25.9228 7.85933C25.9012 7.72006 25.7917 7.51955 25.6691 7.44766L25.6639 7.44467C25.5403 7.37396 25.3929 7.35426 25.2537 7.38989L25.2529 7.39015C24.9611 7.46534 24.7985 7.73361 24.8434 8.02576L24.8436 8.02671C24.8485 8.05841 24.8561 8.08902 24.8663 8.11834C24.9236 7.94885 25.06 7.81484 25.2529 7.76515L25.2537 7.76489C25.3929 7.72926 25.5403 7.74896 25.6639 7.81967L25.6691 7.82266C25.763 7.87772 25.8492 8.00825 25.8942 8.12891ZM24.9486 5.96611C24.9938 5.86007 24.9958 5.73986 24.9517 5.63176C24.9086 5.5262 24.8254 5.44194 24.7201 5.39704L24.7154 5.39506C24.609 5.35099 24.4888 5.35074 24.3816 5.39418L24.3805 5.39462C24.1563 5.48608 24.0479 5.74016 24.138 5.9625L24.1384 5.96352C24.1418 5.97167 24.1453 5.97967 24.1491 5.9875C24.1946 5.89226 24.2746 5.8128 24.3805 5.76962L24.3816 5.76918C24.4888 5.72574 24.609 5.72599 24.7154 5.77006L24.7201 5.77204C24.8173 5.81348 24.8957 5.88844 24.941 5.98274C24.9437 5.97725 24.9462 5.97171 24.9486 5.96611ZM24.2875 4.7077C24.3259 4.61618 24.3265 4.5131 24.2891 4.42117C24.2521 4.33066 24.1814 4.25825 24.0917 4.21932C24.091 4.21897 24.0903 4.21866 24.0895 4.21835C24.0888 4.21805 24.0881 4.21777 24.0874 4.21749C23.9964 4.17912 23.8937 4.17845 23.8021 4.21547L23.801 4.21594C23.6099 4.29388 23.5179 4.51171 23.5953 4.70285L23.5959 4.70397C23.6024 4.72002 23.61 4.73536 23.6184 4.74997C23.6585 4.68062 23.7211 4.62354 23.801 4.59094L23.8021 4.59047C23.8937 4.55345 23.9964 4.55412 24.0874 4.59249C24.0888 4.59307 24.0904 4.59365 24.0917 4.59432C24.1656 4.62638 24.2266 4.68117 24.2665 4.75006C24.2743 4.73647 24.2814 4.72233 24.2875 4.7077ZM21.0282 22.5848C20.9424 22.2998 20.7483 22.0527 20.4673 21.9122L20.4673 21.9123C20.2004 21.7787 19.8893 21.7612 19.6023 21.8635L19.5922 21.8669C19.3098 21.9707 19.0744 22.1824 18.937 22.4571C18.8194 22.6924 18.7852 22.9467 18.8234 23.1844C18.8424 23.0652 18.8798 22.9464 18.937 22.8321C19.0744 22.5574 19.3098 22.3457 19.5922 22.2419L19.6023 22.2385C19.8893 22.1362 20.2004 22.1537 20.4673 22.2873L20.4673 22.2872C20.7483 22.4277 20.9424 22.6748 21.0282 22.9598C21.0431 23.0091 21.0547 23.0596 21.0629 23.1109C21.0915 22.9318 21.0785 22.7517 21.0282 22.5848ZM17.2455 21.1417C17.1566 20.905 16.9779 20.7072 16.7329 20.6037L16.7328 20.6038C16.4996 20.5052 16.2353 20.5067 15.998 20.6081C15.9964 20.6088 15.9949 20.6095 15.9933 20.6103C15.9921 20.6108 15.9908 20.6114 15.9895 20.612C15.7555 20.7143 15.5677 20.9062 15.4664 21.1459L15.4663 21.1461C15.385 21.3389 15.367 21.5421 15.4029 21.7309C15.4162 21.6604 15.4372 21.5901 15.4663 21.5211L15.4664 21.5209C15.5677 21.2812 15.7555 21.0893 15.9895 20.987C15.9908 20.9864 15.9921 20.9858 15.9933 20.9853C15.9949 20.9845 15.9964 20.9838 15.998 20.9831C16.2353 20.8817 16.4996 20.8802 16.7328 20.9788L16.7329 20.9787C16.9779 21.0822 17.1566 21.28 17.2455 21.5167C17.278 21.6033 17.3086 21.6993 17.3278 21.7981C17.3827 21.5815 17.319 21.3375 17.2455 21.1417ZM13.6755 20.0389C13.5865 19.8468 13.4249 19.6934 13.2155 19.6221V19.622C13.0152 19.5539 12.7952 19.5706 12.6037 19.6681L12.5965 19.672C12.4073 19.7708 12.262 19.941 12.1919 20.1464L12.1918 20.1468C12.1391 20.3018 12.1335 20.4611 12.1673 20.6082C12.1739 20.5793 12.182 20.5505 12.1918 20.5218L12.1919 20.5214C12.262 20.316 12.4073 20.1458 12.5965 20.047L12.6037 20.0431C12.7952 19.9456 13.0152 19.9289 13.2155 19.997V19.9971C13.4249 20.0684 13.5865 20.2218 13.6755 20.4139C13.7039 20.4752 13.7275 20.5411 13.7435 20.6094C13.7959 20.4162 13.7547 20.2096 13.6755 20.0389ZM10.3797 19.3055C10.2933 19.154 10.1501 19.0398 9.97479 18.9954L9.9748 18.9954C9.80632 18.9526 9.6274 18.9797 9.47686 19.0712C9.47584 19.0718 9.47482 19.0725 9.47381 19.0731C9.47284 19.0737 9.47188 19.0742 9.47094 19.0747C9.32181 19.1675 9.21355 19.3161 9.16958 19.4884L9.16942 19.4891C9.13832 19.6116 9.14192 19.7346 9.17394 19.8471C9.22044 19.6818 9.32653 19.5396 9.47094 19.4497C9.47164 19.4493 9.47235 19.4489 9.47307 19.4485C9.47432 19.4478 9.47559 19.447 9.47686 19.4462C9.6274 19.3547 9.80632 19.3276 9.9748 19.3704L9.97479 19.3704C10.1501 19.4148 10.2933 19.529 10.3797 19.6805C10.4066 19.7276 10.4277 19.7779 10.4426 19.8304C10.4441 19.825 10.4455 19.8196 10.4469 19.8142L10.4471 19.8135C10.4921 19.6362 10.4648 19.4547 10.3797 19.3055ZM7.45356 18.9586C7.37204 18.8424 7.24744 18.7615 7.1037 18.7383L7.10371 18.7383C6.96455 18.7159 6.74005 18.758 6.63379 18.8524L6.62933 18.8565C6.52389 18.9522 6.45961 19.0863 6.45048 19.2296L6.45046 19.2305C6.44547 19.3109 6.45645 19.3868 6.48079 19.4557C6.51084 19.3703 6.56159 19.2929 6.62933 19.2315L6.63379 19.2274C6.74005 19.133 6.96455 19.0909 7.10371 19.1133L7.1037 19.1133C7.24744 19.1365 7.37204 19.2174 7.45356 19.3336C7.48143 19.3732 7.50383 19.4164 7.52024 19.462C7.53143 19.4306 7.53997 19.3979 7.54553 19.3638L7.54562 19.3631C7.56908 19.2181 7.53432 19.0735 7.45356 18.9586ZM5.00208 19.0799C4.9152 19.0041 4.80149 18.9651 4.68506 18.9736L4.68506 18.9736C4.57135 18.982 4.46551 19.035 4.39026 19.1213L4.38693 19.1251C4.31213 19.2128 4.27475 19.327 4.28295 19.4423L4.28302 19.4435C4.28708 19.499 4.3012 19.5513 4.32343 19.5988C4.33996 19.5635 4.36124 19.5302 4.38693 19.5001L4.39026 19.4963C4.46551 19.41 4.57135 19.357 4.68506 19.3486L4.68506 19.3486C4.80149 19.3401 4.9152 19.3791 5.00208 19.4549C5.04819 19.4953 5.08513 19.5447 5.11087 19.5997C5.14187 19.5337 5.15693 19.4589 5.15141 19.3808L5.15129 19.3799C5.14275 19.2628 5.0885 19.1556 5.00208 19.0799ZM3.60099 19.3197C3.52582 19.2549 3.42796 19.2224 3.32897 19.2297L3.32896 19.2296C3.23145 19.2368 3.14073 19.2817 3.07598 19.355L3.07293 19.3585C3.00832 19.4332 2.97593 19.5307 2.98285 19.6293L2.98295 19.6305C2.98723 19.6889 3.0047 19.7432 3.03223 19.7907C3.04389 19.7705 3.05749 19.7514 3.07293 19.7335L3.07598 19.73C3.14073 19.6567 3.23145 19.6118 3.32896 19.6046L3.32897 19.6047C3.42796 19.5974 3.52582 19.6299 3.60099 19.6947C3.63291 19.7223 3.65963 19.7548 3.68037 19.7906C3.71665 19.7281 3.73523 19.6544 3.72979 19.5769L3.72969 19.5758C3.72245 19.4766 3.6761 19.3846 3.60099 19.3197ZM19.5959 27.9438C19.2984 27.9374 19.0034 28.0456 18.783 28.2694C18.5735 28.482 18.4608 28.7725 18.4693 29.0771L18.4694 29.0877C18.4713 29.1367 18.4763 29.1853 18.4842 29.2334C18.5213 29.0109 18.6244 28.8053 18.783 28.6444C19.0034 28.4206 19.2984 28.3124 19.5959 28.3188C19.8864 28.325 20.1793 28.441 20.4071 28.6654C20.5968 28.8522 20.7119 29.0852 20.7513 29.3256C20.8113 28.9646 20.6953 28.5742 20.4071 28.2904C20.1793 28.066 19.8864 27.95 19.5959 27.9438ZM17.0545 31.0954C16.802 31.1069 16.5586 31.2157 16.3845 31.4168L16.3845 31.4167C16.2188 31.6081 16.1385 31.8599 16.1617 32.1169C16.1618 32.1188 16.162 32.1206 16.1622 32.1224C16.1624 32.1237 16.1625 32.125 16.1626 32.1263C16.1657 32.1572 16.1702 32.1879 16.1762 32.2183C16.2076 32.0611 16.2786 31.914 16.3845 31.7917L16.3845 31.7918C16.5586 31.5907 16.802 31.4819 17.0545 31.4704C17.3019 31.4594 17.6091 31.4822 17.8015 31.6716L17.8017 31.6718C17.9651 31.8328 18.0668 32.0378 18.1045 32.2509C18.1646 31.9173 18.0606 31.552 17.8017 31.2968L17.8015 31.2966C17.6091 31.1072 17.3019 31.0844 17.0545 31.0954ZM14.9026 34.15C14.6923 34.1753 14.4965 34.2816 14.364 34.4587V34.4586C14.2373 34.628 14.1852 34.8424 14.2188 35.0547L14.2201 35.0628C14.2232 35.0808 14.2268 35.0987 14.231 35.1165C14.2557 35.0148 14.3004 34.9186 14.364 34.8336V34.8337C14.4965 34.6566 14.6923 34.5503 14.9026 34.525C15.1087 34.5 15.342 34.5326 15.5166 34.6732L15.5171 34.6735C15.6765 34.8021 15.7805 34.9756 15.8228 35.1598C15.8951 34.8538 15.7835 34.5133 15.5171 34.2985L15.5166 34.2982C15.342 34.1576 15.1087 34.125 14.9026 34.15ZM13.1865 37.0578C13.0158 37.0932 12.8629 37.1941 12.7665 37.3471L12.7665 37.347C12.6737 37.494 12.6442 37.6725 12.6847 37.844C12.6853 37.8464 12.6859 37.8486 12.6863 37.8508C12.6887 37.8607 12.6914 37.8706 12.6943 37.8804C12.711 37.825 12.7351 37.7717 12.7665 37.722L12.7665 37.7221C12.8629 37.5691 13.0158 37.4682 13.1865 37.4328C13.3548 37.398 13.5358 37.4281 13.6905 37.5257L13.6911 37.5261C13.8383 37.6192 13.9383 37.7582 13.9834 37.9113C14.0673 37.6327 13.9551 37.318 13.6911 37.1511L13.6905 37.1507C13.5358 37.0531 13.3548 37.023 13.1865 37.0578ZM11.9524 39.7335C11.8167 39.7751 11.7013 39.8686 11.6348 39.9982L11.6348 39.9982C11.5713 40.122 11.5419 40.3445 11.596 40.4754C11.6066 40.4375 11.6197 40.4025 11.6348 40.3732L11.6348 40.3732C11.7013 40.2436 11.8167 40.1501 11.9524 40.1085C12.0866 40.0672 12.235 40.0789 12.3656 40.146L12.3662 40.1463C12.4935 40.2119 12.5845 40.3197 12.6305 40.4429C12.7261 40.1909 12.6158 39.9 12.3662 39.7713L12.3656 39.771C12.235 39.7039 12.0866 39.6922 11.9524 39.7335ZM11.3102 42.1025C11.2113 42.1617 11.139 42.2578 11.1112 42.3712L11.1112 42.3711C11.0872 42.4688 11.0982 42.5715 11.1415 42.6618C11.1783 42.5854 11.237 42.5213 11.3102 42.4775C11.409 42.4187 11.5277 42.4003 11.6417 42.4283L11.6426 42.4285C11.7754 42.4615 11.8792 42.5513 11.9339 42.6652C11.9465 42.639 11.9566 42.6111 11.9638 42.5819L11.9641 42.5808C12.0215 42.3477 11.8775 42.1118 11.6426 42.0535L11.6417 42.0533C11.5277 42.0253 11.409 42.0437 11.3102 42.1025ZM11.1053 43.5091C11.0205 43.5606 10.9594 43.6436 10.9356 43.74C10.9126 43.834 10.9267 43.9331 10.9752 44.0168C11.0065 43.9629 11.0511 43.917 11.1053 43.8841C11.1903 43.8328 11.2921 43.8171 11.3887 43.8409L11.3897 43.8411C11.4923 43.8666 11.5743 43.9322 11.6233 44.0171C11.6405 43.9874 11.6538 43.9548 11.6625 43.9199L11.6627 43.9187C11.7119 43.7183 11.5899 43.5159 11.3897 43.4661L11.3887 43.4659C11.2921 43.4421 11.1903 43.4578 11.1053 43.5091ZM24.2023 31.5217C24.213 31.4591 24.229 31.3973 24.2501 31.3371C24.3458 31.0627 24.5466 30.82 24.8304 30.6726C25.4047 30.3745 26.1023 30.5798 26.3887 31.1312C26.4412 31.2324 26.4762 31.3383 26.4948 31.4455C26.534 31.2162 26.5024 30.9754 26.3887 30.7562C26.1023 30.2048 25.4047 29.9995 24.8304 30.2976C24.5466 30.445 24.3458 30.6877 24.2501 30.9621C24.1876 31.1411 24.1697 31.3335 24.2023 31.5217ZM26.446 34.7958C26.4505 34.7731 26.4559 34.7504 26.4621 34.7279C26.528 34.4893 26.6446 34.2041 26.8843 34.0798L26.8845 34.0796C27.3709 33.8273 27.9867 33.9871 28.2595 34.4388L28.2596 34.4391C28.3157 34.5321 28.3536 34.6312 28.3742 34.7324C28.4189 34.5087 28.3846 34.2713 28.2596 34.0641L28.2595 34.0638C27.9867 33.6121 27.3709 33.4523 26.8845 33.7046L26.8843 33.7048C26.6446 33.8291 26.528 34.1143 26.4621 34.3529C26.4224 34.4972 26.416 34.6488 26.446 34.7958ZM28.709 37.6862C28.7532 37.4927 28.8551 37.2965 29.0329 37.1803L29.0333 37.18C29.4156 36.9305 29.9254 37.0121 30.1801 37.373L30.1804 37.3734C30.2382 37.4555 30.2779 37.545 30.3004 37.6374C30.3517 37.4222 30.3154 37.19 30.1804 36.9984L30.1801 36.998C29.9254 36.6371 29.4156 36.5555 29.0333 36.805L29.0329 36.8053C28.8452 36.9279 28.7421 37.1398 28.7021 37.3435C28.6798 37.4571 28.6818 37.574 28.709 37.6862ZM30.9603 40.1343C30.9976 40.0067 31.0728 39.8889 31.1815 39.7985L31.182 39.798C31.4694 39.5595 31.8907 39.5927 32.1233 39.8724L32.1238 39.873C32.181 39.942 32.2215 40.0195 32.2456 40.1008C32.305 39.8968 32.2671 39.6707 32.1238 39.498L32.1233 39.4974C31.8907 39.2177 31.4694 39.1845 31.182 39.423L31.1815 39.4235C31.0408 39.5405 30.9562 39.7033 30.9374 39.8741C30.9277 39.9618 30.9354 40.0503 30.9603 40.1343ZM33.1341 42.0706C33.1615 41.9961 33.2052 41.9267 33.2641 41.8683L33.2646 41.8678C33.4786 41.6558 33.8207 41.654 34.0291 41.8637L34.0298 41.8643C34.0931 41.9282 34.1396 42.0016 34.1682 42.0794C34.2434 41.8779 34.1916 41.6526 34.0298 41.4893L34.0291 41.4887C33.8207 41.279 33.4786 41.2808 33.2646 41.4928L33.2641 41.4933C33.1599 41.5968 33.103 41.7343 33.1007 41.8747C33.0996 41.9419 33.111 42.0083 33.1341 42.0706ZM35.1865 43.3072C35.1937 43.2918 35.2019 43.2767 35.211 43.2621L35.2114 43.2612C35.3396 43.0558 35.6084 42.9918 35.8123 43.1184L35.8132 43.119C35.8862 43.1645 35.941 43.2283 35.9753 43.3009C36.0689 43.1024 36.0023 42.8618 35.8132 42.744L35.8123 42.7434C35.6084 42.6168 35.3396 42.6808 35.2114 42.8862L35.211 42.8871C35.1491 42.9868 35.13 43.1054 35.1553 43.2175C35.1625 43.2486 35.1729 43.2787 35.1865 43.3072ZM36.4703 43.9491C36.4722 43.9457 36.4742 43.9424 36.4762 43.9392L36.4768 43.9382C36.586 43.7633 36.8162 43.7097 36.9916 43.8185L36.9927 43.8191C37.0465 43.8526 37.0888 43.8976 37.1184 43.949C37.2192 43.7749 37.1644 43.5512 36.9927 43.4441L36.9916 43.4435C36.8162 43.3347 36.586 43.3883 36.4768 43.5632L36.4762 43.5642C36.4237 43.6487 36.4072 43.7503 36.4298 43.847C36.4383 43.8832 36.452 43.9175 36.4703 43.9491ZM30.3276 26.7295C30.327 26.7255 30.3263 26.7215 30.3257 26.7175C30.2196 26.0791 29.6368 25.6441 29.0239 25.7459C28.5381 25.8267 28.1792 26.2203 28.1041 26.698C28.0058 26.0646 28.4152 25.4721 29.0239 25.3709C29.6368 25.2691 30.2196 25.7041 30.3257 26.3425C30.3472 26.472 30.3474 26.6027 30.3276 26.7295ZM33.9136 25.7836C33.9108 25.7685 33.9076 25.7534 33.9041 25.7383L33.904 25.7381C33.7797 25.2044 33.2622 24.8689 32.748 24.9887L32.7477 24.9886C32.3501 25.0814 32.0552 25.4234 31.9836 25.8239C31.9828 25.8195 31.982 25.8151 31.9813 25.8106L31.9812 25.8104C31.8915 25.2698 32.2338 24.7335 32.7477 24.6136L32.748 24.6137C33.2622 24.4939 33.7797 24.8294 33.904 25.3631L33.9041 25.3633C33.9366 25.5029 33.9393 25.6462 33.9136 25.7836ZM37.1576 24.6855C37.1528 24.6643 37.1472 24.6432 37.1407 24.6222L37.1406 24.6218C37.0056 24.1858 36.5542 23.9382 36.1323 24.0686L36.1318 24.0688C35.8454 24.1575 35.645 24.3978 35.5832 24.6809C35.4905 24.2541 35.7239 23.8201 36.1318 23.6938L36.1323 23.6936C36.5542 23.5632 37.0056 23.8108 37.1406 24.2468L37.1407 24.2472C37.1851 24.391 37.1903 24.5424 37.1576 24.6855ZM39.9957 23.4461C39.9892 23.4231 39.9815 23.4004 39.9726 23.378L39.9723 23.3774C39.8339 23.0306 39.448 22.8584 39.11 22.9928L39.1093 22.993C38.915 23.0705 38.7789 23.2326 38.7247 23.4224C38.6314 23.0937 38.7934 22.7441 39.1093 22.618L39.11 22.6178C39.448 22.4834 39.8339 22.6556 39.9723 23.0024L39.9726 23.003C40.0292 23.1454 40.0369 23.3015 39.9957 23.4461ZM42.3757 22.0922C42.3623 22.0565 42.3452 22.0219 42.3245 21.9892L42.324 21.9884C42.1623 21.7341 41.8569 21.6624 41.593 21.7954L41.5921 21.7959C41.4672 21.859 41.3782 21.9652 41.3334 22.0881C41.2407 21.8326 41.3479 21.5443 41.5921 21.4208L41.593 21.4204C41.8569 21.2874 42.1623 21.3591 42.324 21.6134L42.3245 21.6142C42.4014 21.7355 42.4282 21.8818 42.3992 22.0212L42.3979 22.0271C42.3933 22.0483 42.3857 22.0702 42.3757 22.0922ZM44.0146 20.639C43.9984 20.6048 43.9778 20.5725 43.9531 20.5431L43.9523 20.5421C43.796 20.3571 43.5209 20.3325 43.3373 20.487L43.3364 20.4877C43.2879 20.5287 43.2506 20.5782 43.2249 20.6322C43.1422 20.457 43.1827 20.2425 43.3364 20.1127L43.3373 20.112C43.5209 19.9575 43.796 19.9821 43.9523 20.1671L43.9531 20.1681C44.0275 20.2565 44.0644 20.3709 44.0554 20.4858C44.0553 20.4863 44.0553 20.4868 44.0553 20.4873C44.0552 20.4885 44.0551 20.4898 44.0549 20.4909C44.0503 20.5428 44.0365 20.5929 44.0146 20.639ZM44.9323 19.6809C44.9215 19.6622 44.909 19.6444 44.895 19.6276L44.8942 19.6267C44.761 19.4691 44.5254 19.4489 44.3676 19.5816L44.3667 19.5825C44.3327 19.6111 44.3052 19.6445 44.2841 19.6809C44.1948 19.5269 44.2259 19.3264 44.3667 19.2075L44.3676 19.2066C44.5254 19.0739 44.761 19.0941 44.8942 19.2517L44.895 19.2526C44.9585 19.3283 44.9896 19.4262 44.9812 19.5246L44.9808 19.5293C44.9756 19.5832 44.9589 19.6348 44.9323 19.6809ZM26.9942 26.4375C26.9785 26.1866 26.9313 25.9381 26.8533 25.6979C26.6074 24.9412 26.071 24.3132 25.3621 23.952C24.6531 23.5908 23.8298 23.526 23.0731 23.7718C22.3163 24.0177 21.6883 24.5541 21.3271 25.263C21.1391 25.632 21.0314 26.0321 21.006 26.4376C20.9727 25.9061 21.0812 25.3705 21.3271 24.888C21.6883 24.1791 22.3163 23.6427 23.0731 23.3968C23.8298 23.151 24.6531 23.2158 25.3621 23.577C26.071 23.9382 26.6074 24.5662 26.8533 25.3229C26.9701 25.6824 27.0178 26.0606 26.9942 26.4375Z" fill="black" fill-opacity="0.15"/>
<path d="M31.6283 18.8228C31.5703 18.7002 31.4978 18.5382 31.4117 18.3383C31.201 17.8498 30.9211 17.1651 30.5932 16.3455C30.0863 15.0787 29.47 13.5036 28.8265 11.8587C28.6377 11.3763 28.4466 10.8878 28.2552 10.3994C27.4126 8.24886 26.5647 6.09889 25.8937 4.4784C25.5587 3.66941 25.2644 2.98407 25.0352 2.49409C24.9215 2.25108 24.8178 2.04304 24.729 1.88837C24.6858 1.81304 24.6362 1.73274 24.5823 1.66294C24.5559 1.62863 24.5165 1.58111 24.465 1.53483C24.4263 1.50002 24.3146 1.40392 24.1413 1.36571C23.8902 1.31035 23.6966 1.41123 23.6071 1.47369C23.5178 1.53598 23.4606 1.60687 23.4318 1.64539C23.3716 1.72611 23.3276 1.81448 23.2983 1.87841C23.235 2.01623 23.169 2.19888 23.1023 2.40223C22.9666 2.81621 22.8007 3.40168 22.6169 4.09242C22.2481 5.47769 21.7947 7.33252 21.3455 9.19092C21.2454 9.6049 21.1456 10.0191 21.0469 10.4285C20.7015 11.8608 20.3703 13.2348 20.0932 14.3388C19.915 15.0491 19.7609 15.6405 19.6413 16.0604C19.6016 16.1996 19.5669 16.3157 19.5373 16.4087C19.4111 16.4282 19.2467 16.4499 19.045 16.4736C18.5392 16.5331 17.8341 16.6013 16.9915 16.676C15.6893 16.7913 14.0745 16.9207 12.3877 17.0558C11.8929 17.0955 11.3918 17.1356 10.8906 17.1761C8.68488 17.354 6.47714 17.5375 4.80292 17.7078C3.96727 17.7927 3.25487 17.8753 2.73893 17.9534C2.48324 17.9921 2.26057 18.0319 2.09033 18.0735C2.00741 18.0938 1.91649 18.1194 1.83353 18.1529C1.79251 18.1695 1.73546 18.1951 1.67627 18.2332C1.62848 18.2639 1.51333 18.3437 1.43235 18.4921C1.32009 18.6978 1.34681 18.8939 1.3734 18.9943C1.40013 19.0951 1.44411 19.1709 1.47059 19.2123C1.52504 19.2976 1.5921 19.3697 1.64191 19.4199C1.74854 19.5273 1.89489 19.651 2.0588 19.7809C2.39261 20.0455 2.87209 20.393 3.44036 20.7905C4.58025 21.5877 6.11865 22.6147 7.66095 23.638C8.00453 23.866 8.3483 24.0938 8.6881 24.319C9.87717 25.1069 11.0175 25.8626 11.9304 26.4806C12.5179 26.8782 13.0046 27.2145 13.3466 27.4634C13.4628 27.5479 13.5584 27.6195 13.6336 27.6781C13.6119 27.8166 13.5785 28.0014 13.5338 28.2304C13.431 28.7559 13.2746 29.4829 13.0817 30.3487C12.7836 31.6868 12.4015 33.3419 12.0025 35.0702C11.8854 35.5772 11.767 36.0905 11.6487 36.6039C11.128 38.8645 10.612 41.1277 10.2489 42.8533C10.0676 43.7147 9.92252 44.4508 9.83408 44.9885C9.79021 45.2553 9.75793 45.4871 9.74334 45.6661C9.73622 45.7535 9.73161 45.8475 9.73601 45.9349C9.73818 45.978 9.74332 46.0379 9.75819 46.1032C9.76947 46.1528 9.80339 46.2881 9.91303 46.4154C10.0742 46.6025 10.2808 46.6441 10.3982 46.6493C10.5108 46.6543 10.602 46.6311 10.65 46.6167C10.7496 46.587 10.8388 46.5402 10.8994 46.506C11.0306 46.432 11.1883 46.3234 11.3563 46.1999C11.6988 45.9478 12.1613 45.5758 12.6964 45.1305C13.7697 44.2373 15.174 43.0165 16.5764 41.7906C16.8889 41.5175 17.2014 41.244 17.5102 40.9737C18.5903 40.0284 19.6262 39.1218 20.4673 38.4001C21.0086 37.9356 21.4633 37.5528 21.7942 37.2876C21.8933 37.2082 21.9784 37.1416 22.0494 37.0879C22.161 37.1497 22.3026 37.2318 22.4733 37.3338C22.9161 37.5984 23.5248 37.979 24.2483 38.4394C25.3665 39.1509 26.7455 40.0442 28.1858 40.9773C28.6082 41.251 29.0359 41.528 29.4638 41.8049C31.3478 43.024 33.2363 44.2397 34.6857 45.1364C35.4091 45.584 36.0313 45.9571 36.4919 46.2125C36.7201 46.3391 36.922 46.4442 37.0826 46.5155C37.1606 46.5502 37.2484 46.5857 37.3344 46.6099C37.3769 46.6218 37.4384 46.6367 37.5097 46.6426C37.5657 46.6473 37.7132 46.6551 37.8744 46.5792C38.099 46.4732 38.1907 46.2846 38.2244 46.1894C38.2591 46.0915 38.2655 46.0044 38.2672 45.9568C38.2707 45.8577 38.2573 45.7611 38.2453 45.6911C38.2196 45.5412 38.171 45.353 38.1112 45.1471C37.9895 44.7284 37.7963 44.1522 37.5589 43.4797C37.0827 42.1311 36.4125 40.3502 35.7369 38.5692C35.5863 38.1723 35.4355 37.7753 35.2864 37.383C34.765 36.011 34.2649 34.6949 33.8719 33.6307C33.6189 32.9459 33.4129 32.3723 33.275 31.9587C33.226 31.8118 33.1872 31.6897 33.1584 31.5928C33.2524 31.4953 33.3809 31.3684 33.5427 31.2131C33.9191 30.852 34.4518 30.3608 35.0918 29.7796C36.0809 28.8815 37.3152 27.7788 38.6043 26.6271C38.9824 26.2892 39.3653 25.9472 39.7481 25.6048C41.4332 24.0977 43.1164 22.5853 44.3753 21.4134C45.0038 20.8283 45.5333 20.3219 45.9062 19.9407C46.0912 19.7517 46.2479 19.5831 46.3609 19.446C46.416 19.379 46.4734 19.3044 46.5197 19.2293C46.5426 19.1922 46.5725 19.1395 46.5974 19.0766C46.617 19.0269 46.6631 18.8996 46.6464 18.7371C46.6226 18.5049 46.4905 18.3564 46.4036 18.2839C46.3194 18.2137 46.2354 18.177 46.1879 18.1587C46.0906 18.1212 45.9916 18.1037 45.9224 18.0938C45.7734 18.0724 45.5838 18.0627 45.3783 18.0589C44.9592 18.0511 44.3762 18.0663 43.6942 18.0959C42.3258 18.1553 40.5067 18.2752 38.6869 18.4003C38.2813 18.4282 37.8758 18.4564 37.475 18.4842C36.0725 18.5815 34.7277 18.6749 33.6438 18.739C32.9463 18.7802 32.3649 18.8089 31.9496 18.819C31.8231 18.822 31.716 18.8233 31.6283 18.8228Z" stroke="#AA4400" stroke-opacity="0.999242" stroke-width="1.3"/>
<g opacity="0.8" filter="url(#filter0_f_1:136)">
<path d="M44.971 7.0083C43.5022 6.92224 41.2946 7.50662 38.5235 8.71509C35.7523 9.92356 32.3102 11.7372 28.8226 13.9847C29.0636 14.5846 29.3341 15.1116 29.5645 15.6837C32.3141 14.034 34.8964 12.8014 36.8412 12.1592C38.7861 11.5171 40.1506 11.4557 40.8075 11.9806C41.8359 12.8083 41.0514 15.0263 38.6266 18.1467C36.2017 21.2671 32.3352 25.0343 27.8774 28.6197C23.4196 32.2051 18.7357 35.315 14.8561 37.2653C10.9765 39.2156 8.21893 39.8465 7.18994 39.0193C6.54385 38.4967 6.61142 37.4169 7.38649 35.8784C8.16155 34.34 10.8634 30.134 12.871 27.9541C12.5459 27.7324 12.7431 27.6702 12.3145 27.3878C12.1644 27.2888 11.7329 26.9264 11.5726 26.8214C8.0609 30.3056 3.863 35.8461 2.36395 38.3949C0.864902 40.9437 0.59498 42.7251 1.58647 43.526C2.26554 44.0724 3.5177 44.1472 5.27146 43.7461C7.02521 43.345 9.24622 42.4758 11.8077 41.1883C14.3691 39.9007 17.2208 38.2199 20.1999 36.2419C23.1791 34.2639 26.2273 32.0274 29.1706 29.6601C32.1138 27.2929 34.8945 24.8413 37.3537 22.4452C39.813 20.0491 41.9028 17.7554 43.5037 15.6953C45.1046 13.6351 46.1853 11.8487 46.6842 10.438C47.183 9.02743 47.0902 8.02021 46.411 7.47391C46.0722 7.20119 45.5899 7.04523 44.971 7.0083Z" fill="#214478" fill-opacity="0.993967"/>
</g>
<path opacity="0.8" d="M41.121 10.5911L41.1197 10.59C40.6537 10.2177 40.0032 10.1004 39.2849 10.1328C38.5558 10.1656 37.6804 10.3556 36.6845 10.6844C36.1823 10.8503 35.6832 10.9777 35.1657 11.11C33.9131 11.43 32.5521 11.7776 30.7756 12.7635C30.762 12.7173 30.7485 12.6707 30.7348 12.6231L30.7343 12.6216C30.697 12.4926 30.6577 12.3568 30.6075 12.2053C33.3427 10.4753 35.3085 9.63569 37.4645 8.71492C37.875 8.5396 38.2924 8.36132 38.7233 8.1734C41.4829 6.96999 43.5978 6.42878 44.9416 6.50743C45.4991 6.54075 45.8675 6.67823 46.0975 6.86339L46.0976 6.86352C46.5096 7.19492 46.6975 7.90078 46.2128 9.27135C45.7403 10.6074 44.6975 12.344 43.1089 14.3885C41.5256 16.4259 39.4524 18.7023 37.0048 21.087C34.5579 23.4711 31.7893 25.9123 28.8572 28.2705C25.9252 30.6288 22.8892 32.8562 19.9234 34.8254C16.9571 36.7949 14.1229 38.4649 11.5831 39.7415C9.03906 41.0204 6.85849 41.8702 5.15998 42.2587C4.31075 42.4529 3.60958 42.5254 3.05576 42.4923C2.49947 42.4591 2.1306 42.3221 1.89992 42.1365C1.59427 41.8891 1.41973 41.4557 1.53562 40.6908C1.65271 39.9181 2.05908 38.8996 2.79494 37.6484C2.96482 37.3595 3.14821 37.0428 3.34481 36.7033C4.85234 34.0997 7.13671 30.1545 10.0658 27.1441C10.2188 27.2462 10.4024 27.3688 10.5786 27.4865C10.8753 27.6847 11.1511 27.8689 11.2248 27.9175C11.2799 27.9538 11.3133 27.9791 11.3326 27.995C9.40049 30.2 7.68569 33.1732 6.93995 34.6535C6.53837 35.4506 6.29529 36.1748 6.25625 36.7986C6.21635 37.4363 6.39118 38.0163 6.8755 38.4081L6.87667 38.409C7.24355 38.7039 7.7235 38.8375 8.24758 38.8676C8.77441 38.898 9.38679 38.8266 10.0656 38.6713C11.4235 38.3606 13.1231 37.6961 15.0807 36.712C19 34.7418 23.7136 31.6103 28.1908 28.0093C32.6666 24.4094 36.5647 20.6148 39.0214 17.4535C40.2464 15.877 41.0864 14.4929 41.4834 13.3706C41.8672 12.2855 41.9037 11.221 41.121 10.5911Z" fill="url(#paint2_linear_1:136)" fill-opacity="0.993967" stroke="url(#paint3_linear_1:136)"/>
<path opacity="0.4" d="M10.5 47.25C14.435 47.25 17.625 46.5784 17.625 45.75C17.625 44.9216 14.435 44.25 10.5 44.25C6.56497 44.25 3.375 44.9216 3.375 45.75C3.375 46.5784 6.56497 47.25 10.5 47.25Z" fill="url(#paint4_radial_1:136)"/>
<path opacity="0.4" d="M37.125 47.25C41.06 47.25 44.25 46.5784 44.25 45.75C44.25 44.9216 41.06 44.25 37.125 44.25C33.19 44.25 30 44.9216 30 45.75C30 46.5784 33.19 47.25 37.125 47.25Z" fill="url(#paint5_radial_1:136)"/>
<path opacity="0.2" d="M44.625 45.3755C44.6238 45.9721 42.4503 46.5443 38.5825 46.9662C34.7147 47.388 29.4693 47.625 24 47.625C18.5307 47.625 13.2853 47.388 9.41748 46.9662C5.54967 46.5443 3.37617 45.9721 3.375 45.3755C3.37442 45.08 3.90748 44.7873 4.94372 44.5143C5.97997 44.2413 7.4991 43.9932 9.41437 43.7842C11.3296 43.5752 13.6035 43.4094 16.1061 43.2963C18.6088 43.1832 21.2911 43.125 24 43.125C26.7089 43.125 29.3912 43.1832 31.8939 43.2963C34.3965 43.4094 36.6704 43.5752 38.5856 43.7842C40.5009 43.9932 42.02 44.2413 43.0563 44.5143C44.0925 44.7873 44.6256 45.08 44.625 45.3755V45.3755Z" fill="url(#paint6_radial_1:136)"/>
</g>
<defs>
<filter id="filter0_f_1:136" x="-1.69626" y="4.30374" width="51.3925" height="42.3925" filterUnits="userSpaceOnUse" color-interpolation-filters="sRGB">
<feFlood flood-opacity="0" result="BackgroundImageFix"/>
<feBlend mode="normal" in="SourceGraphic" in2="BackgroundImageFix" result="shape"/>
<feGaussianBlur stdDeviation="1.34813" result="effect1_foregroundBlur_1:136"/>
</filter>
<linearGradient id="paint0_linear_1:136" x1="12.4347" y1="2.72219" x2="37.3544" y2="44.203" gradientUnits="userSpaceOnUse">
<stop stop-color="#FFA154"/>
<stop offset="1" stop-color="#F37329"/>
</linearGradient>
<linearGradient id="paint1_linear_1:136" x1="24" y1="2" x2="24" y2="46" gradientUnits="userSpaceOnUse">
<stop stop-color="white" stop-opacity="0.54"/>
<stop offset="1" stop-color="white" stop-opacity="0.21"/>
</linearGradient>
<linearGradient id="paint2_linear_1:136" x1="46.2581" y1="6" x2="1.12535" y2="41.8461" gradientUnits="userSpaceOnUse">
<stop stop-color="#64BAFF"/>
<stop offset="0.536458" stop-color="#3689E6"/>
<stop offset="1" stop-color="#0D52BF"/>
</linearGradient>
<linearGradient id="paint3_linear_1:136" x1="24" y1="6" x2="24" y2="43" gradientUnits="userSpaceOnUse">
<stop stop-color="white" stop-opacity="0.38"/>
<stop offset="1" stop-color="white" stop-opacity="0.12"/>
</linearGradient>
<radialGradient id="paint4_radial_1:136" cx="0" cy="0" r="1" gradientUnits="userSpaceOnUse" gradientTransform="translate(10.5 45.75) scale(7.125 1.5)">
<stop/>
<stop offset="1" stop-opacity="0"/>
</radialGradient>
<radialGradient id="paint5_radial_1:136" cx="0" cy="0" r="1" gradientUnits="userSpaceOnUse" gradientTransform="translate(37.125 45.75) scale(7.125 1.5)">
<stop/>
<stop offset="1" stop-opacity="0"/>
</radialGradient>
<radialGradient id="paint6_radial_1:136" cx="0" cy="0" r="1" gradientUnits="userSpaceOnUse" gradientTransform="translate(24 45.3755) scale(20.625 2.25)">
<stop/>
<stop offset="1" stop-opacity="0"/>
</radialGradient>
<clipPath id="clip0_1:136">
<rect width="48" height="48" fill="white"/>
</clipPath>
</defs>
</svg>
