<svg width="64" height="64" viewBox="0 0 64 64" fill="none" xmlns="http://www.w3.org/2000/svg">
<g clip-path="url(#clip0_1:111)">
<path d="M31.4369 6.1579C31.6796 5.29085 31.8926 4.57535 32.0635 4.07181C32.0969 4.13769 32.1321 4.20809 32.1689 4.28297C32.4718 4.89888 32.8689 5.77756 33.3305 6.83783C34.2527 8.95639 35.4209 11.7738 36.5873 14.6051C36.8512 15.246 37.1151 15.8875 37.376 16.5217C38.2666 18.6871 39.122 20.7667 39.8255 22.4389C40.2801 23.5195 40.6732 24.4345 40.9724 25.0947C41.1217 25.424 41.2503 25.6958 41.3531 25.895C41.4041 25.9939 41.4525 26.0823 41.4967 26.1537C41.5187 26.1891 41.5436 26.2269 41.5707 26.2622C41.592 26.29 41.6387 26.3488 41.7079 26.3991C41.7912 26.4595 41.8754 26.4836 41.9091 26.4927C41.954 26.5048 41.9982 26.5123 42.0357 26.5175C42.1113 26.5279 42.1997 26.5339 42.2929 26.5375C42.4813 26.5449 42.7324 26.544 43.0311 26.5371C43.6308 26.5233 44.4549 26.4844 45.4228 26.43C46.93 26.3451 48.8004 26.2217 50.7419 26.0935C51.2953 26.057 51.8546 26.02 52.4128 25.9835C54.9326 25.8187 57.4325 25.6622 59.3055 25.5848C60.2051 25.5476 60.9514 25.5291 61.4831 25.5361C61.4308 25.5882 61.3747 25.6434 61.3149 25.7016C60.8227 26.18 60.1097 26.8292 59.244 27.5958C57.5141 29.1275 55.1956 31.1092 52.8633 33.0934C52.3356 33.5423 51.8072 33.9913 51.2849 34.4351C49.5005 35.9516 47.7868 37.4079 46.4136 38.5939C45.5263 39.3602 44.7776 40.0168 44.2422 40.5054C43.9752 40.7491 43.7564 40.9554 43.5986 41.1148C43.5203 41.1938 43.4512 41.2672 43.3971 41.3313C43.3701 41.3631 43.3419 41.3985 43.3167 41.4352C43.2968 41.464 43.2554 41.5266 43.2289 41.608C43.1972 41.7058 43.2003 41.7934 43.2021 41.8282C43.2045 41.8746 43.2109 41.919 43.2176 41.9563C43.2311 42.0314 43.2527 42.1174 43.278 42.2071C43.3292 42.3885 43.4077 42.6271 43.5065 42.9091C43.705 43.4752 43.9966 44.2469 44.3475 45.1506C44.8939 46.5577 45.5893 48.2983 46.3111 50.1051C46.5169 50.6202 46.7248 51.1408 46.9321 51.6605C47.8675 54.0061 48.7889 56.3352 49.4413 58.0926C49.7546 58.9367 50.0029 59.6408 50.1606 60.1486C50.0948 60.115 50.025 60.0787 49.9512 60.0397C49.3441 59.7195 48.5063 59.242 47.5098 58.6556C45.5184 57.4837 42.9172 55.891 40.3094 54.286C39.7193 53.9228 39.1288 53.5589 38.5451 53.1992C36.5517 51.9708 34.6372 50.7911 33.0851 49.8517C32.0821 49.2447 31.2263 48.7355 30.5961 48.3773C30.2818 48.1986 30.018 48.0543 29.8177 47.9535C29.7183 47.9035 29.6272 47.8605 29.5496 47.8287C29.5109 47.813 29.4686 47.7971 29.4259 47.7844C29.3923 47.7744 29.32 47.7543 29.2344 47.7543C29.1316 47.7544 29.0493 47.7844 29.0166 47.7969C28.9732 47.8135 28.933 47.8334 28.8997 47.8512C28.8324 47.8872 28.7573 47.9343 28.6798 47.9861C28.5231 48.0909 28.3204 48.2393 28.0828 48.4204C27.6057 48.7841 26.9619 49.2999 26.2108 49.9129C25.0412 50.8675 23.6005 52.067 22.1049 53.312C21.6788 53.6667 21.2482 54.0252 20.8182 54.3827C18.8765 55.9971 16.9462 57.5932 15.4763 58.7567C14.7704 59.3155 14.1775 59.7692 13.7432 60.0761C13.7549 60.0031 13.7678 59.9255 13.7821 59.8433C13.899 59.167 14.0942 58.2227 14.344 57.0936C14.8432 54.8376 15.5541 51.8716 16.2747 48.8954C16.4378 48.222 16.6014 47.5481 16.7631 46.8819C17.3153 44.6064 17.8457 42.4209 18.2595 40.6544C18.5269 39.513 18.7467 38.5417 18.8927 37.8317C18.9654 37.4775 19.0212 37.182 19.0551 36.9604C19.072 36.8504 19.0848 36.7505 19.091 36.6668C19.094 36.6252 19.0961 36.58 19.0949 36.5355C19.094 36.5005 19.0908 36.4254 19.0643 36.3441C19.0325 36.2463 18.9785 36.1773 18.9566 36.1501C18.9274 36.114 18.896 36.0819 18.8688 36.0557C18.8137 36.0028 18.7457 35.946 18.6725 35.8883C18.5244 35.7716 18.3207 35.6247 18.075 35.4546C17.5817 35.1133 16.8922 34.6604 16.0771 34.1355C14.8079 33.3183 13.2221 32.3188 11.5761 31.2813C11.1069 30.9855 10.6327 30.6867 10.1597 30.3881C8.0242 29.0403 5.90979 27.6976 4.34898 26.6593C3.59935 26.1606 2.9847 25.7369 2.55861 25.4187C2.6316 25.4073 2.70942 25.3956 2.79201 25.3837C3.47138 25.2859 4.42977 25.1798 5.58076 25.0685C7.88061 24.8461 10.9212 24.6056 13.9743 24.3713C14.6652 24.3183 15.3568 24.2656 16.0405 24.2135C18.3752 24.0356 20.6175 23.8647 22.4253 23.7124C23.5935 23.6139 24.5852 23.5228 25.3056 23.4422C25.6649 23.402 25.9631 23.3637 26.1844 23.3275C26.2942 23.3096 26.3932 23.2908 26.4747 23.2709C26.5152 23.2609 26.5588 23.2489 26.6008 23.234C26.6339 23.2223 26.7042 23.1961 26.7734 23.1458C26.8566 23.0853 26.9055 23.0127 26.9246 22.9834C26.9499 22.9445 26.9708 22.9047 26.9873 22.8707C27.0206 22.802 27.0536 22.7197 27.0858 22.6323C27.151 22.4554 27.2278 22.2162 27.3136 21.93C27.4858 21.3554 27.7034 20.5597 27.9507 19.6223C28.3358 18.1627 28.7963 16.3458 29.2744 14.4598C29.4107 13.9221 29.5484 13.3787 29.6862 12.8365C30.3081 10.389 30.9317 7.96319 31.4369 6.1579Z" fill="url(#paint0_linear_1:111)" stroke="url(#paint1_linear_1:111)"/>
<path style="mix-blend-mode:luminosity" d="M6.5 28.6261C11.1546 31.6858 19.3011 36.6643 19.4286 37.0585C19.4286 37.0585 17.539 32.9176 14.6784 30.9827C11.8365 29.0604 6.56914 28.6317 6.5 28.6261V28.6261ZM17.5378 58C21.8719 54.497 29.101 48.2497 29.5135 48.2496C29.5135 48.2496 25.0106 48.776 22.2953 50.912C19.5979 53.034 17.5644 57.9356 17.5378 58ZM48.7485 56.528C46.7726 51.3033 43.0939 42.4637 43.2213 42.0695C43.2213 42.0695 42.328 46.5357 43.5105 49.7908C44.6852 53.0245 48.6958 56.4826 48.7485 56.528ZM57 26.2443C51.4447 26.5182 41.9421 27.3025 41.6083 27.0588C41.6083 27.0588 45.5591 29.2927 49.0052 29.1685C52.4287 29.0451 56.9408 26.2806 57 26.2443V26.2443ZM30.889 9C29.4315 14.394 27.2373 23.7182 26.9036 23.9619C26.9036 23.9619 30.2386 20.8763 31.186 17.5445C32.1271 14.2344 30.9051 9.06779 30.889 9V9Z" fill="white" fill-opacity="0.3"/>
<path style="mix-blend-mode:luminosity" d="M6.5 28.1261C11.1546 31.1858 19.3011 36.1643 19.4286 36.5585C19.4286 36.5585 17.539 32.4176 14.6784 30.4827C11.8365 28.5604 6.56914 28.1317 6.5 28.1261V28.1261ZM17.5378 57.5C21.8719 53.997 29.101 47.7497 29.5135 47.7496C29.5135 47.7496 25.0106 48.276 22.2953 50.412C19.5979 52.534 17.5644 57.4356 17.5378 57.5ZM48.7485 56.028C46.7726 50.8033 43.0939 41.9637 43.2213 41.5695C43.2213 41.5695 42.328 46.0357 43.5105 49.2908C44.6852 52.5245 48.6958 55.9826 48.7485 56.028ZM57 25.7443C51.4447 26.0182 41.9421 26.8025 41.6083 26.5588C41.6083 26.5588 45.5591 28.7927 49.0052 28.6685C52.4287 28.5451 56.9408 25.7806 57 25.7443V25.7443ZM30.889 8.5C29.4315 13.894 27.2373 23.2182 26.9036 23.4619C26.9036 23.4619 30.2386 20.3763 31.186 17.0445C32.1271 13.7344 30.9051 8.56779 30.889 8.5V8.5Z" fill="url(#paint2_linear_1:111)"/>
<path style="mix-blend-mode:luminosity" fill-rule="evenodd" clip-rule="evenodd" d="M8.42749 29.377C7.74411 28.9378 7.09365 28.5163 6.5 28.1261C6.56914 28.1316 11.8365 28.5604 14.6784 30.4827C17.4489 32.3567 19.3086 36.2999 19.423 36.5464C19.3709 36.4557 19.0349 36.2027 18.4932 35.8316C17.6663 34.4641 16.3352 32.6034 14.6784 31.4827C12.9213 30.2942 10.2371 29.6766 8.42749 29.377ZM19.4286 36.5585C19.4286 36.5585 19.4267 36.5544 19.423 36.5464C19.4255 36.5508 19.4274 36.5549 19.4286 36.5585ZM18.2945 56.8848C18.0342 57.0975 17.7814 57.3031 17.5378 57.5C17.5644 57.4356 19.5979 52.534 22.2953 50.412C24.9251 48.3433 29.2316 47.7844 29.5003 47.7512C29.3507 47.7832 28.6806 48.2921 27.699 49.0844C26.1434 49.445 23.9052 50.1456 22.2953 51.412C20.5761 52.7644 19.1266 55.2461 18.2945 56.8848ZM29.5135 47.7496C29.5135 47.7496 29.509 47.7502 29.5003 47.7512C29.5053 47.7502 29.5097 47.7496 29.5135 47.7496ZM46.1241 49.3275C47.0456 51.6477 48.0145 54.0872 48.7485 56.028C48.7363 56.0175 48.5121 55.8242 48.1602 55.4932C47.5344 53.8784 46.8159 52.0693 46.1241 50.3275C44.5878 46.4594 43.1832 42.923 43.2188 42.5826C43.2204 42.5739 43.2213 42.5695 43.2213 42.5695C43.2201 42.5732 43.2193 42.5775 43.2188 42.5826C43.1911 42.7256 42.9484 44.0212 42.9046 45.6781C42.8461 43.5677 43.1857 41.7533 43.2188 41.5826C43.1832 41.923 44.5878 45.4594 46.1241 49.3275ZM43.2213 41.5695C43.2213 41.5695 43.2204 41.5739 43.2188 41.5826C43.2193 41.5775 43.2201 41.5732 43.2213 41.5695ZM49.8477 26.182C52.3283 26.0182 54.9364 25.8461 57 25.7443C56.9748 25.7598 56.1448 26.2683 54.9358 26.8574C53.3257 26.9524 51.5564 27.0692 49.8477 27.182C47.5152 27.3359 45.2955 27.4824 43.7475 27.556C42.5594 27.0823 41.7266 26.6248 41.6199 26.5653C41.9311 26.7045 45.712 26.4549 49.8477 26.182ZM41.6083 26.5588C41.6083 26.5588 41.6123 26.5611 41.6199 26.5653C41.6153 26.5633 41.6114 26.5611 41.6083 26.5588ZM29.093 15.4709C29.7046 13.0496 30.3476 10.5036 30.889 8.5C30.9013 8.55189 31.6202 11.5914 31.5346 14.4989C31.4647 11.934 30.8999 9.54595 30.889 9.5C30.3476 11.5036 29.7046 14.0496 29.093 16.4709C28.445 19.0365 27.8323 21.4623 27.4133 22.955C27.1414 23.2373 26.9566 23.4122 26.9133 23.4528C27.1412 23.1984 28.0734 19.5078 29.093 15.4709ZM26.9036 23.4619C26.9036 23.4619 26.9069 23.4588 26.9133 23.4528C26.9099 23.4566 26.9067 23.4596 26.9036 23.4619Z" fill="black" fill-opacity="0.07"/>
<path style="mix-blend-mode:luminosity" fill-rule="evenodd" clip-rule="evenodd" d="M7.42256 28.7283C7.10301 28.521 6.79451 28.3197 6.5 28.1261C6.56914 28.1316 11.8365 28.5604 14.6784 30.4827C17.4489 32.3567 19.3086 36.2999 19.423 36.5464C19.3888 36.4868 19.2321 36.3573 18.9751 36.1703C18.2523 34.8445 16.7103 32.3571 14.6784 30.9827C12.5535 29.5454 9.07264 28.9431 7.42256 28.7283ZM19.4286 36.5585C19.4286 36.5585 19.4267 36.5544 19.423 36.5464C19.4255 36.5508 19.4274 36.5549 19.4286 36.5585ZM17.8887 57.2155C17.7698 57.3122 17.6528 57.4071 17.5378 57.5C17.5644 57.4356 19.5979 52.534 22.2953 50.412C24.9251 48.3433 29.2316 47.7844 29.5003 47.7512C29.3996 47.7727 29.0635 48.01 28.5556 48.4042C27.084 48.6824 24.234 49.3869 22.2953 50.912C20.2487 52.522 18.5844 55.7321 17.8887 57.2155ZM29.5135 47.7496C29.5135 47.7496 29.509 47.7502 29.5003 47.7512C29.5053 47.7502 29.5097 47.7496 29.5135 47.7496ZM46.1241 49.3275C47.0456 51.6477 48.0145 54.0872 48.7485 56.028C48.7403 56.0209 48.6355 55.9306 48.46 55.7708C47.7708 53.9735 46.9294 51.855 46.1241 49.8275C44.5878 45.9594 43.1832 42.423 43.2188 42.0826C43.2204 42.0739 43.2213 42.0695 43.2213 42.0695C43.2201 42.0732 43.2193 42.0775 43.2188 42.0826C43.1897 42.2328 42.9233 43.6554 42.8995 45.4326C42.8721 43.4286 43.187 41.7467 43.2188 41.5826C43.1832 41.923 44.5878 45.4594 46.1241 49.3275ZM43.2213 41.5695C43.2213 41.5695 43.2204 41.5739 43.2188 41.5826C43.2193 41.5775 43.2201 41.5732 43.2213 41.5695ZM49.8477 26.182C52.3283 26.0182 54.9364 25.8461 57 25.7443C56.9835 25.7544 56.6206 25.9768 56.0315 26.2949C54.1527 26.3978 51.9542 26.5429 49.8477 26.682C46.906 26.8761 44.1439 27.0585 42.6822 27.0975C42.0808 26.8193 41.6907 26.6048 41.6199 26.5653C41.9311 26.7045 45.712 26.4549 49.8477 26.182ZM41.6083 26.5588C41.6083 26.5588 41.6123 26.5611 41.6199 26.5653C41.6153 26.5633 41.6114 26.5611 41.6083 26.5588ZM29.093 15.4709C29.7046 13.0496 30.3476 10.5036 30.889 8.5C30.901 8.55045 31.5808 11.4246 31.5399 14.256C31.503 11.596 30.9003 9.04748 30.889 9C30.3476 11.0036 29.7046 13.5496 29.093 15.9709C28.3282 18.9988 27.6126 21.8319 27.2066 23.1663C27.049 23.3247 26.9445 23.4236 26.9133 23.4528C27.1412 23.1984 28.0734 19.5078 29.093 15.4709ZM26.9036 23.4619C26.9036 23.4619 26.9069 23.4588 26.9133 23.4528C26.9099 23.4566 26.9067 23.4596 26.9036 23.4619Z" fill="black" fill-opacity="0.15"/>
<path d="M36.0451 29.2329C35.9827 29.6472 35.7494 29.9951 35.4234 30.2213C35.1051 30.4422 34.6983 30.5467 34.2767 30.4832C33.4234 30.3547 32.8319 29.5865 32.9551 28.7673C33.0787 27.9481 33.8704 27.3883 34.7236 27.5168C35.1286 27.5779 35.494 27.7891 35.742 28.1045C35.7446 28.1081 35.7477 28.1123 35.7505 28.1159C35.9984 28.4377 36.1044 28.8395 36.0451 29.2329ZM36.1657 23.9582C36.1354 24.3116 35.9582 24.6196 35.6947 24.83C35.4366 25.0358 35.0874 25.2519 34.7313 25.1983H34.731C34.0085 25.0892 33.4695 24.4342 33.5293 23.7331L33.5294 23.7328C33.5894 23.0315 34.2281 22.5135 34.956 22.5757H34.9564C35.302 22.6053 35.6227 22.7644 35.8489 23.019C35.8518 23.0222 35.8546 23.025 35.8573 23.0283C36.0836 23.2873 36.1944 23.6218 36.1657 23.9582V23.9582ZM35.9612 19.0934C35.957 19.3883 35.8291 19.6565 35.6222 19.8485C35.4194 20.0369 35.1422 20.1847 34.8436 20.1699L34.8428 20.1699C34.2351 20.1394 33.749 19.6518 33.7572 19.0629V19.0622C33.7657 18.4735 34.2655 18.0031 34.874 18.0115H34.8746C35.1639 18.0157 35.4396 18.1298 35.643 18.3291C35.6456 18.3316 35.6482 18.3341 35.6507 18.3367C35.8533 18.5394 35.9652 18.8114 35.9612 19.0934V19.0934ZM35.4207 14.7258C35.4366 14.9664 35.3508 15.195 35.1943 15.367C35.0401 15.5364 34.8213 15.6458 34.5779 15.6617L34.5769 15.6618C34.0799 15.6939 33.6515 15.3279 33.6198 14.8439V14.8429C33.5886 14.359 33.966 13.9405 34.4628 13.9079L34.4637 13.9079C34.7003 13.8926 34.9333 13.9687 35.1125 14.1196C35.1146 14.1216 35.117 14.1236 35.1195 14.1256C35.2975 14.2788 35.4056 14.4945 35.4207 14.7258V14.7258ZM34.5637 10.9791C34.5936 11.1709 34.5424 11.3623 34.4286 11.5135C34.3162 11.6633 34.147 11.7669 33.9535 11.7969C33.9531 11.797 33.9528 11.797 33.9526 11.7971C33.5555 11.858 33.1851 11.5919 33.1247 11.2023C33.1247 11.2019 33.1247 11.2015 33.1245 11.201C33.0646 10.8115 33.2813 10.4538 33.6704 10.3536C33.6706 10.3535 33.6712 10.3533 33.6716 10.3532C33.8571 10.3057 34.0537 10.332 34.2185 10.4263C34.2207 10.4276 34.2232 10.4289 34.2254 10.4302C34.3889 10.5261 34.5348 10.7934 34.5637 10.9791V10.9791ZM33.2688 8.00904C33.3276 8.15317 33.325 8.31344 33.2647 8.45483C33.2042 8.59564 33.0906 8.70859 32.9457 8.76766C32.9453 8.76782 32.9449 8.76804 32.9446 8.76819C32.6454 8.88935 32.3053 8.74775 32.1845 8.45138C32.1843 8.45092 32.1841 8.45047 32.1839 8.45001C32.0637 8.15357 32.2083 7.81479 32.5073 7.69284C32.5078 7.69262 32.5082 7.69248 32.5088 7.69226C32.6517 7.63434 32.8119 7.63468 32.9538 7.69343C32.9559 7.6943 32.9582 7.69513 32.9601 7.69607C33.1005 7.75594 33.2114 7.86829 33.2688 8.00904ZM32.3854 6.39492C32.4353 6.51749 32.4345 6.65493 32.3833 6.77695C32.3319 6.89895 32.2344 6.99561 32.1116 7.04567C32.111 7.04588 32.1106 7.04601 32.1102 7.04624C31.8553 7.14933 31.565 7.02672 31.4611 6.77198C31.4609 6.77145 31.4607 6.77098 31.4603 6.77049C31.3572 6.51563 31.4798 6.2252 31.7345 6.12128C31.7351 6.12107 31.7357 6.12084 31.7361 6.12065C31.8581 6.07129 31.9951 6.07218 32.1165 6.12334C32.1184 6.12411 32.1204 6.12489 32.1221 6.12577C32.2418 6.17769 32.3361 6.27423 32.3854 6.39492V6.39492ZM27.2897 29.7163C27.6644 29.9036 27.9231 30.2331 28.0375 30.613C28.1493 30.984 28.123 31.4032 27.9323 31.7845C27.5464 32.5563 26.633 32.8815 25.892 32.5111C25.1511 32.1404 24.8633 31.2146 25.2492 30.4428C25.4324 30.0765 25.7463 29.7942 26.1229 29.6559C26.127 29.6545 26.1319 29.6529 26.1363 29.6514C26.519 29.515 26.9338 29.5383 27.2897 29.7164L27.2897 29.7163ZM22.3104 27.9717C22.6371 28.1096 22.8753 28.3734 22.994 28.6889C23.1099 28.998 23.2076 29.397 23.0465 29.719L23.0464 29.7194C22.7195 30.3728 21.93 30.6829 21.2816 30.4095L21.2813 30.4092C20.6329 30.1355 20.3376 29.368 20.6217 28.6949L20.6218 28.6945C20.7569 28.375 21.0073 28.1191 21.3193 27.9827C21.3233 27.981 21.3268 27.9791 21.3306 27.9776C21.647 27.8423 21.9993 27.8403 22.3104 27.9717L22.3104 27.9717ZM17.6205 26.6628C17.8997 26.7579 18.1152 26.9624 18.2339 27.2186C18.3504 27.4697 18.4053 27.779 18.2989 28.0584L18.2987 28.0591C18.0819 28.6277 17.4679 28.9393 16.9104 28.7496L16.9098 28.7493C16.3524 28.5593 16.0596 27.9386 16.2556 27.3625L16.2558 27.3619C16.3492 27.0881 16.5429 26.8611 16.7952 26.7293C16.7985 26.7276 16.8017 26.7259 16.8049 26.7242C17.0602 26.5941 17.3536 26.5718 17.6205 26.6627V26.6628ZM13.2996 25.8272C13.5334 25.8864 13.7243 26.0387 13.8395 26.2406C13.953 26.4396 13.9894 26.6816 13.9293 26.918L13.9291 26.9189C13.806 27.4015 13.3256 27.6958 12.8555 27.5765L12.8545 27.5762C12.3847 27.4563 12.1033 26.9681 12.2258 26.4855L12.226 26.4846C12.2847 26.2548 12.429 26.0567 12.6278 25.933C12.6304 25.9316 12.633 25.9299 12.6357 25.9282C12.8364 25.8063 13.075 25.7702 13.2996 25.8272L13.2996 25.8272ZM9.47152 25.4845C9.66317 25.5153 9.82931 25.6232 9.938 25.7781C10.0457 25.9313 10.092 26.1242 10.0607 26.3175C10.0607 26.3179 10.0606 26.3183 10.0606 26.3185C9.99584 26.7149 9.62832 26.9849 9.23909 26.922C9.2387 26.9219 9.2383 26.9218 9.23783 26.9218C8.84884 26.8584 8.57564 26.5418 8.60053 26.1407C8.6005 26.1405 8.60055 26.1399 8.60056 26.1395C8.61273 25.9484 8.69844 25.7696 8.83902 25.642C8.84099 25.6402 8.84297 25.6384 8.84498 25.6365C8.98665 25.5107 9.28599 25.4545 9.47153 25.4844L9.47152 25.4845ZM6.24667 25.7981C6.40191 25.7868 6.55352 25.8388 6.66936 25.9399C6.78459 26.0409 6.85692 26.1838 6.86831 26.3399C6.86834 26.3403 6.86843 26.3407 6.86846 26.3411C6.89124 26.6631 6.65146 26.9428 6.33228 26.9661C6.33179 26.9661 6.3313 26.9662 6.33081 26.9662C6.01173 26.9889 5.73421 26.7467 5.71061 26.4247C5.71057 26.4241 5.71056 26.4237 5.71052 26.4231C5.69958 26.2693 5.74943 26.117 5.84916 26.0002C5.85063 25.9985 5.85213 25.9966 5.8536 25.9951C5.95393 25.8801 6.09505 25.8093 6.24667 25.7982L6.24667 25.7981ZM4.43854 26.1396C4.57053 26.1299 4.70101 26.1732 4.80124 26.2596C4.90138 26.3462 4.96318 26.4688 4.97284 26.6011C4.97286 26.6017 4.97287 26.6021 4.97297 26.6025C4.99223 26.8768 4.78592 27.115 4.51153 27.1351C4.51097 27.1352 4.51046 27.1352 4.50988 27.1354C4.23562 27.1548 3.99729 26.9484 3.97718 26.674C3.97716 26.6734 3.97712 26.6728 3.97705 26.6724C3.96783 26.541 4.01102 26.411 4.09716 26.3114C4.09848 26.3099 4.09986 26.3082 4.10122 26.3067C4.18756 26.209 4.30852 26.1491 4.43854 26.1395L4.43854 26.1396ZM25.0439 38.1926C25.3378 37.8941 25.7311 37.7498 26.1278 37.7584C26.5151 37.7667 26.9057 37.9214 27.2094 38.2206C27.8242 38.826 27.8512 39.7952 27.27 40.3855C26.6885 40.9756 25.719 40.9632 25.1043 40.3577C24.8125 40.0703 24.641 39.6845 24.6258 39.2836C24.6258 39.2791 24.6258 39.274 24.6256 39.2695C24.6143 38.8634 24.7646 38.476 25.0439 38.1926L25.0439 38.1926ZM21.8459 42.389C22.0781 42.1209 22.4026 41.9759 22.7393 41.9606C23.0691 41.9458 23.4787 41.9763 23.7352 42.2289L23.7355 42.2291C24.2559 42.742 24.3069 43.5887 23.8465 44.1208L23.8461 44.121C23.3855 44.6531 22.5643 44.6967 22.0119 44.2185L22.0116 44.2183C21.7494 43.9912 21.5835 43.6739 21.5501 43.335C21.5497 43.3307 21.5491 43.3267 21.5488 43.3226C21.5179 42.9799 21.6249 42.6442 21.8459 42.3889L21.8459 42.389ZM19.1519 46.4449C19.3286 46.2088 19.5897 46.0671 19.87 46.0333C20.1448 46 20.4559 46.0435 20.6888 46.231L20.6894 46.2314C21.1631 46.6133 21.2697 47.2935 20.9171 47.7651L20.9166 47.7657C20.5637 48.237 19.8829 48.3237 19.3955 47.9592L19.3951 47.9589C19.1635 47.7854 19.0075 47.531 18.9601 47.2504C18.9594 47.2468 18.9588 47.2432 18.9583 47.2396C18.9135 46.9565 18.9829 46.6707 19.1519 46.4449V46.4449ZM17.0219 50.2961C17.1505 50.0921 17.3543 49.9576 17.5819 49.9104C17.8063 49.864 18.0476 49.9042 18.2539 50.0343L18.2547 50.0348C18.6757 50.301 18.8071 50.8489 18.5483 51.2591L18.5478 51.2599C18.2886 51.6697 17.7373 51.7865 17.3162 51.5208L17.3154 51.5203C17.115 51.3936 16.9712 51.1951 16.9149 50.9677C16.9144 50.9649 16.9136 50.9619 16.9128 50.9586C16.8588 50.7301 16.8982 50.492 17.0219 50.296L17.0219 50.2961ZM15.513 53.8309C15.6016 53.6582 15.7555 53.5335 15.9364 53.478C16.1154 53.423 16.3132 53.4385 16.4874 53.528C16.4877 53.5282 16.4881 53.5283 16.4882 53.5284C16.8452 53.7125 16.9885 54.1455 16.8084 54.4962C16.8082 54.4966 16.8079 54.4969 16.8078 54.4974C16.6273 54.8477 16.2417 55.0097 15.868 54.8621C15.8678 54.8621 15.8672 54.8618 15.8669 54.8617C15.6888 54.7911 15.5453 54.6543 15.4674 54.4812C15.4663 54.4787 15.4651 54.4762 15.4641 54.4738C15.3881 54.3002 15.4273 53.9981 15.513 53.8309L15.513 53.8309ZM14.8148 56.9949C14.852 56.8438 14.9483 56.7156 15.0802 56.6367C15.2119 56.5583 15.3702 56.5337 15.5221 56.5711C15.5225 56.5712 15.523 56.5712 15.5234 56.5713C15.8366 56.6491 16.0286 56.9636 15.9521 57.2744C15.9519 57.2749 15.9518 57.2754 15.9517 57.2758C15.8747 57.5863 15.5586 57.7754 15.2451 57.6983C15.2445 57.6982 15.2441 57.6981 15.2435 57.6979C15.0939 57.6608 14.9644 57.5663 14.8842 57.4354C14.883 57.4335 14.8816 57.4314 14.8807 57.4295C14.8023 57.2986 14.7785 57.1425 14.8148 56.9948L14.8148 56.9949ZM14.5808 58.82C14.6125 58.6916 14.6939 58.5808 14.807 58.5122C14.9203 58.4437 15.056 58.4228 15.1848 58.4545C15.1854 58.4547 15.1858 58.4548 15.1862 58.4548C15.4531 58.5213 15.6158 58.7911 15.5502 59.0583C15.55 59.0588 15.5499 59.0593 15.5499 59.0599C15.4836 59.3267 15.2136 59.4896 14.9465 59.424C14.9459 59.4238 14.9453 59.4236 14.9449 59.4236C14.8171 59.3918 14.7068 59.3105 14.6387 59.1978C14.6376 59.1961 14.6364 59.1942 14.6356 59.1925C14.5693 59.0802 14.5498 58.9467 14.5808 58.82L14.5808 58.82ZM32.4113 42.9478C32.2182 42.576 32.2025 42.1574 32.3333 41.7828C32.4609 41.417 32.7287 41.0933 33.1071 40.8969C33.8729 40.4993 34.8029 40.7731 35.1848 41.5083C35.5663 42.2437 35.2549 43.1618 34.4891 43.5594C34.1256 43.748 33.7057 43.7919 33.3197 43.6825C33.3154 43.6812 33.3107 43.6795 33.3061 43.6783C32.9164 43.5637 32.5945 43.301 32.4112 42.9478L32.4113 42.9478ZM35.4141 47.286C35.2309 46.9823 35.1932 46.6289 35.2827 46.3039C35.3706 45.9857 35.526 45.6055 35.8456 45.4397L35.8459 45.4395C36.4945 45.103 37.3155 45.3161 37.6793 45.9184L37.6794 45.9189C38.0431 46.5214 37.8308 47.3159 37.2054 47.6935L37.2051 47.6937C36.908 47.8729 36.555 47.9327 36.2224 47.8597C36.2182 47.8587 36.2143 47.8581 36.2103 47.857C35.8749 47.7805 35.5887 47.575 35.4142 47.2859L35.4141 47.286ZM38.439 51.1015C38.269 50.8605 38.2149 50.5684 38.2694 50.2913C38.3227 50.0197 38.4602 49.7373 38.7104 49.5737L38.7111 49.5733C39.2207 49.2408 39.9005 49.3495 40.24 49.8307L40.2404 49.8313C40.5796 50.3126 40.4517 50.9869 39.9545 51.3377L39.954 51.3381C39.7175 51.5047 39.4273 51.5745 39.1457 51.5328C39.1421 51.5323 39.1385 51.5319 39.135 51.5312C38.8519 51.4863 38.6015 51.332 38.439 51.1015H38.439ZM41.4435 54.3173C41.2892 54.132 41.2242 53.8966 41.2497 53.6655C41.2749 53.4378 41.3877 53.2207 41.5752 53.0647L41.5759 53.0641C41.9592 52.746 42.5209 52.7903 42.831 53.1632L42.8316 53.164C43.1413 53.5371 43.0819 54.0975 42.6992 54.4159L42.6985 54.4165C42.516 54.5679 42.2828 54.6434 42.0492 54.6266C42.0463 54.6262 42.0431 54.626 42.0399 54.6258C41.8058 54.6065 41.5916 54.4955 41.4434 54.3173L41.4435 54.3173ZM44.339 56.8447C44.2021 56.7071 44.1311 56.5222 44.1342 56.3329C44.1373 56.1457 44.2131 55.9624 44.352 55.8244C44.3523 55.8241 44.3525 55.8239 44.3527 55.8237C44.6381 55.5411 45.0941 55.5386 45.3721 55.8182C45.3723 55.8186 45.3726 55.8189 45.373 55.8191C45.6504 56.0991 45.6853 56.5159 45.4294 56.8257C45.4293 56.8259 45.4289 56.8263 45.4287 56.8266C45.3065 56.9741 45.132 57.0684 44.9433 57.089C44.9407 57.0892 44.938 57.0896 44.9354 57.0899C44.7468 57.1084 44.4716 56.9779 44.3391 56.8446L44.339 56.8447ZM47.1324 58.4864C47.0001 58.4044 46.908 58.2732 46.8737 58.1233C46.8399 57.9739 46.8654 57.8157 46.9479 57.6828C46.9481 57.6824 46.9483 57.682 46.9485 57.6817C47.1193 57.4078 47.4777 57.3224 47.7496 57.4912C47.7501 57.4915 47.7505 57.4917 47.7509 57.492C48.0224 57.6612 48.1045 58.0202 47.9343 58.2946C47.934 58.2951 47.9338 58.2955 47.9335 58.296C47.8519 58.4268 47.7221 58.5207 47.5727 58.5566C47.5705 58.5571 47.5682 58.5578 47.5661 58.5581C47.4173 58.5922 47.2616 58.5666 47.1323 58.4864L47.1324 58.4864ZM48.7959 59.273C48.6835 59.2032 48.6033 59.0915 48.573 58.9627C48.5429 58.8338 48.5649 58.6983 48.6349 58.5856C48.6352 58.5851 48.6355 58.5847 48.6356 58.5843C48.7813 58.3511 49.0882 58.2797 49.322 58.4247C49.3225 58.425 49.3229 58.4253 49.3235 58.4254C49.5568 58.571 49.6283 58.878 49.4832 59.1118C49.4829 59.1123 49.4826 59.1129 49.4824 59.1132C49.4126 59.2249 49.3013 59.3047 49.1731 59.3347C49.1712 59.3351 49.1689 59.3357 49.167 59.336C49.0397 59.3643 48.9067 59.3417 48.7958 59.273L48.7959 59.273ZM39.2104 37.4104C38.7972 37.4791 38.3942 37.3647 38.0783 37.1245C37.7699 36.8902 37.5447 36.5355 37.4748 36.1149C37.3334 35.2637 37.8812 34.4638 38.6984 34.3278C39.5157 34.1922 40.2927 34.7721 40.4341 35.6233C40.5012 36.0273 40.4132 36.4402 40.1899 36.7735C40.1872 36.7771 40.1842 36.7812 40.1818 36.785C39.9523 37.1202 39.603 37.3452 39.2104 37.4104L39.2104 37.4104ZM44.2642 35.8951C43.9188 35.9756 43.571 35.9021 43.2896 35.7166C43.0141 35.5347 42.7006 35.2694 42.6416 34.9142L42.6415 34.9138C42.5219 34.193 42.9783 33.4781 43.6636 33.3182L43.664 33.3183C44.3495 33.1585 45.0395 33.6059 45.2053 34.3175L45.2054 34.3178C45.284 34.6557 45.2318 35.0099 45.0596 35.3037C45.0573 35.3075 45.0556 35.3109 45.0533 35.3144C44.8769 35.6098 44.593 35.8185 44.2642 35.8951V35.8951ZM48.8277 34.1974C48.5459 34.2845 48.2514 34.2457 48.0048 34.1083C47.7629 33.9736 47.5368 33.7556 47.4586 33.4671L47.4584 33.4664C47.2996 32.8789 47.6131 32.266 48.1756 32.0918L48.1763 32.0915C48.7389 31.9177 49.3407 32.2477 49.5207 32.8291L49.5209 32.8296C49.6063 33.1061 49.583 33.4035 49.4563 33.6585C49.4547 33.6617 49.4531 33.6651 49.4514 33.6681C49.3212 33.9234 49.0971 34.1139 48.8276 34.1973L48.8277 34.1974ZM52.8146 32.3337C52.5906 32.4231 52.3467 32.4122 52.1348 32.3165C51.926 32.2222 51.7543 32.0478 51.664 31.8213L51.6636 31.8204C51.4795 31.3576 51.6952 30.8371 52.1457 30.6573L52.1466 30.657C52.5972 30.4779 53.1118 30.7074 53.2964 31.1699L53.2967 31.1707C53.3843 31.3911 53.384 31.6362 53.2959 31.8532C53.2946 31.8558 53.2934 31.8586 53.2923 31.8617C53.2016 32.0783 53.0298 32.2478 52.8145 32.3336L52.8146 32.3337ZM56.113 30.3608C55.9398 30.4485 55.742 30.4589 55.563 30.3974C55.3859 30.3368 55.235 30.208 55.1467 30.0332C55.1465 30.0328 55.1463 30.0325 55.1462 30.0323C54.9656 29.6736 55.1042 29.2391 55.4561 29.0612C55.4565 29.061 55.4569 29.0609 55.4572 29.0606C55.8092 28.8832 56.2163 28.9789 56.4319 29.3179C56.4321 29.3181 56.4324 29.3186 56.4326 29.3189C56.5351 29.4807 56.5709 29.6757 56.5321 29.8616C56.5316 29.8642 56.5311 29.8669 56.5305 29.8695C56.4899 30.0546 56.2807 30.276 56.113 30.3609V30.3608ZM58.5376 28.2115C58.4187 28.312 58.2654 28.359 58.1123 28.3453C57.9597 28.3313 57.8172 28.2582 57.7162 28.1386C57.716 28.1383 57.7157 28.138 57.7154 28.1377C57.5077 27.8906 57.5373 27.5234 57.7818 27.3169C57.7822 27.3166 57.7826 27.3163 57.783 27.316C58.0278 27.1101 58.3946 27.1429 58.603 27.3895C58.6034 27.39 58.6036 27.3903 58.604 27.3908C58.7032 27.5087 58.7524 27.6613 58.7404 27.8144C58.7402 27.8167 58.7401 27.8191 58.7398 27.8212C58.7262 27.9732 58.6537 28.1134 58.5376 28.2116L58.5376 28.2115ZM59.7997 26.8725C59.6986 26.9578 59.5676 26.9996 59.4357 26.9886C59.3038 26.9774 59.1818 26.9145 59.0962 26.8132C59.0958 26.8127 59.0956 26.8124 59.0952 26.8121C58.9184 26.6015 58.9453 26.2875 59.1555 26.11C59.1559 26.1096 59.1563 26.1093 59.1567 26.1088C59.3672 25.9319 59.6813 25.9588 59.8588 26.169C59.8592 26.1694 59.8596 26.1699 59.8599 26.1702C59.9446 26.2711 59.9861 26.4016 59.9749 26.5328C59.9747 26.5349 59.9746 26.537 59.9743 26.5391C59.9619 26.6689 59.8992 26.7884 59.7997 26.8726V26.8725ZM33.2361 39.3042C32.7365 39.4666 32.2099 39.5289 31.6862 39.4877C31.1626 39.4465 30.6521 39.3025 30.1841 39.064C29.7161 38.8256 29.2996 38.4972 28.9584 38.0978C28.6173 37.6984 28.3582 37.2357 28.1958 36.7361C27.868 35.7271 27.9544 34.6293 28.436 33.684C28.9177 32.7388 29.755 32.0236 30.764 31.6958C31.7729 31.368 32.8708 31.4544 33.816 31.936C34.7613 32.4176 35.4765 33.255 35.8043 34.2639C35.9666 34.7635 36.0289 35.2902 35.9877 35.8138C35.9465 36.3375 35.8026 36.8479 35.5641 37.316C35.3256 37.784 34.9973 38.2005 34.5979 38.5416C34.1984 38.8828 33.7357 39.1419 33.2361 39.3042V39.3042Z" fill="white" fill-opacity="0.5"/>
<path d="M36.0451 28.7329C35.9827 29.1472 35.7494 29.4951 35.4234 29.7213C35.1051 29.9422 34.6983 30.0467 34.2767 29.9832C33.4234 29.8547 32.8319 29.0865 32.9551 28.2673C33.0787 27.4481 33.8704 26.8883 34.7236 27.0168C35.1286 27.0779 35.494 27.2891 35.742 27.6045C35.7446 27.6081 35.7477 27.6123 35.7505 27.6159C35.9984 27.9377 36.1044 28.3395 36.0451 28.7329ZM36.1657 23.4582C36.1354 23.8116 35.9582 24.1196 35.6947 24.33C35.4366 24.5358 35.0874 24.7519 34.7313 24.6983H34.731C34.0085 24.5892 33.4695 23.9342 33.5293 23.2331L33.5294 23.2328C33.5894 22.5315 34.2281 22.0135 34.956 22.0757H34.9564C35.302 22.1053 35.6227 22.2644 35.8489 22.519C35.8518 22.5222 35.8546 22.525 35.8573 22.5283C36.0836 22.7873 36.1944 23.1218 36.1657 23.4582V23.4582ZM35.9612 18.5934C35.957 18.8883 35.8291 19.1565 35.6222 19.3485C35.4194 19.5369 35.1422 19.6847 34.8436 19.6699L34.8428 19.6699C34.2351 19.6394 33.749 19.1518 33.7572 18.5629V18.5622C33.7657 17.9735 34.2655 17.5031 34.874 17.5115H34.8746C35.1639 17.5157 35.4396 17.6298 35.643 17.8291C35.6456 17.8316 35.6482 17.8341 35.6507 17.8367C35.8533 18.0394 35.9652 18.3114 35.9612 18.5934V18.5934ZM35.4207 14.2258C35.4366 14.4664 35.3508 14.695 35.1943 14.867C35.0401 15.0364 34.8213 15.1458 34.5779 15.1617L34.5769 15.1618C34.0799 15.1939 33.6515 14.8279 33.6198 14.3439V14.3429C33.5886 13.859 33.966 13.4405 34.4628 13.4079L34.4637 13.4079C34.7003 13.3926 34.9333 13.4687 35.1125 13.6196C35.1146 13.6216 35.117 13.6236 35.1195 13.6256C35.2975 13.7788 35.4056 13.9945 35.4207 14.2258V14.2258ZM34.5637 10.4791C34.5936 10.6709 34.5424 10.8623 34.4286 11.0135C34.3162 11.1633 34.147 11.2669 33.9535 11.2969C33.9531 11.297 33.9528 11.297 33.9526 11.2971C33.5555 11.358 33.1851 11.0919 33.1247 10.7023C33.1247 10.7019 33.1247 10.7015 33.1245 10.701C33.0646 10.3115 33.2813 9.95381 33.6704 9.85355C33.6706 9.85346 33.6712 9.85333 33.6716 9.85321C33.8571 9.8057 34.0537 9.83197 34.2185 9.92625C34.2207 9.92758 34.2232 9.92888 34.2254 9.93024C34.3889 10.0261 34.5348 10.2934 34.5637 10.4791V10.4791ZM33.2688 7.50904C33.3276 7.65317 33.325 7.81344 33.2647 7.95483C33.2042 8.09564 33.0906 8.20859 32.9457 8.26766C32.9453 8.26782 32.9449 8.26804 32.9446 8.26819C32.6454 8.38935 32.3053 8.24775 32.1845 7.95138C32.1843 7.95092 32.1841 7.95047 32.1839 7.95001C32.0637 7.65357 32.2083 7.31479 32.5073 7.19284C32.5078 7.19262 32.5082 7.19248 32.5088 7.19226C32.6517 7.13434 32.8119 7.13468 32.9538 7.19343C32.9559 7.1943 32.9582 7.19513 32.9601 7.19607C33.1005 7.25594 33.2114 7.36829 33.2688 7.50904ZM32.3854 5.89492C32.4353 6.01749 32.4345 6.15493 32.3833 6.27695C32.3319 6.39895 32.2344 6.49561 32.1116 6.54567C32.111 6.54588 32.1106 6.54601 32.1102 6.54624C31.8553 6.64933 31.565 6.52672 31.4611 6.27198C31.4609 6.27145 31.4607 6.27098 31.4603 6.27049C31.3572 6.01563 31.4798 5.7252 31.7345 5.62128C31.7351 5.62107 31.7357 5.62084 31.7361 5.62065C31.8581 5.57129 31.9951 5.57218 32.1165 5.62334C32.1184 5.62411 32.1204 5.62489 32.1221 5.62577C32.2418 5.67769 32.3361 5.77423 32.3854 5.89492V5.89492ZM27.2897 29.2163C27.6644 29.4036 27.9231 29.7331 28.0375 30.113C28.1493 30.484 28.123 30.9032 27.9323 31.2845C27.5464 32.0563 26.633 32.3815 25.892 32.0111C25.1511 31.6404 24.8633 30.7146 25.2492 29.9428C25.4324 29.5765 25.7463 29.2942 26.1229 29.1559C26.127 29.1545 26.1319 29.1529 26.1363 29.1514C26.519 29.015 26.9338 29.0383 27.2897 29.2164L27.2897 29.2163ZM22.3104 27.4717C22.6371 27.6096 22.8753 27.8734 22.994 28.1889C23.1099 28.498 23.2076 28.897 23.0465 29.219L23.0464 29.2194C22.7195 29.8728 21.93 30.1829 21.2816 29.9095L21.2813 29.9092C20.6329 29.6355 20.3376 28.868 20.6217 28.1949L20.6218 28.1945C20.7569 27.875 21.0073 27.6191 21.3193 27.4827C21.3233 27.481 21.3268 27.4791 21.3306 27.4776C21.647 27.3423 21.9993 27.3403 22.3104 27.4717L22.3104 27.4717ZM17.6205 26.1628C17.8997 26.2579 18.1152 26.4624 18.2339 26.7186C18.3504 26.9697 18.4053 27.279 18.2989 27.5584L18.2987 27.5591C18.0819 28.1277 17.4679 28.4393 16.9104 28.2496L16.9098 28.2493C16.3524 28.0593 16.0596 27.4386 16.2556 26.8625L16.2558 26.8619C16.3492 26.5881 16.5429 26.3611 16.7952 26.2293C16.7985 26.2276 16.8017 26.2259 16.8049 26.2242C17.0602 26.0941 17.3536 26.0718 17.6205 26.1627V26.1628ZM13.2996 25.3272C13.5334 25.3864 13.7243 25.5387 13.8395 25.7406C13.953 25.9396 13.9894 26.1816 13.9293 26.418L13.9291 26.4189C13.806 26.9015 13.3256 27.1958 12.8555 27.0765L12.8545 27.0762C12.3847 26.9563 12.1033 26.4681 12.2258 25.9855L12.226 25.9846C12.2847 25.7548 12.429 25.5567 12.6278 25.433C12.6304 25.4316 12.633 25.4299 12.6357 25.4282C12.8364 25.3063 13.075 25.2702 13.2996 25.3272L13.2996 25.3272ZM9.47152 24.9845C9.66317 25.0153 9.82931 25.1232 9.938 25.2781C10.0457 25.4313 10.092 25.6242 10.0607 25.8175C10.0607 25.8179 10.0606 25.8183 10.0606 25.8185C9.99584 26.2149 9.62832 26.4849 9.23909 26.422C9.2387 26.4219 9.2383 26.4218 9.23783 26.4218C8.84884 26.3584 8.57564 26.0418 8.60053 25.6407C8.6005 25.6405 8.60055 25.6399 8.60056 25.6395C8.61273 25.4484 8.69844 25.2696 8.83902 25.142C8.84099 25.1402 8.84297 25.1384 8.84498 25.1365C8.98665 25.0107 9.28599 24.9545 9.47153 24.9844L9.47152 24.9845ZM6.24667 25.2981C6.40191 25.2868 6.55352 25.3388 6.66936 25.4399C6.78459 25.5409 6.85692 25.6838 6.86831 25.8399C6.86834 25.8403 6.86843 25.8407 6.86846 25.8411C6.89124 26.1631 6.65146 26.4428 6.33228 26.4661C6.33179 26.4661 6.3313 26.4662 6.33081 26.4662C6.01173 26.4889 5.73421 26.2467 5.71061 25.9247C5.71057 25.9241 5.71056 25.9237 5.71052 25.9231C5.69958 25.7693 5.74943 25.617 5.84916 25.5002C5.85063 25.4985 5.85213 25.4966 5.8536 25.4951C5.95393 25.3801 6.09505 25.3093 6.24667 25.2982L6.24667 25.2981ZM4.43854 25.6396C4.57053 25.6299 4.70101 25.6732 4.80124 25.7596C4.90138 25.8462 4.96318 25.9688 4.97284 26.1011C4.97286 26.1017 4.97287 26.1021 4.97297 26.1025C4.99223 26.3768 4.78592 26.615 4.51153 26.6351C4.51097 26.6352 4.51046 26.6352 4.50988 26.6354C4.23562 26.6548 3.99729 26.4484 3.97718 26.174C3.97716 26.1734 3.97712 26.1728 3.97705 26.1724C3.96783 26.041 4.01102 25.911 4.09716 25.8114C4.09848 25.8099 4.09986 25.8082 4.10122 25.8067C4.18756 25.709 4.30852 25.6491 4.43854 25.6395L4.43854 25.6396ZM25.0439 37.6926C25.3378 37.3941 25.7311 37.2498 26.1278 37.2584C26.5151 37.2667 26.9057 37.4214 27.2094 37.7206C27.8242 38.326 27.8512 39.2952 27.27 39.8855C26.6885 40.4756 25.719 40.4632 25.1043 39.8577C24.8125 39.5703 24.641 39.1845 24.6258 38.7836C24.6258 38.7791 24.6258 38.774 24.6256 38.7695C24.6143 38.3634 24.7646 37.976 25.0439 37.6926L25.0439 37.6926ZM21.8459 41.889C22.0781 41.6209 22.4026 41.4759 22.7393 41.4606C23.0691 41.4458 23.4787 41.4763 23.7352 41.7289L23.7355 41.7291C24.2559 42.242 24.3069 43.0887 23.8465 43.6208L23.8461 43.621C23.3855 44.1531 22.5643 44.1967 22.0119 43.7185L22.0116 43.7183C21.7494 43.4912 21.5835 43.1739 21.5501 42.835C21.5497 42.8307 21.5491 42.8267 21.5488 42.8226C21.5179 42.4799 21.6249 42.1442 21.8459 41.8889L21.8459 41.889ZM19.1519 45.9449C19.3286 45.7088 19.5897 45.5671 19.87 45.5333C20.1448 45.5 20.4559 45.5435 20.6888 45.731L20.6894 45.7314C21.1631 46.1133 21.2697 46.7935 20.9171 47.2651L20.9166 47.2657C20.5637 47.737 19.8829 47.8237 19.3955 47.4592L19.3951 47.4589C19.1635 47.2854 19.0075 47.031 18.9601 46.7504C18.9594 46.7468 18.9588 46.7432 18.9583 46.7396C18.9135 46.4565 18.9829 46.1707 19.1519 45.9449V45.9449ZM17.0219 49.7961C17.1505 49.5921 17.3543 49.4576 17.5819 49.4104C17.8063 49.364 18.0476 49.4042 18.2539 49.5343L18.2547 49.5348C18.6757 49.801 18.8071 50.3489 18.5483 50.7591L18.5478 50.7599C18.2886 51.1697 17.7373 51.2865 17.3162 51.0208L17.3154 51.0203C17.115 50.8936 16.9712 50.6951 16.9149 50.4677C16.9144 50.4649 16.9136 50.4619 16.9128 50.4586C16.8588 50.2301 16.8982 49.992 17.0219 49.796L17.0219 49.7961ZM15.513 53.3309C15.6016 53.1582 15.7555 53.0335 15.9364 52.978C16.1154 52.923 16.3132 52.9385 16.4874 53.028C16.4877 53.0282 16.4881 53.0283 16.4882 53.0284C16.8452 53.2125 16.9885 53.6455 16.8084 53.9962C16.8082 53.9966 16.8079 53.9969 16.8078 53.9974C16.6273 54.3477 16.2417 54.5097 15.868 54.3621C15.8678 54.3621 15.8672 54.3618 15.8669 54.3617C15.6888 54.2911 15.5453 54.1543 15.4674 53.9812C15.4663 53.9787 15.4651 53.9762 15.4641 53.9738C15.3881 53.8002 15.4273 53.4981 15.513 53.3309L15.513 53.3309ZM14.8148 56.4949C14.852 56.3438 14.9483 56.2156 15.0802 56.1367C15.2119 56.0583 15.3702 56.0337 15.5221 56.0711C15.5225 56.0712 15.523 56.0712 15.5234 56.0713C15.8366 56.1491 16.0286 56.4636 15.9521 56.7744C15.9519 56.7749 15.9518 56.7754 15.9517 56.7758C15.8747 57.0863 15.5586 57.2754 15.2451 57.1983C15.2445 57.1982 15.2441 57.1981 15.2435 57.1979C15.0939 57.1608 14.9644 57.0663 14.8842 56.9354C14.883 56.9335 14.8816 56.9314 14.8807 56.9295C14.8023 56.7986 14.7785 56.6425 14.8148 56.4948L14.8148 56.4949ZM14.5808 58.32C14.6125 58.1916 14.6939 58.0808 14.807 58.0122C14.9203 57.9437 15.056 57.9228 15.1848 57.9545C15.1854 57.9547 15.1858 57.9548 15.1862 57.9548C15.4531 58.0213 15.6158 58.2911 15.5502 58.5583C15.55 58.5588 15.5499 58.5593 15.5499 58.5599C15.4836 58.8267 15.2136 58.9896 14.9465 58.924C14.9459 58.9238 14.9453 58.9236 14.9449 58.9236C14.8171 58.8918 14.7068 58.8105 14.6387 58.6978C14.6376 58.6961 14.6364 58.6942 14.6356 58.6925C14.5693 58.5802 14.5498 58.4467 14.5808 58.32L14.5808 58.32ZM32.4113 42.4478C32.2182 42.076 32.2025 41.6574 32.3333 41.2828C32.4609 40.917 32.7287 40.5933 33.1071 40.3969C33.8729 39.9993 34.8029 40.2731 35.1848 41.0083C35.5663 41.7437 35.2549 42.6618 34.4891 43.0594C34.1256 43.248 33.7057 43.2919 33.3197 43.1825C33.3154 43.1812 33.3107 43.1795 33.3061 43.1783C32.9164 43.0637 32.5945 42.801 32.4112 42.4478L32.4113 42.4478ZM35.4141 46.786C35.2309 46.4823 35.1932 46.1289 35.2827 45.8039C35.3706 45.4857 35.526 45.1055 35.8456 44.9397L35.8459 44.9395C36.4945 44.603 37.3155 44.8161 37.6793 45.4184L37.6794 45.4189C38.0431 46.0214 37.8308 46.8159 37.2054 47.1935L37.2051 47.1937C36.908 47.3729 36.555 47.4327 36.2224 47.3597C36.2182 47.3587 36.2143 47.3581 36.2103 47.357C35.8749 47.2805 35.5887 47.075 35.4142 46.7859L35.4141 46.786ZM38.439 50.6015C38.269 50.3605 38.2149 50.0684 38.2694 49.7913C38.3227 49.5197 38.4602 49.2373 38.7104 49.0737L38.7111 49.0733C39.2207 48.7408 39.9005 48.8495 40.24 49.3307L40.2404 49.3313C40.5796 49.8126 40.4517 50.4869 39.9545 50.8377L39.954 50.8381C39.7175 51.0047 39.4273 51.0745 39.1457 51.0328C39.1421 51.0323 39.1385 51.0319 39.135 51.0312C38.8519 50.9863 38.6015 50.832 38.439 50.6015H38.439ZM41.4435 53.8173C41.2892 53.632 41.2242 53.3966 41.2497 53.1655C41.2749 52.9378 41.3877 52.7207 41.5752 52.5647L41.5759 52.5641C41.9592 52.246 42.5209 52.2903 42.831 52.6632L42.8316 52.664C43.1413 53.0371 43.0819 53.5975 42.6992 53.9159L42.6985 53.9165C42.516 54.0679 42.2828 54.1434 42.0492 54.1266C42.0463 54.1262 42.0431 54.126 42.0399 54.1258C41.8058 54.1065 41.5916 53.9955 41.4434 53.8173L41.4435 53.8173ZM44.339 56.3447C44.2021 56.2071 44.1311 56.0222 44.1342 55.8329C44.1373 55.6457 44.2131 55.4624 44.352 55.3244C44.3523 55.3241 44.3525 55.3239 44.3527 55.3237C44.6381 55.0411 45.0941 55.0386 45.3721 55.3182C45.3723 55.3186 45.3726 55.3189 45.373 55.3191C45.6504 55.5991 45.6853 56.0159 45.4294 56.3257C45.4293 56.3259 45.4289 56.3263 45.4287 56.3266C45.3065 56.4741 45.132 56.5684 44.9433 56.589C44.9407 56.5892 44.938 56.5896 44.9354 56.5899C44.7468 56.6084 44.4716 56.4779 44.3391 56.3446L44.339 56.3447ZM47.1324 57.9864C47.0001 57.9044 46.908 57.7732 46.8737 57.6233C46.8399 57.4739 46.8654 57.3157 46.9479 57.1828C46.9481 57.1824 46.9483 57.182 46.9485 57.1817C47.1193 56.9078 47.4777 56.8224 47.7496 56.9912C47.7501 56.9915 47.7505 56.9917 47.7509 56.992C48.0224 57.1612 48.1045 57.5202 47.9343 57.7946C47.934 57.7951 47.9338 57.7955 47.9335 57.796C47.8519 57.9268 47.7221 58.0207 47.5727 58.0566C47.5705 58.0571 47.5682 58.0578 47.5661 58.0581C47.4173 58.0922 47.2616 58.0666 47.1323 57.9864L47.1324 57.9864ZM48.7959 58.773C48.6835 58.7032 48.6033 58.5915 48.573 58.4627C48.5429 58.3338 48.5649 58.1983 48.6349 58.0856C48.6352 58.0851 48.6355 58.0847 48.6356 58.0843C48.7813 57.8511 49.0882 57.7797 49.322 57.9247C49.3225 57.925 49.3229 57.9253 49.3235 57.9254C49.5568 58.071 49.6283 58.378 49.4832 58.6118C49.4829 58.6123 49.4826 58.6129 49.4824 58.6132C49.4126 58.7249 49.3013 58.8047 49.1731 58.8347C49.1712 58.8351 49.1689 58.8357 49.167 58.836C49.0397 58.8643 48.9067 58.8417 48.7958 58.773L48.7959 58.773ZM39.2104 36.9104C38.7972 36.9791 38.3942 36.8647 38.0783 36.6245C37.7699 36.3902 37.5447 36.0355 37.4748 35.6149C37.3334 34.7637 37.8812 33.9638 38.6984 33.8278C39.5157 33.6922 40.2927 34.2721 40.4341 35.1233C40.5012 35.5273 40.4132 35.9402 40.1899 36.2735C40.1872 36.2771 40.1842 36.2812 40.1818 36.285C39.9523 36.6202 39.603 36.8452 39.2104 36.9104L39.2104 36.9104ZM44.2642 35.3951C43.9188 35.4756 43.571 35.4021 43.2896 35.2166C43.0141 35.0347 42.7006 34.7694 42.6416 34.4142L42.6415 34.4138C42.5219 33.693 42.9783 32.9781 43.6636 32.8182L43.664 32.8183C44.3495 32.6585 45.0395 33.1059 45.2053 33.8175L45.2054 33.8178C45.284 34.1557 45.2318 34.5099 45.0596 34.8037C45.0573 34.8075 45.0556 34.8109 45.0533 34.8144C44.8769 35.1098 44.593 35.3185 44.2642 35.3951V35.3951ZM48.8277 33.6974C48.5459 33.7845 48.2514 33.7457 48.0048 33.6083C47.7629 33.4736 47.5368 33.2556 47.4586 32.9671L47.4584 32.9664C47.2996 32.3789 47.6131 31.766 48.1756 31.5918L48.1763 31.5915C48.7389 31.4177 49.3407 31.7477 49.5207 32.3291L49.5209 32.3296C49.6063 32.6061 49.583 32.9035 49.4563 33.1585C49.4547 33.1617 49.4531 33.1651 49.4514 33.1681C49.3212 33.4234 49.0971 33.6139 48.8276 33.6973L48.8277 33.6974ZM52.8146 31.8337C52.5906 31.9231 52.3467 31.9122 52.1348 31.8165C51.926 31.7222 51.7543 31.5478 51.664 31.3213L51.6636 31.3204C51.4795 30.8576 51.6952 30.3371 52.1457 30.1573L52.1466 30.157C52.5972 29.9779 53.1118 30.2074 53.2964 30.6699L53.2967 30.6707C53.3843 30.8911 53.384 31.1362 53.2959 31.3532C53.2946 31.3558 53.2934 31.3586 53.2923 31.3617C53.2016 31.5783 53.0298 31.7478 52.8145 31.8336L52.8146 31.8337ZM56.113 29.8608C55.9398 29.9485 55.742 29.9589 55.563 29.8974C55.3859 29.8368 55.235 29.708 55.1467 29.5332C55.1465 29.5328 55.1463 29.5325 55.1462 29.5323C54.9656 29.1736 55.1042 28.7391 55.4561 28.5612C55.4565 28.561 55.4569 28.5609 55.4572 28.5606C55.8092 28.3832 56.2163 28.4789 56.4319 28.8179C56.4321 28.8181 56.4324 28.8186 56.4326 28.8189C56.5351 28.9807 56.5709 29.1757 56.5321 29.3616C56.5316 29.3642 56.5311 29.3669 56.5305 29.3695C56.4899 29.5546 56.2807 29.776 56.113 29.8609V29.8608ZM58.5376 27.7115C58.4187 27.812 58.2654 27.859 58.1123 27.8453C57.9597 27.8313 57.8172 27.7582 57.7162 27.6386C57.716 27.6383 57.7157 27.638 57.7154 27.6377C57.5077 27.3906 57.5373 27.0234 57.7818 26.8169C57.7822 26.8166 57.7826 26.8163 57.783 26.816C58.0278 26.6101 58.3946 26.6429 58.603 26.8895C58.6034 26.89 58.6036 26.8903 58.604 26.8908C58.7032 27.0087 58.7524 27.1613 58.7404 27.3144C58.7402 27.3167 58.7401 27.3191 58.7398 27.3212C58.7262 27.4732 58.6537 27.6134 58.5376 27.7116L58.5376 27.7115ZM59.7997 26.3725C59.6986 26.4578 59.5676 26.4996 59.4357 26.4886C59.3038 26.4774 59.1818 26.4145 59.0962 26.3132C59.0958 26.3127 59.0956 26.3124 59.0952 26.3121C58.9184 26.1015 58.9453 25.7875 59.1555 25.61C59.1559 25.6096 59.1563 25.6093 59.1567 25.6088C59.3672 25.4319 59.6813 25.4588 59.8588 25.669C59.8592 25.6694 59.8596 25.6699 59.8599 25.6702C59.9446 25.7711 59.9861 25.9016 59.9749 26.0328C59.9747 26.0349 59.9746 26.037 59.9743 26.0391C59.9619 26.1689 59.8992 26.2884 59.7997 26.3726V26.3725ZM33.2361 38.8042C32.7365 38.9666 32.2099 39.0289 31.6862 38.9877C31.1626 38.9465 30.6521 38.8025 30.1841 38.564C29.7161 38.3256 29.2996 37.9972 28.9584 37.5978C28.6173 37.1984 28.3582 36.7357 28.1958 36.2361C27.868 35.2271 27.9544 34.1293 28.436 33.184C28.9177 32.2388 29.755 31.5236 30.764 31.1958C31.7729 30.868 32.8708 30.9544 33.816 31.436C34.7613 31.9176 35.4765 32.755 35.8043 33.7639C35.9666 34.2635 36.0289 34.7902 35.9877 35.3138C35.9465 35.8375 35.8026 36.3479 35.5641 36.816C35.3256 37.284 34.9973 37.7005 34.5979 38.0416C34.1984 38.3828 33.7357 38.6419 33.2361 38.8042V38.8042Z" fill="#D45500" fill-opacity="0.993967"/>
<path fill-rule="evenodd" clip-rule="evenodd" d="M35.9722 29.0176C36.0056 28.927 36.0302 28.8318 36.0451 28.7329C36.1044 28.3395 35.9984 27.9377 35.7505 27.6159C35.7481 27.6128 35.7455 27.6093 35.7432 27.6061L35.742 27.6045C35.494 27.2891 35.1286 27.0779 34.7236 27.0168C33.8704 26.8883 33.0787 27.4481 32.9551 28.2673C32.9177 28.5161 32.9462 28.7601 33.0279 28.983C33.2706 28.3231 33.9733 27.9038 34.7236 28.0168C35.1286 28.0779 35.494 28.2891 35.742 28.6045C35.7446 28.6081 35.7477 28.6123 35.7505 28.6159C35.8458 28.7396 35.9202 28.8752 35.9722 29.0176ZM36.0644 23.8533C36.1187 23.7309 36.1537 23.5981 36.1657 23.4582C36.1944 23.1218 36.0836 22.7873 35.8573 22.5283C35.8557 22.5263 35.854 22.5245 35.8523 22.5227C35.8512 22.5215 35.8501 22.5203 35.8489 22.519C35.6227 22.2644 35.302 22.1053 34.9564 22.0757H34.956C34.2281 22.0135 33.5894 22.5315 33.5294 23.2328L33.5293 23.2331C33.5112 23.4454 33.548 23.6535 33.6282 23.8435C33.8439 23.3503 34.3712 23.0257 34.956 23.0757H34.9564C35.302 23.1053 35.6227 23.2644 35.8489 23.519C35.8501 23.5203 35.8512 23.5215 35.8523 23.5227C35.854 23.5245 35.8557 23.5263 35.8573 23.5283C35.9435 23.627 36.013 23.7367 36.0644 23.8533ZM35.8327 19.0792C35.9128 18.9335 35.9587 18.7682 35.9612 18.5934C35.9652 18.3114 35.8533 18.0394 35.6507 17.8367L35.643 17.8291C35.4396 17.6298 35.1639 17.5157 34.8746 17.5115H34.874C34.2655 17.5031 33.7657 17.9735 33.7572 18.5622V18.5629C33.7546 18.7484 33.8011 18.9238 33.8849 19.0781C34.0724 18.7362 34.4464 18.5056 34.874 18.5115H34.8746C35.1639 18.5157 35.4396 18.6298 35.643 18.8291L35.6507 18.8367C35.7235 18.9095 35.7845 18.9912 35.8327 19.0792ZM35.2625 14.7823C35.3752 14.6232 35.4341 14.4287 35.4207 14.2258C35.4056 13.9945 35.2975 13.7788 35.1195 13.6256C35.117 13.6236 35.1146 13.6216 35.1125 13.6196C34.9333 13.4687 34.7003 13.3926 34.4637 13.4079L34.4628 13.4079C33.966 13.4405 33.5886 13.859 33.6198 14.3429V14.3439C33.6306 14.5093 33.6878 14.6609 33.7782 14.7875C33.9298 14.5737 34.1765 14.4267 34.4628 14.4079L34.4637 14.4079C34.7003 14.3926 34.9333 14.4687 35.1125 14.6196C35.1145 14.6214 35.1168 14.6233 35.1191 14.6252L35.1195 14.6256C35.1739 14.6724 35.2218 14.7251 35.2625 14.7823ZM34.4286 11.0135C34.5424 10.8623 34.5936 10.6709 34.5637 10.4791C34.5348 10.2934 34.3889 10.0261 34.2254 9.93024L34.2185 9.92625C34.0537 9.83197 33.8571 9.8057 33.6716 9.85321L33.6704 9.85355C33.2813 9.95381 33.0646 10.3115 33.1245 10.701C33.1247 10.7015 33.1247 10.7019 33.1247 10.7023C33.1469 10.8455 33.211 10.972 33.3029 11.0717C33.3957 10.9693 33.5202 10.8923 33.6704 10.8536L33.6716 10.8532C33.8571 10.8057 34.0537 10.832 34.2185 10.9263L34.2254 10.9302C34.2797 10.962 34.332 11.0127 34.3787 11.073C34.3964 11.0541 34.413 11.0343 34.4286 11.0135ZM33.2647 7.95483C33.325 7.81344 33.3276 7.65317 33.2688 7.50904C33.2114 7.36829 33.1005 7.25594 32.9601 7.19607C32.9587 7.19541 32.9572 7.19481 32.9557 7.1942C32.9551 7.19394 32.9544 7.19369 32.9538 7.19343C32.8119 7.13468 32.6517 7.13433 32.5088 7.19226L32.5073 7.19284C32.4656 7.20983 32.427 7.23102 32.3916 7.25571C32.389 7.26284 32.3863 7.26992 32.3833 7.27695C32.3431 7.37229 32.2748 7.45215 32.1883 7.50639C32.1299 7.6433 32.1239 7.80194 32.1839 7.95001L32.1845 7.95137C32.2344 8.07393 32.3219 8.17002 32.4284 8.23201C32.4533 8.21724 32.4796 8.20411 32.5073 8.19284L32.5088 8.19226C32.6517 8.13434 32.8119 8.13468 32.9538 8.19343C32.9559 8.1943 32.9582 8.19513 32.9601 8.19607C32.9823 8.20557 33.0039 8.2164 33.0246 8.22845C33.1318 8.16478 33.2157 8.06895 33.2647 7.95483ZM32.3833 6.27695C32.4345 6.15493 32.4353 6.01748 32.3854 5.89491C32.3361 5.77423 32.2418 5.67769 32.1221 5.62577C32.1208 5.62508 32.1193 5.62446 32.1178 5.62385L32.1165 5.62334C31.9951 5.57218 31.8581 5.57129 31.7361 5.62065L31.7345 5.62128C31.4798 5.72519 31.3572 6.01563 31.4603 6.27049C31.4607 6.27098 31.4609 6.27145 31.4611 6.27198C31.565 6.52672 31.8553 6.64933 32.1102 6.54624L32.1116 6.54567C32.2344 6.49561 32.3319 6.39895 32.3833 6.27695ZM28.0375 30.113C27.9231 29.7331 27.6644 29.4036 27.2897 29.2163L27.2897 29.2164C26.9338 29.0383 26.519 29.015 26.1363 29.1514L26.1229 29.1559C25.7463 29.2942 25.4324 29.5765 25.2492 29.9428C25.0504 30.3404 25.0304 30.7788 25.159 31.1612C25.1834 31.0875 25.2134 31.0145 25.2492 30.9428C25.4324 30.5765 25.7463 30.2942 26.1229 30.1559L26.1363 30.1514C26.519 30.015 26.9338 30.0383 27.2897 30.2164L27.2897 30.2163C27.6488 30.3959 27.9015 30.706 28.0226 31.066C28.128 30.7473 28.1283 30.4142 28.0375 30.113ZM22.994 28.1889C22.8753 27.8734 22.6371 27.6096 22.3104 27.4717L22.3104 27.4717C21.9993 27.3403 21.647 27.3423 21.3306 27.4776C21.3285 27.4784 21.3264 27.4794 21.3243 27.4804C21.3227 27.4811 21.321 27.4819 21.3193 27.4827C21.0073 27.6191 20.7569 27.875 20.6218 28.1945L20.6217 28.1949C20.4764 28.5391 20.4827 28.9081 20.6102 29.223C20.6139 29.2136 20.6178 29.2042 20.6217 29.1949L20.6218 29.1945C20.7569 28.875 21.0073 28.6191 21.3193 28.4827C21.321 28.4819 21.3227 28.4811 21.3243 28.4804C21.3264 28.4794 21.3285 28.4784 21.3306 28.4776C21.647 28.3423 21.9993 28.3403 22.3104 28.4717L22.3104 28.4717C22.6371 28.6096 22.8753 28.8734 22.994 29.1889C23.0034 29.2141 23.0127 29.24 23.0218 29.2663C23.0303 29.2508 23.0385 29.2352 23.0464 29.2194L23.0465 29.219C23.2076 28.897 23.1099 28.498 22.994 28.1889ZM18.2339 26.7186C18.1152 26.4624 17.8997 26.2579 17.6205 26.1628V26.1627C17.3536 26.0718 17.0602 26.0941 16.8049 26.2242L16.7952 26.2293C16.5429 26.3611 16.3492 26.5881 16.2558 26.8619L16.2556 26.8625C16.1543 27.1602 16.1836 27.4698 16.3124 27.7257C16.4172 27.5132 16.5861 27.3386 16.7952 27.2293L16.8049 27.2242C17.0602 27.0941 17.3536 27.0718 17.6205 27.1627V27.1628C17.8962 27.2567 18.1097 27.4573 18.2293 27.7089C18.2556 27.6612 18.2788 27.6112 18.2987 27.5591L18.2989 27.5584C18.4053 27.279 18.3504 26.9697 18.2339 26.7186ZM13.8395 25.7406C13.7243 25.5387 13.5334 25.3864 13.2996 25.3272L13.2996 25.3272C13.075 25.2702 12.8364 25.3063 12.6357 25.4282C12.633 25.4299 12.6304 25.4316 12.6278 25.433C12.429 25.5567 12.2847 25.7548 12.226 25.9846L12.2258 25.9855C12.1599 26.2452 12.2109 26.5065 12.3454 26.7112C12.4177 26.5994 12.5138 26.504 12.6278 26.433C12.6289 26.4324 12.63 26.4318 12.6311 26.4311C12.6326 26.4302 12.6342 26.4292 12.6357 26.4282C12.8364 26.3063 13.075 26.2702 13.2996 26.3272L13.2996 26.3272C13.5144 26.3816 13.693 26.5146 13.81 26.6925C13.8628 26.6107 13.9036 26.5188 13.9291 26.4189L13.9293 26.418C13.9894 26.1816 13.953 25.9396 13.8395 25.7406ZM9.938 25.2781C9.82931 25.1232 9.66317 25.0153 9.47152 24.9845L9.47153 24.9844C9.28599 24.9545 8.98665 25.0107 8.84498 25.1365L8.83902 25.142C8.69844 25.2696 8.61273 25.4484 8.60056 25.6395L8.60053 25.6407C8.58711 25.8569 8.66031 26.0485 8.79156 26.1892C8.8066 26.1728 8.82243 26.157 8.83902 26.142L8.84498 26.1365C8.98665 26.0107 9.28599 25.9545 9.47153 25.9844L9.47152 25.9845C9.62915 26.0099 9.76952 26.0873 9.87486 26.2002C9.96947 26.098 10.0363 25.9671 10.0606 25.8185L10.0607 25.8175C10.092 25.6242 10.0457 25.4313 9.938 25.2781ZM6.66936 25.4399C6.55352 25.3388 6.40191 25.2868 6.24667 25.2981L6.24667 25.2982C6.09505 25.3093 5.95393 25.3801 5.8536 25.4951C5.85213 25.4966 5.85063 25.4985 5.84916 25.5002C5.74943 25.617 5.69958 25.7693 5.71052 25.9231L5.71061 25.9247C5.72495 26.1205 5.83311 26.2867 5.9874 26.3819C6.0653 26.334 6.15403 26.305 6.24667 26.2982L6.24667 26.2981C6.36919 26.2892 6.48945 26.3197 6.59165 26.3826C6.77106 26.2723 6.88445 26.0671 6.86846 25.8411L6.86831 25.8399C6.85692 25.6838 6.78459 25.5409 6.66936 25.4399ZM4.80124 25.7596C4.70101 25.6732 4.57053 25.6299 4.43854 25.6396L4.43854 25.6395C4.30852 25.6491 4.18756 25.709 4.10122 25.8067L4.09716 25.8114C4.01102 25.911 3.96783 26.041 3.97705 26.1724L3.97718 26.174C3.99729 26.4484 4.23562 26.6548 4.50988 26.6354C4.51046 26.6352 4.51097 26.6352 4.51153 26.6351C4.78592 26.615 4.99223 26.3768 4.97297 26.1025L4.97284 26.1011C4.96318 25.9688 4.90138 25.8462 4.80124 25.7596ZM26.1278 37.2584C25.7311 37.2498 25.3378 37.3941 25.0439 37.6926C24.7646 37.976 24.6143 38.3634 24.6256 38.7695C24.6258 38.774 24.6258 38.7791 24.6258 38.7836C24.6316 38.9362 24.66 39.0865 24.7091 39.2301C24.7795 39.0295 24.8928 38.8459 25.0439 38.6926C25.3378 38.3941 25.7311 38.2498 26.1278 38.2584C26.5151 38.2667 26.9057 38.4214 27.2094 38.7206C27.3951 38.9034 27.5271 39.1194 27.605 39.3482C27.7953 38.8055 27.6607 38.165 27.2094 37.7206C26.9057 37.4214 26.5151 37.2667 26.1278 37.2584ZM22.7393 41.4606C22.4026 41.4759 22.0781 41.6209 21.8459 41.889L21.8459 41.8889C21.6249 42.1442 21.5179 42.4799 21.5488 42.8226C21.5491 42.8267 21.5497 42.8307 21.5501 42.835C21.5629 42.9648 21.5951 43.0913 21.6446 43.2109C21.6944 43.0946 21.7619 42.986 21.8459 42.8889L21.8459 42.889C22.0781 42.6209 22.4026 42.4759 22.7393 42.4606C23.0691 42.4458 23.4787 42.4763 23.7352 42.7289L23.7355 42.7291C23.8874 42.8788 23.9994 43.057 24.0702 43.2475C24.2644 42.7458 24.146 42.1336 23.7355 41.7291L23.7352 41.7289C23.4787 41.4763 23.0691 41.4458 22.7393 41.4606ZM19.87 45.5333C19.5897 45.5671 19.3286 45.7088 19.1519 45.9449V45.9449C18.9829 46.1707 18.9135 46.4565 18.9583 46.7396C18.9588 46.7432 18.9594 46.7468 18.9601 46.7504C18.9793 46.8641 19.0163 46.9735 19.069 47.075C19.0932 47.0298 19.1209 46.9863 19.1519 46.9449V46.9449C19.3286 46.7088 19.5897 46.5671 19.87 46.5333C20.1448 46.5 20.4559 46.5435 20.6888 46.731L20.6894 46.7314C20.8261 46.8417 20.9323 46.9768 21.0057 47.1246C21.246 46.6662 21.1178 46.0768 20.6894 45.7314L20.6888 45.731C20.4559 45.5435 20.1448 45.5 19.87 45.5333ZM17.5819 49.4104C17.3543 49.4576 17.1505 49.5921 17.0219 49.7961L17.0219 49.796C16.8982 49.992 16.8588 50.2301 16.9128 50.4586C16.9136 50.4619 16.9144 50.4649 16.9149 50.4677C16.9409 50.5727 16.9856 50.6716 17.0459 50.7601C17.1751 50.5763 17.368 50.4547 17.5819 50.4104C17.8063 50.364 18.0476 50.4042 18.2539 50.5343L18.2547 50.5348C18.3652 50.6046 18.4557 50.6939 18.5244 50.7949C18.5324 50.7835 18.5402 50.7718 18.5478 50.7599L18.5483 50.7591C18.8071 50.3489 18.6757 49.801 18.2547 49.5348L18.2539 49.5343C18.0476 49.4042 17.8063 49.364 17.5819 49.4104ZM15.9364 52.978C15.7555 53.0335 15.6016 53.1582 15.513 53.3309L15.513 53.3309C15.4273 53.4981 15.3881 53.8002 15.4641 53.9738L15.4674 53.9812C15.5023 54.0588 15.5504 54.1291 15.609 54.1895C15.696 54.0898 15.8096 54.0169 15.9364 53.978C16.1154 53.923 16.3132 53.9385 16.4874 54.028L16.4882 54.0284C16.5636 54.0673 16.6295 54.1173 16.6848 54.1752C16.7322 54.1232 16.7737 54.0637 16.8078 53.9974C16.8079 53.9969 16.8082 53.9966 16.8084 53.9962C16.9885 53.6455 16.8452 53.2125 16.4882 53.0284L16.4874 53.028C16.3132 52.9385 16.1154 52.923 15.9364 52.978ZM15.0802 56.1367C14.9483 56.2156 14.852 56.3438 14.8148 56.4949L14.8148 56.4948C14.7785 56.6425 14.8023 56.7986 14.8807 56.9295C14.8811 56.9303 14.8816 56.9312 14.8821 56.932C14.8828 56.9332 14.8835 56.9343 14.8842 56.9354C14.9344 57.0174 15.004 57.0851 15.0858 57.1334C15.2163 57.0576 15.3723 57.0342 15.5221 57.0711L15.5234 57.0713C15.5803 57.0855 15.6333 57.1075 15.6813 57.1358C15.812 57.0597 15.9126 56.9334 15.9517 56.7758L15.9521 56.7744C16.0286 56.4636 15.8366 56.1491 15.5234 56.0713L15.5221 56.0711C15.3702 56.0337 15.2119 56.0583 15.0802 56.1367ZM14.9047 57.9667C14.9857 58.0813 15.1061 58.1638 15.2435 58.1979L15.2451 58.1983C15.3335 58.2201 15.422 58.2206 15.5054 58.2033C15.5617 58.3082 15.5808 58.4335 15.5502 58.5583C15.55 58.5588 15.5499 58.5593 15.5499 58.5599C15.4836 58.8267 15.2136 58.9896 14.9465 58.924L14.9449 58.9236C14.8171 58.8918 14.7068 58.8105 14.6387 58.6978L14.6379 58.6966C14.6371 58.6952 14.6362 58.6938 14.6356 58.6925C14.5693 58.5802 14.5498 58.4467 14.5808 58.32C14.6125 58.1916 14.6939 58.0808 14.807 58.0122C14.8381 57.9934 14.8709 57.9782 14.9047 57.9667ZM32.3357 42.2761C32.4642 41.913 32.731 41.5921 33.1071 41.3969C33.8729 40.9993 34.8029 41.2731 35.1848 42.0083C35.214 42.0646 35.2392 42.122 35.2604 42.1802C35.3936 41.804 35.3789 41.3825 35.1848 41.0083C34.8029 40.2731 33.8729 39.9993 33.1071 40.3969C32.7287 40.5933 32.4609 40.917 32.3333 41.2828C32.2223 41.6007 32.2168 41.9503 32.3357 42.2761ZM35.3355 46.6327C35.43 46.3593 35.5819 46.0765 35.8456 45.9397L35.8459 45.9395C36.4945 45.603 37.3155 45.8161 37.6793 46.4184L37.6794 46.4189C37.7078 46.4659 37.7326 46.5141 37.7541 46.5632C37.9081 46.1985 37.8945 45.7752 37.6794 45.4189L37.6793 45.4184C37.3155 44.8161 36.4945 44.603 35.8459 44.9395L35.8456 44.9397C35.526 45.1055 35.3706 45.4857 35.2827 45.8039C35.2079 46.0756 35.2219 46.367 35.3355 46.6327ZM38.3678 50.4851C38.443 50.3228 38.555 50.1753 38.7104 50.0737L38.7111 50.0733C39.2207 49.7407 39.9005 49.8495 40.24 50.3307L40.2404 50.3313C40.2646 50.3655 40.2864 50.4008 40.3058 50.4368C40.4862 50.09 40.4752 49.6644 40.2404 49.3313L40.24 49.3307C39.9005 48.8495 39.2207 48.7407 38.7111 49.0733L38.7104 49.0737C38.4602 49.2373 38.3227 49.5197 38.2694 49.7913C38.2234 50.0251 38.2547 50.2696 38.3678 50.4851ZM41.3992 53.7592C41.4473 53.6878 41.5062 53.6221 41.5752 53.5647L41.5759 53.5641C41.9592 53.246 42.5209 53.2903 42.831 53.6632L42.8316 53.664C42.8471 53.6826 42.8616 53.7018 42.8753 53.7213C43.0913 53.4004 43.0851 52.9694 42.8316 52.664L42.831 52.6632C42.5209 52.2903 41.9592 52.246 41.5759 52.5641L41.5752 52.5647C41.3876 52.7207 41.2749 52.9378 41.2497 53.1655C41.2268 53.3731 41.2769 53.5841 41.3992 53.7592ZM44.3356 56.3412C44.341 56.3355 44.3464 56.3299 44.352 56.3244L44.3527 56.3237C44.6381 56.0411 45.0941 56.0386 45.3721 56.3182C45.3723 56.3186 45.3726 56.3189 45.373 56.3191C45.3841 56.3304 45.3949 56.3419 45.4053 56.3536C45.4133 56.3448 45.4211 56.3358 45.4287 56.3266L45.4294 56.3257C45.6853 56.0159 45.6504 55.5991 45.373 55.3191C45.3726 55.3189 45.3723 55.3186 45.3721 55.3182C45.0941 55.0386 44.6381 55.0411 44.3527 55.3237L44.352 55.3244C44.2131 55.4624 44.1373 55.6457 44.1342 55.8329C44.1311 56.0206 44.2009 56.204 44.3356 56.3412ZM46.8737 57.6233C46.908 57.7732 47.0001 57.9044 47.1324 57.9864C47.1349 57.988 47.1375 57.9896 47.1401 57.9911C47.3195 57.8811 47.551 57.8721 47.7418 57.9864C47.8188 57.9391 47.8848 57.8741 47.9335 57.796L47.9343 57.7946C48.1045 57.5202 48.0224 57.1612 47.7509 56.992L47.7496 56.9912C47.4777 56.8224 47.1193 56.9078 46.9485 57.1817L46.9479 57.1828C46.8654 57.3157 46.8399 57.4739 46.8737 57.6233ZM48.573 58.4627C48.6033 58.5915 48.6835 58.7032 48.7959 58.773L48.7958 58.773C48.9067 58.8417 49.0397 58.8643 49.167 58.836C49.1689 58.8357 49.1712 58.8351 49.1731 58.8347C49.3013 58.8047 49.4126 58.7249 49.4824 58.6132L49.4832 58.6118C49.6283 58.378 49.5568 58.071 49.3235 57.9254C49.3229 57.9253 49.3225 57.925 49.322 57.9247C49.0882 57.7797 48.7813 57.8511 48.6356 58.0843L48.6349 58.0856C48.5649 58.1983 48.5429 58.3338 48.573 58.4627ZM40.3771 35.8882C40.1446 35.1683 39.438 34.7051 38.6984 34.8278C38.137 34.9212 37.7028 35.328 37.5317 35.8494C37.5074 35.7739 37.4883 35.6956 37.4748 35.6149C37.3334 34.7637 37.8812 33.9638 38.6984 33.8278C39.5157 33.6922 40.2927 34.2721 40.4341 35.1233C40.4772 35.3824 40.4564 35.6452 40.3771 35.8882ZM45.1461 34.6267C44.9116 34.0282 44.2859 33.6733 43.664 33.8183L43.6636 33.8182C43.2283 33.9197 42.8854 34.2453 42.7237 34.654C42.6844 34.5792 42.6557 34.4993 42.6416 34.4142L42.6415 34.4138C42.5219 33.693 42.9783 32.9781 43.6636 32.8182L43.664 32.8183C44.3495 32.6585 45.0395 33.1059 45.2053 33.8175L45.2054 33.8178C45.2688 34.0902 45.2471 34.3732 45.1461 34.6267ZM49.4544 33.1623C49.2206 32.6867 48.6826 32.4351 48.1763 32.5915L48.1756 32.5918C47.884 32.6821 47.6594 32.8903 47.5327 33.1517C47.5015 33.0938 47.4762 33.0323 47.4586 32.9671L47.4584 32.9664C47.2996 32.3789 47.6131 31.766 48.1756 31.5918L48.1763 31.5915C48.7389 31.4177 49.3407 31.7477 49.5207 32.3291L49.5209 32.3296C49.6063 32.6061 49.583 32.9035 49.4563 33.1585L49.4554 33.1603C49.4551 33.161 49.4548 33.1617 49.4544 33.1623ZM53.2134 31.5092C52.9854 31.1569 52.5414 31 52.1466 31.157L52.1457 31.1573C51.9769 31.2247 51.8411 31.3399 51.7469 31.4819C51.7146 31.432 51.6867 31.3783 51.664 31.3213L51.6636 31.3204C51.4795 30.8576 51.6952 30.3371 52.1457 30.1573L52.1466 30.157C52.5972 29.9779 53.1118 30.2074 53.2964 30.6699L53.2967 30.6707C53.3843 30.8911 53.384 31.1362 53.2959 31.3532C53.2946 31.3558 53.2934 31.3586 53.2923 31.3617C53.2705 31.4137 53.244 31.4631 53.2134 31.5092ZM56.333 29.6921C56.1056 29.4577 55.7609 29.4076 55.4572 29.5606C55.4569 29.5609 55.4565 29.561 55.4561 29.5612C55.3827 29.5983 55.3185 29.6466 55.2646 29.703C55.2183 29.653 55.1785 29.5961 55.1467 29.5332L55.1462 29.5323C54.9656 29.1736 55.1042 28.7391 55.4561 28.5612C55.4565 28.561 55.4569 28.5609 55.4572 28.5606C55.8092 28.3832 56.2163 28.4789 56.4319 28.8179L56.4326 28.8189C56.5351 28.9807 56.5709 29.1757 56.5321 29.3616L56.5305 29.3695C56.5071 29.476 56.4279 29.5945 56.333 29.6921ZM58.4601 27.7667C58.4872 27.7506 58.5131 27.7322 58.5376 27.7115L58.5376 27.7116C58.6537 27.6134 58.7262 27.4732 58.7398 27.3212C58.7401 27.3191 58.7402 27.3167 58.7404 27.3144C58.7524 27.1613 58.7032 27.0087 58.604 26.8908L58.603 26.8895C58.3946 26.6429 58.0278 26.6101 57.783 26.816L57.7818 26.8169C57.5373 27.0234 57.5077 27.3906 57.7154 27.6377L57.7162 27.6386C57.7577 27.6877 57.8062 27.729 57.8594 27.7616C58.0456 27.6507 58.2777 27.6552 58.4601 27.7667ZM59.4357 26.4886C59.5676 26.4996 59.6986 26.4578 59.7997 26.3725V26.3726C59.8992 26.2884 59.9619 26.1689 59.9743 26.0391C59.9745 26.0377 59.9747 26.0363 59.9747 26.035L59.9749 26.0328C59.9861 25.9016 59.9446 25.7711 59.8599 25.6702L59.8588 25.669C59.6813 25.4588 59.3672 25.4319 59.1567 25.6088C59.1563 25.6093 59.1559 25.6096 59.1555 25.61C58.9453 25.7875 58.9184 26.1015 59.0952 26.3121L59.0962 26.3132C59.1818 26.4145 59.3038 26.4774 59.4357 26.4886ZM35.9687 35.5C35.9373 35.2506 35.8823 35.0042 35.8043 34.7639C35.4765 33.755 34.7613 32.9176 33.816 32.436C32.8708 31.9544 31.7729 31.868 30.764 32.1958C29.755 32.5236 28.9177 33.2388 28.436 34.184C28.2241 34.6 28.0887 35.0456 28.0314 35.5001C27.932 34.7106 28.0696 33.9032 28.436 33.184C28.9177 32.2388 29.755 31.5236 30.764 31.1958C31.7729 30.868 32.8708 30.9544 33.816 31.436C34.7613 31.9176 35.4765 32.755 35.8043 33.7639C35.9666 34.2635 36.0289 34.7902 35.9877 35.3138C35.9828 35.3761 35.9765 35.4382 35.9687 35.5Z" fill="black" fill-opacity="0.07"/>
<path fill-rule="evenodd" clip-rule="evenodd" d="M36.0394 28.7679C36.0414 28.7563 36.0433 28.7446 36.0451 28.7329C36.1044 28.3395 35.9984 27.9377 35.7505 27.6159C35.7481 27.6128 35.7455 27.6093 35.7432 27.6061L35.742 27.6045C35.494 27.2891 35.1286 27.0779 34.7236 27.0168C33.8704 26.8883 33.0787 27.4481 32.9551 28.2673C32.9313 28.4259 32.9342 28.5827 32.9607 28.7332C33.1008 27.9326 33.8822 27.3901 34.7236 27.5168C35.1286 27.5779 35.494 27.7891 35.742 28.1045C35.7446 28.1081 35.7477 28.1123 35.7505 28.1159C35.9004 28.3105 35.9984 28.5343 36.0394 28.7679ZM36.1445 23.6036C36.1543 23.5561 36.1614 23.5076 36.1657 23.4582C36.1944 23.1218 36.0836 22.7873 35.8573 22.5283C35.8557 22.5263 35.854 22.5245 35.8523 22.5227C35.8512 22.5215 35.8501 22.5203 35.8489 22.519C35.6227 22.2644 35.302 22.1053 34.9564 22.0757H34.956C34.2281 22.0135 33.5894 22.5315 33.5294 23.2328L33.5293 23.2331C33.5189 23.3545 33.5265 23.4745 33.5499 23.5905C33.6778 22.9628 34.2783 22.5178 34.956 22.5757H34.9564C35.302 22.6053 35.6227 22.7644 35.8489 23.019C35.8501 23.0203 35.8512 23.0215 35.8523 23.0227C35.854 23.0245 35.8557 23.0263 35.8573 23.0283C36.0032 23.1953 36.1011 23.3936 36.1445 23.6036ZM35.9307 18.8294C35.9496 18.7535 35.9601 18.6745 35.9612 18.5934C35.9652 18.3114 35.8533 18.0394 35.6507 17.8367L35.643 17.8291C35.4396 17.6298 35.1639 17.5157 34.8746 17.5115H34.874C34.2655 17.5031 33.7657 17.9735 33.7572 18.5622V18.5629C33.7559 18.6539 33.7665 18.7425 33.7874 18.8274C33.9049 18.3534 34.349 18.0043 34.874 18.0115H34.8746C35.1639 18.0157 35.4396 18.1298 35.643 18.3291L35.6507 18.3367C35.7889 18.4749 35.8849 18.6455 35.9307 18.8294ZM35.3854 14.5321C35.4151 14.4348 35.4277 14.3315 35.4207 14.2258C35.4056 13.9945 35.2975 13.7788 35.1195 13.6256C35.117 13.6236 35.1146 13.6216 35.1125 13.6196C34.9333 13.4687 34.7003 13.3926 34.4637 13.4079L34.4628 13.4079C33.966 13.4405 33.5886 13.859 33.6198 14.3429V14.3439C33.6242 14.4111 33.6362 14.476 33.655 14.5378C33.7596 14.1943 34.0748 13.9334 34.4628 13.9079L34.4637 13.9079C34.7003 13.8926 34.9333 13.9687 35.1125 14.1196C35.1146 14.1216 35.117 14.1236 35.1195 14.1256C35.2466 14.2349 35.338 14.3761 35.3854 14.5321ZM34.5255 10.8386C34.5685 10.726 34.5829 10.6027 34.5637 10.4791C34.5348 10.2934 34.3889 10.0261 34.2254 9.93024L34.2185 9.92625C34.0537 9.83197 33.8571 9.8057 33.6716 9.85321L33.6704 9.85355C33.2813 9.95381 33.0646 10.3115 33.1245 10.701C33.1247 10.7015 33.1247 10.7019 33.1247 10.7023C33.1312 10.7446 33.1414 10.7854 33.1549 10.8245C33.2314 10.5985 33.4133 10.4198 33.6704 10.3536L33.6716 10.3532C33.8571 10.3057 34.0537 10.332 34.2185 10.4263L34.2254 10.4302C34.3506 10.5037 34.4655 10.6777 34.5255 10.8386ZM33.2647 7.95483C33.325 7.81344 33.3276 7.65317 33.2688 7.50904C33.2114 7.36829 33.1005 7.25594 32.9601 7.19607C32.9587 7.19541 32.9572 7.19481 32.9557 7.1942C32.9551 7.19394 32.9544 7.19369 32.9538 7.19343C32.8119 7.13468 32.6517 7.13433 32.5088 7.19226L32.5073 7.19284C32.2083 7.31479 32.0637 7.65357 32.1839 7.95001L32.1845 7.95137C32.1889 7.96224 32.1937 7.97291 32.1987 7.98335C32.2594 7.85636 32.3661 7.75043 32.5073 7.69284L32.5088 7.69226C32.6517 7.63434 32.8119 7.63468 32.9538 7.69343C32.9559 7.6943 32.9582 7.69513 32.9601 7.69607C33.0896 7.75133 33.1941 7.85128 33.2546 7.977C33.2581 7.96969 33.2615 7.9623 33.2647 7.95483ZM32.3833 6.27695C32.4345 6.15493 32.4353 6.01748 32.3854 5.89491C32.3361 5.77423 32.2418 5.67769 32.1221 5.62577C32.1208 5.62508 32.1193 5.62446 32.1178 5.62385L32.1165 5.62334C31.9951 5.57218 31.8581 5.57129 31.7361 5.62065L31.7345 5.62128C31.4798 5.72519 31.3572 6.01563 31.4603 6.27049C31.4607 6.27098 31.4609 6.27145 31.4611 6.27198C31.4698 6.29337 31.4799 6.31383 31.4911 6.3333C31.5446 6.24083 31.628 6.16474 31.7345 6.12128L31.7361 6.12065C31.8581 6.07129 31.9951 6.07218 32.1165 6.12334C32.1172 6.12362 32.1179 6.12391 32.1186 6.12421C32.1199 6.1247 32.1211 6.12522 32.1221 6.12577C32.2207 6.16853 32.302 6.24157 32.3552 6.33343C32.3657 6.31531 32.3751 6.29645 32.3833 6.27695ZM28.0375 30.113C27.9231 29.7331 27.6644 29.4036 27.2897 29.2163L27.2897 29.2164C26.9338 29.0383 26.519 29.015 26.1363 29.1514L26.1229 29.1559C25.7463 29.2942 25.4324 29.5765 25.2492 29.9428C25.0924 30.2565 25.0468 30.5956 25.0977 30.9126C25.1231 30.7536 25.173 30.5952 25.2492 30.4428C25.4324 30.0765 25.7463 29.7942 26.1229 29.6559L26.1363 29.6514C26.519 29.515 26.9338 29.5383 27.2897 29.7164L27.2897 29.7163C27.6644 29.9036 27.9231 30.2331 28.0375 30.613C28.0574 30.6788 28.0729 30.7462 28.0838 30.8146C28.1219 30.5757 28.1046 30.3357 28.0375 30.113ZM22.994 28.1889C22.8753 27.8734 22.6371 27.6096 22.3104 27.4717L22.3104 27.4717C21.9993 27.3403 21.647 27.3423 21.3306 27.4776C21.3285 27.4784 21.3264 27.4794 21.3243 27.4804C21.3227 27.4811 21.321 27.4819 21.3193 27.4827C21.0073 27.6191 20.7569 27.875 20.6218 28.1945L20.6217 28.1949C20.5132 28.4519 20.4892 28.7228 20.5371 28.9746C20.5549 28.8806 20.5829 28.7868 20.6217 28.6949L20.6218 28.6945C20.7569 28.375 21.0073 28.1191 21.3193 27.9827C21.321 27.9819 21.3227 27.9811 21.3243 27.9804C21.3264 27.9794 21.3285 27.9784 21.3306 27.9776C21.647 27.8423 21.9993 27.8403 22.3104 27.9717L22.3104 27.9717C22.6371 28.1096 22.8753 28.3734 22.994 28.6889C23.0373 28.8044 23.078 28.9324 23.1037 29.0642C23.1768 28.7754 23.0919 28.4501 22.994 28.1889ZM18.2339 26.7186C18.1152 26.4624 17.8997 26.2579 17.6205 26.1628V26.1627C17.3536 26.0718 17.0602 26.0941 16.8049 26.2242L16.7952 26.2293C16.5429 26.3611 16.3492 26.5881 16.2558 26.8619L16.2556 26.8625C16.1853 27.0691 16.1779 27.2815 16.223 27.4776C16.2318 27.4391 16.2426 27.4007 16.2556 27.3625L16.2558 27.3619C16.3492 27.0881 16.5429 26.8611 16.7952 26.7293L16.8049 26.7242C17.0602 26.5941 17.3536 26.5718 17.6205 26.6627V26.6628C17.8997 26.7579 18.1152 26.9624 18.2339 27.2186C18.2718 27.3003 18.3032 27.3882 18.3246 27.4792C18.3945 27.2216 18.3395 26.9462 18.2339 26.7186ZM13.8395 25.7406C13.7243 25.5387 13.5334 25.3864 13.2996 25.3272L13.2996 25.3272C13.075 25.2702 12.8364 25.3063 12.6357 25.4282C12.633 25.4299 12.6304 25.4316 12.6278 25.433C12.429 25.5567 12.2847 25.7548 12.226 25.9846L12.2258 25.9855C12.1843 26.1488 12.1891 26.3128 12.2318 26.4629C12.2938 26.2424 12.4353 26.0528 12.6278 25.933C12.6304 25.9316 12.633 25.9299 12.6357 25.9282C12.8364 25.8063 13.075 25.7702 13.2996 25.8272L13.2996 25.8272C13.5334 25.8864 13.7243 26.0387 13.8395 26.2406C13.8753 26.3035 13.9035 26.3706 13.9233 26.4405C13.9254 26.4333 13.9273 26.4261 13.9291 26.4189L13.9293 26.418C13.9894 26.1816 13.953 25.9396 13.8395 25.7406ZM9.938 25.2781C9.82931 25.1232 9.66317 25.0153 9.47152 24.9845L9.47153 24.9844C9.28599 24.9545 8.98665 25.0107 8.84498 25.1365L8.83902 25.142C8.69844 25.2696 8.61273 25.4484 8.60056 25.6395L8.60053 25.6407C8.59388 25.7479 8.60852 25.8491 8.64097 25.941C8.68104 25.827 8.74871 25.7239 8.83902 25.642L8.84498 25.6365C8.98665 25.5107 9.28599 25.4545 9.47153 25.4844L9.47152 25.4845C9.66317 25.5153 9.82931 25.6232 9.938 25.7781C9.97516 25.831 10.005 25.8886 10.0269 25.9493C10.0418 25.9075 10.0532 25.8638 10.0606 25.8185L10.0607 25.8175C10.092 25.6242 10.0457 25.4313 9.938 25.2781ZM6.66936 25.4399C6.55352 25.3388 6.40191 25.2868 6.24667 25.2981L6.24667 25.2982C6.09505 25.3093 5.95393 25.3801 5.8536 25.4951C5.85213 25.4966 5.85063 25.4985 5.84916 25.5002C5.74943 25.617 5.69958 25.7693 5.71052 25.9231L5.71061 25.9247C5.71603 25.9987 5.73485 26.0685 5.76449 26.1318C5.78654 26.0846 5.81491 26.0403 5.84916 26.0002C5.85063 25.9985 5.85213 25.9966 5.8536 25.9951C5.95393 25.8801 6.09505 25.8093 6.24667 25.7982L6.24667 25.7981C6.40191 25.7868 6.55352 25.8388 6.66936 25.9399C6.73083 25.9937 6.78009 26.0596 6.81441 26.1329C6.85575 26.0449 6.87583 25.9452 6.86846 25.8411L6.86831 25.8399C6.85692 25.6838 6.78459 25.5409 6.66936 25.4399ZM4.80124 25.7596C4.70101 25.6732 4.57053 25.6299 4.43854 25.6396L4.43854 25.6395C4.30852 25.6491 4.18756 25.709 4.10122 25.8067L4.09716 25.8114C4.01102 25.911 3.96783 26.041 3.97705 26.1724L3.97718 26.174C3.98289 26.2519 4.00618 26.3243 4.04289 26.3876C4.05844 26.3607 4.07657 26.3352 4.09716 26.3114L4.10122 26.3067C4.18756 26.209 4.30852 26.1491 4.43854 26.1395L4.43854 26.1396C4.57053 26.1299 4.70101 26.1732 4.80124 26.2596C4.8438 26.2964 4.87943 26.3397 4.90708 26.3875C4.95545 26.3041 4.98022 26.2059 4.97297 26.1025L4.97284 26.1011C4.96318 25.9688 4.90138 25.8462 4.80124 25.7596ZM26.1278 37.2584C25.7311 37.2498 25.3378 37.3941 25.0439 37.6926C24.7646 37.976 24.6143 38.3634 24.6256 38.7695C24.6258 38.774 24.6258 38.7791 24.6258 38.7836C24.6283 38.8489 24.6349 38.9138 24.6455 38.9779C24.695 38.6812 24.8325 38.4071 25.0439 38.1926C25.3378 37.8941 25.7311 37.7498 26.1278 37.7584C26.5151 37.7667 26.9057 37.9214 27.2094 38.2206C27.4624 38.4697 27.6158 38.7803 27.6683 39.1008C27.7483 38.6195 27.5937 38.099 27.2094 37.7206C26.9057 37.4214 26.5151 37.2667 26.1278 37.2584ZM22.7393 41.4606C22.4026 41.4759 22.0781 41.6209 21.8459 41.889L21.8459 41.8889C21.6249 42.1442 21.5179 42.4799 21.5488 42.8226C21.5491 42.8267 21.5497 42.8307 21.5501 42.835C21.5542 42.8763 21.5602 42.9173 21.5681 42.9578C21.61 42.7481 21.7047 42.5521 21.8459 42.3889L21.8459 42.389C22.0781 42.1209 22.4026 41.9759 22.7393 41.9606C23.0691 41.9458 23.4787 41.9763 23.7352 42.2289L23.7355 42.2291C23.9534 42.4438 24.089 42.717 24.1392 43.0012C24.2194 42.5565 24.0807 42.0693 23.7355 41.7291L23.7352 41.7289C23.4787 41.4763 23.0691 41.4458 22.7393 41.4606ZM19.87 45.5333C19.5897 45.5671 19.3286 45.7088 19.1519 45.9449V45.9449C18.9829 46.1707 18.9135 46.4565 18.9583 46.7396C18.9588 46.7432 18.9594 46.7468 18.9601 46.7504C18.9641 46.7744 18.969 46.7983 18.9746 46.822C19.0075 46.6865 19.0672 46.5581 19.1519 46.4449V46.4449C19.3286 46.2088 19.5897 46.0671 19.87 46.0333C20.1448 46 20.4559 46.0435 20.6888 46.231L20.6894 46.2314C20.9019 46.4028 21.0406 46.6341 21.097 46.8798C21.1934 46.4717 21.0446 46.0177 20.6894 45.7314L20.6888 45.731C20.4559 45.5435 20.1448 45.5 19.87 45.5333ZM17.5819 49.4104C17.3543 49.4576 17.1505 49.5921 17.0219 49.7961L17.0219 49.796C16.8982 49.992 16.8588 50.2301 16.9128 50.4586C16.9136 50.4619 16.9144 50.4649 16.9149 50.4677C16.9182 50.481 16.9218 50.4942 16.9257 50.5073C16.9479 50.4334 16.9801 50.3623 17.0219 50.296L17.0219 50.2961C17.1505 50.0921 17.3543 49.9576 17.5819 49.9104C17.8063 49.864 18.0476 49.9042 18.2539 50.0343L18.2547 50.0348C18.451 50.1589 18.5843 50.3443 18.6445 50.5484C18.7563 50.177 18.6067 49.7574 18.2547 49.5348L18.2539 49.5343C18.0476 49.4042 17.8063 49.364 17.5819 49.4104ZM15.9364 52.978C15.7555 53.0335 15.6016 53.1582 15.513 53.3309L15.513 53.3309C15.4283 53.4961 15.3891 53.7927 15.4613 53.9673C15.4754 53.9167 15.4929 53.8701 15.513 53.8309L15.513 53.8309C15.6016 53.6582 15.7555 53.5335 15.9364 53.478C16.1154 53.423 16.3132 53.4385 16.4874 53.528L16.4882 53.5284C16.6579 53.6159 16.7792 53.7596 16.8406 53.9239C16.9681 53.588 16.821 53.2 16.4882 53.0284L16.4874 53.028C16.3132 52.9385 16.1154 52.923 15.9364 52.978ZM15.0802 56.1367C14.9483 56.2156 14.852 56.3438 14.8148 56.4949L14.8148 56.4948C14.7828 56.6251 14.7975 56.762 14.8553 56.8824C14.9044 56.7806 14.9825 56.6951 15.0802 56.6367C15.2119 56.5583 15.3702 56.5337 15.5221 56.5711L15.5234 56.5713C15.7005 56.6153 15.8388 56.735 15.9118 56.8869C15.9286 56.852 15.942 56.8149 15.9517 56.7758L15.9521 56.7744C16.0286 56.4636 15.8366 56.1491 15.5234 56.0713L15.5221 56.0711C15.3702 56.0337 15.2119 56.0583 15.0802 56.1367ZM14.807 58.0122C14.6939 58.0808 14.6125 58.1916 14.5808 58.32C14.5501 58.4454 14.5689 58.5775 14.6336 58.6892C14.6753 58.6172 14.7347 58.5561 14.807 58.5122C14.9203 58.4437 15.056 58.4228 15.1848 58.4545L15.1862 58.4548C15.3229 58.4889 15.4323 58.5763 15.4977 58.6894C15.5206 58.6499 15.5383 58.6065 15.5499 58.5599C15.5499 58.5593 15.55 58.5588 15.5502 58.5583C15.6158 58.2911 15.4531 58.0213 15.1862 57.9548L15.1848 57.9545C15.056 57.9228 14.9203 57.9437 14.807 58.0122ZM32.2697 42.0289C32.284 41.9454 32.3053 41.8631 32.3333 41.7828C32.4609 41.417 32.7287 41.0933 33.1071 40.8969C33.8729 40.4993 34.8029 40.7731 35.1848 41.5083C35.2548 41.6433 35.3015 41.7844 35.3263 41.9274C35.3786 41.6216 35.3364 41.3005 35.1848 41.0083C34.8029 40.2731 33.8729 39.9993 33.1071 40.3969C32.7287 40.5933 32.4609 40.917 32.3333 41.2828C32.25 41.5214 32.2261 41.778 32.2697 42.0289ZM35.2612 46.3945C35.2673 46.3641 35.2745 46.3339 35.2827 46.3039C35.3706 45.9857 35.526 45.6055 35.8456 45.4397L35.8459 45.4395C36.4945 45.103 37.3155 45.3161 37.6793 45.9184L37.6794 45.9189C37.7542 46.0428 37.8047 46.175 37.8322 46.3099C37.8918 46.0116 37.8461 45.6951 37.6794 45.4189L37.6793 45.4184C37.3155 44.8161 36.4945 44.603 35.8459 44.9395L35.8456 44.9397C35.526 45.1055 35.3706 45.4857 35.2827 45.8039C35.2297 45.9962 35.2213 46.1985 35.2612 46.3945ZM38.2786 50.2483C38.3375 49.9903 38.4734 49.7286 38.7104 49.5737L38.7111 49.5733C39.2207 49.2407 39.9005 49.3495 40.24 49.8307L40.2404 49.8313C40.3175 49.9406 40.3705 50.06 40.4004 50.1832C40.4689 49.8963 40.4204 49.5866 40.2404 49.3313L40.24 49.3307C39.9005 48.8495 39.2207 48.7407 38.7111 49.0733L38.7104 49.0737C38.4602 49.2373 38.3227 49.5197 38.2694 49.7913C38.2396 49.9428 38.2423 50.0987 38.2786 50.2483ZM41.2803 53.5124C41.33 53.3422 41.4303 53.1852 41.5752 53.0647L41.5759 53.0641C41.9592 52.746 42.5209 52.7903 42.831 53.1632L42.8316 53.164C42.908 53.256 42.9619 53.3594 42.9941 53.4678C43.0733 53.1958 43.0227 52.8942 42.8316 52.664L42.831 52.6632C42.5209 52.2903 41.9592 52.246 41.5759 52.5641L41.5752 52.5647C41.3876 52.7207 41.2749 52.9378 41.2497 53.1655C41.2368 53.2824 41.2471 53.4004 41.2803 53.5124ZM44.1787 56.0942C44.2152 55.9948 44.2735 55.9023 44.352 55.8244L44.3527 55.8237C44.6381 55.5411 45.0941 55.5386 45.3721 55.8182C45.3723 55.8186 45.3726 55.8189 45.373 55.8191C45.4574 55.9043 45.5194 56.0022 45.5575 56.1058C45.6578 55.8373 45.5887 55.5368 45.373 55.3191C45.3726 55.3189 45.3723 55.3186 45.3721 55.3182C45.0941 55.0386 44.6381 55.0411 44.3527 55.3237L44.352 55.3244C44.2131 55.4624 44.1373 55.6457 44.1342 55.8329C44.1328 55.9225 44.1479 56.0111 44.1787 56.0942ZM46.9152 57.743C46.9249 57.7225 46.9358 57.7023 46.9479 57.6828L46.9485 57.6817C47.1193 57.4078 47.4777 57.3224 47.7496 57.4912L47.7509 57.492C47.8482 57.5527 47.9212 57.6377 47.967 57.7346C48.0918 57.4699 48.003 57.1491 47.7509 56.992L47.7496 56.9912C47.4777 56.8224 47.1193 56.9078 46.9485 57.1817L46.9479 57.1828C46.8654 57.3157 46.8399 57.4739 46.8737 57.6233C46.8832 57.6649 46.8972 57.705 46.9152 57.743ZM48.627 58.5988C48.6296 58.5943 48.6322 58.5899 48.6349 58.5856L48.6356 58.5843C48.7813 58.3511 49.0882 58.2797 49.322 58.4247C49.3225 58.425 49.3229 58.4253 49.3235 58.4254C49.3952 58.4702 49.4516 58.5302 49.4912 58.5986C49.6255 58.3666 49.5524 58.0683 49.3235 57.9254C49.3229 57.9253 49.3225 57.925 49.322 57.9247C49.0882 57.7797 48.7813 57.8511 48.6356 58.0843L48.6349 58.0856C48.5649 58.1983 48.5429 58.3338 48.573 58.4627C48.5843 58.5109 48.6026 58.5567 48.627 58.5988ZM40.4367 35.6393C40.4359 35.634 40.435 35.6286 40.4341 35.6233C40.2927 34.7721 39.5157 34.1922 38.6984 34.3278C38.0507 34.4356 37.5722 34.9605 37.472 35.5974C37.3409 34.7528 37.8868 33.9629 38.6984 33.8278C39.5157 33.6922 40.2927 34.2721 40.4341 35.1233C40.4628 35.296 40.4632 35.4703 40.4367 35.6393ZM45.218 34.3781C45.2143 34.358 45.2101 34.3379 45.2054 34.3178L45.2053 34.3175C45.0395 33.6059 44.3495 33.1585 43.664 33.3183L43.6636 33.3182C43.1333 33.4419 42.7402 33.898 42.6448 34.4319C42.6436 34.426 42.6426 34.4201 42.6416 34.4142L42.6415 34.4138C42.5219 33.693 42.9783 32.9781 43.6636 32.8182L43.664 32.8183C44.3495 32.6585 45.0395 33.1059 45.2053 33.8175L45.2054 33.8178C45.2487 34.0039 45.2523 34.195 45.218 34.3781ZM49.5434 32.9141C49.537 32.8857 49.5295 32.8576 49.5209 32.8296L49.5207 32.8291C49.3407 32.2477 48.7389 31.9177 48.1763 32.0915L48.1756 32.0918C47.7938 32.21 47.5266 32.5305 47.4441 32.9079C47.3206 32.3388 47.6317 31.7602 48.1756 31.5918L48.1763 31.5915C48.7389 31.4177 49.3407 31.7477 49.5207 32.3291L49.5209 32.3296C49.5801 32.5214 49.587 32.7233 49.5434 32.9141ZM53.3275 31.2614C53.3188 31.2308 53.3086 31.2006 53.2967 31.1707L53.2964 31.1699C53.1118 30.7074 52.5972 30.4779 52.1466 30.657L52.1457 30.6573C51.8866 30.7607 51.7052 30.9768 51.6328 31.2299C51.5085 30.7916 51.7244 30.3254 52.1457 30.1573L52.1466 30.157C52.5972 29.9779 53.1118 30.2074 53.2964 30.6699L53.2967 30.6707C53.3722 30.8605 53.3824 31.0687 53.3275 31.2614ZM56.5008 29.4563C56.4831 29.4086 56.4603 29.3625 56.4326 29.3189L56.4319 29.3179C56.2163 28.9789 55.8092 28.8832 55.4572 29.0606C55.4569 29.0609 55.4565 29.061 55.4561 29.0612C55.2896 29.1453 55.1708 29.287 55.1111 29.4509C54.9875 29.1101 55.1305 28.7258 55.4561 28.5612C55.4565 28.561 55.4569 28.5609 55.4572 28.5606C55.8092 28.3832 56.2163 28.4789 56.4319 28.8179L56.4326 28.8189C56.5351 28.9807 56.5709 29.1757 56.5321 29.3616L56.5305 29.3695C56.5243 29.3978 56.5142 29.4269 56.5008 29.4563ZM58.686 27.5187C58.6645 27.4731 58.637 27.43 58.604 27.3908L58.603 27.3895C58.3946 27.1429 58.0278 27.1101 57.783 27.316L57.7818 27.3169C57.7171 27.3716 57.6674 27.4376 57.6332 27.5096C57.5229 27.2761 57.5768 26.99 57.7818 26.8169L57.783 26.816C58.0278 26.6101 58.3946 26.6429 58.603 26.8895L58.604 26.8908C58.7032 27.0087 58.7524 27.1613 58.7404 27.3144C58.7402 27.3167 58.7401 27.3191 58.7398 27.3212C58.7336 27.3904 58.7152 27.4572 58.686 27.5187ZM59.9096 26.2412C59.8952 26.2163 59.8786 26.1925 59.8599 26.1702L59.8588 26.169C59.6813 25.9588 59.3672 25.9319 59.1567 26.1088C59.1565 26.1091 59.1563 26.1093 59.156 26.1095C59.1559 26.1097 59.1557 26.1098 59.1555 26.11C59.1102 26.1482 59.0735 26.1927 59.0454 26.2412C58.9263 26.0359 58.9678 25.7685 59.1555 25.61C59.1559 25.6096 59.1563 25.6093 59.1567 25.6088C59.3672 25.4319 59.6813 25.4588 59.8588 25.669L59.8599 25.6702C59.9446 25.7711 59.9861 25.9016 59.9749 26.0328L59.9747 26.035C59.9747 26.0363 59.9745 26.0377 59.9743 26.0391C59.9674 26.111 59.9451 26.1798 59.9096 26.2412ZM35.9922 35.25C35.9713 34.9155 35.9083 34.5841 35.8043 34.2639C35.4765 33.255 34.7613 32.4176 33.816 31.936C32.8708 31.4544 31.7729 31.368 30.764 31.6958C29.755 32.0236 28.9177 32.7388 28.436 33.684C28.1853 34.1761 28.0417 34.7094 28.0079 35.2501C27.9635 34.5415 28.1082 33.8274 28.436 33.184C28.9177 32.2388 29.755 31.5236 30.764 31.1958C31.7729 30.868 32.8708 30.9544 33.816 31.436C34.7613 31.9176 35.4765 32.755 35.8043 33.7639C35.96 34.2432 36.0237 34.7474 35.9922 35.25Z" fill="black" fill-opacity="0.15"/>
<path d="M31.5871 3.53599C31.587 3.53595 31.5874 3.53639 31.5882 3.53736L31.5871 3.53599ZM42.3866 25.39C42.3829 25.3828 42.3791 25.3755 42.3751 25.3678C42.2857 25.1945 42.1666 24.9435 42.0199 24.6199C41.7274 23.9748 41.3393 23.0717 40.8855 21.9929C40.184 20.3254 39.3312 18.252 38.4409 16.0876C38.1797 15.4526 37.9153 14.8098 37.6506 14.1671C36.4847 11.337 35.3123 8.50938 34.3849 6.37883C33.9217 5.31483 33.516 4.41618 33.2008 3.77542C33.0442 3.45702 32.9036 3.18907 32.7851 2.99271C32.727 2.89646 32.6639 2.79998 32.5984 2.71908C32.566 2.6791 32.521 2.62792 32.4645 2.5796C32.4196 2.5412 32.3057 2.44986 32.1352 2.4141C31.8939 2.3635 31.7052 2.45478 31.6115 2.51697C31.5187 2.57854 31.4569 2.65041 31.4232 2.69337C31.3536 2.78208 31.3 2.88318 31.261 2.96402C31.1782 3.13532 31.0897 3.36748 30.9979 3.63362C30.812 4.17326 30.5837 4.93961 30.3295 5.84797C29.8199 7.6686 29.1931 10.1075 28.5716 12.5532C28.4333 13.0976 28.2952 13.6422 28.1587 14.1807C27.6809 16.0658 27.2223 17.8752 26.8388 19.3289C26.5921 20.264 26.3784 21.0445 26.212 21.5999C26.1369 21.8506 26.0738 22.0473 26.0235 22.1885C26.0155 22.1899 26.0073 22.1912 25.9988 22.1926C25.8064 22.2241 25.5308 22.2598 25.1777 22.2994C24.4737 22.3781 23.495 22.4682 22.3288 22.5664C20.5259 22.7183 18.2902 22.8887 15.9564 23.0666C15.272 23.1187 14.5792 23.1715 13.8863 23.2247C10.8344 23.4589 7.78293 23.7002 5.47006 23.9239C4.31502 24.0356 3.33497 24.1437 2.62818 24.2455C2.27698 24.296 1.97866 24.347 1.75531 24.399C1.64583 24.4245 1.53458 24.4546 1.43737 24.492C1.38934 24.5105 1.32676 24.5374 1.26334 24.5762C1.21295 24.6071 1.09091 24.6871 1.0042 24.8382C0.881519 25.0521 0.909996 25.2598 0.940183 25.3682C0.970071 25.4754 1.01933 25.5564 1.04978 25.6017C1.11263 25.6953 1.19222 25.7775 1.25705 25.8396C1.39439 25.9713 1.58782 26.1272 1.81259 26.2967C2.26835 26.6404 2.92665 27.0943 3.712 27.6167C5.28606 28.6639 7.41187 30.0137 9.54588 31.3606C10.0209 31.6604 10.4963 31.9601 10.9663 32.2563C12.6115 33.2932 14.1905 34.2885 15.4545 35.1024C16.2676 35.626 16.9438 36.0704 17.4206 36.4003C17.6358 36.5492 17.8034 36.67 17.9222 36.7615C17.921 36.7695 17.9197 36.7777 17.9184 36.7862C17.8889 36.979 17.8377 37.2521 17.7662 37.6001C17.6236 38.294 17.4068 39.2526 17.1398 40.3922C16.7272 42.1538 16.1983 44.3328 15.6463 46.6075C15.4844 47.2744 15.3206 47.9495 15.157 48.6248C14.4367 51.5997 13.7232 54.5764 13.2212 56.8452C12.9705 57.9782 12.7705 58.9437 12.6489 59.6474C12.5884 59.997 12.5447 60.2965 12.5252 60.525C12.5156 60.637 12.5099 60.7521 12.5154 60.8561C12.5181 60.9075 12.5244 60.9753 12.5417 61.0476C12.5555 61.1051 12.5939 61.2459 12.7108 61.375C12.8763 61.5578 13.0827 61.5949 13.195 61.5997C13.3063 61.6044 13.3985 61.5826 13.451 61.5676C13.5595 61.5368 13.6622 61.4865 13.7413 61.444C13.9089 61.3541 14.1171 61.2183 14.3477 61.0569C14.8154 60.7296 15.4505 60.2438 16.1901 59.6584C17.6724 58.485 19.6131 56.8803 21.5535 55.267C21.9855 54.9078 22.4175 54.5481 22.8446 54.1926C24.339 52.9485 25.7734 51.7544 26.938 50.8038C27.6872 50.1923 28.3188 49.6865 28.78 49.335C28.9881 49.1763 29.1547 49.0543 29.2784 48.9696C29.2857 48.9732 29.2931 48.9769 29.3008 48.9808C29.475 49.0684 29.7189 49.2015 30.0278 49.3771C30.6436 49.7271 31.4884 50.2296 32.4896 50.8356C34.0375 51.7724 35.9464 52.9487 37.939 54.1765C38.5234 54.5366 39.1149 54.9011 39.7066 55.2653C42.3133 56.8697 44.9239 58.4682 46.9265 59.6467C47.9266 60.2352 48.7831 60.7238 49.4147 61.0569C49.7285 61.2225 49.9998 61.3565 50.2111 61.4458C50.3146 61.4895 50.4224 61.5305 50.523 61.5574C50.5727 61.5707 50.6392 61.5856 50.7133 61.5915C50.7722 61.5962 50.9179 61.6032 51.0769 61.5319C51.3018 61.431 51.4009 61.2462 51.4402 61.1408C51.479 61.0365 51.4868 60.942 51.4888 60.8874C51.493 60.7748 51.4769 60.6615 51.461 60.5731C51.4272 60.3859 51.3624 60.146 51.2802 59.8768C51.1134 59.3309 50.8477 58.5767 50.5194 57.6924C49.8615 55.92 48.9351 53.5785 48.0003 51.2345C47.7922 50.7126 47.5836 50.1906 47.3775 49.6746C46.6561 47.8688 45.9637 46.1357 45.4195 44.7343C45.0695 43.8328 44.7836 43.0758 44.5918 42.5286C44.5052 42.2817 44.4406 42.0855 44.3983 41.9417C44.404 41.9359 44.4098 41.9299 44.4159 41.9239C44.5531 41.7853 44.755 41.5944 45.0174 41.3548C45.5406 40.8773 46.2795 40.2292 47.1653 39.4642C48.5345 38.2817 50.243 36.8298 52.0265 35.3141C52.5496 34.8696 53.0791 34.4196 53.6084 33.9693C55.9398 31.986 58.2667 29.9972 60.0064 28.4567C60.8752 27.6875 61.6045 27.0239 62.1165 26.5261C62.3709 26.2788 62.5823 26.0622 62.7324 25.8889C62.806 25.8039 62.8783 25.7141 62.9349 25.6267C62.9629 25.5836 62.9977 25.525 63.0262 25.4563C63.0489 25.4017 63.1005 25.2653 63.0819 25.092C63.0554 24.8469 62.9103 24.6956 62.8222 24.6257C62.735 24.5565 62.6475 24.5199 62.5962 24.5011C62.4904 24.4623 62.3776 24.4426 62.2887 24.4305C62.1002 24.4047 61.8521 24.3923 61.5706 24.3873C60.9999 24.3771 60.2005 24.3968 59.258 24.4358C57.3691 24.5138 54.8559 24.6713 52.3378 24.836C51.7773 24.8726 51.2166 24.9097 50.6622 24.9463C48.7218 25.0744 46.8593 25.1973 45.3582 25.2818C44.3926 25.3361 43.5843 25.3741 43.0047 25.3874C42.7431 25.3935 42.5365 25.3942 42.3866 25.39Z" stroke="#AA4400" stroke-opacity="0.999242" stroke-width="1.3"/>
<g opacity="0.8" filter="url(#filter0_f_1:111)">
<path d="M60.3094 10.011C58.3615 9.89702 55.4342 10.6709 51.7594 12.2713C48.0846 13.8717 43.52 16.2736 38.8952 19.25C39.2148 20.0445 39.5735 20.7424 39.879 21.5C43.5252 19.3152 46.9495 17.6829 49.5286 16.8325C52.1077 15.9821 53.9171 15.9007 54.7882 16.596C56.152 17.6921 55.1116 20.6294 51.8961 24.7618C48.6806 28.8942 43.5532 33.8832 37.6418 38.6315C31.7304 43.3797 25.5191 47.4982 20.3744 50.081C15.2297 52.6639 11.5729 53.4994 10.2084 52.4039C9.35163 51.7119 9.44123 50.2819 10.469 48.2444C11.4968 46.207 15.0797 40.6369 17.7419 37.75C17.3109 37.4565 17.5723 37.3741 17.004 37C16.805 36.869 16.2328 36.3891 16.0202 36.25C11.3634 40.8642 5.79658 48.2015 3.80872 51.577C1.82085 54.9525 1.46291 57.3117 2.77771 58.3723C3.67821 59.0959 5.33869 59.195 7.66432 58.6638C9.98996 58.1326 12.9352 56.9815 16.3319 55.2764C19.7286 53.5712 23.5102 51.3453 27.4608 48.7258C31.4114 46.1063 35.4536 43.1444 39.3567 40.0094C43.2596 36.8744 46.947 33.6276 50.2082 30.4544C53.4694 27.2812 56.2406 24.2437 58.3636 21.5153C60.4865 18.787 61.9197 16.4212 62.5812 14.5531C63.2427 12.685 63.1196 11.3511 62.2189 10.6276C61.7697 10.2664 61.1301 10.0599 60.3094 10.011Z" fill="#214478" fill-opacity="0.993967"/>
</g>
<path opacity="0.8" d="M55.4638 14.7038L55.4624 14.7027C54.8827 14.2476 54.0581 14.0931 53.1096 14.1351C52.1498 14.1776 50.9874 14.4242 49.6535 14.8569C47.1273 15.6764 44.2628 16.7584 40.7473 18.7776C40.6571 18.5519 40.5642 18.3171 40.4703 18.0798L40.4669 18.0713C40.3516 17.7798 40.2348 17.4849 40.1207 17.2006C44.1728 14.6767 47.7998 13.1342 51.1398 11.7136C51.5209 11.5516 51.8982 11.3911 52.272 11.2309C55.9954 9.63552 58.8796 8.90331 60.7364 9.01015C61.5107 9.05561 62.0479 9.24449 62.3959 9.51976L62.3961 9.5199C63.0398 10.0286 63.2611 11.0576 62.6039 12.8838C61.9586 14.6766 60.5408 16.9924 58.3954 19.7052C56.2556 22.4108 53.4557 25.4312 50.1527 28.5932C46.8506 31.7545 43.1148 34.9909 39.1591 38.1171C35.2033 41.2433 31.107 44.1962 27.105 46.807C23.1024 49.4182 19.2763 51.6335 15.8454 53.3281C12.4104 55.0247 9.45684 56.157 7.14755 56.6759C5.99293 56.9354 5.02952 57.0346 4.25993 56.9895C3.48781 56.9441 2.95004 56.7562 2.60105 56.4805C2.12493 56.1024 1.88904 55.4612 2.04977 54.4189C2.21194 53.3673 2.77101 51.9984 3.76739 50.3338C5.71842 47.0743 10.4123 40.7581 15.0045 36.1971C15.0467 36.2426 15.0907 36.2907 15.1361 36.3404L15.1495 36.355C15.2427 36.4569 15.3415 36.565 15.4299 36.6561C15.5105 36.7392 15.6225 36.8512 15.7282 36.9197C15.9732 37.0783 16.1149 37.1655 16.2277 37.2339C13.5897 40.1705 10.6759 44.5407 9.66294 46.5163C9.12631 47.5629 8.80885 48.5004 8.75813 49.2969C8.7064 50.109 8.93362 50.8199 9.53187 51.2954L9.53304 51.2963C9.98919 51.6566 10.5951 51.8269 11.279 51.8656C11.966 51.9044 12.7732 51.8131 13.6782 51.6097C15.4885 51.2027 17.7648 50.3295 20.3971 49.0293C25.6655 46.4271 32.0083 42.2874 38.0361 37.5238C44.0625 32.7613 49.3057 27.7452 52.6062 23.572C54.253 21.4897 55.373 19.6725 55.8997 18.2096C56.4133 16.7827 56.4299 15.4678 55.4638 14.7038Z" fill="url(#paint3_linear_1:111)" fill-opacity="0.993967" stroke="url(#paint4_linear_1:111)"/>
<path opacity="0.4" d="M14 63C19.2467 63 23.5 62.1046 23.5 61C23.5 59.8954 19.2467 59 14 59C8.75329 59 4.5 59.8954 4.5 61C4.5 62.1046 8.75329 63 14 63Z" fill="url(#paint5_radial_1:111)"/>
<path opacity="0.4" d="M49.5 63C54.7467 63 59 62.1046 59 61C59 59.8954 54.7467 59 49.5 59C44.2533 59 40 59.8954 40 61C40 62.1046 44.2533 63 49.5 63Z" fill="url(#paint6_radial_1:111)"/>
<path opacity="0.2" d="M59.5 60.5006C59.4984 61.2962 56.6004 62.0591 51.4434 62.6215C46.2863 63.184 39.2924 63.5 32 63.5C24.7076 63.5 17.7137 63.184 12.5566 62.6215C7.39955 62.0591 4.50156 61.2962 4.5 60.5006C4.49923 60.1066 5.20997 59.7164 6.59163 59.3524C7.97329 58.9883 9.9988 58.6575 12.5525 58.3789C15.1062 58.1003 18.138 57.8792 21.4749 57.7284C24.8117 57.5776 28.3882 57.5 32 57.5C35.6118 57.5 39.1883 57.5776 42.5252 57.7284C45.862 57.8792 48.8938 58.1003 51.4475 58.3789C54.0012 58.6575 56.0267 58.9883 57.4084 59.3524C58.79 59.7164 59.5008 60.1066 59.5 60.5006V60.5006Z" fill="url(#paint7_radial_1:111)"/>
</g>
<defs>
<filter id="filter0_f_1:111" x="-0.696259" y="7.30374" width="66.3925" height="54.3925" filterUnits="userSpaceOnUse" color-interpolation-filters="sRGB">
<feFlood flood-opacity="0" result="BackgroundImageFix"/>
<feBlend mode="normal" in="SourceGraphic" in2="BackgroundImageFix" result="shape"/>
<feGaussianBlur stdDeviation="1.34813" result="effect1_foregroundBlur_1:111"/>
</filter>
<linearGradient id="paint0_linear_1:111" x1="15.9999" y1="4" x2="47.9999" y2="60" gradientUnits="userSpaceOnUse">
<stop stop-color="#FFA154"/>
<stop offset="1" stop-color="#F37329"/>
</linearGradient>
<linearGradient id="paint1_linear_1:111" x1="31.9999" y1="3.04965" x2="31.9999" y2="60.9503" gradientUnits="userSpaceOnUse">
<stop stop-color="white" stop-opacity="0.54"/>
<stop offset="1" stop-color="white" stop-opacity="0.21"/>
</linearGradient>
<linearGradient id="paint2_linear_1:111" x1="16.9762" y1="9.42873" x2="47.5061" y2="58.7976" gradientUnits="userSpaceOnUse">
<stop stop-color="#FF7F2A"/>
<stop offset="1" stop-color="#D45500"/>
</linearGradient>
<linearGradient id="paint3_linear_1:111" x1="62.5" y1="8.5" x2="2.5" y2="57" gradientUnits="userSpaceOnUse">
<stop stop-color="#64BAFF"/>
<stop offset="0.536458" stop-color="#3689E6"/>
<stop offset="1" stop-color="#0D52BF"/>
</linearGradient>
<linearGradient id="paint4_linear_1:111" x1="32.5" y1="8.5" x2="32.5" y2="57.5" gradientUnits="userSpaceOnUse">
<stop stop-color="white" stop-opacity="0.38"/>
<stop offset="1" stop-color="white" stop-opacity="0.12"/>
</linearGradient>
<radialGradient id="paint5_radial_1:111" cx="0" cy="0" r="1" gradientUnits="userSpaceOnUse" gradientTransform="translate(14 61) scale(9.5 2)">
<stop/>
<stop offset="1" stop-opacity="0"/>
</radialGradient>
<radialGradient id="paint6_radial_1:111" cx="0" cy="0" r="1" gradientUnits="userSpaceOnUse" gradientTransform="translate(49.5 61) scale(9.5 2)">
<stop/>
<stop offset="1" stop-opacity="0"/>
</radialGradient>
<radialGradient id="paint7_radial_1:111" cx="0" cy="0" r="1" gradientUnits="userSpaceOnUse" gradientTransform="translate(32 60.5006) scale(27.5 3)">
<stop/>
<stop offset="1" stop-opacity="0"/>
</radialGradient>
<clipPath id="clip0_1:111">
<rect width="64" height="64" fill="white"/>
</clipPath>
</defs>
</svg>
