<?xml version="1.0" encoding="UTF-8" standalone="no"?>
<!-- Created with Inkscape (http://www.inkscape.org/) -->

<svg
   sodipodi:docname="starfish-icon-3.svg"
   id="svg5"
   version="1.1"
   viewBox="0 0 33.866666 33.866668"
   height="128"
   width="128"
   inkscape:version="1.1 (c68e22c387, 2021-05-23)"
   inkscape:export-filename="/home/josip/Pictures/16.png"
   inkscape:export-xdpi="12"
   inkscape:export-ydpi="12"
   xmlns:inkscape="http://www.inkscape.org/namespaces/inkscape"
   xmlns:sodipodi="http://sodipodi.sourceforge.net/DTD/sodipodi-0.dtd"
   xmlns:xlink="http://www.w3.org/1999/xlink"
   xmlns="http://www.w3.org/2000/svg"
   xmlns:svg="http://www.w3.org/2000/svg">
  <sodipodi:namedview
     id="namedview7"
     pagecolor="#ffffff"
     bordercolor="#666666"
     borderopacity="1.0"
     inkscape:pageshadow="2"
     inkscape:pageopacity="0.0"
     inkscape:pagecheckerboard="true"
     inkscape:document-units="px"
     showgrid="true"
     units="px"
     width="128px"
     inkscape:snap-bbox="true"
     inkscape:bbox-paths="false"
     inkscape:bbox-nodes="true"
     inkscape:snap-bbox-edge-midpoints="true"
     inkscape:snap-bbox-midpoints="true"
     inkscape:snap-object-midpoints="true"
     inkscape:snap-center="true"
     inkscape:snap-grids="true"
     showguides="false"
     inkscape:zoom="2.9433782"
     inkscape:cx="42.977827"
     inkscape:cy="25.311052"
     inkscape:window-width="1920"
     inkscape:window-height="1049"
     inkscape:window-x="0"
     inkscape:window-y="0"
     inkscape:window-maximized="1"
     inkscape:current-layer="layer1"
     inkscape:object-paths="true"
     inkscape:snap-intersection-paths="true"
     inkscape:snap-smooth-nodes="true"
     inkscape:snap-global="true"
     inkscape:snap-nodes="true">
    <inkscape:grid
       type="xygrid"
       id="grid824"
       empspacing="8" />
  </sodipodi:namedview>
  <defs
     id="defs2">
    <linearGradient
       inkscape:collect="always"
       id="linearGradient4855">
      <stop
         style="stop-color:#000000;stop-opacity:1;"
         offset="0"
         id="stop4851" />
      <stop
         style="stop-color:#000000;stop-opacity:0;"
         offset="1"
         id="stop4853" />
    </linearGradient>
    <linearGradient
       inkscape:collect="always"
       id="linearGradient4153">
      <stop
         style="stop-color:#000000;stop-opacity:1;"
         offset="0"
         id="stop4149" />
      <stop
         style="stop-color:#000000;stop-opacity:0;"
         offset="1"
         id="stop4151" />
    </linearGradient>
    <linearGradient
       inkscape:collect="always"
       id="linearGradient11430">
      <stop
         style="stop-color:#ff7f2a;stop-opacity:1"
         offset="0"
         id="stop11426" />
      <stop
         style="stop-color:#d45500;stop-opacity:1"
         offset="1"
         id="stop11428" />
    </linearGradient>
    <linearGradient
       inkscape:collect="always"
       id="linearGradient9974">
      <stop
         style="stop-color:#ff9955;stop-opacity:1"
         offset="0"
         id="stop9970" />
      <stop
         style="stop-color:#ff6600;stop-opacity:1"
         offset="1"
         id="stop9972" />
    </linearGradient>
    <linearGradient
       inkscape:collect="always"
       xlink:href="#linearGradient9974"
       id="linearGradient7675"
       x1="31.996229"
       y1="1.8994771"
       x2="95.996231"
       y2="113.89948"
       gradientUnits="userSpaceOnUse" />
    <clipPath
       clipPathUnits="userSpaceOnUse"
       id="clipPath9520">
      <path
         id="path9522"
         style="display:inline;opacity:1;fill:#ffffff;fill-opacity:0.993967;stroke:none;stroke-width:0.21603px;stroke-opacity:1"
         d="m 19.073836,15.2045 c -0.033,0.2192 -0.1565,0.4033 -0.329,0.523 -0.1684,0.1169 -0.3837,0.1722 -0.6068,0.1386 v 0 c -0.4515,-0.068 -0.7645,-0.4745 -0.6993,-0.908 v 0 c 0.0654,-0.4335 0.4843,-0.7297 0.9358,-0.6617 v 0 c 0.2143,0.0323 0.4077,0.1441 0.5389,0.311 0.0014,0.0019 0.003,0.0041 0.0045,0.006 0.1312,0.1703 0.187299,0.3829 0.1559,0.5911 z m 0.0638,-2.7912 c -0.016,0.187 -0.1098,0.35 -0.2492,0.4613 -0.1366,0.1089 -0.3214,0.2233 -0.5098,0.1949 h -2e-4 c -0.3823,-0.0577 -0.6675,-0.4043 -0.6359,-0.7753 l 10e-5,-2e-4 c 0.0317,-0.3711 0.3697,-0.6452 0.7549,-0.6123 h 2e-4 c 0.1829,0.0157 0.3526,0.0999 0.4723,0.2346 0.0015,0.0017 0.003,0.0032 0.0044,0.0049 0.1198,0.1371 0.1784,0.3141 0.1632,0.4921 z m -0.1082,-2.5742797 c -0.0022,0.15606 -0.0699,0.2979397 -0.1794,0.3995697 -0.1073,0.09971 -0.254,0.17788 -0.412,0.17005 l -3.97e-4,-10e-6 c -0.3216,-0.01614 -0.5788,-0.27416 -0.5745,-0.5857596 V 9.8225 c 0.0045,-0.3115501 0.269,-0.5604402 0.591,-0.5559801 h 2.91e-4 c 0.1531,0.00222 0.299,0.0626 0.4066,0.1680199 0.0014,0.00135 0.0028,0.00268 0.0041,0.00403 0.1072,0.10726 0.1664,0.2512299 0.1643,0.4004498 z m -0.286,-2.3112098 c 0.0084,0.1273199 -0.037,0.2483099 -0.1198,0.3392998 -0.0816,0.08966 -0.1974,0.1475402 -0.3262,0.1559801 l -5.03e-4,4e-5 c -0.263,0.01696 -0.4897,-0.1766999 -0.5065,-0.43281 v -5.291e-4 c -0.0165,-0.2560598 0.1832,-0.4775198 0.4461,-0.4947698 l 5.03e-4,-4.02e-5 c 0.1252,-0.00806 0.2485,0.03219 0.3433,0.1120201 0.0011,0.00106 0.0024,0.00212 0.0037,0.00319 0.0942,0.08107 0.1514,0.1952199 0.1594,0.3176101 z m -0.4535,-1.98261 c 0.0158,0.1015 -0.0113,0.2027399 -0.0715,0.2827798 -0.0595,0.07924 -0.149,0.1341102 -0.2514,0.1499801 -2e-4,2.99e-5 -3.97e-4,6.01e-5 -5.03e-4,9e-5 -0.2101,0.03222 -0.4061,-0.10858 -0.4381,-0.3147499 0,-2.202e-4 0,-4.498e-4 -10e-5,-6.615e-4 -0.0317,-0.20613 0.083,-0.39541 0.2889,-0.4484597 10e-5,-5.01e-5 3.97e-4,-1.202e-4 6.09e-4,-1.802e-4 0.0982,-0.025141 0.2022,-0.011239 0.2894,0.03865 0.0012,6.88e-4 0.0025,0.0014 0.0037,0.00212 0.0865,0.05072 0.1637,0.1921899 0.179,0.2904501 z m -0.6852,-1.57167 c 0.0311,0.07627 0.0297,0.16108 -0.0022,0.2358999 -0.032,0.07451 -0.0921,0.13428 -0.1688,0.16554 -2e-4,7.99e-5 -3.97e-4,2e-4 -6.09e-4,2.91e-4 -0.1583,0.06411 -0.3383,-0.010819 -0.4022,-0.1676498 -10e-5,-2.402e-4 -2e-4,-4.762e-4 -2.91e-4,-7.143e-4 -0.0636,-0.1568699 0.0129,-0.3361399 0.171101,-0.40067 2.91e-4,-1.201e-4 5.02e-4,-1.899e-4 7.93e-4,-3.175e-4 0.0756,-0.03065 0.1604,-0.03047 0.2355,6.086e-4 0.0011,4.498e-4 0.0023,8.996e-4 0.0033,0.0014 0.0743,0.03168 0.133,0.09113 0.1634,0.1656101 z m -0.4675,-0.8541401 c 0.0264,0.06486 0.026,0.13759 -0.0011,0.20216 -0.0272,0.06456 -0.0788,0.1157099 -0.1438,0.1422 -2.91e-4,1.101e-4 -5.03e-4,1.799e-4 -6.88e-4,2.911e-4 -0.1349,0.05455 -0.2885,-0.010329 -0.3435,-0.1451301 -10e-5,-2.91e-4 -2e-4,-5.292e-4 -3.97e-4,-7.937e-4 -0.0546,-0.13486 0.0103,-0.2885499 0.1451,-0.3435401 2.91e-4,-1.098e-4 6.09e-4,-2.299e-4 7.94e-4,-3.175e-4 0.0646,-0.02612 0.1371,-0.025649 0.2013,0.00143 10e-4,3.969e-4 0.0021,8.202e-4 0.003,0.0013 0.0633,0.02747 0.1132,0.07856 0.1393,0.14242 z M 14.440764,15.460294 c 0.198274,0.09912 0.3352,0.273467 0.395736,0.474514 0.05914,0.196282 0.0452,0.418133 -0.0557,0.619931 v 0 c -0.204193,0.408388 -0.68752,0.580454 -1.079655,0.384486 v 0 C 13.309077,16.743067 13.156821,16.253139 13.361014,15.84475 v 0 c 0.09694,-0.19383 0.263033,-0.343217 0.462308,-0.41642 0.0022,-7.41e-4 0.0048,-0.0016 0.0071,-0.0024 0.202508,-0.07215 0.422038,-0.05981 0.610345,0.03439 z M 11.80589,14.537089 c 0.172904,0.073 0.29894,0.212582 0.361716,0.379552 0.06136,0.163567 0.113052,0.374674 0.02782,0.545077 l -6.2e-5,1.9e-4 c -0.173013,0.345758 -0.590781,0.509894 -0.933858,0.365196 l -1.6e-4,-1.57e-4 c -0.343137,-0.144825 -0.499374,-0.550984 -0.34905,-0.907164 l 6.1e-5,-1.9e-4 c 0.07145,-0.169097 0.20397,-0.304472 0.369067,-0.376689 0.0021,-9e-4 0.004,-0.0019 0.006,-0.0027 0.167409,-0.07157 0.353854,-0.07261 0.518446,-0.0031 z M 9.3241689,13.844497 c 0.147742,0.05032 0.2617576,0.158547 0.324576,0.294093 0.061672,0.132861 0.090684,0.296536 0.034412,0.444384 l -1.331e-4,3.71e-4 c -0.1147297,0.300872 -0.4396004,0.465752 -0.7346209,0.365372 l -3.44e-4,-1.14e-4 C 8.6531398,14.848055 8.4981665,14.519589 8.6019117,14.214727 l 9.26e-5,-2.91e-4 c 0.049422,-0.144921 0.1519322,-0.265021 0.2854428,-0.334779 0.00172,-9.26e-4 0.00341,-0.0018 0.0051,-0.0027 0.1351367,-0.06881 0.2903543,-0.08062 0.4316219,-0.03251 z M 7.0376987,13.402296 c 0.1236843,0.03135 0.2247233,0.111921 0.2856733,0.218786 0.060056,0.105312 0.079319,0.233331 0.047544,0.358435 l -1.164e-4,4.76e-4 c -0.065141,0.255369 -0.3193769,0.411129 -0.5681435,0.347964 l -5.027e-4,-1.6e-4 C 6.5535271,14.264362 6.4046167,14.006001 6.4694515,13.750638 l 1.167e-4,-4.76e-4 c 0.031023,-0.121563 0.1074052,-0.22639 0.2126226,-0.291882 0.00135,-7.15e-4 0.00276,-0.0016 0.00418,-0.0025 0.1062114,-0.06454 0.2324505,-0.08366 0.3513222,-0.05345 z M 5.0119855,13.22094 c 0.1014145,0.01634 0.1893252,0.0734 0.2468448,0.155384 0.056975,0.08107 0.081503,0.18315 0.064953,0.285442 -3.33e-5,1.99e-4 -6.64e-5,3.97e-4 -6.9e-5,5.03e-4 -0.034281,0.209774 -0.2287575,0.352671 -0.4347253,0.319395 -2.092e-4,-6.8e-5 -4.233e-4,-1.36e-4 -6.614e-4,-1.12e-4 -0.2058371,-0.03355 -0.3504089,-0.201126 -0.3372358,-0.413342 -1.67e-5,-1.1e-4 9.5e-6,-4.24e-4 1.4e-5,-6.35e-4 0.00644,-0.101163 0.051793,-0.195777 0.126188,-0.263292 0.00103,-9.26e-4 0.00209,-0.0019 0.00315,-0.0029 0.074967,-0.06659 0.2333694,-0.0963 0.3315483,-0.08048 z m -1.7064856,0.165991 c 0.082148,-0.006 0.162374,0.02153 0.2236743,0.07499 0.060975,0.05346 0.099247,0.129087 0.1052761,0.211693 1.4e-5,2.15e-4 6.64e-5,4.5e-4 8.07e-5,6.61e-4 0.012054,0.170364 -0.1148307,0.318399 -0.2837312,0.330709 -2.593e-4,2.1e-5 -5.292e-4,4.2e-5 -7.673e-4,6.2e-5 -0.1688455,0.01201 -0.3157016,-0.116141 -0.3281868,-0.286539 -2.14e-5,-3.17e-4 -2.62e-5,-5.29e-4 -4.76e-5,-8.46e-4 -0.00579,-0.08137 0.020587,-0.161966 0.073363,-0.223783 7.672e-4,-8.99e-4 0.00156,-0.0019 0.00235,-0.0027 0.053089,-0.06087 0.1277692,-0.09833 0.207998,-0.104226 z m -0.9568008,0.180675 c 0.069844,-0.0051 0.1388903,0.01779 0.1919256,0.06352 0.052995,0.04582 0.085696,0.1107 0.090804,0.180704 1.2e-5,3.18e-4 1.67e-5,5.29e-4 6.9e-5,7.67e-4 0.010194,0.145155 -0.098976,0.271187 -0.2441741,0.28184 -2.963e-4,9e-6 -5.662e-4,2.7e-5 -8.758e-4,1.36e-4 -0.1451318,0.01025 -0.2712444,-0.09896 -0.2818876,-0.244158 -1.19e-5,-3.17e-4 -3.33e-5,-6.35e-4 -6.66e-5,-8.73e-4 -0.00488,-0.06951 0.017972,-0.138316 0.063556,-0.191009 6.985e-4,-8.2e-4 0.00143,-0.0017 0.00215,-0.0025 0.045686,-0.05171 0.1096958,-0.08338 0.1784956,-0.08847 z m 10.9036429,6.378047 c 0.15554,-0.15794 0.363665,-0.234289 0.573578,-0.229735 0.204951,0.0044 0.411637,0.08622 0.572379,0.244538 v 0 c 0.325301,0.320399 0.339589,0.833241 0.03204,1.145626 v 0 c -0.307714,0.312268 -0.820714,0.305675 -1.146015,-0.01472 v 0 C 13.129937,20.939269 13.039187,20.735143 13.031146,20.523 c -1.6e-5,-0.0024 -1.8e-5,-0.0051 -1.14e-4,-0.0075 -0.006,-0.214893 0.07353,-0.419864 0.221314,-0.569845 z M 11.5601,22.16628 c 0.12286,-0.141881 0.294555,-0.218617 0.472753,-0.226723 0.174521,-0.0078 0.39127,0.0083 0.526996,0.141975 l 1.62e-4,1.18e-4 c 0.275372,0.27139 0.302377,0.719432 0.05874,1.001003 l -1.99e-4,1.03e-4 c -0.243773,0.281594 -0.678332,0.304674 -0.970628,0.05164 l -1.61e-4,-1.17e-4 c -0.138741,-0.120208 -0.22654,-0.288074 -0.244205,-0.467407 -2.14e-4,-0.0023 -5.56e-4,-0.0044 -6.88e-4,-0.0066 -0.01633,-0.181333 0.04029,-0.358973 0.157217,-0.494044 z m -1.425588,2.146235 c 0.09351,-0.124962 0.231675,-0.199953 0.379999,-0.21781 0.145416,-0.0176 0.310046,0.0054 0.433268,0.104594 l 3.17e-4,2.43e-4 c 0.250693,0.202089 0.307112,0.56201 0.12048,0.811572 l -2.18e-4,2.91e-4 c -0.186766,0.249404 -0.547043,0.295291 -0.804926,0.102416 l -2.43e-4,-1.76e-4 c -0.122556,-0.09179 -0.205101,-0.226393 -0.230187,-0.374925 -3.43e-4,-0.0019 -6.87e-4,-0.0038 -9.52e-4,-0.0057 -0.02368,-0.149786 0.01305,-0.301057 0.102457,-0.420544 z M 9.007396,26.35043 c 0.068041,-0.107942 0.1758865,-0.179139 0.2963558,-0.204083 0.1187164,-0.02457 0.2464218,-0.0033 0.3555839,0.06555 l 4.233e-4,2.61e-4 c 0.2227403,0.140867 0.2923141,0.430791 0.1553678,0.647863 l -3.175e-4,5.3e-4 c -0.1371594,0.216855 -0.4288911,0.27864 -0.6517208,0.138067 l -4.234e-4,-2.62e-4 C 9.0566386,26.931282 8.980545,26.826245 8.9507733,26.705939 c -2.646e-4,-0.0016 -6.879e-4,-0.0031 -0.00111,-0.0048 -0.028558,-0.120957 -0.00774,-0.246928 0.057729,-0.350645 z m -0.7984599,1.870526 c 0.046878,-0.0914 0.1283097,-0.157379 0.2240587,-0.186748 0.094713,-0.02913 0.1993715,-0.02093 0.2915431,0.02643 1.794e-4,9.5e-5 3.704e-4,1.88e-4 4.498e-4,2.22e-4 0.188913,0.09743 0.2647201,0.326543 0.1694251,0.512146 -1.294e-4,1.8e-4 -2.588e-4,2.65e-4 -3.175e-4,5.29e-4 -0.095514,0.185396 -0.2995647,0.271108 -0.4973233,0.193 -1.103e-4,-1.8e-5 -3.968e-4,-1.37e-4 -5.82e-4,-2.06e-4 -0.094222,-0.03738 -0.1701901,-0.109757 -0.2114117,-0.201372 -5.556e-4,-0.0013 -0.00122,-0.0026 -0.00175,-0.0039 -0.040167,-0.09188 -0.019471,-0.251706 0.025908,-0.340193 z m -0.369466,1.674257 c 0.019669,-0.07998 0.070653,-0.147773 0.1404385,-0.189553 0.069684,-0.04147 0.1534382,-0.0545 0.2338641,-0.03471 2.088e-4,5.3e-5 4.498e-4,7.5e-5 6.615e-4,1.27e-4 0.1657503,0.04118 0.2673307,0.2076 0.2268445,0.372039 -6.01e-5,2.54e-4 -1.204e-4,5.29e-4 -1.805e-4,7.94e-4 -0.040752,0.164293 -0.2080144,0.264358 -0.3739306,0.223578 -3.175e-4,-7.9e-5 -5.292e-4,-1.4e-4 -8.202e-4,-2.2e-4 -0.079177,-0.01963 -0.1476761,-0.06963 -0.1901592,-0.138924 -6.086e-4,-0.0011 -0.00132,-0.0021 -0.00185,-0.0031 -0.041489,-0.0693 -0.054034,-0.1519 -0.03485,-0.230023 z m -0.1238353,0.965803 c 0.016767,-0.06799 0.059839,-0.126595 0.1197165,-0.162904 0.059953,-0.03624 0.1317633,-0.04729 0.1999197,-0.03052 3.175e-4,8.7e-5 5.027e-4,1.48e-4 7.409e-4,1.69e-4 0.1412002,0.03516 0.2273294,0.177932 0.192592,0.319318 -8.36e-5,2.64e-4 -1.497e-4,5.29e-4 -1.407e-4,7.93e-4 -0.035096,0.141198 -0.1779384,0.227389 -0.3193161,0.192643 -3.175e-4,-9e-5 -6.086e-4,-1.66e-4 -8.467e-4,-2.03e-4 -0.067616,-0.01683 -0.125993,-0.05983 -0.1620205,-0.11947 -5.556e-4,-7.94e-4 -0.00122,-0.0019 -0.00167,-0.0028 -0.035064,-0.05943 -0.045404,-0.130095 -0.028984,-0.197099 z m 9.4352932,-8.399055 c -0.102145,-0.196734 -0.110443,-0.418265 -0.04124,-0.616498 0.06753,-0.193557 0.209203,-0.364846 0.409444,-0.468798 v 0 c 0.405241,-0.210371 0.897398,-0.06548 1.099455,0.32355 v 0 c 0.201895,0.38915 0.0371,0.875004 -0.368141,1.085376 v 0 c -0.192358,0.09983 -0.414536,0.12306 -0.61878,0.06515 -0.0023,-7.14e-4 -0.0048,-0.0016 -0.0072,-0.0022 -0.206242,-0.06066 -0.376591,-0.199681 -0.473565,-0.386574 z m 1.589011,2.295628 c -0.09697,-0.16069 -0.116895,-0.347694 -0.06954,-0.519675 0.0465,-0.168394 0.128766,-0.369568 0.297878,-0.45733 l 1.62e-4,-1.18e-4 c 0.343202,-0.17803 0.77766,-0.06526 0.970164,0.253458 l 3.6e-5,2.21e-4 c 0.192482,0.318859 0.08015,0.739282 -0.250826,0.93908 l -1.62e-4,1.18e-4 c -0.157197,0.0948 -0.343979,0.126432 -0.519993,0.08781 -0.0022,-5.03e-4 -0.0043,-8.2e-4 -0.0064,-0.0014 -0.177505,-0.0405 -0.328952,-0.149251 -0.42128,-0.302191 z m 1.600659,2.019038 c -0.08995,-0.127547 -0.118574,-0.282125 -0.08972,-0.428707 0.0282,-0.143737 0.100935,-0.293206 0.233362,-0.379741 l 3.18e-4,-2.27e-4 c 0.269667,-0.175974 0.629406,-0.11841 0.809081,0.136207 l 2.18e-4,2.91e-4 c 0.179484,0.254695 0.111793,0.611519 -0.151332,0.79718 l -2.43e-4,1.74e-4 c -0.125165,0.08819 -0.278691,0.125103 -0.427706,0.103064 -0.0019,-2.62e-4 -0.0038,-5.3e-4 -0.0057,-7.94e-4 -0.149772,-0.02376 -0.282289,-0.105445 -0.3683,-0.227399 z m 1.589874,1.701702 c -0.08163,-0.09807 -0.116019,-0.222636 -0.102515,-0.344916 0.01331,-0.120499 0.07298,-0.235392 0.172219,-0.317926 l 3.71e-4,-2.64e-4 c 0.202801,-0.16831 0.500036,-0.144886 0.664165,0.05244 l 3.18e-4,5.29e-4 c 0.163857,0.197456 0.132467,0.494003 -0.07008,0.662487 l -3.71e-4,2.65e-4 c -0.09655,0.08011 -0.219962,0.120023 -0.343579,0.111162 -0.0015,-2.12e-4 -0.0032,-2.65e-4 -0.0049,-5.29e-4 -0.123861,-0.01021 -0.237233,-0.06895 -0.315644,-0.163259 z m 1.532238,1.337406 c -0.07244,-0.07283 -0.110025,-0.170664 -0.108369,-0.270801 0.0016,-0.09908 0.04172,-0.196078 0.115231,-0.269105 1.44e-4,-1.43e-4 2.91e-4,-2.65e-4 3.44e-4,-2.65e-4 0.151036,-0.149561 0.392363,-0.150857 0.539435,-0.0029 1.3e-4,1.77e-4 2.59e-4,2.64e-4 4.76e-4,5.29e-4 0.146806,0.148129 0.165268,0.368678 0.02987,0.532622 -5.1e-5,10e-5 -2.53e-4,2.65e-4 -3.7e-4,5.29e-4 -0.06467,0.07806 -0.156977,0.127945 -0.256848,0.138838 -0.0014,1.37e-4 -0.0028,2.64e-4 -0.0042,5.29e-4 -0.09979,0.0098 -0.245403,-0.05926 -0.315537,-0.129765 z m 1.478143,0.868756 c -0.06999,-0.04342 -0.118708,-0.11286 -0.136878,-0.19214 -0.01791,-0.07909 -0.0044,-0.162769 0.03926,-0.233143 1.14e-4,-1.82e-4 2.06e-4,-5.29e-4 3.17e-4,-5.29e-4 0.09039,-0.144912 0.280051,-0.190095 0.423929,-0.100775 2.22e-4,1.35e-4 4.5e-4,2.65e-4 6.62e-4,5.3e-4 0.14366,0.08953 0.187142,0.279527 0.09708,0.424719 -1.72e-4,2.65e-4 -2.91e-4,5.3e-4 -4.76e-4,7.94e-4 -0.04315,0.06923 -0.111856,0.118933 -0.190888,0.137922 -0.0012,2.65e-4 -0.0024,5.29e-4 -0.0035,7.94e-4 -0.07873,0.01804 -0.161164,0.0045 -0.229537,-0.03794 z m 0.880267,0.416224 c -0.05948,-0.03695 -0.101908,-0.09603 -0.117937,-0.164197 -0.01594,-0.06822 -0.0043,-0.139928 0.03275,-0.199565 1.78e-4,-2.65e-4 2.91e-4,-5.29e-4 3.97e-4,-5.29e-4 0.07707,-0.123423 0.239474,-0.161219 0.363203,-0.08449 2.46e-4,1.7e-4 4.76e-4,2.65e-4 7.94e-4,5.3e-4 0.123441,0.07701 0.161273,0.239495 0.08454,0.363217 -1.78e-4,2.65e-4 -3.44e-4,5.29e-4 -4.5e-4,7.94e-4 -0.03691,0.0591 -0.09584,0.101335 -0.16369,0.11717 -0.001,2.57e-4 -0.0022,5.3e-4 -0.0032,7.94e-4 -0.06736,0.01498 -0.137757,0.003 -0.196408,-0.03334 z M 20.748808,19.531768 c -0.218669,0.03635 -0.431922,-0.02421 -0.599069,-0.151282 -0.163217,-0.124033 -0.282342,-0.311707 -0.319328,-0.534271 v 0 c -0.07485,-0.450415 0.215033,-0.873711 0.647463,-0.945661 v 0 c 0.432493,-0.07176 0.843643,0.235107 0.918493,0.685522 v 0 c 0.0355,0.213793 -0.01106,0.432275 -0.12925,0.608629 -0.0014,0.0019 -0.003,0.0041 -0.0043,0.0061 -0.121423,0.177405 -0.306281,0.296456 -0.513994,0.33093 z m 2.674304,-0.801851 c -0.182792,0.04257 -0.3668,0.0037 -0.515729,-0.09445 -0.145782,-0.09626 -0.311689,-0.236666 -0.342898,-0.424622 l -6.2e-5,-1.9e-4 c -0.06326,-0.381419 0.178243,-0.759766 0.54085,-0.844358 l 2.21e-4,3.4e-5 c 0.362733,-0.08453 0.727866,0.152228 0.815609,0.528741 l 6.2e-5,1.9e-4 c 0.04159,0.1788 0.01395,0.366214 -0.07717,0.52168 -0.0012,0.002 -0.0021,0.0038 -0.0033,0.0057 -0.09337,0.156302 -0.243598,0.26673 -0.417584,0.307279 z m 2.41485,-0.8984 c -0.149102,0.04613 -0.304958,0.02559 -0.435451,-0.04715 -0.127988,-0.07124 -0.247664,-0.1866 -0.289042,-0.339287 l -1.14e-4,-3.7e-4 c -0.08403,-0.310848 0.08188,-0.635192 0.37956,-0.727392 l 3.44e-4,-1.14e-4 c 0.297692,-0.092 0.616136,0.08265 0.711398,0.390267 l 9.2e-5,2.91e-4 c 0.0452,0.146293 0.03286,0.30371 -0.03415,0.438621 -8.47e-4,0.0017 -0.0017,0.0035 -0.0026,0.0051 -0.06888,0.135099 -0.187513,0.23589 -0.330079,0.280005 z m 2.109714,-0.986206 c -0.118494,0.04733 -0.247592,0.04154 -0.359714,-0.0091 -0.110488,-0.0499 -0.201319,-0.142146 -0.249148,-0.262034 l -1.93e-4,-4.76e-4 c -0.0974,-0.244887 0.01672,-0.520336 0.255111,-0.615456 l 5.29e-4,-1.6e-4 c 0.23843,-0.09482 0.510763,0.02667 0.608407,0.271373 l 1.93e-4,4.76e-4 c 0.04635,0.116581 0.04618,0.246284 -5.29e-4,0.361113 -7.94e-4,0.0014 -0.0013,0.0029 -0.0019,0.0045 -0.04799,0.114642 -0.13888,0.204316 -0.252807,0.249745 z m 1.745435,-1.043964 c -0.09165,0.04639 -0.19631,0.0519 -0.291036,0.01938 -0.09375,-0.0321 -0.173591,-0.100265 -0.220327,-0.192749 -9e-5,-1.81e-4 -1.8e-4,-3.71e-4 -2.38e-4,-4.5e-4 -0.09557,-0.18986 -0.02222,-0.419777 0.163962,-0.513921 2.12e-4,-6.8e-5 5.29e-4,-1.36e-4 5.29e-4,-2.91e-4 0.186246,-0.09385 0.401704,-0.04325 0.515784,0.136179 8e-5,7.9e-5 2.39e-4,3.44e-4 2.65e-4,5.02e-4 0.05426,0.08563 0.07317,0.188831 0.05267,0.28718 -2.65e-4,0.0014 -5.3e-4,0.0028 -7.94e-4,0.0042 -0.02151,0.09794 -0.132199,0.215079 -0.220922,0.259994 z m 1.283007,-1.137337 c -0.06293,0.05315 -0.144018,0.07802 -0.225034,0.07081 -0.08075,-0.0074 -0.156167,-0.0461 -0.2096,-0.109383 -1.37e-4,-1.66e-4 -2.64e-4,-3.17e-4 -5.29e-4,-4.76e-4 -0.109889,-0.130741 -0.09425,-0.325086 0.03516,-0.434321 1.99e-4,-1.69e-4 2.65e-4,-3.44e-4 5.3e-4,-5.03e-4 0.129537,-0.108963 0.323675,-0.0916 0.433932,0.03891 2.07e-4,2.48e-4 2.65e-4,4.23e-4 5.29e-4,6.62e-4 0.05251,0.06243 0.07854,0.143134 0.07218,0.224165 -9.8e-5,0.0012 -1.43e-4,0.0025 -2.65e-4,0.0036 -0.0072,0.08045 -0.04557,0.154652 -0.107011,0.206579 z m 0.667869,-0.708562 c -0.05353,0.04515 -0.12282,0.06724 -0.192603,0.06142 -0.06981,-0.0059 -0.134398,-0.03919 -0.179679,-0.09282 -1.96e-4,-2.52e-4 -2.65e-4,-4.23e-4 -5.29e-4,-5.82e-4 -0.09357,-0.111441 -0.07933,-0.277572 0.03188,-0.371536 2.35e-4,-1.81e-4 5.29e-4,-3.44e-4 5.29e-4,-6.35e-4 0.111387,-0.0936 0.277611,-0.07937 0.371565,0.03184 1.95e-4,2.52e-4 5.29e-4,5.03e-4 5.29e-4,6.61e-4 0.0448,0.05337 0.06676,0.122464 0.06085,0.191887 -8e-5,0.0011 -1.3e-4,0.0022 -2.65e-4,0.0033 -0.0066,0.06869 -0.03974,0.131935 -0.0924,0.176493 z m -14.056566,6.578458 a 2.1166668,2.1166668 0 0 1 -2.667156,-1.358984 2.1166668,2.1166668 0 0 1 1.358985,-2.667155 2.1166668,2.1166668 0 0 1 2.667155,1.358983 2.1166668,2.1166668 0 0 1 -1.358984,2.667156 z" />
    </clipPath>
    <linearGradient
       inkscape:collect="always"
       xlink:href="#linearGradient11430"
       id="linearGradient11432"
       x1="8.4666672"
       y1="4.2333336"
       x2="25.4"
       y2="31.75"
       gradientUnits="userSpaceOnUse" />
    <filter
       inkscape:collect="always"
       style="color-interpolation-filters:sRGB"
       id="filter3226"
       x="-0.028889856"
       y="-0.036766938"
       width="1.0577797"
       height="1.0735339">
      <feGaussianBlur
         inkscape:collect="always"
         stdDeviation="0.35669256"
         id="feGaussianBlur3228" />
    </filter>
    <radialGradient
       inkscape:collect="always"
       xlink:href="#linearGradient4153"
       id="radialGradient4155"
       cx="7.1437502"
       cy="32.543751"
       fx="7.1437502"
       fy="32.543751"
       r="1.1906251"
       gradientTransform="matrix(-2,-5.2923996e-7,2.2675795e-6,-0.66666667,21.431177,54.239589)"
       gradientUnits="userSpaceOnUse" />
    <radialGradient
       inkscape:collect="always"
       xlink:href="#linearGradient4855"
       id="radialGradient4857"
       cx="7.1437502"
       cy="32.543751"
       fx="7.1437502"
       fy="32.543751"
       r="3.1750002"
       gradientTransform="matrix(1.9999999,-1.1666847e-7,2.4957338e-8,0.25,-7.14375,24.407814)"
       gradientUnits="userSpaceOnUse" />
    <radialGradient
       inkscape:collect="always"
       xlink:href="#linearGradient4855"
       id="radialGradient5261"
       gradientUnits="userSpaceOnUse"
       gradientTransform="matrix(2.7083333,-1.1666847e-7,3.3796396e-8,0.25,-46.202865,-40.679685)"
       cx="7.1437502"
       cy="32.543751"
       fx="7.1437502"
       fy="32.543751"
       r="3.1750002" />
    <radialGradient
       inkscape:collect="always"
       xlink:href="#linearGradient4153"
       id="radialGradient5263"
       gradientUnits="userSpaceOnUse"
       gradientTransform="matrix(-1.4444435,-5.2923996e-7,1.6376953e-6,-0.66666667,-16.536518,-10.84791)"
       cx="7.1437502"
       cy="32.543751"
       fx="7.1437502"
       fy="32.543751"
       r="1.1906251" />
  </defs>
  <g
     inkscape:label="Layer 1"
     inkscape:groupmode="layer"
     id="layer1">
    <rect
       style="opacity:0.6;fill:url(#radialGradient4155);fill-opacity:1;stroke-width:0.187088;stroke-opacity:0.999242"
       id="rect4067"
       width="2.3812501"
       height="1.5875001"
       x="4.7624998"
       y="31.75" />
    <rect
       style="opacity:0.6;fill:url(#radialGradient4857);fill-opacity:1;stroke-width:0.264583;stroke-opacity:0.999242"
       id="rect4849"
       width="6.3500004"
       height="1.5875001"
       x="7.1437502"
       y="31.75" />
    <rect
       style="opacity:0.6;fill:url(#radialGradient5263);fill-opacity:1;stroke-width:0.158994;stroke-opacity:0.999242"
       id="rect5257"
       width="1.7197907"
       height="1.5875001"
       x="-28.575001"
       y="-33.337502"
       transform="scale(-1)" />
    <rect
       style="opacity:0.6;fill:url(#radialGradient5261);fill-opacity:1;stroke-width:0.307891;stroke-opacity:0.999242"
       id="rect5259"
       width="8.598959"
       height="1.5875001"
       x="-26.855209"
       y="-33.337502"
       transform="scale(-1)" />
    <path
       sodipodi:type="star"
       style="display:inline;fill:url(#linearGradient7675);fill-opacity:1;stroke:none;stroke-width:1;stroke-miterlimit:4;stroke-dasharray:none;stroke-opacity:1"
       id="path1755"
       inkscape:flatsided="false"
       sodipodi:sides="5"
       sodipodi:cx="64"
       sodipodi:cy="64"
       sodipodi:r1="64"
       sodipodi:r2="26.981936"
       sodipodi:arg1="-1.5707963"
       sodipodi:arg2="-0.73588548"
       inkscape:rounded="0.03"
       inkscape:randomized="0"
       d="M 64.000002,0 C 65.469754,0.308236 82.785029,45.005918 84,45.888544 c 0.992741,0.721185 40.73604,-2.885602 40.86762,-1.66563 0.16103,1.493068 -36.998282,31.773216 -37.462262,33.201469 -0.379113,1.167011 15.332502,37.850577 14.212892,38.352707 C 100.24802,116.39162 59.967033,90.408098 58.465307,90.408181 57.23826,90.408249 27.20527,116.68673 26.381742,115.77709 25.373864,114.66382 37.638151,68.324972 37.174013,66.896771 36.794771,65.729801 2.5217486,45.287226 3.1323835,44.222911 3.8797119,42.920343 51.740448,40.264882 52.955322,39.382122 53.947983,38.660827 62.799081,-0.25185669 64.000002,0 Z"
       transform="matrix(0.26458334,0,0,0.26458334,9.9744426e-4,1.6140967)"
       inkscape:transform-center-y="-1.6169893" />
    <g
       id="g3193"
       transform="translate(0.38793328,1.2963993)" />
    <g
       id="g7033"
       transform="rotate(72,15.847197,18.139606)"
       inkscape:transform-center-x="-8.8448021"
       inkscape:transform-center-y="-2.0050014"
       style="display:inline" />
    <g
       id="g7049"
       transform="rotate(144,16.528754,17.935658)"
       inkscape:transform-center-x="-4.7112981"
       inkscape:transform-center-y="7.6894074"
       style="display:inline" />
    <g
       id="g7065"
       transform="rotate(-144,16.949979,17.809611)"
       inkscape:transform-center-x="5.7533501"
       inkscape:transform-center-y="6.9311732"
       style="display:inline" />
    <path
       id="path7494"
       style="display:inline;mix-blend-mode:luminosity;fill:url(#linearGradient11432);fill-opacity:1;stroke:none;stroke-width:0.264583px;stroke-linecap:butt;stroke-linejoin:miter;stroke-opacity:1"
       inkscape:transform-center-x="10.708681"
       inkscape:transform-center-y="-1.5772016"
       d="m 2.6147445,14.62658 c 2.6000096,1.700813 7.1505989,4.468161 7.2218119,4.687297 0,0 -1.0555171,-2.301765 -2.653431,-3.377358 -1.58743,-1.068542 -4.5297615,-1.306851 -4.5683809,-1.309939 z m 6.1656412,16.327977 c 2.4210163,-1.947176 6.4591303,-5.419886 6.6895463,-5.419897 0,0 -2.515281,0.292572 -4.032013,1.479902 -1.5067867,1.179538 -2.6426623,3.90422 -2.6575333,3.939995 z M 26.214502,30.136306 c -1.103739,-2.904234 -3.158636,-7.817835 -3.087445,-8.036977 0,0 -0.499012,2.482584 0.16151,4.291987 0.656185,1.797537 2.896507,3.719792 2.925935,3.74499 z m 4.609235,-16.833683 c -3.103164,0.15226 -8.411274,0.588197 -8.597692,0.452772 0,0 2.206875,1.241749 4.131832,1.172692 1.912331,-0.0686 4.432802,-1.605263 4.46586,-1.625464 z M 16.238286,3.7170858 c -0.814123,2.9983352 -2.039818,8.1813602 -2.226221,8.3168052 0,0 1.862935,-1.715141 2.392102,-3.5672241 0.525696,-1.8399348 -0.156885,-4.7118983 -0.165881,-4.7495811 z" />
    <path
       id="path9270"
       style="display:inline;opacity:1;fill:#d45500;fill-opacity:0.993967;stroke:none;stroke-width:0.21603px;stroke-opacity:1"
       d="m 19.073836,15.2045 c -0.033,0.2192 -0.1565,0.4033 -0.329,0.523 -0.1684,0.1169 -0.3837,0.1722 -0.6068,0.1386 v 0 c -0.4515,-0.068 -0.7645,-0.4745 -0.6993,-0.908 v 0 c 0.0654,-0.4335 0.4843,-0.7297 0.9358,-0.6617 v 0 c 0.2143,0.0323 0.4077,0.1441 0.5389,0.311 0.0014,0.0019 0.003,0.0041 0.0045,0.006 0.1312,0.1703 0.1873,0.3829 0.1559,0.5911 z m 0.0638,-2.7912 c -0.016,0.187 -0.1098,0.35 -0.2492,0.4613 -0.1366,0.1089 -0.3214,0.2233 -0.5098,0.1949 h -2e-4 c -0.3823,-0.0577 -0.6675,-0.4043 -0.6359,-0.7753 l 10e-5,-2e-4 c 0.0317,-0.3711 0.3697,-0.6452 0.7549,-0.6123 h 2e-4 c 0.1829,0.0157 0.3526,0.0999 0.4723,0.2346 0.0015,0.0017 0.003,0.0032 0.0044,0.0049 0.1198,0.1371 0.1784,0.3141 0.1632,0.4921 z m -0.1082,-2.5742796 c -0.0022,0.15606 -0.0699,0.2979396 -0.1794,0.3995696 -0.1073,0.09971 -0.254,0.17788 -0.412,0.17005 l -4e-4,-10e-6 c -0.3216,-0.01614 -0.5788,-0.27416 -0.5745,-0.5857596 v -3.7e-4 c 0.0045,-0.31155 0.269,-0.56044 0.591,-0.55598 h 3e-4 c 0.1531,0.00222 0.299,0.0626 0.4066,0.16802 0.0014,0.00134 0.0028,0.00268 0.0041,0.00403 0.1072,0.10726 0.1664,0.25123 0.1643,0.40045 z m -0.286,-2.31121 c 0.0084,0.12732 -0.037,0.24831 -0.1198,0.3393 -0.0816,0.08966 -0.1974,0.14754 -0.3262,0.15598 l -5e-4,4e-5 c -0.263,0.01696 -0.4897,-0.1767 -0.5065,-0.43281 v -5.2e-4 c -0.0165,-0.25606 0.1832,-0.47752 0.4461,-0.49477 l 5e-4,-4e-5 c 0.1252,-0.00806 0.2485,0.03219 0.3433,0.11202 0.0011,0.00106 0.0024,0.00212 0.0037,0.00319 0.0942,0.08107 0.1514,0.19522 0.1594,0.31761 z m -0.4535,-1.98261 c 0.0158,0.1015 -0.0113,0.20274 -0.0715,0.28278 -0.0595,0.07924 -0.149,0.13411 -0.2514,0.14998 -2e-4,3e-5 -4e-4,6e-5 -5e-4,9e-5 -0.2101,0.03222 -0.4061,-0.10858 -0.4381,-0.31475 0,-2.2e-4 0,-4.4e-4 -10e-5,-6.7e-4 -0.0317,-0.20613 0.083,-0.39541 0.2889,-0.44846 10e-5,-5e-5 4e-4,-1.2e-4 6e-4,-1.8e-4 0.0982,-0.02514 0.2022,-0.01124 0.2894,0.03865 0.0012,7e-4 0.0025,0.00139 0.0037,0.00211 0.0865,0.05072 0.1637,0.19219 0.179,0.29045 z m -0.6852,-1.57167 c 0.0311,0.07627 0.0297,0.16108 -0.0022,0.2359 -0.032,0.07451 -0.0921,0.13428 -0.1688,0.16554 -2e-4,8e-5 -4e-4,2e-4 -6e-4,2.8e-4 -0.1583,0.06411 -0.3383,-0.01082 -0.4022,-0.16765 -10e-5,-2.4e-4 -2e-4,-4.8e-4 -3e-4,-7.2e-4 -0.0636,-0.15687 0.0129,-0.33614 0.1711,-0.40067 3e-4,-1.2e-4 5e-4,-1.9e-4 8e-4,-3.1e-4 0.0756,-0.03065 0.1604,-0.03047 0.2355,6.2e-4 0.0011,4.6e-4 0.0023,9e-4 0.0033,0.0014 0.0743,0.03168 0.133,0.09113 0.1634,0.16561 z m -0.4675,-0.85414 c 0.0264,0.06486 0.026,0.13759 -0.0011,0.20216 -0.0272,0.06456 -0.0788,0.11571 -0.1438,0.1422 -3e-4,1.1e-4 -5e-4,1.8e-4 -7e-4,3e-4 -0.1349,0.05455 -0.2885,-0.01033 -0.3435,-0.14513 -10e-5,-2.8e-4 -2e-4,-5.3e-4 -4e-4,-7.9e-4 -0.0546,-0.13486 0.0103,-0.28855 0.1451,-0.34354 3e-4,-1.1e-4 6e-4,-2.3e-4 8e-4,-3.3e-4 0.0646,-0.02612 0.1371,-0.02565 0.2013,0.00142 0.001,4.1e-4 0.0021,8.2e-4 0.003,0.00129 0.0633,0.02747 0.1132,0.07856 0.1393,0.14242 z M 14.440764,15.460294 c 0.198274,0.09912 0.3352,0.273467 0.395736,0.474514 0.05914,0.196282 0.0452,0.418133 -0.0557,0.619931 v 0 c -0.204193,0.408388 -0.68752,0.580454 -1.079655,0.384486 v 0 C 13.309077,16.743067 13.156821,16.253139 13.361014,15.84475 v 0 c 0.09694,-0.19383 0.263033,-0.343217 0.462308,-0.41642 0.0022,-7.45e-4 0.0048,-0.0016 0.0071,-0.0024 0.202508,-0.07215 0.422038,-0.05981 0.610345,0.03439 z M 11.80589,14.537089 c 0.172904,0.073 0.29894,0.212582 0.361716,0.379552 0.06136,0.163567 0.113052,0.374674 0.02782,0.545077 l -6.2e-5,1.9e-4 c -0.173013,0.345758 -0.590781,0.509894 -0.933858,0.365196 l -1.6e-4,-1.57e-4 c -0.343137,-0.144825 -0.499374,-0.550984 -0.34905,-0.907164 l 6.1e-5,-1.9e-4 c 0.07145,-0.169097 0.20397,-0.304472 0.369067,-0.376689 0.0021,-9.01e-4 0.004,-0.0019 0.006,-0.0027 0.16741,-0.07157 0.353855,-0.07261 0.518446,-0.0031 z M 9.3241689,13.844497 c 0.1477421,0.05032 0.2617575,0.158547 0.324576,0.294093 0.061672,0.132861 0.090684,0.296536 0.034412,0.444384 l -1.331e-4,3.77e-4 C 9.5682941,14.884223 9.2434233,15.049103 8.9484029,14.948723 L 8.948051,14.948609 C 8.6531399,14.848055 8.4981664,14.519589 8.6019116,14.214727 l 9.27e-5,-2.85e-4 c 0.049422,-0.144921 0.1519322,-0.265021 0.2854428,-0.334779 0.00171,-9.17e-4 0.00341,-0.0018 0.0051,-0.0027 0.1351369,-0.06881 0.2903543,-0.08062 0.431622,-0.03251 z M 7.0376987,13.402296 c 0.1236843,0.03135 0.2247233,0.111921 0.2856733,0.218786 0.060056,0.105312 0.079319,0.233331 0.047544,0.358435 l -1.164e-4,4.88e-4 c -0.065141,0.255369 -0.3193769,0.411129 -0.5681435,0.347964 l -4.946e-4,-1.6e-4 C 6.5535352,14.264374 6.4046249,14.006013 6.4694598,13.75065 l 1.165e-4,-4.88e-4 c 0.031023,-0.121563 0.1074052,-0.22639 0.2126228,-0.291882 0.00135,-7.18e-4 0.00276,-0.0016 0.00418,-0.0025 0.1062115,-0.06454 0.2324504,-0.08366 0.3513223,-0.05345 z M 5.0119854,13.22094 c 0.1014147,0.01634 0.1893253,0.0734 0.246845,0.155384 0.056975,0.08107 0.081503,0.18315 0.064953,0.285442 -3.33e-5,1.99e-4 -6.65e-5,3.99e-4 -6.89e-5,5.03e-4 -0.034281,0.209774 -0.2287575,0.352671 -0.4347254,0.319395 -2.092e-4,-6.8e-5 -4.185e-4,-1.36e-4 -6.681e-4,-1.12e-4 -0.2058371,-0.03355 -0.3504088,-0.201126 -0.3372358,-0.413342 -1.66e-5,-1.1e-4 9.5e-6,-4.17e-4 1.42e-5,-6.26e-4 0.00644,-0.101163 0.051793,-0.195777 0.1261879,-0.263292 0.00104,-9.25e-4 0.00209,-0.0019 0.00315,-0.0029 0.074967,-0.06659 0.2333696,-0.0963 0.3315484,-0.08048 z m -1.7064855,0.165991 c 0.082148,-0.006 0.162374,0.02153 0.2236744,0.07499 0.060975,0.05346 0.099247,0.129087 0.1052759,0.211693 1.42e-5,2.15e-4 6.66e-5,4.43e-4 8.08e-5,6.57e-4 0.012055,0.170364 -0.1148308,0.318399 -0.2837312,0.330709 -2.592e-4,2.1e-5 -5.183e-4,4.2e-5 -7.775e-4,6.2e-5 -0.1688457,0.01201 -0.3157018,-0.116141 -0.328187,-0.286539 -2.14e-5,-3.23e-4 -2.62e-5,-5.34e-4 -4.76e-5,-8.57e-4 -0.00579,-0.08137 0.020588,-0.161965 0.073363,-0.223782 7.774e-4,-9.04e-4 0.00157,-0.0019 0.00235,-0.0027 0.053089,-0.06087 0.127769,-0.09833 0.2079978,-0.104226 z m -0.9568008,0.180675 c 0.069844,-0.0051 0.1388903,0.01779 0.1919256,0.06352 0.052995,0.04582 0.085696,0.1107 0.090804,0.180704 1.2e-5,3.19e-4 1.67e-5,5.31e-4 6.9e-5,7.59e-4 0.010194,0.145154 -0.098976,0.271187 -0.2441741,0.28184 -2.972e-4,8e-6 -5.659e-4,2.6e-5 -8.75e-4,1.36e-4 -0.1451318,0.01025 -0.2712444,-0.09896 -0.2818876,-0.244158 -1.19e-5,-3.19e-4 -3.33e-5,-6.42e-4 -6.66e-5,-8.63e-4 -0.00488,-0.06951 0.017972,-0.138316 0.063556,-0.191009 6.99e-4,-8.24e-4 0.00143,-0.0017 0.00215,-0.0025 0.045686,-0.05171 0.1096958,-0.08338 0.1784956,-0.08847 z m 10.9036429,6.378047 c 0.15554,-0.15794 0.363665,-0.234289 0.573578,-0.229735 0.204951,0.0044 0.411637,0.08622 0.572379,0.244538 v 0 c 0.325301,0.320399 0.339589,0.833241 0.03204,1.145626 v 0 c -0.307714,0.312268 -0.820714,0.305675 -1.146015,-0.01472 v 0 C 13.129937,20.939269 13.039187,20.735143 13.031146,20.523 c -1.6e-5,-0.0024 -1.8e-5,-0.0051 -1.14e-4,-0.0075 -0.006,-0.214893 0.07353,-0.419864 0.221314,-0.569845 z M 11.5601,22.16628 c 0.12286,-0.141881 0.294555,-0.218617 0.472753,-0.226723 0.174521,-0.0078 0.39127,0.0083 0.526996,0.141975 l 1.62e-4,1.18e-4 c 0.275372,0.27139 0.302377,0.719432 0.05874,1.001003 l -1.99e-4,1.03e-4 c -0.243773,0.281594 -0.678332,0.304674 -0.970628,0.05164 l -1.61e-4,-1.17e-4 c -0.138741,-0.120208 -0.22654,-0.288074 -0.244205,-0.467407 -2.14e-4,-0.0023 -5.46e-4,-0.0044 -6.79e-4,-0.0066 -0.01633,-0.181333 0.04029,-0.358973 0.157217,-0.494044 z m -1.425588,2.146235 c 0.09351,-0.124962 0.231675,-0.199953 0.379999,-0.21781 0.145416,-0.0176 0.310046,0.0054 0.433268,0.104594 l 3.18e-4,2.43e-4 c 0.250693,0.202089 0.307112,0.56201 0.120479,0.811572 l -2.18e-4,3e-4 c -0.186765,0.249404 -0.547043,0.295291 -0.804925,0.102416 l -2.43e-4,-1.76e-4 c -0.122556,-0.09179 -0.205101,-0.226393 -0.230187,-0.374925 -3.45e-4,-0.0019 -6.9e-4,-0.0038 -9.48e-4,-0.0057 -0.02368,-0.149786 0.01305,-0.301057 0.102457,-0.420544 z M 9.007396,26.35043 c 0.068041,-0.107942 0.1758865,-0.179139 0.2963557,-0.204083 0.1187166,-0.02457 0.2464218,-0.0033 0.3555841,0.06555 l 4.28e-4,2.61e-4 c 0.2227403,0.140867 0.292314,0.430792 0.1553678,0.647864 l -3.056e-4,4.21e-4 c -0.1371596,0.216855 -0.4288912,0.278639 -0.651721,0.138066 l -4.281e-4,-2.61e-4 C 9.0566505,26.931173 8.980557,26.826136 8.9507851,26.70583 c -2.669e-4,-0.0015 -6.955e-4,-0.0031 -0.00112,-0.0048 -0.028558,-0.120956 -0.00774,-0.246927 0.057729,-0.350644 z m -0.7984598,1.870525 c 0.046878,-0.0914 0.1283095,-0.157378 0.2240587,-0.186747 0.094713,-0.02913 0.1993714,-0.02092 0.2915429,0.02643 1.794e-4,9.3e-5 3.588e-4,1.87e-4 4.574e-4,2.21e-4 0.1889129,0.09743 0.2647201,0.326543 0.1694249,0.512147 -1.293e-4,1.78e-4 -2.586e-4,3.56e-4 -3.129e-4,6.01e-4 -0.095514,0.185395 -0.2995646,0.271107 -0.4973232,0.193 -1.103e-4,-1.8e-5 -3.941e-4,-1.38e-4 -5.912e-4,-2.07e-4 -0.094222,-0.03738 -0.1701899,-0.109757 -0.2114116,-0.201373 -5.594e-4,-0.0013 -0.00121,-0.0026 -0.00175,-0.0039 -0.040167,-0.09188 -0.01947,-0.251706 0.025908,-0.340193 z m -0.369466,1.674259 c 0.01967,-0.07998 0.070653,-0.147774 0.1404384,-0.189554 0.069684,-0.04147 0.1534383,-0.0545 0.2338641,-0.03471 2.088e-4,5.3e-5 4.411e-4,7.3e-5 6.499e-4,1.26e-4 0.1657503,0.04118 0.2673307,0.207601 0.2268445,0.372039 -6.02e-5,2.53e-4 -1.204e-4,5.06e-4 -1.805e-4,7.59e-4 -0.040752,0.164294 -0.2080145,0.26436 -0.3739307,0.223579 -3.133e-4,-8e-5 -5.162e-4,-1.4e-4 -8.295e-4,-2.2e-4 -0.079177,-0.01964 -0.1476761,-0.06963 -0.190159,-0.138925 -6.196e-4,-0.001 -0.00133,-0.0021 -0.00185,-0.0031 -0.041489,-0.0693 -0.054034,-0.151901 -0.03485,-0.230025 z m -0.1238354,0.965803 c 0.016766,-0.06799 0.059839,-0.126595 0.1197166,-0.162904 0.059953,-0.03624 0.1317631,-0.04729 0.1999197,-0.03052 3.073e-4,8.7e-5 5.103e-4,1.48e-4 7.426e-4,1.69e-4 0.1412001,0.03516 0.2273296,0.177933 0.1925921,0.319317 -8.37e-5,2.85e-4 -1.497e-4,5.46e-4 -1.408e-4,8.74e-4 -0.035096,0.141197 -0.1779383,0.227387 -0.3193161,0.192642 -3.073e-4,-8.8e-5 -6.206e-4,-1.67e-4 -8.411e-4,-2.03e-4 -0.067616,-0.01684 -0.125993,-0.05983 -0.1620205,-0.11947 -5.68e-4,-9.2e-4 -0.00122,-0.0019 -0.00167,-0.0028 -0.035064,-0.05943 -0.045404,-0.130094 -0.028984,-0.197099 z m 9.4352932,-8.399056 c -0.102145,-0.196734 -0.110443,-0.418265 -0.04124,-0.616498 0.06753,-0.193557 0.209203,-0.364846 0.409444,-0.468798 v 0 c 0.405241,-0.210371 0.897398,-0.06548 1.099455,0.32355 v 0 c 0.201895,0.38915 0.0371,0.875004 -0.368141,1.085376 v 0 c -0.192358,0.09983 -0.414536,0.12306 -0.61878,0.06515 -0.0023,-7.14e-4 -0.0048,-0.0016 -0.0072,-0.0022 -0.206242,-0.06066 -0.376591,-0.199681 -0.473565,-0.386574 z m 1.589011,2.295628 c -0.09697,-0.16069 -0.116895,-0.347694 -0.06954,-0.519675 0.0465,-0.168394 0.128766,-0.369568 0.297878,-0.45733 l 1.62e-4,-1.18e-4 c 0.343202,-0.17803 0.77766,-0.06526 0.970164,0.253458 l 3.6e-5,2.21e-4 c 0.192482,0.318859 0.08015,0.739282 -0.250826,0.93908 l -1.62e-4,1.18e-4 c -0.157197,0.0948 -0.343979,0.126432 -0.519993,0.08781 -0.0022,-4.94e-4 -0.0043,-8.25e-4 -0.0064,-0.0014 -0.177505,-0.0405 -0.328952,-0.149251 -0.42128,-0.302191 z m 1.600659,2.019038 c -0.08995,-0.127548 -0.118574,-0.282124 -0.08972,-0.428707 0.0282,-0.143737 0.100935,-0.293206 0.233362,-0.379741 l 3.29e-4,-2.27e-4 c 0.269667,-0.175974 0.629406,-0.11841 0.809081,0.136207 l 2.18e-4,2.99e-4 c 0.179484,0.254695 0.111793,0.61152 -0.151332,0.797179 l -2.43e-4,1.76e-4 c -0.125165,0.08819 -0.278691,0.125103 -0.427706,0.103063 -0.0019,-2.62e-4 -0.0038,-5.23e-4 -0.0057,-8.51e-4 -0.149772,-0.02376 -0.282289,-0.105442 -0.3683,-0.227398 z m 1.589874,1.701702 c -0.08163,-0.09807 -0.116019,-0.222635 -0.102515,-0.344916 0.01331,-0.1205 0.07298,-0.235391 0.172219,-0.317926 l 3.81e-4,-3.26e-4 c 0.202802,-0.168309 0.500037,-0.144886 0.664166,0.05244 l 3.06e-4,4.21e-4 c 0.163857,0.197458 0.132467,0.494004 -0.07008,0.662488 l -3.81e-4,3.26e-4 c -0.09655,0.08011 -0.219962,0.120023 -0.34358,0.111161 -0.0015,-2.11e-4 -0.0032,-3.05e-4 -0.0049,-4.06e-4 -0.123861,-0.01022 -0.237233,-0.06895 -0.315644,-0.163259 z m 1.532238,1.337405 c -0.07244,-0.07283 -0.110025,-0.170663 -0.108369,-0.270801 0.0016,-0.09908 0.04172,-0.196077 0.115231,-0.269105 1.44e-4,-1.42e-4 2.88e-4,-2.84e-4 3.52e-4,-3.67e-4 0.151036,-0.14956 0.392363,-0.150857 0.539435,-0.0029 1.3e-4,1.78e-4 2.59e-4,3.56e-4 4.75e-4,4.83e-4 0.146806,0.14813 0.165268,0.36868 0.02987,0.532623 -5.1e-5,10e-5 -2.53e-4,3.33e-4 -3.79e-4,4.99e-4 -0.06467,0.07806 -0.156977,0.127943 -0.256848,0.138836 -0.0014,1.39e-4 -0.0028,3.45e-4 -0.0042,4.68e-4 -0.09979,0.0098 -0.245403,-0.05926 -0.315537,-0.129765 z m 1.478143,0.868757 c -0.06999,-0.04342 -0.118708,-0.112859 -0.136878,-0.19214 -0.01791,-0.07909 -0.0044,-0.16277 0.03926,-0.233143 1.14e-4,-1.82e-4 2.06e-4,-3.97e-4 3.2e-4,-5.79e-4 0.09039,-0.144913 0.280051,-0.190095 0.423929,-0.100776 2.22e-4,1.35e-4 4.44e-4,2.71e-4 6.66e-4,4.06e-4 0.14366,0.08953 0.187142,0.279526 0.09708,0.424719 -1.72e-4,2.74e-4 -2.92e-4,4.48e-4 -4.65e-4,7.21e-4 -0.04315,0.06923 -0.111856,0.118932 -0.190888,0.137922 -0.0012,2.74e-4 -0.0024,6.24e-4 -0.0035,8.07e-4 -0.07873,0.01804 -0.161164,0.0045 -0.229537,-0.03794 z m 0.880267,0.416224 c -0.05948,-0.03695 -0.101908,-0.09603 -0.117937,-0.164197 -0.01594,-0.06822 -0.0043,-0.139929 0.03275,-0.199566 1.78e-4,-2.65e-4 2.99e-4,-4.4e-4 3.9e-4,-6.54e-4 0.07707,-0.123424 0.239474,-0.161219 0.363203,-0.08449 2.46e-4,1.68e-4 4.73e-4,3.11e-4 7.88e-4,4.04e-4 0.123441,0.07701 0.161273,0.239496 0.08454,0.363217 -1.78e-4,2.66e-4 -3.5e-4,5.39e-4 -4.53e-4,7.38e-4 -0.03691,0.0591 -0.09584,0.101336 -0.16369,0.117172 -10e-4,2.56e-4 -0.0022,5.71e-4 -0.0032,7.2e-4 -0.06736,0.01498 -0.137757,0.003 -0.196408,-0.03334 z M 20.748808,19.531768 c -0.218669,0.03635 -0.431922,-0.02421 -0.599069,-0.151282 -0.163217,-0.124033 -0.282342,-0.311707 -0.319328,-0.534271 v 0 c -0.07485,-0.450415 0.215033,-0.873711 0.647463,-0.945661 v 0 c 0.432493,-0.07176 0.843643,0.235107 0.918493,0.685522 v 0 c 0.0355,0.213793 -0.01106,0.432275 -0.12925,0.608629 -0.0014,0.0019 -0.003,0.0041 -0.0043,0.0061 -0.121422,0.177405 -0.306281,0.296456 -0.513994,0.33093 z m 2.674304,-0.801851 c -0.182792,0.04257 -0.3668,0.0037 -0.515729,-0.09445 -0.145782,-0.09626 -0.311689,-0.236666 -0.342898,-0.424622 l -6.2e-5,-1.9e-4 c -0.06326,-0.381419 0.178243,-0.759766 0.54085,-0.844358 l 2.21e-4,3.4e-5 c 0.362733,-0.08453 0.727866,0.152228 0.815609,0.528741 l 6.2e-5,1.9e-4 c 0.04159,0.1788 0.01395,0.366214 -0.07717,0.52168 -0.0012,0.002 -0.0021,0.0038 -0.0033,0.0057 -0.09337,0.156302 -0.243598,0.26673 -0.417583,0.307279 z m 2.41485,-0.8984 c -0.149102,0.04613 -0.304958,0.02559 -0.435451,-0.04715 -0.127988,-0.07124 -0.247664,-0.1866 -0.289042,-0.339287 l -1.14e-4,-3.83e-4 c -0.08403,-0.310848 0.08188,-0.635192 0.37956,-0.727392 l 3.52e-4,-1.14e-4 c 0.297692,-0.092 0.616136,0.08265 0.711398,0.390267 l 9.2e-5,2.85e-4 c 0.0452,0.146293 0.03286,0.30371 -0.03415,0.438621 -8.42e-4,0.0017 -0.0017,0.0035 -0.0026,0.0051 -0.06888,0.135099 -0.187513,0.23589 -0.330079,0.280005 z m 2.109713,-0.986206 c -0.118493,0.04733 -0.247591,0.04154 -0.359714,-0.0091 -0.110488,-0.0499 -0.201319,-0.142146 -0.249147,-0.262034 l -1.93e-4,-4.63e-4 c -0.0974,-0.244887 0.01673,-0.520336 0.25511,-0.615456 l 4.94e-4,-1.6e-4 c 0.238429,-0.09482 0.510761,0.02667 0.608407,0.271373 l 1.93e-4,4.64e-4 c 0.04635,0.116581 0.04618,0.246284 -4.52e-4,0.361113 -6.68e-4,0.0014 -0.0013,0.0029 -0.0019,0.0045 -0.04799,0.114642 -0.13888,0.204316 -0.252807,0.249745 z m 1.745435,-1.043964 c -0.09165,0.04639 -0.19631,0.0519 -0.291035,0.01938 -0.09375,-0.0321 -0.17359,-0.100265 -0.220326,-0.192749 -9.1e-5,-1.81e-4 -1.81e-4,-3.62e-4 -2.4e-4,-4.48e-4 -0.09557,-0.18986 -0.02223,-0.419777 0.163964,-0.513921 2.1e-4,-6.8e-5 4.19e-4,-1.36e-4 6.07e-4,-3.02e-4 0.186245,-0.09385 0.401705,-0.04325 0.515785,0.136179 7.9e-5,7.9e-5 2.38e-4,3.43e-4 3.57e-4,5.15e-4 0.05426,0.08563 0.07317,0.18883 0.05267,0.287179 -2.95e-4,0.0014 -5.49e-4,0.0028 -8.63e-4,0.0042 -0.02151,0.09794 -0.132198,0.215078 -0.22092,0.259993 z m 1.283008,-1.137337 c -0.06293,0.05315 -0.144018,0.07802 -0.225034,0.07081 -0.08075,-0.0074 -0.156168,-0.0461 -0.2096,-0.109383 -1.38e-4,-1.66e-4 -3.14e-4,-3.19e-4 -4.52e-4,-4.85e-4 -0.109889,-0.130741 -0.09425,-0.325086 0.03516,-0.434321 1.98e-4,-1.69e-4 3.95e-4,-3.39e-4 5.92e-4,-5.08e-4 0.129539,-0.108963 0.323675,-0.0916 0.433933,0.03891 2.07e-4,2.48e-4 3.35e-4,4.17e-4 5.42e-4,6.65e-4 0.05251,0.06243 0.07854,0.143134 0.07218,0.224165 -9.8e-5,0.0012 -1.45e-4,0.0025 -3.12e-4,0.0036 -0.0072,0.08045 -0.04557,0.154652 -0.107011,0.206579 z m 0.66787,-0.708562 c -0.05353,0.04515 -0.122821,0.06724 -0.192605,0.06142 -0.06981,-0.0059 -0.134398,-0.03919 -0.179677,-0.09282 -1.98e-4,-2.52e-4 -3.26e-4,-4.2e-4 -5.02e-4,-5.73e-4 -0.09357,-0.111441 -0.07933,-0.277572 0.03188,-0.371536 2.35e-4,-1.81e-4 4.42e-4,-3.54e-4 6.27e-4,-6.24e-4 0.111387,-0.0936 0.277611,-0.07937 0.371565,0.03184 1.97e-4,2.52e-4 4.04e-4,5e-4 5.61e-4,6.59e-4 0.0448,0.05337 0.06676,0.122464 0.06085,0.191887 -8.1e-5,0.0011 -1.31e-4,0.0022 -2.99e-4,0.0033 -0.0066,0.06869 -0.03974,0.131936 -0.0924,0.176493 z m -14.056567,6.578458 a 2.1166668,2.1166668 0 0 1 -2.667156,-1.358984 2.1166668,2.1166668 0 0 1 1.358985,-2.667155 2.1166668,2.1166668 0 0 1 2.667155,1.358983 2.1166668,2.1166668 0 0 1 -1.358984,2.667156 z" />
    <path
       id="rect9377"
       style="display:inline;opacity:1;fill:#803300;fill-opacity:0.993967;stroke-width:0.264583"
       d="M 0.24001674,0.34818135 V 34.786389 H 34.761941 V 0.34818135 Z M 17.219342,3.2487796 c 0.03422,2.363e-4 0.06815,0.00714 0.100252,0.020672 0.001,3.969e-4 0.0022,0.00108 0.0031,0.00156 0.0633,0.02747 0.113427,0.07825 0.139527,0.1421101 0.0264,0.06486 0.02555,0.1380016 -0.0016,0.2025718 -0.0272,0.06456 -0.07866,0.1156201 -0.14366,0.1421101 0,0 -5.29e-4,0 -5.29e-4,0 -0.1349,0.05455 -0.288648,-0.0099 -0.343648,-0.144694 -10e-5,-2.91e-4 -3.18e-4,-7.673e-4 -5.3e-4,-0.00103 -0.0546,-0.1348599 0.01041,-0.2886583 0.145211,-0.3436482 2.91e-4,-1.101e-4 8.2e-4,9.97e-5 0.001,0 0.0323,-0.01306 0.06654,-0.019873 0.100769,-0.019637 z m 0.425814,0.8283732 c 0.04004,10e-5 0.08027,0.00771 0.117822,0.023254 0.0011,4.498e-4 0.0021,0.00106 0.0031,0.00156 0.0743,0.03168 0.132898,0.090885 0.163297,0.1653646 0.0311,0.07627 0.02983,0.1613414 -0.0021,0.2361613 -0.032,0.07451 -0.09228,0.1341046 -0.168982,0.1653646 0,0 -5.29e-4,5.291e-4 -5.29e-4,5.291e-4 -0.1583,0.06411 -0.338143,-0.011118 -0.402043,-0.1679482 l -5.29e-4,-5.292e-4 c -0.0636,-0.1568701 0.01285,-0.3364791 0.171049,-0.4010091 2.91e-4,-1.201e-4 7.41e-4,1.199e-4 0.001,0 0.0378,-0.015325 0.07778,-0.022839 0.117822,-0.022738 z m 0.572058,1.4190348 c 0.07477,-0.00436 0.149574,0.012708 0.214974,0.050126 0.0012,6.879e-4 0.0024,0.00185 0.0036,0.00259 0.0865,0.05072 0.1635,0.1921616 0.1788,0.2904215 0.0158,0.1015 -0.01111,0.2026301 -0.07131,0.2826702 -0.0595,0.07924 -0.149264,0.1339917 -0.251664,0.1498616 0,0 -5.3e-4,0 -5.3e-4,0 -0.2101,0.03222 -0.405699,-0.1085395 -0.437699,-0.3147094 0,0 -5.29e-4,-5.292e-4 -5.29e-4,-5.292e-4 -0.0317,-0.20613 0.08297,-0.3955015 0.288871,-0.4485516 10e-5,-5e-5 8.47e-4,6.01e-5 0.001,0 0.02455,-0.00628 0.04949,-0.010433 0.07441,-0.011885 z m 0.344165,1.8929078 h 5.29e-4 c 0.1252,-0.00806 0.248332,0.031791 0.343132,0.1116211 0.0011,0.00106 0.0023,0.00254 0.0036,0.00362 0.0942,0.08107 0.15168,0.1949035 0.15968,0.3172934 0.0084,0.1273199 -0.03709,0.2485242 -0.119889,0.3395141 -0.0816,0.08966 -0.197279,0.147623 -0.326079,0.1560629 h -5.29e-4 c -0.263,0.016961 -0.489629,-0.176938 -0.506429,-0.433048 V 7.8836265 C 18.098912,7.6275664 18.298479,7.406333 18.561379,7.3890829 Z m 0.217558,2.1714439 h 5.29e-4 c 0.1531,0.00222 0.298577,0.062528 0.406177,0.1679482 0.0014,0.00135 0.0028,0.00278 0.0041,0.00414 0.1072,0.1072599 0.166431,0.2512724 0.164331,0.4004915 -0.0022,0.15606 -0.06982,0.297829 -0.179317,0.399459 -0.1073,0.09971 -0.253861,0.177846 -0.411861,0.170016 h -5.29e-4 c -0.3216,-0.01614 -0.578942,-0.274412 -0.574642,-0.586011 0.0045,-0.3115496 0.269178,-0.560498 0.591178,-0.5560379 z m -0.02842,2.4122557 c 0.02364,-2.91e-4 0.04776,5.29e-4 0.07183,0.0026 0.1829,0.0157 0.352623,0.09991 0.472323,0.234611 0.0015,0.0017 0.0033,0.0035 0.0047,0.0052 0.1198,0.1371 0.178498,0.31396 0.163298,0.49196 -0.016,0.187 -0.110198,0.35017 -0.249598,0.46147 -0.1366,0.1089 -0.321129,0.22322 -0.509529,0.19482 h -5.29e-4 c -0.3823,-0.0577 -0.66722,-0.404146 -0.63562,-0.775146 v -5.29e-4 c 0.02972,-0.347906 0.328517,-0.610586 0.683162,-0.61495 z M 5.254181,13.511202 c 0.029828,-0.0016 0.058138,-3.43e-4 0.082682,0.0036 0.1014148,0.01634 0.1889771,0.07356 0.2464967,0.155546 0.056975,0.08107 0.081662,0.182962 0.065112,0.285254 0,0 0,5.3e-4 0,5.3e-4 -0.034281,0.209773 -0.2286309,0.352636 -0.4345987,0.31936 -2.093e-4,-6.8e-5 -7.938e-4,-2.4e-5 -0.00103,0 -0.2058371,-0.03355 -0.3501033,-0.201196 -0.3369302,-0.413412 0,0 0,-5.29e-4 0,-5.29e-4 0.00644,-0.101163 0.051696,-0.196035 0.1260904,-0.26355 0.00103,-9.26e-4 0.00204,-0.0016 0.0031,-0.0026 0.056225,-0.04994 0.1595964,-0.07943 0.2490803,-0.08423 z m -1.6236733,0.169499 c 0.082148,-0.006 0.1619416,0.02147 0.2232421,0.07493 0.060975,0.05346 0.099391,0.129267 0.1054198,0.211874 0,0 0,5.29e-4 0,5.29e-4 0.012054,0.170364 -0.1148032,0.318419 -0.2837037,0.330729 0,0 -5.292e-4,0 -5.292e-4,0 -0.1688457,0.01201 -0.31566,-0.11589 -0.3281452,-0.286288 -2.14e-5,-3.17e-4 2.14e-5,-7.14e-4 0,-10e-4 -0.00579,-0.08137 0.02009,-0.161942 0.072864,-0.223759 7.673e-4,-8.99e-4 0.0018,-0.0018 0.00259,-0.0026 0.053089,-0.06087 0.1280274,-0.09849 0.2082562,-0.104387 z m 3.641638,0.0021 c 0.030211,0.0015 0.060716,0.0059 0.090434,0.01343 0.1236845,0.03135 0.2248207,0.111727 0.2857709,0.218592 0.060056,0.105312 0.079317,0.23353 0.047542,0.358634 l -5.292e-4,5.3e-4 c -0.065141,0.255337 -0.3191573,0.410916 -0.5679239,0.347751 H 7.1269103 C 6.878284,14.558303 6.7292794,14.299875 6.7941142,14.044512 v -5.29e-4 c 0.031023,-0.121563 0.1076894,-0.22648 0.2129068,-0.291972 0.00135,-7.14e-4 0.00271,-0.0012 0.00414,-0.0021 0.079659,-0.04841 0.1703337,-0.07152 0.2609659,-0.06718 z m 24.5488903,0.101802 c 0.06722,0.0058 0.131824,0.0369 0.1788,0.0925 0,0 5.3e-4,5.29e-4 5.3e-4,5.29e-4 0.0448,0.05337 0.06689,0.122814 0.06098,0.192237 -8.2e-5,0.0011 1.67e-4,0.002 0,0.0031 -0.0066,0.06857 -0.04001,0.131672 -0.0925,0.176216 -0.05353,0.04515 -0.12297,0.06732 -0.192754,0.0615 -0.06981,-0.0059 -0.134554,-0.03887 -0.179832,-0.0925 0,0 -5.29e-4,-5.29e-4 -5.29e-4,-5.29e-4 -0.09357,-0.111441 -0.07917,-0.277589 0.03204,-0.371553 2.35e-4,-1.81e-4 2.64e-4,-7.68e-4 5.29e-4,-10e-4 0.0557,-0.0468 0.125529,-0.06622 0.192754,-0.06046 z m -29.147576,0.077 c 0.069844,-0.0051 0.1386843,0.01783 0.1917196,0.06356 0.052995,0.04582 0.085843,0.110863 0.09095,0.180867 0,0 0,5.29e-4 0,5.29e-4 0.010194,0.145155 -0.098715,0.270984 -0.2439128,0.281637 -2.963e-4,8e-6 -7.249e-4,3.97e-4 -0.00103,5.29e-4 -0.1451318,0.01025 -0.2709933,-0.09923 -0.2816366,-0.244429 0,0 -5.159e-4,-5.3e-4 -5.159e-4,-5.3e-4 -0.00488,-0.06951 0.017978,-0.138509 0.063562,-0.191202 6.985e-4,-8.2e-4 0.00186,-0.0018 0.00259,-0.0026 0.045686,-0.05171 0.1094839,-0.08328 0.1782837,-0.08837 z m 6.8125042,0.248047 c 0.055104,0.0013 0.1098053,0.0109 0.1627807,0.02894 0.1477423,0.05032 0.2617095,0.158493 0.3245285,0.294039 0.06167,0.132861 0.0909,0.29657 0.03462,0.444418 v 5.29e-4 c -0.1146932,0.30086 -0.4397819,0.46572 -0.7348024,0.36534 v -5.29e-4 C 8.9781463,15.141809 8.8230801,14.81342 8.9268253,14.508558 c 0.049422,-0.144921 0.1517433,-0.265106 0.2852539,-0.334864 0.00172,-9.26e-4 0.00348,-0.0017 0.00517,-0.0026 0.084461,-0.04301 0.1768772,-0.06373 0.2687175,-0.0615 z m 21.6400228,0.303857 c 0.07851,0.007 0.154162,0.0443 0.20929,0.109554 0,0 5.29e-4,5.29e-4 5.29e-4,5.29e-4 0.05251,0.06243 0.07871,0.143245 0.07235,0.224276 -9.8e-5,0.0012 1.67e-4,0.0025 0,0.0036 -0.0072,0.08045 -0.04604,0.154779 -0.107487,0.206706 -0.06293,0.05315 -0.143777,0.07801 -0.224793,0.0708 -0.08075,-0.0074 -0.156374,-0.04627 -0.209806,-0.109554 0,0 0,-5.29e-4 0,-5.29e-4 -0.10989,-0.130741 -0.09427,-0.324847 0.03514,-0.434082 0,0 5.29e-4,-5.29e-4 5.29e-4,-5.29e-4 0.06477,-0.05448 0.145767,-0.07783 0.224274,-0.0708 z m -12.594063,0.167948 c 0.05479,-0.0024 0.110994,2.91e-4 0.167431,0.0088 0.2143,0.0323 0.407785,0.144192 0.538985,0.311092 0.0014,0.0019 0.0026,0.0043 0.0041,0.0062 0.1312,0.170299 0.187463,0.382978 0.156063,0.591178 -0.033,0.2192 -0.156679,0.403265 -0.329179,0.522965 -0.1684,0.1169 -0.383582,0.172093 -0.606682,0.138493 -0.451501,-0.068 -0.764383,-0.474455 -0.699183,-0.907955 0.05722,-0.379312 0.384885,-0.653693 0.768429,-0.67076 z m -6.659543,0.198438 c 0.08811,-5.29e-4 0.176087,0.0164 0.258383,0.05116 0.172904,0.073 0.298959,0.212335 0.361735,0.379305 0.06136,0.163567 0.113137,0.374783 0.0279,0.545186 l -5.29e-4,5.29e-4 c -0.173013,0.345758 -0.590716,0.509534 -0.933793,0.364836 -0.343137,-0.144825 -0.49914,-0.550742 -0.348816,-0.906922 v -5.29e-4 c 0.07145,-0.169097 0.203872,-0.304504 0.36897,-0.376721 0.0021,-8.99e-4 0.0037,-0.0018 0.0057,-0.0026 0.08371,-0.03578 0.172338,-0.05374 0.260449,-0.05426 z m 18.013371,0.581877 c 0.118621,0.0077 0.229457,0.06976 0.300757,0.181901 0,0 5.29e-4,5.29e-4 5.29e-4,5.29e-4 0.05426,0.08563 0.07321,0.188455 0.05271,0.286804 -2.65e-4,0.0014 -7.94e-4,0.0027 -0.0011,0.0041 -0.02151,0.09794 -0.131937,0.215535 -0.220659,0.26045 v -5.3e-4 c -0.09165,0.04639 -0.196729,0.05216 -0.291455,0.01964 -0.09375,-0.0321 -0.173405,-0.100269 -0.220141,-0.192753 0,0 0,-5.3e-4 0,-5.3e-4 -0.09557,-0.189859 -0.02238,-0.419519 0.163814,-0.513663 0,0 5.29e-4,-5.29e-4 5.29e-4,-5.29e-4 0.06984,-0.03519 0.143804,-0.05008 0.214974,-0.04548 z m -15.498278,0.312608 c 0.130306,-0.0057 0.260579,0.02123 0.378271,0.0801 v -5.3e-4 c 0.198274,0.09912 0.334789,0.27386 0.395325,0.474907 0.05914,0.196282 0.04561,0.417802 -0.05529,0.6196 -0.204193,0.408388 -0.687903,0.580441 -1.080038,0.384473 -0.392068,-0.196158 -0.544223,-0.686118 -0.34003,-1.094507 0.09694,-0.19383 0.263229,-0.342792 0.462504,-0.415995 0.0022,-7.41e-4 0.0044,-0.0018 0.0067,-0.0026 0.07594,-0.02706 0.15436,-0.04204 0.232544,-0.04548 z m 13.713375,0.545703 c 0.181758,0.0056 0.353097,0.119813 0.426331,0.303341 l 5.29e-4,5.29e-4 c 0.04635,0.116581 0.04612,0.246389 -5.29e-4,0.361218 -7.94e-4,0.0014 -0.0016,0.0025 -0.0021,0.0041 -0.04799,0.114642 -0.138768,0.204685 -0.252695,0.250114 -0.118494,0.04733 -0.247547,0.04134 -0.359669,-0.0093 -0.110488,-0.0499 -0.201253,-0.142111 -0.249082,-0.261999 l -5.29e-4,-5.3e-4 c -0.0974,-0.244887 0.01691,-0.520346 0.255283,-0.615466 h 5.29e-4 c 0.05961,-0.0237 0.121315,-0.03392 0.181901,-0.03204 z m -10.676868,0.484725 a 2.1166668,2.1166668 0 0 1 1.847432,1.455725 2.1166668,2.1166668 0 0 1 -1.35909,2.667538 2.1166668,2.1166668 0 0 1 -2.667537,-1.359091 2.1166668,2.1166668 0 0 1 1.35909,-2.667537 2.1166668,2.1166668 0 0 1 0.820105,-0.09663 z m 8.562268,0.281637 c 0.24123,0.0027 0.465719,0.165023 0.54312,0.414961 v 5.3e-4 c 0.0452,0.146293 0.0329,0.303305 -0.03411,0.438216 -8.47e-4,0.0017 -0.0017,0.0036 -0.0026,0.0052 -0.06881,0.134953 -0.187336,0.235896 -0.329696,0.280086 0,0 -5.29e-4,0 -5.29e-4,0 -0.148956,0.04594 -0.304763,0.02564 -0.435115,-0.04702 -0.127989,-0.07124 -0.247494,-0.186828 -0.288872,-0.339514 h -5.29e-4 c -0.08403,-0.310849 0.08214,-0.635405 0.379822,-0.727605 0.05582,-0.01725 0.112797,-0.02542 0.168465,-0.0248 z m -2.420524,0.656807 c 0.314091,-0.0062 0.603287,0.216255 0.680062,0.545703 0.04159,0.1788 0.01412,0.366466 -0.077,0.521932 -0.0012,0.002 -0.0019,0.0038 -0.0031,0.0057 -0.09337,0.156302 -0.244077,0.266926 -0.418062,0.307474 -0.182792,0.04257 -0.366802,0.0036 -0.515731,-0.09457 -0.145782,-0.09626 -0.311406,-0.236825 -0.342615,-0.424781 -0.06326,-0.381419 0.177929,-0.759801 0.540536,-0.844393 h 5.29e-4 c 0.04534,-0.01057 0.09052,-0.01617 0.135392,-0.01705 z M 20.9633,18.184819 c 0.369456,0.01682 0.692082,0.300935 0.757576,0.695048 0.0355,0.213793 -0.011,0.432395 -0.129191,0.608749 -0.0014,0.0019 -0.0028,0.0042 -0.0041,0.0062 -0.121422,0.177406 -0.306468,0.296256 -0.514181,0.33073 -0.218669,0.03635 -0.431783,-0.02382 -0.59893,-0.150895 -0.163217,-0.124033 -0.282374,-0.311771 -0.31936,-0.534335 -0.07485,-0.450415 0.215076,-0.873729 0.647506,-0.945679 0.05406,-0.009 0.107934,-0.01222 0.160713,-0.0098 z m -6.812505,1.825212 c 0.204951,0.0044 0.411317,0.08611 0.572059,0.244429 0.325301,0.320399 0.339588,0.833282 0.03204,1.145667 -0.307714,0.312268 -0.820366,0.305409 -1.145667,-0.01499 -0.154387,-0.152093 -0.245173,-0.356298 -0.253214,-0.568441 -1.6e-5,-0.0024 9.6e-5,-0.0048 0,-0.0072 -0.006,-0.214893 0.07339,-0.42001 0.221175,-0.569991 0.15554,-0.15794 0.363695,-0.233997 0.573608,-0.229443 z m 4.08709,1.564246 c 0.290637,5.55e-4 0.566469,0.152154 0.705383,0.419612 0.201895,0.38915 0.0373,0.87535 -0.367936,1.085722 -0.192358,0.09983 -0.41484,0.123022 -0.619084,0.06511 -0.0023,-7.14e-4 -0.0048,-0.0015 -0.0072,-0.0021 -0.206242,-0.06066 -0.376382,-0.199646 -0.473356,-0.386539 -0.102145,-0.196734 -0.110544,-0.418267 -0.04134,-0.6165 0.06753,-0.193557 0.209553,-0.36527 0.409794,-0.469222 0.126638,-0.06574 0.261667,-0.09637 0.393775,-0.09612 z m -5.880262,0.659391 c 0.174521,-0.0078 0.391374,0.0079 0.5271,0.141593 v 5.29e-4 c 0.275372,0.27139 0.302548,0.719402 0.05891,1.000973 h -5.29e-4 c -0.243773,0.281594 -0.678188,0.30471 -0.970483,0.05168 -0.138742,-0.120208 -0.226765,-0.288338 -0.24443,-0.467671 -2.14e-4,-0.0023 -3.71e-4,-0.0045 -5.29e-4,-0.0067 -0.01633,-0.181333 0.04017,-0.358956 0.157096,-0.494027 0.12286,-0.141881 0.294641,-0.218237 0.472839,-0.226343 z m 7.273975,1.756482 c 0.252792,-0.0031 0.499656,0.118328 0.632003,0.337447 v 5.29e-4 c 0.192482,0.318859 0.07983,0.739163 -0.251148,0.938961 -0.157197,0.0948 -0.343851,0.126472 -0.519865,0.08785 -0.0022,-5.03e-4 -0.0046,-4.5e-4 -0.0067,-0.001 -0.177505,-0.0405 -0.328835,-0.149367 -0.421163,-0.302307 -0.09697,-0.16069 -0.117119,-0.347884 -0.06976,-0.519865 0.0465,-0.168394 0.129061,-0.369575 0.298173,-0.457337 0.107251,-0.05563 0.223576,-0.08281 0.338481,-0.08423 z m -8.680607,0.393257 c 0.113425,0.0037 0.229011,0.03568 0.321427,0.110071 h 5.29e-4 c 0.250693,0.202089 0.307039,0.561758 0.120406,0.81132 v 5.29e-4 c -0.186765,0.249404 -0.547236,0.295195 -0.805118,0.10232 h -5.29e-4 c -0.122557,-0.0918 -0.204875,-0.226652 -0.229961,-0.375184 -3.44e-4,-0.0019 -7.67e-4,-0.0038 -10e-4,-0.0057 -0.02368,-0.149786 0.01291,-0.300642 0.10232,-0.420129 0.09351,-0.124962 0.232014,-0.200218 0.380338,-0.218075 0.03635,-0.0044 0.07381,-0.0064 0.111621,-0.0052 z m 10.185425,1.777153 c 0.18702,-0.0037 0.369844,0.07858 0.482141,0.237711 0.179484,0.254695 0.111713,0.611709 -0.151412,0.797368 -0.125165,0.08819 -0.278866,0.125394 -0.427881,0.103354 -0.0019,-2.62e-4 -0.0038,-7.94e-4 -0.0057,-0.0011 -0.149772,-0.02376 -0.282442,-0.10542 -0.368453,-0.227377 -0.08995,-0.127548 -0.118254,-0.282329 -0.0894,-0.428913 0.0282,-0.143737 0.100633,-0.293287 0.233061,-0.379822 h 5.29e-4 c 0.101125,-0.06599 0.214899,-0.09905 0.327112,-0.101286 z M 9.7190249,26.430311 c 0.091118,-0.0012 0.1832285,0.02381 0.2651005,0.07545 l 5.29e-4,5.3e-4 c 0.2227396,0.140867 0.2919746,0.430434 0.1550286,0.647506 v 5.29e-4 c -0.13716,0.216855 -0.4288097,0.278551 -0.6516397,0.137978 H 9.4875142 C 9.381488,27.225223 9.3054128,27.120118 9.2756409,26.999812 c -2.646e-4,-0.0016 -6.086e-4,-0.003 -0.00103,-0.0047 -0.028558,-0.120957 -0.00811,-0.247166 0.057361,-0.350883 0.068041,-0.107942 0.1761535,-0.179178 0.2966225,-0.204122 0.029679,-0.0061 0.060061,-0.0094 0.090434,-0.0098 z m 12.9526981,1.567862 c 0.120175,0.0095 0.235745,0.06463 0.31781,0.163298 l 5.29e-4,5.29e-4 c 0.163857,0.197459 0.132267,0.494009 -0.07028,0.662493 l -5.29e-4,5.29e-4 c -0.09655,0.08011 -0.22003,0.119968 -0.343648,0.111107 -0.0015,-2.12e-4 -0.003,-5.3e-4 -0.0047,-5.3e-4 -0.123861,-0.01021 -0.237332,-0.06899 -0.315743,-0.163295 -0.08163,-0.09807 -0.115823,-0.222919 -0.102319,-0.345199 0.01331,-0.1205 0.07284,-0.235276 0.172083,-0.31781 h 5.29e-4 c 0.101401,-0.08416 0.226057,-0.120589 0.346232,-0.111106 z M 8.9046043,28.312884 c 0.049525,0.0043 0.098608,0.01818 0.144694,0.04186 0,0 5.291e-4,0 5.291e-4,0 0.1889131,0.09743 0.264794,0.326509 0.169499,0.512114 0,0 -5.292e-4,5.3e-4 -5.292e-4,5.3e-4 -0.095514,0.185396 -0.2993686,0.271377 -0.4971272,0.19327 0,0 -5.291e-4,-5.29e-4 -5.291e-4,-5.29e-4 -0.094222,-0.03738 -0.1701351,-0.109406 -0.2113566,-0.201023 -5.557e-4,-0.0013 -0.00153,-0.0028 -0.00206,-0.0041 -0.040167,-0.09188 -0.01954,-0.251545 0.025839,-0.340032 0.046878,-0.0914 0.1285264,-0.157184 0.2242757,-0.186553 0.047356,-0.01458 0.097236,-0.01984 0.1467609,-0.0155 z m 15.1613487,1.143598 c 0.0976,-5.29e-4 0.194664,0.03609 0.268201,0.110072 0,0 5.29e-4,5.29e-4 5.29e-4,5.29e-4 0.146806,0.14813 0.16537,0.368324 0.02997,0.532268 0,0 -5.29e-4,5.29e-4 -5.29e-4,5.29e-4 -0.06467,0.07806 -0.156961,0.128116 -0.256832,0.139009 -0.0014,1.41e-4 -0.0027,2.65e-4 -0.0041,5.3e-4 -0.09979,0.0098 -0.245609,-0.0592 -0.315744,-0.12971 -0.07244,-0.07283 -0.110176,-0.170645 -0.10852,-0.270782 0.0016,-0.09908 0.04173,-0.196207 0.115238,-0.269235 0,0 5.3e-4,-5.29e-4 5.3e-4,-5.29e-4 0.07552,-0.07478 0.173706,-0.112128 0.271301,-0.112655 z M 8.477757,29.956195 c 0.020251,7.94e-4 0.040872,0.0038 0.060978,0.0088 0,0 5.292e-4,0 5.292e-4,0 0.1657504,0.04118 0.2673459,0.207632 0.2268596,0.372071 l -5.292e-4,5.29e-4 c -0.040752,0.164293 -0.2077045,0.264541 -0.3736208,0.223758 -3.175e-4,-7.9e-5 -7.143e-4,8.2e-5 -0.00103,0 -0.079177,-0.01963 -0.1476865,-0.06971 -0.1901693,-0.139009 -6.085e-4,-0.0011 -0.00103,-0.0021 -0.00156,-0.0031 -0.041489,-0.0693 -0.054324,-0.151836 -0.03514,-0.229963 0.019669,-0.07998 0.070775,-0.14787 0.1405599,-0.18965 0.052263,-0.03111 0.1123641,-0.04615 0.1731161,-0.04341 z m 16.941085,0.450102 c 0.05918,-0.0024 0.119678,0.01199 0.173633,0.04547 0,0 5.29e-4,5.3e-4 5.29e-4,5.3e-4 0.14366,0.08953 0.187213,0.279585 0.09715,0.424778 0,0 -5.3e-4,5.29e-4 -5.3e-4,5.29e-4 -0.04315,0.06923 -0.11217,0.118986 -0.191203,0.137975 -0.0012,2.64e-4 -0.002,7.93e-4 -0.0031,0.0011 -0.07873,0.01805 -0.161587,0.0042 -0.22996,-0.03824 -0.06999,-0.04342 -0.118256,-0.112956 -0.136426,-0.192239 -0.01791,-0.07909 -0.0044,-0.162687 0.03927,-0.23306 0,0 0,-5.3e-4 0,-5.3e-4 0.05649,-0.09057 0.151995,-0.142076 0.250631,-0.146243 z m 0.856278,0.49971 c 0.05074,-0.0019 0.102947,0.01101 0.149345,0.03979 0,0 5.29e-4,5.29e-4 5.29e-4,5.29e-4 0.123441,0.07701 0.161483,0.239564 0.08475,0.363286 0,0 -5.29e-4,5.29e-4 -5.29e-4,5.29e-4 -0.03691,0.0591 -0.09596,0.101471 -0.163815,0.117306 -0.001,2.57e-4 -0.0021,2.65e-4 -0.0031,5.29e-4 -0.06736,0.01498 -0.137719,0.0033 -0.19637,-0.03307 -0.05948,-0.03695 -0.101793,-0.09616 -0.117822,-0.164332 -0.01594,-0.06822 -0.0045,-0.139835 0.03256,-0.19947 1.78e-4,-2.64e-4 4.23e-4,-7.94e-4 5.29e-4,-0.0011 0.04817,-0.07714 0.12938,-0.120835 0.21394,-0.124024 z m -17.9668617,0.04806 c 0.017254,7.94e-4 0.034637,0.003 0.051677,0.0072 3.175e-4,8.8e-5 7.937e-4,5.29e-4 0.00103,5.29e-4 0.1412002,0.03516 0.2269739,0.177975 0.1922362,0.31936 0,0 0,5.3e-4 0,5.3e-4 -0.035096,0.141197 -0.1779825,0.227499 -0.3193603,0.192754 0,0 -5.291e-4,0 -5.291e-4,0 -0.067616,-0.01685 -0.1262364,-0.05973 -0.162264,-0.119375 -5.556e-4,-7.94e-4 -0.00111,-0.0021 -0.00156,-0.0031 -0.035064,-0.05943 -0.045359,-0.129883 -0.028939,-0.196889 0.016767,-0.06799 0.059495,-0.126987 0.1193726,-0.163296 0.044965,-0.02718 0.096551,-0.03999 0.1483114,-0.03772 z"
       clip-path="url(#clipPath9520)" />
    <path
       sodipodi:type="star"
       style="display:inline;fill:none;fill-opacity:1;stroke:#aa4400;stroke-width:1.3;stroke-miterlimit:4;stroke-dasharray:none;stroke-opacity:0.999242"
       id="path1009"
       inkscape:flatsided="false"
       sodipodi:sides="5"
       sodipodi:cx="64"
       sodipodi:cy="64"
       sodipodi:r1="64"
       sodipodi:r2="26.981936"
       sodipodi:arg1="-1.5707963"
       sodipodi:arg2="-0.73588548"
       inkscape:rounded="0.03"
       inkscape:randomized="0"
       d="M 64.000002,0 C 65.469754,0.308236 82.785029,45.005918 84,45.888544 c 0.992741,0.721185 40.73604,-2.885602 40.86762,-1.66563 0.16103,1.493068 -36.998282,31.773216 -37.462262,33.201469 -0.379113,1.167011 15.332502,37.850577 14.212892,38.352707 C 100.24802,116.39162 59.967033,90.408098 58.465307,90.408181 57.23826,90.408249 27.20527,116.68673 26.381742,115.77709 25.373864,114.66382 37.638151,68.324972 37.174013,66.896771 36.794771,65.729801 2.5217486,45.287226 3.1323835,44.222911 3.8797119,42.920343 51.740448,40.264882 52.955322,39.382122 53.947983,38.660827 62.799081,-0.25185669 64.000002,0 Z"
       transform="matrix(0.26458334,0,0,0.26458334,9.9744426e-4,1.6140967)"
       inkscape:transform-center-y="-1.6169893" />
    <path
       id="path3112"
       style="display:inline;fill:#214478;fill-opacity:0.993967;stroke:none;stroke-width:0.724498;stroke-miterlimit:4;stroke-dasharray:none;filter:url(#filter3226)"
       d="M 30.707573,4.7677204 A 4.1103091,18.38933 52.57884 0 0 20.423445,9.1488486 c 0.155265,0.3775389 0.288781,0.6988413 0.437183,1.0588504 A 3.0827317,13.791996 52.57884 0 1 28.025566,7.8967285 3.0827317,13.791996 52.57884 0 1 19.696358,18.367408 3.0827317,13.791996 52.57884 0 1 6.3700394,24.911711 3.0827317,13.791996 52.57884 0 1 9.2282629,19.369414 C 9.0188867,19.229932 8.8330388,19.10379 8.5569861,18.92603 8.4602907,18.863764 8.3088712,18.769378 8.2055863,18.703304 A 4.1103091,18.38933 52.57884 0 0 2.7604405,27.747715 4.1103091,18.38933 52.57884 0 0 20.529382,19.022148 4.1103091,18.38933 52.57884 0 0 31.635166,5.0607259 4.1103091,18.38933 52.57884 0 0 30.707573,4.7677204 Z" />
    <path
       id="path13035"
       style="display:inline;fill:#3771c8;fill-opacity:0.993967;stroke:none;stroke-width:2.73826;stroke-miterlimit:4;stroke-dasharray:none"
       d="M 115.06055,16.019531 A 15.535026,69.502979 52.57884 0 0 76.191406,32.578125 c 0.586825,1.426919 1.091455,2.64129 1.652344,4.001953 A 11.651269,52.127228 52.57884 0 1 104.92383,27.845703 11.651269,52.127228 52.57884 0 1 73.443359,67.419922 11.651269,52.127228 52.57884 0 1 23.076172,92.154297 11.651269,52.127228 52.57884 0 1 33.878906,71.207031 C 33.087563,70.679855 32.385146,70.2031 31.341797,69.53125 30.976334,69.295915 30.40404,68.939182 30.013672,68.689453 A 15.535026,69.502979 52.57884 0 0 9.4335938,102.87305 15.535026,69.502979 52.57884 0 0 76.591797,69.894531 15.535026,69.502979 52.57884 0 0 118.56641,17.126953 15.535026,69.502979 52.57884 0 0 115.06055,16.019531 Z"
       transform="scale(0.26458334)" />
  </g>
</svg>
